G04 Layer_Color=128*
%FSLAX25Y25*%
%MOIN*%
G70*
G01*
G75*
%ADD18R,0.02756X0.03740*%
%ADD19R,0.03740X0.02756*%
%ADD22R,0.03347X0.03740*%
%ADD57R,0.15748X0.09843*%
%ADD58R,0.06299X0.13976*%
%ADD59R,0.05512X0.07087*%
%ADD60R,0.04331X0.07677*%
%ADD61R,0.13386X0.07677*%
D18*
X168701Y206693D02*
D03*
X173819D02*
D03*
X210039Y203740D02*
D03*
X215158D02*
D03*
X168701Y97441D02*
D03*
X173819D02*
D03*
X173819Y104331D02*
D03*
X168701D02*
D03*
X309646Y183071D02*
D03*
X304528D02*
D03*
X287992D02*
D03*
X282874D02*
D03*
X255315Y141732D02*
D03*
X260433D02*
D03*
X255315Y149606D02*
D03*
X260433D02*
D03*
X329331Y177165D02*
D03*
X324213D02*
D03*
X329331Y184055D02*
D03*
X324213D02*
D03*
X336024Y58071D02*
D03*
X341142D02*
D03*
D19*
X222441Y190354D02*
D03*
Y195472D02*
D03*
X230315Y195473D02*
D03*
Y190354D02*
D03*
X226378Y146260D02*
D03*
Y141142D02*
D03*
Y152953D02*
D03*
Y158071D02*
D03*
X317913Y150197D02*
D03*
Y145079D02*
D03*
X261811Y91142D02*
D03*
Y86024D02*
D03*
X274606Y104724D02*
D03*
Y109843D02*
D03*
X281496Y109843D02*
D03*
Y104724D02*
D03*
X291339Y96063D02*
D03*
Y90945D02*
D03*
D22*
X355020Y51181D02*
D03*
X349705D02*
D03*
X335925D02*
D03*
X341240D02*
D03*
X386516Y57087D02*
D03*
X381201D02*
D03*
X386516Y63976D02*
D03*
X381201D02*
D03*
X366831Y85630D02*
D03*
X361516D02*
D03*
X345342Y135000D02*
D03*
X350658D02*
D03*
D57*
X369882Y27559D02*
D03*
X393898D02*
D03*
D58*
X338090Y69882D02*
D03*
X315453D02*
D03*
D59*
X339075Y85630D02*
D03*
X349902D02*
D03*
D60*
X357480Y97638D02*
D03*
X348425D02*
D03*
X339370D02*
D03*
D61*
X348425Y122835D02*
D03*
M02*
