G04 Layer_Physical_Order=2*
G04 Layer_Color=16711680*
%FSLAX25Y25*%
%MOIN*%
G70*
G01*
G75*
%ADD18R,0.02756X0.03740*%
%ADD19R,0.03740X0.02756*%
%ADD22R,0.03347X0.03740*%
%ADD33C,0.02000*%
%ADD34C,0.01200*%
%ADD35C,0.01000*%
%ADD36C,0.03000*%
%ADD39C,0.01500*%
%ADD40C,0.06000*%
%ADD41C,0.02500*%
%ADD42C,0.00984*%
%ADD43C,0.04000*%
%ADD45C,0.07874*%
%ADD46R,0.07874X0.07874*%
%ADD47C,0.06000*%
%ADD48C,0.06300*%
%ADD49R,0.06300X0.06300*%
%ADD50C,0.06799*%
%ADD51R,0.06799X0.06799*%
%ADD52R,0.06799X0.06799*%
%ADD53C,0.19685*%
%ADD54C,0.03000*%
%ADD55C,0.05000*%
%ADD56C,0.04000*%
%ADD57R,0.15748X0.09843*%
%ADD58R,0.06299X0.13976*%
%ADD59R,0.05512X0.07087*%
%ADD60R,0.04331X0.07677*%
%ADD61R,0.13386X0.07677*%
G36*
X412714Y230299D02*
X412385Y230163D01*
X410930Y229271D01*
X409632Y228163D01*
X408524Y226865D01*
X407632Y225410D01*
X406979Y223833D01*
X406581Y222174D01*
X406565Y221972D01*
X417323D01*
Y220472D01*
X418823D01*
Y209714D01*
X419024Y209730D01*
X420684Y210129D01*
X422261Y210782D01*
X423716Y211673D01*
X425013Y212782D01*
X426122Y214080D01*
X427013Y215535D01*
X427150Y215863D01*
X428150Y215665D01*
Y20556D01*
X427150Y20357D01*
X427013Y20686D01*
X426122Y22141D01*
X425013Y23439D01*
X423716Y24547D01*
X422261Y25439D01*
X420684Y26092D01*
X419024Y26490D01*
X418823Y26506D01*
Y15748D01*
X417323D01*
Y14248D01*
X406565D01*
X406581Y14047D01*
X406979Y12387D01*
X407632Y10810D01*
X408524Y9355D01*
X409632Y8057D01*
X410930Y6949D01*
X412385Y6057D01*
X412714Y5921D01*
X412515Y4921D01*
X148564D01*
X148498Y5921D01*
X148682Y5945D01*
X149655Y6348D01*
X150491Y6990D01*
X151132Y7825D01*
X151346Y8343D01*
X147638D01*
X143930D01*
X144144Y7825D01*
X144785Y6990D01*
X145621Y6348D01*
X146594Y5945D01*
X146777Y5921D01*
X146712Y4921D01*
X20556D01*
X20357Y5921D01*
X20686Y6057D01*
X22141Y6949D01*
X23439Y8057D01*
X24547Y9355D01*
X25439Y10810D01*
X26092Y12387D01*
X26490Y14047D01*
X26506Y14248D01*
X15748D01*
Y15748D01*
X14248D01*
Y26506D01*
X14047Y26490D01*
X12387Y26092D01*
X10810Y25439D01*
X10715Y25380D01*
X9843Y25869D01*
Y210352D01*
X10715Y210840D01*
X10810Y210782D01*
X12387Y210129D01*
X14047Y209730D01*
X14248Y209714D01*
Y220472D01*
X15748D01*
Y221972D01*
X26506D01*
X26490Y222174D01*
X26092Y223833D01*
X25439Y225410D01*
X24547Y226865D01*
X23439Y228163D01*
X22141Y229271D01*
X20686Y230163D01*
X20357Y230299D01*
X20556Y231299D01*
X349972D01*
Y221063D01*
X350034Y220751D01*
X350211Y220486D01*
X350475Y220309D01*
X350787Y220247D01*
X382283D01*
X382596Y220309D01*
X382860Y220486D01*
X383037Y220751D01*
X383099Y221063D01*
Y231299D01*
X412515D01*
X412714Y230299D01*
D02*
G37*
%LPC*%
G36*
X203941Y222645D02*
Y220004D01*
X206582D01*
X206284Y220723D01*
X205579Y221642D01*
X204660Y222347D01*
X203941Y222645D01*
D02*
G37*
G36*
X162602D02*
Y220004D01*
X165243D01*
X164945Y220723D01*
X164240Y221642D01*
X163321Y222347D01*
X162602Y222645D01*
D02*
G37*
G36*
X200941D02*
X200222Y222347D01*
X199303Y221642D01*
X198598Y220723D01*
X198300Y220004D01*
X200941D01*
Y222645D01*
D02*
G37*
G36*
X159602D02*
X158884Y222347D01*
X157965Y221642D01*
X157259Y220723D01*
X156962Y220004D01*
X159602D01*
Y222645D01*
D02*
G37*
G36*
X206582Y217004D02*
X203941D01*
Y214363D01*
X204660Y214661D01*
X205579Y215366D01*
X206284Y216285D01*
X206582Y217004D01*
D02*
G37*
G36*
X165243D02*
X162602D01*
Y214363D01*
X163321Y214661D01*
X164240Y215366D01*
X164945Y216285D01*
X165243Y217004D01*
D02*
G37*
G36*
X200941D02*
X198300D01*
X198598Y216285D01*
X199303Y215366D01*
X200222Y214661D01*
X200941Y214363D01*
Y217004D01*
D02*
G37*
G36*
X159602D02*
X156962D01*
X157259Y216285D01*
X157965Y215366D01*
X158884Y214661D01*
X159602Y214363D01*
Y217004D01*
D02*
G37*
G36*
X309318Y222704D02*
X300919D01*
Y214304D01*
X309318D01*
Y222704D01*
D02*
G37*
G36*
X267979D02*
X259580D01*
Y214304D01*
X267979D01*
Y222704D01*
D02*
G37*
G36*
X285118Y222740D02*
X284022Y222595D01*
X283000Y222172D01*
X282123Y221499D01*
X281450Y220622D01*
X281027Y219600D01*
X280882Y218504D01*
X281027Y217408D01*
X281450Y216386D01*
X282123Y215509D01*
X283000Y214836D01*
X284022Y214412D01*
X285118Y214268D01*
X286214Y214412D01*
X287236Y214836D01*
X288113Y215509D01*
X288787Y216386D01*
X289210Y217408D01*
X289354Y218504D01*
X289210Y219600D01*
X288787Y220622D01*
X288113Y221499D01*
X287236Y222172D01*
X286214Y222595D01*
X285118Y222740D01*
D02*
G37*
G36*
X253780D02*
X252683Y222595D01*
X251662Y222172D01*
X250784Y221499D01*
X250111Y220622D01*
X249688Y219600D01*
X249544Y218504D01*
X249688Y217408D01*
X250111Y216386D01*
X250784Y215509D01*
X251662Y214836D01*
X252683Y214412D01*
X253780Y214268D01*
X254876Y214412D01*
X255897Y214836D01*
X256775Y215509D01*
X257448Y216386D01*
X257871Y217408D01*
X258015Y218504D01*
X257871Y219600D01*
X257448Y220622D01*
X256775Y221499D01*
X255897Y222172D01*
X254876Y222595D01*
X253780Y222740D01*
D02*
G37*
G36*
X243779D02*
X242683Y222595D01*
X241662Y222172D01*
X240784Y221499D01*
X240111Y220622D01*
X239688Y219600D01*
X239544Y218504D01*
X239688Y217408D01*
X240111Y216386D01*
X240784Y215509D01*
X241662Y214836D01*
X242683Y214412D01*
X243779Y214268D01*
X244876Y214412D01*
X245897Y214836D01*
X246775Y215509D01*
X247448Y216386D01*
X247871Y217408D01*
X248015Y218504D01*
X247871Y219600D01*
X247448Y220622D01*
X246775Y221499D01*
X245897Y222172D01*
X244876Y222595D01*
X243779Y222740D01*
D02*
G37*
G36*
X374016Y218881D02*
X373118Y218702D01*
X372358Y218194D01*
X371849Y217433D01*
X371671Y216535D01*
X371749Y216143D01*
X366189Y210583D01*
X365901Y210153D01*
X365800Y209646D01*
Y174762D01*
X325196Y134157D01*
X324803Y134235D01*
X323906Y134056D01*
X323145Y133548D01*
X322637Y132787D01*
X322458Y131890D01*
X322637Y130992D01*
X323145Y130231D01*
X323906Y129723D01*
X324803Y129545D01*
X325701Y129723D01*
X326461Y130231D01*
X326970Y130992D01*
X327148Y131890D01*
X327070Y132282D01*
X366661Y171873D01*
X367615Y171501D01*
X367695Y170751D01*
X349456Y152512D01*
X349169Y152082D01*
X349068Y151575D01*
Y149518D01*
X348735Y149296D01*
X348227Y148535D01*
X348049Y147638D01*
X348227Y146740D01*
X348735Y145980D01*
X349496Y145471D01*
X350394Y145293D01*
X351291Y145471D01*
X352052Y145980D01*
X352560Y146740D01*
X352739Y147638D01*
X352560Y148535D01*
X352052Y149296D01*
X351719Y149518D01*
Y151026D01*
X370032Y169338D01*
X370319Y169768D01*
X370420Y170276D01*
Y192364D01*
X373426Y195371D01*
X373819Y195293D01*
X374716Y195471D01*
X375477Y195980D01*
X375985Y196740D01*
X376164Y197638D01*
X375985Y198535D01*
X375477Y199296D01*
X374716Y199804D01*
X373819Y199983D01*
X372921Y199804D01*
X372161Y199296D01*
X371652Y198535D01*
X371474Y197638D01*
X371552Y197245D01*
X369375Y195069D01*
X368451Y195451D01*
Y209097D01*
X373623Y214268D01*
X374016Y214190D01*
X374913Y214369D01*
X375674Y214877D01*
X376182Y215638D01*
X376361Y216535D01*
X376182Y217433D01*
X375674Y218194D01*
X374913Y218702D01*
X374016Y218881D01*
D02*
G37*
G36*
X415823Y218972D02*
X406565D01*
X406581Y218771D01*
X406979Y217112D01*
X407632Y215535D01*
X408524Y214080D01*
X409632Y212782D01*
X410930Y211673D01*
X412385Y210782D01*
X413962Y210129D01*
X415621Y209730D01*
X415823Y209714D01*
Y218972D01*
D02*
G37*
G36*
X26506D02*
X17248D01*
Y209714D01*
X17449Y209730D01*
X19109Y210129D01*
X20686Y210782D01*
X22141Y211673D01*
X23439Y212782D01*
X24547Y214080D01*
X25439Y215535D01*
X26092Y217112D01*
X26490Y218771D01*
X26506Y218972D01*
D02*
G37*
G36*
X396654Y216386D02*
X395622Y216250D01*
X394661Y215852D01*
X393836Y215219D01*
X393203Y214394D01*
X392805Y213433D01*
X392670Y212402D01*
X392805Y211370D01*
X393203Y210409D01*
X393836Y209584D01*
X394661Y208951D01*
X395622Y208553D01*
X396654Y208418D01*
X397685Y208553D01*
X398646Y208951D01*
X399471Y209584D01*
X400104Y210409D01*
X400502Y211370D01*
X400638Y212402D01*
X400502Y213433D01*
X400104Y214394D01*
X399471Y215219D01*
X398646Y215852D01*
X397685Y216250D01*
X396654Y216386D01*
D02*
G37*
G36*
X167201Y209563D02*
X166323D01*
Y208193D01*
X167201D01*
Y209563D01*
D02*
G37*
G36*
X208539Y206610D02*
X207661D01*
Y205240D01*
X208539D01*
Y206610D01*
D02*
G37*
G36*
X167201Y205193D02*
X166323D01*
Y203823D01*
X167201D01*
Y205193D01*
D02*
G37*
G36*
X208539Y202240D02*
X207661D01*
Y200870D01*
X208539D01*
Y202240D01*
D02*
G37*
G36*
X212441Y222740D02*
X211345Y222595D01*
X210323Y222172D01*
X209446Y221499D01*
X208773Y220622D01*
X208349Y219600D01*
X208205Y218504D01*
X208349Y217408D01*
X208773Y216386D01*
X209446Y215509D01*
X210323Y214836D01*
X211345Y214412D01*
X211829Y214349D01*
X213067Y213111D01*
Y207341D01*
X212417Y206610D01*
X212062Y206610D01*
X211539D01*
Y203740D01*
Y200870D01*
X212062D01*
X212417Y200870D01*
X213334Y201070D01*
X217335D01*
Y206410D01*
X217248D01*
Y213976D01*
X217248Y213976D01*
X217089Y214776D01*
X216635Y215454D01*
X216635Y215454D01*
X215933Y216157D01*
X216109Y216386D01*
X216532Y217408D01*
X216677Y218504D01*
X216532Y219600D01*
X216109Y220622D01*
X215436Y221499D01*
X214559Y222172D01*
X213537Y222595D01*
X212441Y222740D01*
D02*
G37*
G36*
X396654Y206386D02*
X395622Y206250D01*
X394661Y205852D01*
X393836Y205219D01*
X393203Y204394D01*
X392805Y203433D01*
X392670Y202402D01*
X392805Y201370D01*
X393203Y200410D01*
X393836Y199584D01*
X394661Y198951D01*
X395622Y198553D01*
X396654Y198417D01*
X397685Y198553D01*
X398646Y198951D01*
X399471Y199584D01*
X400104Y200410D01*
X400502Y201370D01*
X400638Y202402D01*
X400502Y203433D01*
X400104Y204394D01*
X399471Y205219D01*
X398646Y205852D01*
X397685Y206250D01*
X396654Y206386D01*
D02*
G37*
G36*
X21185Y200559D02*
Y198350D01*
X23393D01*
X23179Y198868D01*
X22538Y199703D01*
X21702Y200344D01*
X21185Y200559D01*
D02*
G37*
G36*
X18185Y200559D02*
X17668Y200344D01*
X16832Y199703D01*
X16191Y198868D01*
X15977Y198350D01*
X18185D01*
Y200559D01*
D02*
G37*
G36*
X23393Y195350D02*
X21185D01*
Y193142D01*
X21702Y193356D01*
X22538Y193998D01*
X23179Y194833D01*
X23393Y195350D01*
D02*
G37*
G36*
X18185D02*
X15977D01*
X16191Y194833D01*
X16832Y193998D01*
X17668Y193356D01*
X18185Y193142D01*
Y195350D01*
D02*
G37*
G36*
X295118Y222740D02*
X294022Y222595D01*
X293000Y222172D01*
X292123Y221499D01*
X291450Y220622D01*
X291027Y219600D01*
X290882Y218504D01*
X291027Y217408D01*
X291450Y216386D01*
X292123Y215509D01*
X293000Y214836D01*
X293028Y214824D01*
Y204882D01*
X293028Y204882D01*
X293187Y204082D01*
X293640Y203404D01*
X303356Y193688D01*
X303254Y192913D01*
X303384Y191921D01*
X303767Y190997D01*
X304376Y190203D01*
X305170Y189594D01*
X306095Y189211D01*
X307087Y189081D01*
X308079Y189211D01*
X309003Y189594D01*
X309797Y190203D01*
X310406Y190997D01*
X310789Y191921D01*
X310919Y192913D01*
X310789Y193905D01*
X310406Y194830D01*
X309797Y195624D01*
X309003Y196233D01*
X308079Y196616D01*
X307087Y196746D01*
X306312Y196644D01*
X297208Y205748D01*
Y214824D01*
X297236Y214836D01*
X298113Y215509D01*
X298786Y216386D01*
X299210Y217408D01*
X299354Y218504D01*
X299210Y219600D01*
X298786Y220622D01*
X298113Y221499D01*
X297236Y222172D01*
X296214Y222595D01*
X295118Y222740D01*
D02*
G37*
G36*
X171102D02*
X170006Y222595D01*
X168984Y222172D01*
X168107Y221499D01*
X167434Y220622D01*
X167011Y219600D01*
X166867Y218504D01*
X167011Y217408D01*
X167434Y216386D01*
X168107Y215509D01*
X168984Y214836D01*
X170006Y214412D01*
X171102Y214268D01*
X171729Y213719D01*
Y210294D01*
X171079Y209563D01*
X170724Y209563D01*
X170201D01*
Y206693D01*
Y203823D01*
X170724D01*
X171079Y203823D01*
X171996Y204023D01*
X175997D01*
Y209363D01*
X175909D01*
Y214289D01*
X176903Y214304D01*
X176909Y214304D01*
X181985D01*
X198568Y197722D01*
X198210Y196666D01*
X197827Y196616D01*
X196903Y196233D01*
X196109Y195624D01*
X195500Y194830D01*
X195117Y193905D01*
X194986Y192913D01*
X195117Y191921D01*
X195150Y191840D01*
X185342Y182032D01*
X160318D01*
X160309Y182037D01*
X159844Y183032D01*
X159988Y183204D01*
X169291D01*
X169994Y183344D01*
X170589Y183742D01*
X176092Y189245D01*
X176173Y189211D01*
X177165Y189081D01*
X178157Y189211D01*
X179082Y189594D01*
X179876Y190203D01*
X180485Y190997D01*
X180868Y191921D01*
X180998Y192913D01*
X180868Y193905D01*
X180485Y194830D01*
X179876Y195624D01*
X179082Y196233D01*
X178157Y196616D01*
X177165Y196746D01*
X176173Y196616D01*
X175249Y196233D01*
X174455Y195624D01*
X173846Y194830D01*
X173463Y193905D01*
X173333Y192913D01*
X173463Y191921D01*
X173497Y191840D01*
X168531Y186875D01*
X158465D01*
X157762Y186735D01*
X157167Y186337D01*
X150714Y179884D01*
X150316Y179289D01*
X150177Y178587D01*
Y115705D01*
X150316Y115002D01*
X150714Y114407D01*
X151708Y113413D01*
Y107987D01*
X151377Y107492D01*
X151198Y106594D01*
X151377Y105697D01*
X151885Y104936D01*
X152646Y104428D01*
X153543Y104249D01*
X154441Y104428D01*
X155201Y104936D01*
X155710Y105697D01*
X155888Y106594D01*
X155710Y107492D01*
X155379Y107987D01*
Y114173D01*
X155239Y114876D01*
X154841Y115471D01*
X153847Y116465D01*
Y122143D01*
X154111Y122381D01*
X154847Y122787D01*
X155512Y122655D01*
X156409Y122833D01*
X156585Y122951D01*
X157585Y122416D01*
Y108268D01*
Y53150D01*
Y43307D01*
Y34449D01*
X157715Y33457D01*
X158098Y32532D01*
X158289Y32284D01*
X157795Y31284D01*
X151023D01*
X150957Y31444D01*
X150348Y32238D01*
X149554Y32847D01*
X148630Y33230D01*
X147638Y33360D01*
X146646Y33230D01*
X145721Y32847D01*
X144928Y32238D01*
X144318Y31444D01*
X143936Y30520D01*
X143805Y29528D01*
X143936Y28536D01*
X144318Y27611D01*
X144928Y26817D01*
X145721Y26208D01*
X146646Y25825D01*
X147638Y25695D01*
X148630Y25825D01*
X149554Y26208D01*
X150348Y26817D01*
X150957Y27611D01*
X150958Y27614D01*
X163488D01*
X164191Y27753D01*
X164786Y28151D01*
X175510Y38875D01*
X175908Y39471D01*
X176048Y40173D01*
Y53351D01*
X176566Y53749D01*
X177095Y54438D01*
X177428Y55241D01*
X177541Y56102D01*
X177428Y56964D01*
X177095Y57767D01*
X176566Y58456D01*
X175877Y58985D01*
X175074Y59317D01*
X174213Y59431D01*
X173351Y59317D01*
X172548Y58985D01*
X171859Y58456D01*
X171330Y57767D01*
X170998Y56964D01*
X170884Y56102D01*
X170998Y55241D01*
X171330Y54438D01*
X171859Y53749D01*
X172377Y53351D01*
Y40933D01*
X166250Y34806D01*
X165250Y35220D01*
Y43307D01*
Y53150D01*
Y102410D01*
X165354Y102496D01*
X166523D01*
Y101661D01*
X170879D01*
Y101661D01*
X170984D01*
X171291Y101397D01*
X171095Y100395D01*
X171021Y100311D01*
X170724Y100311D01*
X170201D01*
Y97441D01*
Y94571D01*
X170724D01*
X171079Y94571D01*
X171996Y94771D01*
X175997D01*
Y100111D01*
X175997D01*
X175786Y101111D01*
X175997Y101661D01*
X176997Y101811D01*
X177470Y101448D01*
X178272Y101116D01*
X179134Y101002D01*
X179995Y101116D01*
X180798Y101448D01*
X181487Y101977D01*
X182016Y102666D01*
X182349Y103469D01*
X182462Y104331D01*
X182349Y105192D01*
X182016Y105995D01*
X181693Y106417D01*
X182019Y107289D01*
X182131Y107417D01*
X185241D01*
X185638Y106898D01*
X186328Y106369D01*
X187131Y106037D01*
X187992Y105923D01*
X188854Y106037D01*
X189568Y106333D01*
X189921Y106207D01*
X190568Y105809D01*
Y92677D01*
X190747Y91780D01*
X191255Y91019D01*
X223935Y58339D01*
X223495Y57767D01*
X223163Y56964D01*
X223049Y56102D01*
X223163Y55241D01*
X223495Y54438D01*
X224024Y53749D01*
X224714Y53220D01*
X225517Y52887D01*
X226378Y52774D01*
X227239Y52887D01*
X228042Y53220D01*
X228731Y53749D01*
X229260Y54438D01*
X229593Y55241D01*
X229706Y56102D01*
X229593Y56964D01*
X229260Y57767D01*
X228731Y58456D01*
X228723Y58463D01*
Y59213D01*
X228544Y60110D01*
X228036Y60871D01*
X228036Y60871D01*
X195258Y93648D01*
Y120607D01*
X196258Y120947D01*
X196465Y120678D01*
X197154Y120149D01*
X197957Y119816D01*
X198819Y119703D01*
X199680Y119816D01*
X200483Y120149D01*
X201172Y120678D01*
X201570Y121196D01*
X206387D01*
X207089Y121336D01*
X207685Y121733D01*
X209646Y123695D01*
X226511Y106829D01*
Y106708D01*
X226180Y106212D01*
X226001Y105315D01*
X226180Y104418D01*
X226688Y103657D01*
X227449Y103148D01*
X228346Y102970D01*
X229244Y103148D01*
X230005Y103657D01*
X230513Y104418D01*
X230692Y105315D01*
X230513Y106212D01*
X230182Y106708D01*
Y107589D01*
X230042Y108291D01*
X229644Y108887D01*
X221117Y117414D01*
X221761Y118180D01*
X222564Y117848D01*
X223425Y117735D01*
X224287Y117848D01*
X225089Y118180D01*
X225779Y118709D01*
X226308Y119399D01*
X226640Y120202D01*
X226754Y121063D01*
X226710Y121392D01*
X227856Y122538D01*
X228309Y123216D01*
X228468Y124016D01*
X228468Y124016D01*
Y131996D01*
X228544Y132110D01*
X228571Y132245D01*
X239121Y142795D01*
X239196Y142793D01*
X239782Y142561D01*
X240143Y142318D01*
X240261Y141725D01*
X240659Y141130D01*
X246196Y135592D01*
Y133803D01*
X242604Y130212D01*
X241957Y130297D01*
X241095Y130184D01*
X240293Y129851D01*
X239603Y129322D01*
X239074Y128633D01*
X238742Y127830D01*
X238628Y126969D01*
X238742Y126107D01*
X239074Y125304D01*
X239603Y124615D01*
X240293Y124086D01*
X241095Y123753D01*
X241957Y123640D01*
X242818Y123753D01*
X243621Y124086D01*
X244310Y124615D01*
X244839Y125304D01*
X245172Y126107D01*
X245285Y126969D01*
X245200Y127616D01*
X249329Y131746D01*
X249727Y132341D01*
X249867Y133043D01*
Y136353D01*
X249727Y137055D01*
X249329Y137650D01*
X246959Y140020D01*
X247318Y141076D01*
X247318Y141076D01*
X248121Y141409D01*
X248810Y141938D01*
X249208Y142456D01*
X251798D01*
X251937Y142484D01*
X252867Y141877D01*
X252937Y141777D01*
Y138862D01*
X253815D01*
Y141732D01*
X256815D01*
Y138862D01*
X257693D01*
X257693Y138862D01*
X257693Y138862D01*
X258610Y139062D01*
X262611D01*
Y144402D01*
X261317D01*
X259783Y145936D01*
X260197Y146936D01*
X262509D01*
X264642Y144804D01*
Y127834D01*
X258203Y121395D01*
X257874Y121439D01*
X257013Y121325D01*
X256210Y120993D01*
X255520Y120464D01*
X254992Y119774D01*
X254659Y118972D01*
X254545Y118110D01*
X254659Y117249D01*
X254992Y116446D01*
X255520Y115757D01*
X256210Y115228D01*
X257013Y114895D01*
X257874Y114782D01*
X258203Y114825D01*
X261505Y111523D01*
X261406Y110564D01*
X260506Y110258D01*
X260228Y110621D01*
X259538Y111150D01*
X258735Y111483D01*
X257874Y111596D01*
X257013Y111483D01*
X256210Y111150D01*
X255520Y110621D01*
X254992Y109932D01*
X254659Y109129D01*
X254545Y108268D01*
X254659Y107406D01*
X254992Y106604D01*
X255520Y105914D01*
X256210Y105385D01*
X256447Y105287D01*
Y100394D01*
X256447Y100394D01*
X256555Y99847D01*
X256865Y99384D01*
X258520Y97729D01*
X258483Y97441D01*
X258596Y96579D01*
X258928Y95777D01*
X259457Y95087D01*
X260147Y94558D01*
X260384Y94460D01*
Y93320D01*
X259141D01*
Y89202D01*
X259141Y88964D01*
X258779Y88114D01*
X257198D01*
X257152Y88460D01*
X256820Y89263D01*
X256291Y89952D01*
X255601Y90481D01*
X254799Y90813D01*
X253937Y90927D01*
X253076Y90813D01*
X252273Y90481D01*
X251583Y89952D01*
X251055Y89263D01*
X250722Y88460D01*
X250608Y87598D01*
X250722Y86737D01*
X251055Y85934D01*
X251583Y85245D01*
X252273Y84716D01*
X253076Y84383D01*
X253937Y84270D01*
X254363Y84326D01*
X254712Y84093D01*
X255512Y83934D01*
X259141D01*
Y83846D01*
X264481D01*
Y87964D01*
X264481Y88202D01*
Y88964D01*
X264481Y89202D01*
Y93320D01*
X263239D01*
Y94460D01*
X263475Y94558D01*
X264165Y95087D01*
X264694Y95777D01*
X265026Y96579D01*
X265069Y96908D01*
X265100Y96965D01*
X265975Y97610D01*
X266122Y97640D01*
X266320Y97601D01*
X269653D01*
X269746Y97507D01*
Y94174D01*
X269746Y94174D01*
X269906Y93374D01*
X270359Y92696D01*
X273904Y89151D01*
Y82274D01*
X273904Y82274D01*
X274063Y81474D01*
X274516Y80796D01*
X281987Y73325D01*
X281987Y73325D01*
X282266Y73138D01*
X282263Y72777D01*
X281963Y72138D01*
X243449D01*
X225684Y89903D01*
X225769Y90551D01*
X225656Y91413D01*
X225324Y92215D01*
X224795Y92905D01*
X224105Y93434D01*
X223302Y93766D01*
X222441Y93880D01*
X221580Y93766D01*
X220777Y93434D01*
X220087Y92905D01*
X219558Y92215D01*
X219226Y91413D01*
X219112Y90551D01*
X219226Y89690D01*
X219558Y88887D01*
X220087Y88198D01*
X220777Y87669D01*
X221580Y87336D01*
X222441Y87223D01*
X223089Y87308D01*
X241391Y69005D01*
X241987Y68608D01*
X242689Y68468D01*
X299955D01*
X300657Y68608D01*
X301253Y69005D01*
X310137Y77889D01*
X310311D01*
X311303Y77870D01*
X311303Y76889D01*
Y71382D01*
X315453D01*
X319602D01*
Y76889D01*
X319602Y77870D01*
X320595Y77889D01*
X333232D01*
X334141Y77670D01*
X334141Y76889D01*
Y62094D01*
X336631D01*
X336684Y61648D01*
X335888Y60741D01*
X333846D01*
Y55401D01*
X334698D01*
Y53851D01*
X333452D01*
Y48511D01*
X334600D01*
Y46949D01*
X334701Y46442D01*
X334988Y46012D01*
X339268Y41731D01*
X339190Y41339D01*
X339369Y40441D01*
X339877Y39680D01*
X340638Y39172D01*
X341535Y38993D01*
X342433Y39172D01*
X343148Y39650D01*
X343719Y39503D01*
X343726Y39500D01*
X344129Y39281D01*
X344290Y38473D01*
X344798Y37712D01*
X345559Y37203D01*
X346457Y37025D01*
X347354Y37203D01*
X348115Y37712D01*
X348623Y38473D01*
X348802Y39370D01*
X348623Y40268D01*
X348115Y41028D01*
X347782Y41251D01*
Y47384D01*
X348909Y48511D01*
X351429D01*
X352346Y48311D01*
X353095Y48311D01*
X353520D01*
Y51181D01*
Y54051D01*
X353095D01*
X352346Y54051D01*
X351429Y53851D01*
X347232D01*
Y50582D01*
X345519Y48870D01*
X345232Y48440D01*
X345131Y47933D01*
Y41999D01*
X344825Y41716D01*
X343892Y41975D01*
X343720Y42146D01*
X343702Y42236D01*
X343194Y42997D01*
X342433Y43505D01*
X341535Y43684D01*
X341143Y43606D01*
X337871Y46878D01*
X337978Y48185D01*
X338251Y48380D01*
X338567Y48311D01*
X339316Y48311D01*
X339740D01*
Y51181D01*
Y54051D01*
X339316D01*
X338567Y54051D01*
X338349Y54004D01*
X338032Y54246D01*
X338179Y55392D01*
X338202Y55401D01*
X338964D01*
Y55401D01*
X339202Y55401D01*
X343320D01*
Y56753D01*
X362421D01*
X362515Y56613D01*
X363276Y56105D01*
X364173Y55927D01*
X365071Y56105D01*
X365831Y56613D01*
X366340Y57374D01*
X366518Y58272D01*
X366340Y59169D01*
X365831Y59930D01*
X365071Y60438D01*
X364173Y60617D01*
X363276Y60438D01*
X362515Y59930D01*
X362153Y59388D01*
X343320D01*
Y60741D01*
X340918D01*
X340666Y61094D01*
X341180Y62094D01*
X342040D01*
X342040Y77180D01*
X342419Y77739D01*
X342716Y78029D01*
X342854Y78120D01*
X343312Y78427D01*
X345388Y80502D01*
X346146Y81087D01*
X348402D01*
Y85630D01*
Y90173D01*
X346323D01*
Y92799D01*
X346925D01*
Y97638D01*
Y102476D01*
X345892D01*
X345758Y102678D01*
X319749Y128687D01*
Y138371D01*
X320080Y138866D01*
X320258Y139764D01*
X320080Y140661D01*
X319749Y141157D01*
Y142901D01*
X320584D01*
Y146902D01*
X320783Y147819D01*
X320783Y148174D01*
Y148697D01*
X317913D01*
X315043D01*
Y148174D01*
X315043Y147819D01*
X315243Y146902D01*
Y142901D01*
X316078D01*
Y141157D01*
X315747Y140661D01*
X315568Y139764D01*
X315747Y138866D01*
X316078Y138371D01*
Y127927D01*
X316218Y127225D01*
X316616Y126629D01*
X340044Y103200D01*
X339662Y102276D01*
X337936D01*
X337512Y102560D01*
X336614Y102739D01*
X335037D01*
X335031Y102747D01*
X334341Y103276D01*
X333539Y103609D01*
X332677Y103722D01*
X331816Y103609D01*
X331013Y103276D01*
X330324Y102747D01*
X330317Y102739D01*
X329132D01*
X329125Y102747D01*
X328436Y103276D01*
X327633Y103609D01*
X326772Y103722D01*
X325910Y103609D01*
X325107Y103276D01*
X324418Y102747D01*
X324216Y102484D01*
X318464D01*
X307014Y113934D01*
X307134Y114842D01*
X306998Y115874D01*
X306600Y116835D01*
X305967Y117660D01*
X305142Y118293D01*
X304181Y118691D01*
X303150Y118827D01*
X302118Y118691D01*
X301158Y118293D01*
X300442Y117744D01*
X299993Y117844D01*
X299442Y118142D01*
Y121247D01*
X299610Y121390D01*
X300442Y121689D01*
X301057Y121218D01*
X301650Y120972D01*
Y124843D01*
Y128713D01*
X301057Y128468D01*
X300442Y127996D01*
X299610Y128295D01*
X299442Y128438D01*
Y130693D01*
X301650D01*
Y134843D01*
Y138993D01*
X300483D01*
X300068Y139992D01*
X325510Y165435D01*
X325908Y166030D01*
X326048Y166732D01*
Y174153D01*
X326391Y174495D01*
X327153D01*
X327391Y174495D01*
X331509D01*
Y175585D01*
X340551D01*
X341156Y175705D01*
X341669Y176048D01*
X347480Y181859D01*
X347564Y181824D01*
X348425Y181711D01*
X349287Y181824D01*
X350089Y182157D01*
X350779Y182686D01*
X351308Y183375D01*
X351640Y184178D01*
X351754Y185039D01*
X351640Y185901D01*
X351308Y186704D01*
X350779Y187393D01*
X350089Y187922D01*
X349287Y188254D01*
X348425Y188368D01*
X347907Y188300D01*
X347878Y188329D01*
X347436Y189246D01*
X347764Y189674D01*
X348097Y190477D01*
X348210Y191339D01*
X348097Y192200D01*
X347764Y193003D01*
X347235Y193692D01*
X346546Y194221D01*
X345743Y194554D01*
X344882Y194667D01*
X344020Y194554D01*
X343218Y194221D01*
X342528Y193692D01*
X341999Y193003D01*
X341667Y192200D01*
X341553Y191339D01*
X341667Y190477D01*
X341702Y190393D01*
X336944Y185635D01*
X331509D01*
Y186725D01*
X327391D01*
X327153Y186725D01*
X326391D01*
X326153Y186725D01*
X322035D01*
Y181385D01*
X322377D01*
Y179835D01*
X322035D01*
Y174495D01*
X322377D01*
Y167492D01*
X296309Y141425D01*
X295912Y140829D01*
X295772Y140127D01*
Y126560D01*
X295407Y126266D01*
X294772Y125997D01*
X294169Y126247D01*
X293307Y126360D01*
X292446Y126247D01*
X291643Y125914D01*
X290953Y125385D01*
X290424Y124696D01*
X290092Y123893D01*
X289979Y123031D01*
X290092Y122170D01*
X290424Y121367D01*
X290953Y120678D01*
X291643Y120149D01*
X291880Y120051D01*
Y116734D01*
X291314Y116168D01*
X291313Y116167D01*
X291313Y116167D01*
X285290Y110144D01*
X284366Y110527D01*
Y112221D01*
X282996D01*
Y109843D01*
X281496D01*
Y108343D01*
X278626D01*
Y107465D01*
X278626Y107465D01*
X278626Y107465D01*
X278708Y107090D01*
X278627Y106922D01*
X277420Y106715D01*
X277276Y106859D01*
Y107665D01*
X277276Y107902D01*
Y112021D01*
X276442D01*
Y125322D01*
X287715Y136596D01*
X287838Y136781D01*
X288082Y136881D01*
X288771Y137410D01*
X289300Y138100D01*
X289632Y138902D01*
X289746Y139764D01*
X289632Y140625D01*
X289300Y141428D01*
X288771Y142117D01*
X288082Y142646D01*
X287279Y142979D01*
X286417Y143092D01*
X285556Y142979D01*
X284753Y142646D01*
X284064Y142117D01*
X283535Y141428D01*
X283202Y140625D01*
X283089Y139764D01*
X283202Y138902D01*
X283535Y138100D01*
X283749Y137821D01*
X273309Y127380D01*
X272911Y126785D01*
X272771Y126083D01*
Y112021D01*
X271936D01*
Y107902D01*
X271936Y107665D01*
Y106902D01*
X271936Y106665D01*
Y102547D01*
X277276D01*
Y103297D01*
X278826D01*
Y102547D01*
X284166D01*
Y104983D01*
X289597Y110414D01*
X290424Y109932D01*
X290092Y109129D01*
X289979Y108268D01*
X290092Y107406D01*
X290424Y106604D01*
X290953Y105914D01*
X291643Y105385D01*
X292446Y105053D01*
X293307Y104939D01*
X294169Y105053D01*
X294971Y105385D01*
X295661Y105914D01*
X296190Y106604D01*
X296522Y107406D01*
X296636Y108268D01*
X296550Y108915D01*
X298905Y111270D01*
X299252Y111790D01*
X299493Y111924D01*
X299735Y112000D01*
X300332Y112025D01*
X301158Y111392D01*
X302118Y110994D01*
X303150Y110858D01*
X304058Y110978D01*
X316120Y98916D01*
X316121Y98916D01*
X316799Y98463D01*
X317598Y98304D01*
X317599Y98304D01*
X324216D01*
X324418Y98040D01*
X325107Y97511D01*
X325910Y97179D01*
X326772Y97065D01*
X327633Y97179D01*
X328436Y97511D01*
X329125Y98040D01*
X329132Y98049D01*
X330317D01*
X330324Y98040D01*
X331013Y97511D01*
X331816Y97179D01*
X332677Y97065D01*
X333539Y97179D01*
X334341Y97511D01*
X335031Y98040D01*
X335920Y97772D01*
X336405Y97287D01*
Y92999D01*
X337240D01*
Y89973D01*
X335519D01*
Y81560D01*
X309376D01*
X308674Y81420D01*
X308079Y81022D01*
X299195Y72138D01*
X296682D01*
X296189Y73138D01*
X296190Y73139D01*
X296522Y73942D01*
X296636Y74803D01*
X296522Y75665D01*
X296190Y76467D01*
X295661Y77157D01*
X294971Y77686D01*
X294169Y78018D01*
X293307Y78132D01*
X292446Y78018D01*
X291643Y77686D01*
X290953Y77157D01*
X290751Y76893D01*
X284330D01*
X278084Y83139D01*
Y90017D01*
X277925Y90817D01*
X277472Y91495D01*
X273927Y95040D01*
Y98373D01*
X273768Y99173D01*
X273315Y99851D01*
X271997Y101169D01*
X271319Y101622D01*
X270519Y101781D01*
X270519Y101781D01*
X267186D01*
X265687Y103280D01*
Y112388D01*
X265528Y113188D01*
X265074Y113866D01*
X265074Y113866D01*
X261159Y117781D01*
X261203Y118110D01*
X261159Y118439D01*
X268210Y125490D01*
X268663Y126169D01*
X268822Y126969D01*
Y145669D01*
X268822Y145669D01*
X268663Y146469D01*
X268210Y147147D01*
X266542Y148816D01*
X266925Y149740D01*
X296461D01*
X296859Y149221D01*
X297548Y148692D01*
X298351Y148360D01*
X299213Y148246D01*
X300074Y148360D01*
X300877Y148692D01*
X301566Y149221D01*
X302095Y149911D01*
X302428Y150713D01*
X302541Y151575D01*
X302428Y152436D01*
X302095Y153239D01*
X301566Y153928D01*
X300877Y154457D01*
X300074Y154790D01*
X299213Y154903D01*
X298351Y154790D01*
X297548Y154457D01*
X296859Y153928D01*
X296461Y153410D01*
X266183D01*
X263964Y155629D01*
X264177Y156398D01*
X264342Y156629D01*
X280713D01*
X281111Y156111D01*
X281800Y155582D01*
X282603Y155250D01*
X283465Y155136D01*
X284326Y155250D01*
X285129Y155582D01*
X285818Y156111D01*
X286347Y156800D01*
X286680Y157603D01*
X286793Y158465D01*
X286680Y159326D01*
X286347Y160129D01*
X285818Y160818D01*
X285129Y161347D01*
X284326Y161680D01*
X283465Y161793D01*
X283135Y161750D01*
X282273Y162612D01*
Y169603D01*
X283273Y170096D01*
X283517Y169909D01*
X284441Y169526D01*
X285433Y169396D01*
X286425Y169526D01*
X287350Y169909D01*
X288143Y170518D01*
X288752Y171312D01*
X289135Y172236D01*
X289266Y173228D01*
X289164Y174003D01*
X289470Y174309D01*
X289470Y174309D01*
X289923Y174987D01*
X290082Y175787D01*
X290082Y175787D01*
Y180401D01*
X290170D01*
Y185101D01*
X299542D01*
X302350Y182293D01*
Y180401D01*
X306468D01*
X306705Y180401D01*
X307556Y180039D01*
Y177472D01*
X307087Y177061D01*
X306095Y176930D01*
X305170Y176548D01*
X304376Y175938D01*
X303767Y175145D01*
X303384Y174220D01*
X303254Y173228D01*
X303384Y172236D01*
X303767Y171312D01*
X304376Y170518D01*
X305170Y169909D01*
X306095Y169526D01*
X307087Y169396D01*
X308079Y169526D01*
X309003Y169909D01*
X309797Y170518D01*
X310406Y171312D01*
X310789Y172236D01*
X310919Y173228D01*
X310817Y174003D01*
X311124Y174309D01*
X311124Y174309D01*
X311577Y174987D01*
X311736Y175787D01*
X311736Y175787D01*
Y180401D01*
X311824D01*
Y185741D01*
X307705D01*
X307468Y185741D01*
X306705D01*
X306468Y185741D01*
X304813D01*
X301885Y188669D01*
X301207Y189122D01*
X300408Y189281D01*
X300407Y189281D01*
X288584D01*
X288267Y189943D01*
X288203Y190281D01*
X288752Y190997D01*
X289135Y191921D01*
X289266Y192913D01*
X289135Y193905D01*
X288752Y194830D01*
X288143Y195624D01*
X287350Y196233D01*
X286425Y196616D01*
X285433Y196746D01*
X284441Y196616D01*
X283517Y196233D01*
X282723Y195624D01*
X282114Y194830D01*
X281731Y193905D01*
X281600Y192913D01*
X281731Y191921D01*
X282114Y190997D01*
X282723Y190203D01*
X283517Y189594D01*
X283685Y189524D01*
X283784Y189361D01*
X283892Y188356D01*
X281396Y185861D01*
X281316Y185741D01*
X280696D01*
Y180401D01*
X280784D01*
Y178960D01*
X278705Y176881D01*
X278252Y176203D01*
X278093Y175403D01*
X278093Y175403D01*
Y161746D01*
X278093Y161746D01*
X278182Y161300D01*
X277573Y160300D01*
X254266D01*
X253564Y160160D01*
X252968Y159762D01*
X241721Y148515D01*
X240797Y148898D01*
Y150242D01*
X261071Y170517D01*
X261863Y169909D01*
X262788Y169526D01*
X263779Y169396D01*
X264772Y169526D01*
X265696Y169909D01*
X266490Y170518D01*
X267099Y171312D01*
X267482Y172236D01*
X267612Y173228D01*
X267482Y174220D01*
X267099Y175145D01*
X266490Y175938D01*
X265696Y176548D01*
X264772Y176930D01*
X263779Y177061D01*
X262788Y176930D01*
X261863Y176548D01*
X261069Y175938D01*
X260552Y175264D01*
X260027Y175159D01*
X259349Y174706D01*
X237229Y152586D01*
X236776Y151908D01*
X236616Y151108D01*
X236616Y151108D01*
Y146148D01*
X236454Y146039D01*
X230048Y139633D01*
X229048Y140048D01*
Y142965D01*
X229248Y143882D01*
X229248Y143882D01*
X229248Y143882D01*
Y144760D01*
X226378D01*
Y147760D01*
X229248D01*
Y148638D01*
X225965D01*
X225582Y149562D01*
X226795Y150775D01*
X229048D01*
Y154893D01*
X229048Y155131D01*
Y155893D01*
X229048Y156131D01*
Y160249D01*
X228213D01*
Y164370D01*
X228074Y165072D01*
X227677Y165666D01*
X227560Y166252D01*
X227052Y167013D01*
X226291Y167521D01*
X225394Y167699D01*
X224496Y167521D01*
X223735Y167013D01*
X223227Y166252D01*
X223049Y165354D01*
X223227Y164457D01*
X223735Y163696D01*
X224496Y163188D01*
X224543Y163179D01*
Y160249D01*
X223708D01*
Y156131D01*
X223708Y155893D01*
Y155131D01*
X223708Y154893D01*
Y152878D01*
X220722Y149892D01*
X220610Y149724D01*
X219610Y150028D01*
Y176127D01*
X223919Y180436D01*
X224372Y181114D01*
X224531Y181914D01*
X224531Y181914D01*
Y188176D01*
X225111D01*
Y188519D01*
X227645D01*
Y188176D01*
X232985D01*
Y192295D01*
X232985Y192532D01*
Y193295D01*
X233328Y193637D01*
X237658D01*
X238293Y192913D01*
X238424Y191921D01*
X238807Y190997D01*
X239416Y190203D01*
X240210Y189594D01*
X241134Y189211D01*
X242126Y189081D01*
X243118Y189211D01*
X244042Y189594D01*
X244836Y190203D01*
X245445Y190997D01*
X245479Y191078D01*
X260427D01*
X260460Y190997D01*
X261069Y190203D01*
X261863Y189594D01*
X262788Y189211D01*
X263779Y189081D01*
X264772Y189211D01*
X265696Y189594D01*
X266490Y190203D01*
X267099Y190997D01*
X267482Y191921D01*
X267612Y192913D01*
X267482Y193905D01*
X267099Y194830D01*
X266490Y195624D01*
X265696Y196233D01*
X264772Y196616D01*
X263779Y196746D01*
X262788Y196616D01*
X261863Y196233D01*
X261069Y195624D01*
X260460Y194830D01*
X260427Y194749D01*
X245479D01*
X245445Y194830D01*
X244836Y195624D01*
X244042Y196233D01*
X243118Y196616D01*
X242126Y196746D01*
X241134Y196616D01*
X241053Y196582D01*
X240865Y196770D01*
X240269Y197168D01*
X239567Y197308D01*
X232985D01*
Y197650D01*
X227645D01*
Y193532D01*
X227645Y193295D01*
Y192532D01*
X227302Y192190D01*
X225454D01*
X225111Y192532D01*
Y193295D01*
X225111Y193532D01*
Y197650D01*
X224276D01*
Y214304D01*
X226641D01*
Y222704D01*
X218241D01*
Y214304D01*
X220606D01*
Y197650D01*
X219771D01*
Y193532D01*
X219771Y193295D01*
Y192532D01*
X219771Y192295D01*
Y188176D01*
X220351D01*
Y182780D01*
X216042Y178471D01*
X215589Y177793D01*
X215429Y176993D01*
X215429Y176993D01*
Y143304D01*
X215166Y143102D01*
X214637Y142412D01*
X214305Y141610D01*
X214191Y140748D01*
X214305Y139887D01*
X214637Y139084D01*
X214637Y139083D01*
X214144Y138083D01*
X213020D01*
X212481Y137976D01*
X212423Y137972D01*
X211958Y138220D01*
X211481Y138587D01*
Y144276D01*
X211812Y144772D01*
X211991Y145669D01*
X211812Y146567D01*
X211304Y147327D01*
X210543Y147836D01*
X209646Y148014D01*
X208748Y147836D01*
X207987Y147327D01*
X207479Y146567D01*
X207301Y145669D01*
X207479Y144772D01*
X207810Y144276D01*
Y132874D01*
Y127050D01*
X205627Y124866D01*
X201570D01*
X201172Y125385D01*
X200483Y125914D01*
X199680Y126246D01*
X198819Y126360D01*
X197957Y126246D01*
X197154Y125914D01*
X196465Y125385D01*
X196258Y125116D01*
X195258Y125455D01*
Y157493D01*
X206383Y168617D01*
X206383Y168617D01*
X206891Y169378D01*
X207069Y170276D01*
Y194882D01*
X206891Y195779D01*
X206383Y196540D01*
X185302Y217621D01*
Y222704D01*
X176903D01*
Y215803D01*
X175909Y215787D01*
X175750Y216587D01*
X175297Y217265D01*
X175297Y217265D01*
X175182Y217380D01*
X175194Y217408D01*
X175338Y218504D01*
X175194Y219600D01*
X174771Y220622D01*
X174098Y221499D01*
X173220Y222172D01*
X172199Y222595D01*
X171102Y222740D01*
D02*
G37*
G36*
X396654Y196386D02*
X395622Y196250D01*
X394661Y195852D01*
X393836Y195219D01*
X393203Y194394D01*
X392805Y193433D01*
X392670Y192402D01*
X392805Y191370D01*
X393203Y190410D01*
X393836Y189584D01*
X394661Y188951D01*
X395622Y188553D01*
X396654Y188417D01*
X397685Y188553D01*
X398646Y188951D01*
X399471Y189584D01*
X400104Y190410D01*
X400502Y191370D01*
X400638Y192402D01*
X400502Y193433D01*
X400104Y194394D01*
X399471Y195219D01*
X398646Y195852D01*
X397685Y196250D01*
X396654Y196386D01*
D02*
G37*
G36*
Y186386D02*
X395622Y186250D01*
X394661Y185852D01*
X393836Y185219D01*
X393203Y184394D01*
X392805Y183433D01*
X392670Y182402D01*
X392805Y181370D01*
X392870Y181214D01*
X372941Y161284D01*
X371846D01*
X371448Y161802D01*
X370759Y162331D01*
X369956Y162664D01*
X369094Y162777D01*
X368233Y162664D01*
X367430Y162331D01*
X366741Y161802D01*
X366212Y161113D01*
X365879Y160310D01*
X365766Y159449D01*
X365879Y158587D01*
X366212Y157785D01*
X366741Y157095D01*
X367430Y156566D01*
X368233Y156234D01*
X369094Y156120D01*
X369956Y156234D01*
X370759Y156566D01*
X371448Y157095D01*
X371846Y157614D01*
X373701D01*
X374403Y157753D01*
X374998Y158151D01*
X395466Y178618D01*
X395622Y178553D01*
X396654Y178418D01*
X397685Y178553D01*
X398646Y178951D01*
X399471Y179584D01*
X400104Y180410D01*
X400502Y181370D01*
X400638Y182402D01*
X400502Y183433D01*
X400104Y184394D01*
X399471Y185219D01*
X398646Y185852D01*
X397685Y186250D01*
X396654Y186386D01*
D02*
G37*
G36*
X19685Y180998D02*
X18693Y180868D01*
X17769Y180485D01*
X16975Y179876D01*
X16366Y179082D01*
X15983Y178157D01*
X15852Y177165D01*
X15983Y176173D01*
X16366Y175249D01*
X16975Y174455D01*
X17769Y173846D01*
X18693Y173463D01*
X19685Y173333D01*
X20677Y173463D01*
X21601Y173846D01*
X22395Y174455D01*
X23004Y175249D01*
X23387Y176173D01*
X23518Y177165D01*
X23387Y178157D01*
X23004Y179082D01*
X22395Y179876D01*
X21601Y180485D01*
X20677Y180868D01*
X19685Y180998D01*
D02*
G37*
G36*
X242126Y177061D02*
X241134Y176930D01*
X240210Y176548D01*
X239416Y175938D01*
X238807Y175145D01*
X238424Y174220D01*
X238293Y173228D01*
X238424Y172236D01*
X238807Y171312D01*
X239416Y170518D01*
X240210Y169909D01*
X241134Y169526D01*
X242126Y169396D01*
X243118Y169526D01*
X244042Y169909D01*
X244836Y170518D01*
X245445Y171312D01*
X245828Y172236D01*
X245959Y173228D01*
X245828Y174220D01*
X245445Y175145D01*
X244836Y175938D01*
X244042Y176548D01*
X243118Y176930D01*
X242126Y177061D01*
D02*
G37*
G36*
X396654Y176386D02*
X395622Y176250D01*
X394661Y175852D01*
X393836Y175219D01*
X393203Y174394D01*
X392805Y173433D01*
X392670Y172402D01*
X392805Y171370D01*
X393203Y170410D01*
X393836Y169584D01*
X394661Y168951D01*
X395622Y168553D01*
X396654Y168418D01*
X397685Y168553D01*
X398646Y168951D01*
X399471Y169584D01*
X400104Y170410D01*
X400502Y171370D01*
X400638Y172402D01*
X400502Y173433D01*
X400104Y174394D01*
X399471Y175219D01*
X398646Y175852D01*
X397685Y176250D01*
X396654Y176386D01*
D02*
G37*
G36*
X400804Y166552D02*
X398153D01*
Y163902D01*
X400804D01*
Y166552D01*
D02*
G37*
G36*
X395153D02*
X392503D01*
Y163902D01*
X395153D01*
Y166552D01*
D02*
G37*
G36*
X400804Y160902D02*
X398153D01*
Y158252D01*
X400804D01*
Y160902D01*
D02*
G37*
G36*
X395153D02*
X392503D01*
Y158252D01*
X395153D01*
Y160902D01*
D02*
G37*
G36*
X320783Y152575D02*
X319413D01*
Y151697D01*
X320783D01*
Y152575D01*
D02*
G37*
G36*
X316413D02*
X315043D01*
Y151697D01*
X316413D01*
Y152575D01*
D02*
G37*
G36*
X51181Y155408D02*
X50189Y155277D01*
X49265Y154894D01*
X48471Y154285D01*
X47862Y153491D01*
X47479Y152567D01*
X47348Y151575D01*
X47479Y150583D01*
X47862Y149658D01*
X48471Y148865D01*
X49265Y148256D01*
X50189Y147873D01*
X51181Y147742D01*
X52173Y147873D01*
X53097Y148256D01*
X53891Y148865D01*
X54500Y149658D01*
X54883Y150583D01*
X55014Y151575D01*
X54883Y152567D01*
X54500Y153491D01*
X53891Y154285D01*
X53097Y154894D01*
X52173Y155277D01*
X51181Y155408D01*
D02*
G37*
G36*
X19685Y152416D02*
X18448Y152253D01*
X17296Y151776D01*
X16307Y151016D01*
X15547Y150027D01*
X15070Y148874D01*
X14907Y147638D01*
X15070Y146401D01*
X15547Y145249D01*
X16307Y144259D01*
X17296Y143500D01*
X18448Y143023D01*
X19685Y142860D01*
X20922Y143023D01*
X22074Y143500D01*
X23064Y144259D01*
X23823Y145249D01*
X24300Y146401D01*
X24463Y147638D01*
X24300Y148874D01*
X23823Y150027D01*
X23064Y151016D01*
X22074Y151776D01*
X20922Y152253D01*
X19685Y152416D01*
D02*
G37*
G36*
X352157Y137870D02*
Y136500D01*
X353331D01*
Y137870D01*
X352157D01*
D02*
G37*
G36*
X307300Y138993D02*
X304650D01*
Y136343D01*
X307300D01*
Y138993D01*
D02*
G37*
G36*
X415354Y142661D02*
X414258Y142517D01*
X413236Y142094D01*
X412359Y141420D01*
X411686Y140543D01*
X411569Y140261D01*
X373661D01*
X372959Y140121D01*
X372364Y139723D01*
X363861Y131220D01*
X363276Y131104D01*
X362515Y130595D01*
X362007Y129834D01*
X361828Y128937D01*
X362007Y128040D01*
X362515Y127279D01*
X363276Y126770D01*
X364173Y126592D01*
X365071Y126770D01*
X365831Y127279D01*
X366340Y128040D01*
X366456Y128624D01*
X374422Y136590D01*
X411569D01*
X411686Y136307D01*
X412359Y135430D01*
X413236Y134757D01*
X414258Y134334D01*
X415354Y134189D01*
X416451Y134334D01*
X417472Y134757D01*
X418350Y135430D01*
X419023Y136307D01*
X419446Y137329D01*
X419590Y138425D01*
X419446Y139522D01*
X419023Y140543D01*
X418350Y141420D01*
X417472Y142094D01*
X416451Y142517D01*
X415354Y142661D01*
D02*
G37*
G36*
X52681Y135598D02*
Y133390D01*
X54889D01*
X54675Y133907D01*
X54034Y134743D01*
X53198Y135384D01*
X52681Y135598D01*
D02*
G37*
G36*
X49681D02*
X49164Y135384D01*
X48328Y134743D01*
X47687Y133907D01*
X47473Y133390D01*
X49681D01*
Y135598D01*
D02*
G37*
G36*
X353331Y133500D02*
X352157D01*
Y132130D01*
X353331D01*
Y133500D01*
D02*
G37*
G36*
X336221Y138172D02*
X335323Y137994D01*
X334562Y137485D01*
X334054Y136724D01*
X333876Y135827D01*
X334054Y134930D01*
X334562Y134169D01*
X335323Y133660D01*
X336221Y133482D01*
X337118Y133660D01*
X337879Y134169D01*
X338101Y134502D01*
X342869D01*
Y132330D01*
X347067D01*
X347984Y132130D01*
X348733Y132130D01*
X349158D01*
Y135000D01*
Y137870D01*
X348733D01*
X347984Y137870D01*
X347067Y137670D01*
X342869D01*
Y137152D01*
X338101D01*
X337879Y137485D01*
X337118Y137994D01*
X336221Y138172D01*
D02*
G37*
G36*
X307300Y133343D02*
X304650D01*
Y130693D01*
X307300D01*
Y133343D01*
D02*
G37*
G36*
X54889Y130390D02*
X52681D01*
Y128182D01*
X53198Y128396D01*
X54034Y129037D01*
X54675Y129873D01*
X54889Y130390D01*
D02*
G37*
G36*
X49681D02*
X47473D01*
X47687Y129873D01*
X48328Y129037D01*
X49164Y128396D01*
X49681Y128182D01*
Y130390D01*
D02*
G37*
G36*
X304650Y128713D02*
Y126342D01*
X307020D01*
X306775Y126935D01*
X306109Y127802D01*
X305242Y128468D01*
X304650Y128713D01*
D02*
G37*
G36*
X356118Y127673D02*
X349925D01*
Y124335D01*
X356118D01*
Y127673D01*
D02*
G37*
G36*
X346925D02*
X340732D01*
Y124335D01*
X346925D01*
Y127673D01*
D02*
G37*
G36*
X415354Y132661D02*
X414258Y132517D01*
X413236Y132094D01*
X412359Y131420D01*
X411686Y130543D01*
X411263Y129522D01*
X411119Y128425D01*
X411263Y127329D01*
X411686Y126307D01*
X412359Y125430D01*
X413236Y124757D01*
X414258Y124334D01*
X415354Y124189D01*
X416451Y124334D01*
X417472Y124757D01*
X418350Y125430D01*
X419023Y126307D01*
X419446Y127329D01*
X419590Y128425D01*
X419446Y129522D01*
X419023Y130543D01*
X418350Y131420D01*
X417472Y132094D01*
X416451Y132517D01*
X415354Y132661D01*
D02*
G37*
G36*
X19685Y132731D02*
X18448Y132568D01*
X17296Y132090D01*
X16307Y131331D01*
X15547Y130342D01*
X15070Y129189D01*
X14907Y127953D01*
X15070Y126716D01*
X15547Y125564D01*
X16307Y124574D01*
X17296Y123815D01*
X18448Y123338D01*
X19685Y123175D01*
X20922Y123338D01*
X22074Y123815D01*
X23064Y124574D01*
X23823Y125564D01*
X24300Y126716D01*
X24463Y127953D01*
X24300Y129189D01*
X23823Y130342D01*
X23064Y131331D01*
X22074Y132090D01*
X20922Y132568D01*
X19685Y132731D01*
D02*
G37*
G36*
X307020Y123343D02*
X304650D01*
Y120972D01*
X305242Y121218D01*
X306109Y121883D01*
X306775Y122750D01*
X307020Y123343D01*
D02*
G37*
G36*
X356118Y121335D02*
X349925D01*
Y117996D01*
X356118D01*
Y121335D01*
D02*
G37*
G36*
X346925D02*
X340732D01*
Y117996D01*
X346925D01*
Y121335D01*
D02*
G37*
G36*
X415354Y122661D02*
X414258Y122517D01*
X413236Y122094D01*
X412359Y121420D01*
X411686Y120543D01*
X411263Y119521D01*
X411119Y118425D01*
X411263Y117329D01*
X411686Y116307D01*
X412359Y115430D01*
X413236Y114757D01*
X414258Y114334D01*
X415354Y114189D01*
X416451Y114334D01*
X417472Y114757D01*
X418350Y115430D01*
X419023Y116307D01*
X419446Y117329D01*
X419590Y118425D01*
X419446Y119521D01*
X419023Y120543D01*
X418350Y121420D01*
X417472Y122094D01*
X416451Y122517D01*
X415354Y122661D01*
D02*
G37*
G36*
X279996Y112221D02*
X278626D01*
Y111343D01*
X279996D01*
Y112221D01*
D02*
G37*
G36*
X52681Y108039D02*
Y105831D01*
X54889D01*
X54675Y106348D01*
X54034Y107184D01*
X53198Y107825D01*
X52681Y108039D01*
D02*
G37*
G36*
X49681Y108039D02*
X49164Y107825D01*
X48328Y107184D01*
X47687Y106348D01*
X47473Y105831D01*
X49681D01*
Y108039D01*
D02*
G37*
G36*
X383858Y124392D02*
X382961Y124214D01*
X382200Y123705D01*
X381692Y122945D01*
X381513Y122047D01*
X381692Y121150D01*
X382200Y120389D01*
X382961Y119881D01*
X383858Y119702D01*
X383950Y119720D01*
X390615Y113056D01*
X391127Y112713D01*
X391732Y112593D01*
X398952D01*
X404237Y107308D01*
X404749Y106965D01*
X405354Y106845D01*
X411463D01*
X411686Y106307D01*
X412359Y105430D01*
X413236Y104757D01*
X414258Y104334D01*
X415354Y104189D01*
X416451Y104334D01*
X417472Y104757D01*
X418350Y105430D01*
X419023Y106307D01*
X419446Y107329D01*
X419590Y108425D01*
X419446Y109521D01*
X419023Y110543D01*
X418350Y111420D01*
X417472Y112094D01*
X416451Y112517D01*
X415354Y112661D01*
X414258Y112517D01*
X413236Y112094D01*
X412359Y111420D01*
X411686Y110543D01*
X411463Y110006D01*
X406009D01*
X400724Y115291D01*
X400211Y115633D01*
X399606Y115754D01*
X392387D01*
X386185Y121955D01*
X386203Y122047D01*
X386025Y122945D01*
X385517Y123705D01*
X384756Y124214D01*
X383858Y124392D01*
D02*
G37*
G36*
X19685Y113046D02*
X18448Y112883D01*
X17296Y112406D01*
X16307Y111646D01*
X15547Y110657D01*
X15070Y109504D01*
X14907Y108268D01*
X15070Y107031D01*
X15547Y105879D01*
X16307Y104889D01*
X17296Y104130D01*
X18448Y103653D01*
X19685Y103490D01*
X20922Y103653D01*
X22074Y104130D01*
X23064Y104889D01*
X23823Y105879D01*
X24300Y107031D01*
X24463Y108268D01*
X24300Y109504D01*
X23823Y110657D01*
X23064Y111646D01*
X22074Y112406D01*
X20922Y112883D01*
X19685Y113046D01*
D02*
G37*
G36*
X303150Y108827D02*
X302118Y108691D01*
X301158Y108293D01*
X300332Y107660D01*
X299699Y106835D01*
X299301Y105874D01*
X299166Y104842D01*
X299301Y103811D01*
X299699Y102850D01*
X300332Y102025D01*
X301158Y101392D01*
X302118Y100994D01*
X303150Y100858D01*
X304181Y100994D01*
X305142Y101392D01*
X305967Y102025D01*
X306600Y102850D01*
X306998Y103811D01*
X307134Y104842D01*
X306998Y105874D01*
X306600Y106835D01*
X305967Y107660D01*
X305142Y108293D01*
X304181Y108691D01*
X303150Y108827D01*
D02*
G37*
G36*
X54889Y102831D02*
X52681D01*
Y100622D01*
X53198Y100837D01*
X54034Y101478D01*
X54675Y102313D01*
X54889Y102831D01*
D02*
G37*
G36*
X49681D02*
X47473D01*
X47687Y102313D01*
X48328Y101478D01*
X49164Y100837D01*
X49681Y100622D01*
Y102831D01*
D02*
G37*
G36*
X351590Y102476D02*
X349925D01*
Y99138D01*
X351590D01*
Y102476D01*
D02*
G37*
G36*
X167201Y100311D02*
X166323D01*
Y98941D01*
X167201D01*
Y100311D01*
D02*
G37*
G36*
X294209Y98441D02*
X292839D01*
Y97563D01*
X294209D01*
Y98441D01*
D02*
G37*
G36*
X289839D02*
X288469D01*
Y97563D01*
X289839D01*
Y98441D01*
D02*
G37*
G36*
X167201Y95941D02*
X166323D01*
Y94571D01*
X167201D01*
Y95941D01*
D02*
G37*
G36*
X372047Y120455D02*
X371150Y120277D01*
X370389Y119769D01*
X369881Y119008D01*
X369702Y118110D01*
X369881Y117213D01*
X370389Y116452D01*
X371150Y115944D01*
X372047Y115765D01*
X372139Y115783D01*
X390615Y97308D01*
X391127Y96965D01*
X391732Y96845D01*
X411155D01*
Y94226D01*
X419554D01*
Y102625D01*
X411155D01*
Y100006D01*
X392387D01*
X374374Y118018D01*
X374392Y118110D01*
X374214Y119008D01*
X373706Y119769D01*
X372945Y120277D01*
X372047Y120455D01*
D02*
G37*
G36*
X351590Y96138D02*
X349925D01*
Y92799D01*
X351590D01*
Y96138D01*
D02*
G37*
G36*
X294209Y94563D02*
X291338D01*
X288469D01*
Y94040D01*
X288469Y93685D01*
X288623Y92979D01*
X288328Y92423D01*
X287853Y92324D01*
X287155Y92445D01*
X286802Y92905D01*
X286113Y93434D01*
X285310Y93766D01*
X284449Y93880D01*
X283587Y93766D01*
X282785Y93434D01*
X282095Y92905D01*
X281566Y92215D01*
X281234Y91413D01*
X281120Y90551D01*
X281234Y89690D01*
X281566Y88887D01*
X282095Y88198D01*
X282785Y87669D01*
X283587Y87336D01*
X284449Y87223D01*
X285310Y87336D01*
X286113Y87669D01*
X286802Y88198D01*
X287331Y88887D01*
X287429Y89124D01*
X288668D01*
Y88767D01*
X294009D01*
Y92768D01*
X294209Y93685D01*
X294209Y94040D01*
Y94563D01*
D02*
G37*
G36*
X303150Y98827D02*
X302118Y98691D01*
X301158Y98293D01*
X300332Y97660D01*
X299699Y96835D01*
X299301Y95874D01*
X299166Y94842D01*
X299301Y93811D01*
X299699Y92851D01*
X300332Y92025D01*
X301158Y91392D01*
X302118Y90994D01*
X303150Y90858D01*
X304181Y90994D01*
X305142Y91392D01*
X305967Y92025D01*
X306600Y92851D01*
X306998Y93811D01*
X307134Y94842D01*
X306998Y95874D01*
X306600Y96835D01*
X305967Y97660D01*
X305142Y98293D01*
X304181Y98691D01*
X303150Y98827D01*
D02*
G37*
G36*
X353658Y90173D02*
X351402D01*
Y87130D01*
X353658D01*
Y90173D01*
D02*
G37*
G36*
X24422Y93320D02*
X14948D01*
Y83846D01*
X24422D01*
Y93320D01*
D02*
G37*
G36*
X360016Y84130D02*
X358842D01*
Y82760D01*
X360016D01*
Y84130D01*
D02*
G37*
G36*
X353658Y84130D02*
X351402D01*
Y81087D01*
X353658D01*
Y84130D01*
D02*
G37*
G36*
X303150Y88827D02*
X302118Y88691D01*
X301158Y88293D01*
X300332Y87660D01*
X299699Y86835D01*
X299301Y85874D01*
X299166Y84842D01*
X299301Y83811D01*
X299699Y82850D01*
X300332Y82025D01*
X301158Y81392D01*
X302118Y80994D01*
X303150Y80858D01*
X304181Y80994D01*
X305142Y81392D01*
X305967Y82025D01*
X306600Y82850D01*
X306998Y83811D01*
X307134Y84842D01*
X306998Y85874D01*
X306600Y86835D01*
X305967Y87660D01*
X305142Y88293D01*
X304181Y88691D01*
X303150Y88827D01*
D02*
G37*
G36*
X51181Y88478D02*
X50189Y88348D01*
X49265Y87965D01*
X48471Y87356D01*
X47862Y86562D01*
X47479Y85638D01*
X47348Y84646D01*
X47479Y83654D01*
X47862Y82729D01*
X48471Y81936D01*
X49265Y81326D01*
X50189Y80944D01*
X51181Y80813D01*
X52173Y80944D01*
X53097Y81326D01*
X53891Y81936D01*
X54500Y82729D01*
X54883Y83654D01*
X55014Y84646D01*
X54883Y85638D01*
X54500Y86562D01*
X53891Y87356D01*
X53097Y87965D01*
X52173Y88348D01*
X51181Y88478D01*
D02*
G37*
G36*
X414886Y71652D02*
Y68429D01*
X418108D01*
X417698Y69419D01*
X416907Y70450D01*
X415876Y71242D01*
X414886Y71652D01*
D02*
G37*
G36*
X411886Y71652D02*
X410896Y71242D01*
X409865Y70450D01*
X409073Y69419D01*
X408663Y68429D01*
X411886D01*
Y71652D01*
D02*
G37*
G36*
X379701Y66847D02*
X378528D01*
Y65476D01*
X379701D01*
Y66847D01*
D02*
G37*
G36*
X418108Y65429D02*
X414886D01*
Y62207D01*
X415876Y62617D01*
X416907Y63408D01*
X417698Y64439D01*
X418108Y65429D01*
D02*
G37*
G36*
X411886D02*
X408663D01*
X409073Y64439D01*
X409865Y63408D01*
X410896Y62617D01*
X411886Y62207D01*
Y65429D01*
D02*
G37*
G36*
X319602Y68382D02*
X316953D01*
Y61894D01*
X319602D01*
Y68382D01*
D02*
G37*
G36*
X313953D02*
X311303D01*
Y61894D01*
X313953D01*
Y68382D01*
D02*
G37*
G36*
X379701Y62476D02*
X378528D01*
Y61106D01*
X379701D01*
Y62476D01*
D02*
G37*
G36*
X379701Y59957D02*
X378527D01*
Y58587D01*
X379701D01*
Y59957D01*
D02*
G37*
G36*
X19685Y62888D02*
X18693Y62757D01*
X17769Y62374D01*
X16975Y61765D01*
X16366Y60971D01*
X15983Y60047D01*
X15852Y59055D01*
X15983Y58063D01*
X16366Y57139D01*
X16975Y56345D01*
X17769Y55736D01*
X18693Y55353D01*
X19685Y55222D01*
X20677Y55353D01*
X21601Y55736D01*
X22395Y56345D01*
X23004Y57139D01*
X23387Y58063D01*
X23518Y59055D01*
X23387Y60047D01*
X23004Y60971D01*
X22395Y61765D01*
X21601Y62374D01*
X20677Y62757D01*
X19685Y62888D01*
D02*
G37*
G36*
X379701Y55587D02*
X378527D01*
Y54216D01*
X379701D01*
Y55587D01*
D02*
G37*
G36*
X342740Y54051D02*
Y52681D01*
X343913D01*
Y54051D01*
X342740D01*
D02*
G37*
G36*
X356520D02*
Y52681D01*
X357693D01*
Y54051D01*
X356520D01*
D02*
G37*
G36*
X357693Y49681D02*
X356520D01*
Y48311D01*
X357693D01*
Y49681D01*
D02*
G37*
G36*
X343913D02*
X342740D01*
Y48311D01*
X343913D01*
Y49681D01*
D02*
G37*
G36*
X206693Y72226D02*
X205831Y72113D01*
X205029Y71780D01*
X204339Y71251D01*
X203810Y70562D01*
X203478Y69759D01*
X203364Y68898D01*
X203478Y68036D01*
X203810Y67233D01*
X204339Y66544D01*
X205029Y66015D01*
X205113Y65980D01*
Y54098D01*
X205029Y54064D01*
X204339Y53535D01*
X203810Y52845D01*
X203478Y52043D01*
X203364Y51181D01*
X203478Y50320D01*
X203810Y49517D01*
X204339Y48827D01*
X205029Y48299D01*
X205831Y47966D01*
X206693Y47853D01*
X207554Y47966D01*
X208357Y48299D01*
X209047Y48827D01*
X209576Y49517D01*
X209908Y50320D01*
X210021Y51181D01*
X209908Y52043D01*
X209576Y52845D01*
X209047Y53535D01*
X208357Y54064D01*
X208273Y54098D01*
Y65980D01*
X208357Y66015D01*
X209047Y66544D01*
X209576Y67233D01*
X209908Y68036D01*
X210021Y68898D01*
X209908Y69759D01*
X209576Y70562D01*
X209047Y71251D01*
X208357Y71780D01*
X207554Y72113D01*
X206693Y72226D01*
D02*
G37*
G36*
X21185Y43078D02*
Y40870D01*
X23393D01*
X23179Y41387D01*
X22538Y42223D01*
X21702Y42864D01*
X21185Y43078D01*
D02*
G37*
G36*
X18185D02*
X17668Y42864D01*
X16832Y42223D01*
X16191Y41387D01*
X15977Y40870D01*
X18185D01*
Y43078D01*
D02*
G37*
G36*
X270669Y65337D02*
X269772Y65159D01*
X269011Y64650D01*
X268503Y63889D01*
X268324Y62992D01*
X268503Y62095D01*
X269011Y61334D01*
X269772Y60826D01*
X270669Y60647D01*
X271057Y59752D01*
Y44986D01*
X270669Y44668D01*
X269772Y44489D01*
X269011Y43981D01*
X268503Y43220D01*
X268324Y42323D01*
X268503Y41425D01*
X269011Y40665D01*
X269772Y40156D01*
X270669Y39978D01*
X271567Y40156D01*
X272327Y40665D01*
X272622Y41106D01*
X272771Y41205D01*
X273755Y42190D01*
X274098Y42702D01*
X274218Y43307D01*
Y61024D01*
X274098Y61628D01*
X273755Y62141D01*
X272996Y62900D01*
X273014Y62992D01*
X272836Y63889D01*
X272327Y64650D01*
X271567Y65159D01*
X270669Y65337D01*
D02*
G37*
G36*
X23393Y37870D02*
X21185D01*
Y35662D01*
X21702Y35876D01*
X22538Y36517D01*
X23179Y37353D01*
X23393Y37870D01*
D02*
G37*
G36*
X18185D02*
X15977D01*
X16191Y37353D01*
X16832Y36517D01*
X17668Y35876D01*
X18185Y35662D01*
Y37870D01*
D02*
G37*
G36*
X361220Y39747D02*
X360323Y39568D01*
X359562Y39060D01*
X359054Y38299D01*
X358875Y37402D01*
X359054Y36504D01*
X359562Y35743D01*
X360323Y35235D01*
X361220Y35056D01*
X362118Y35235D01*
X362879Y35743D01*
X363101Y36076D01*
X366230D01*
X366452Y35743D01*
X367213Y35235D01*
X368110Y35056D01*
X369008Y35235D01*
X369768Y35743D01*
X370277Y36504D01*
X370455Y37402D01*
X370277Y38299D01*
X369768Y39060D01*
X369008Y39568D01*
X368110Y39747D01*
X367213Y39568D01*
X366452Y39060D01*
X366230Y38727D01*
X363101D01*
X362879Y39060D01*
X362118Y39568D01*
X361220Y39747D01*
D02*
G37*
G36*
X244094Y45652D02*
X243197Y45474D01*
X242436Y44965D01*
X241928Y44205D01*
X241749Y43307D01*
X241928Y42410D01*
X242436Y41649D01*
X242514Y41597D01*
Y34190D01*
X242436Y34139D01*
X241928Y33378D01*
X241749Y32480D01*
X241928Y31583D01*
X242436Y30822D01*
X243197Y30314D01*
X244094Y30135D01*
X244992Y30314D01*
X245753Y30822D01*
X246261Y31583D01*
X246440Y32480D01*
X246261Y33378D01*
X245753Y34139D01*
X245675Y34190D01*
Y41597D01*
X245753Y41649D01*
X246261Y42410D01*
X246440Y43307D01*
X246261Y44205D01*
X245753Y44965D01*
X244992Y45474D01*
X244094Y45652D01*
D02*
G37*
G36*
X378756Y33480D02*
X371382D01*
Y29059D01*
X378756D01*
Y33480D01*
D02*
G37*
G36*
X368382D02*
X361008D01*
Y29059D01*
X368382D01*
Y33480D01*
D02*
G37*
G36*
X378756Y26059D02*
X371382D01*
Y21638D01*
X378756D01*
Y26059D01*
D02*
G37*
G36*
X368382D02*
X361008D01*
Y21638D01*
X368382D01*
Y26059D01*
D02*
G37*
G36*
X415823Y26506D02*
X415621Y26490D01*
X413962Y26092D01*
X412385Y25439D01*
X410930Y24547D01*
X409632Y23439D01*
X408524Y22141D01*
X407632Y20686D01*
X406979Y19109D01*
X406581Y17449D01*
X406565Y17248D01*
X415823D01*
Y26506D01*
D02*
G37*
G36*
X17248D02*
Y17248D01*
X26506D01*
X26490Y17449D01*
X26092Y19109D01*
X25439Y20686D01*
X24547Y22141D01*
X23439Y23439D01*
X22141Y24547D01*
X20686Y25439D01*
X19109Y26092D01*
X17449Y26490D01*
X17248Y26506D01*
D02*
G37*
G36*
X360446Y102276D02*
X354515D01*
Y92999D01*
X358506D01*
X362081Y89424D01*
X361699Y88500D01*
X358842D01*
Y87130D01*
X361516D01*
Y85630D01*
X363016D01*
Y82760D01*
X364189D01*
Y82760D01*
X364357Y82960D01*
X368545D01*
X383659Y67847D01*
X383244Y66847D01*
X382701D01*
Y63976D01*
Y61106D01*
X383681D01*
X383782Y61059D01*
X383812Y60693D01*
X383744Y60618D01*
X382871Y59957D01*
X382701D01*
Y57087D01*
Y54216D01*
X383125D01*
X383874Y54216D01*
X384791Y54417D01*
X388989D01*
Y55251D01*
X402586D01*
X408649Y49189D01*
Y46304D01*
X395625Y33280D01*
X385224D01*
Y21838D01*
X389983D01*
X390366Y20914D01*
X387225Y17773D01*
X386640Y17657D01*
X385880Y17149D01*
X385371Y16388D01*
X385193Y15491D01*
X385371Y14593D01*
X385880Y13832D01*
X386640Y13324D01*
X387538Y13146D01*
X388435Y13324D01*
X389196Y13832D01*
X389704Y14593D01*
X389821Y15178D01*
X395195Y20553D01*
X395593Y21148D01*
X395730Y21838D01*
X402572D01*
Y32239D01*
X412840Y42507D01*
X418123D01*
Y51981D01*
X411047D01*
X404644Y58384D01*
X404049Y58782D01*
X403346Y58922D01*
X388989D01*
Y59757D01*
X388351D01*
Y61306D01*
X388989D01*
Y66646D01*
X388096D01*
Y67224D01*
X387976Y67829D01*
X387633Y68342D01*
X369304Y86671D01*
Y88300D01*
X367675D01*
X360446Y95530D01*
Y102276D01*
D02*
G37*
G36*
X149138Y13551D02*
Y11343D01*
X151346D01*
X151132Y11860D01*
X150491Y12695D01*
X149655Y13337D01*
X149138Y13551D01*
D02*
G37*
G36*
X146138D02*
X145621Y13337D01*
X144785Y12695D01*
X144144Y11860D01*
X143930Y11343D01*
X146138D01*
Y13551D01*
D02*
G37*
%LPD*%
G36*
X201946Y189941D02*
X202379Y189669D01*
Y176473D01*
X201946Y176201D01*
X201379Y176053D01*
X200735Y176548D01*
X199811Y176930D01*
X198819Y177061D01*
X197827Y176930D01*
X196903Y176548D01*
X196109Y175938D01*
X195500Y175145D01*
X195117Y174220D01*
X194986Y173228D01*
X195117Y172236D01*
X195500Y171312D01*
X196109Y170518D01*
X196903Y169909D01*
X197827Y169526D01*
X198819Y169396D01*
X199158Y169440D01*
X199626Y168493D01*
X191255Y160123D01*
X190747Y159362D01*
X190568Y158465D01*
Y112695D01*
X189921Y112297D01*
X189568Y112171D01*
X188854Y112467D01*
X187992Y112580D01*
X187131Y112467D01*
X186328Y112135D01*
X185638Y111606D01*
X185241Y111087D01*
X170276D01*
X169573Y110948D01*
X168978Y110550D01*
X167403Y108975D01*
X167005Y108379D01*
X166899Y107845D01*
X166835Y107701D01*
X165610Y107409D01*
X165250Y107703D01*
Y108268D01*
Y166339D01*
Y175197D01*
X165120Y176189D01*
X164737Y177113D01*
X164546Y177362D01*
X165039Y178362D01*
X186102D01*
X186805Y178501D01*
X187400Y178899D01*
X197746Y189245D01*
X197827Y189211D01*
X198819Y189081D01*
X199811Y189211D01*
X200735Y189594D01*
X201379Y190088D01*
X201946Y189941D01*
D02*
G37*
G36*
X344020Y188124D02*
X344882Y188010D01*
X345401Y188078D01*
X345429Y188049D01*
X345871Y187132D01*
X345543Y186704D01*
X345210Y185901D01*
X345097Y185039D01*
X345210Y184178D01*
X345245Y184094D01*
X339897Y178746D01*
X331509D01*
Y179835D01*
X327391D01*
X327153Y179835D01*
X326391D01*
X326144Y180082D01*
Y181138D01*
X326391Y181385D01*
X327153D01*
X327391Y181385D01*
X331509D01*
Y182475D01*
X337598D01*
X338203Y182595D01*
X338716Y182938D01*
X343936Y188158D01*
X344020Y188124D01*
D02*
G37*
G36*
X224033Y136899D02*
Y133007D01*
X224211Y132110D01*
X224288Y131996D01*
Y125107D01*
X223495Y124382D01*
X223425Y124391D01*
X222564Y124278D01*
X221761Y123946D01*
X221072Y123417D01*
X220543Y122727D01*
X220210Y121924D01*
X220097Y121063D01*
X220210Y120202D01*
X220543Y119399D01*
X219777Y118754D01*
X211481Y127050D01*
Y132114D01*
X213780Y134413D01*
X219384D01*
X220086Y134553D01*
X220681Y134950D01*
X223033Y137302D01*
X224033Y136899D01*
D02*
G37*
%LPC*%
G36*
X177165Y177061D02*
X176173Y176930D01*
X175249Y176548D01*
X174455Y175938D01*
X173846Y175145D01*
X173463Y174220D01*
X173333Y173228D01*
X173463Y172236D01*
X173846Y171312D01*
X174455Y170518D01*
X175249Y169909D01*
X176173Y169526D01*
X177165Y169396D01*
X178157Y169526D01*
X179082Y169909D01*
X179876Y170518D01*
X180485Y171312D01*
X180868Y172236D01*
X180998Y173228D01*
X180868Y174220D01*
X180485Y175145D01*
X179876Y175938D01*
X179082Y176548D01*
X178157Y176930D01*
X177165Y177061D01*
D02*
G37*
%LPD*%
D18*
X168701Y206693D02*
D03*
X173819D02*
D03*
X210039Y203740D02*
D03*
X215158D02*
D03*
X168701Y97441D02*
D03*
X173819D02*
D03*
X173819Y104331D02*
D03*
X168701D02*
D03*
X309646Y183071D02*
D03*
X304528D02*
D03*
X287992D02*
D03*
X282874D02*
D03*
X255315Y141732D02*
D03*
X260433D02*
D03*
X255315Y149606D02*
D03*
X260433D02*
D03*
X329331Y177165D02*
D03*
X324213D02*
D03*
X329331Y184055D02*
D03*
X324213D02*
D03*
X336024Y58071D02*
D03*
X341142D02*
D03*
D19*
X222441Y190354D02*
D03*
Y195472D02*
D03*
X230315Y195473D02*
D03*
Y190354D02*
D03*
X226378Y146260D02*
D03*
Y141142D02*
D03*
Y152953D02*
D03*
Y158071D02*
D03*
X317913Y150197D02*
D03*
Y145079D02*
D03*
X261811Y91142D02*
D03*
Y86024D02*
D03*
X274606Y104724D02*
D03*
Y109843D02*
D03*
X281496Y109843D02*
D03*
Y104724D02*
D03*
X291339Y96063D02*
D03*
Y90945D02*
D03*
D22*
X355020Y51181D02*
D03*
X349705D02*
D03*
X335925D02*
D03*
X341240D02*
D03*
X386516Y57087D02*
D03*
X381201D02*
D03*
X386516Y63976D02*
D03*
X381201D02*
D03*
X366831Y85630D02*
D03*
X361516D02*
D03*
X345342Y135000D02*
D03*
X350658D02*
D03*
D33*
X158465Y185039D02*
X169291D01*
X177165Y192913D01*
X159346Y180197D02*
X186102D01*
X155512Y176362D02*
X159346Y180197D01*
X226378Y158071D02*
Y164370D01*
X225394Y165354D02*
X226378Y164370D01*
X209646Y132874D02*
Y145669D01*
Y126290D02*
Y132874D01*
X213020Y136248D01*
X219384D01*
X222020Y138884D01*
Y148594D01*
X226378Y152953D01*
X161417Y108268D02*
X165354Y104331D01*
X168701D01*
X161417Y108268D02*
X162402D01*
X155512Y125000D02*
Y176362D01*
X274606Y109843D02*
Y126083D01*
X324213Y177165D02*
Y184055D01*
X386516Y57087D02*
X386516Y63976D01*
X386516Y57087D02*
X403346D01*
X413386Y47047D01*
X393898Y21850D02*
Y27559D01*
X387538Y15491D02*
X393898Y21850D01*
X373661Y138425D02*
X415354D01*
X364173Y128937D02*
X373661Y138425D01*
X251798Y144291D02*
X253109Y145602D01*
X257521D02*
X260433Y142691D01*
Y141732D02*
Y142691D01*
X255315Y145602D02*
Y149606D01*
X253109Y145602D02*
X255315D01*
X257521D01*
X255315Y149606D02*
Y150565D01*
X254266Y158465D02*
X283465D01*
X255315Y150565D02*
X259278Y154528D01*
X262470D01*
X274606Y126083D02*
X286417Y137894D01*
Y139764D01*
X147638Y29449D02*
Y29528D01*
X163488Y29449D02*
X174213Y40173D01*
Y56102D01*
X147638Y29449D02*
X163488D01*
X173819Y98425D02*
Y104331D01*
X222441Y195472D02*
Y218504D01*
Y190354D02*
X230315D01*
X230315Y195473D02*
X239567D01*
X242126Y192913D01*
X263779D01*
X246457Y144291D02*
X251798D01*
X241957Y142427D02*
Y146155D01*
X248031Y133043D02*
Y136353D01*
X241957Y142427D02*
X248031Y136353D01*
X241957Y146155D02*
X254266Y158465D01*
X241957Y126969D02*
X248031Y133043D01*
X293307Y108268D02*
X297607Y112568D01*
Y140127D01*
X317913Y139764D02*
Y144095D01*
Y127927D02*
Y139764D01*
X324213Y166732D02*
Y177165D01*
X297607Y140127D02*
X324213Y166732D01*
X262470Y154528D02*
X265423Y151575D01*
X299213D01*
X242689Y70303D02*
X299955D01*
X228346Y105315D02*
Y107589D01*
X209646Y126290D02*
X228346Y107589D01*
X344488Y82199D02*
Y93025D01*
X344460Y93054D02*
X344488Y93025D01*
X344460Y93054D02*
Y101380D01*
X317913Y127927D02*
X344460Y101380D01*
X299955Y70303D02*
X309376Y79724D01*
X342014D02*
X344488Y82199D01*
X309376Y79724D02*
X342014D01*
X339075Y85630D02*
Y97342D01*
X339370Y97638D01*
X369094Y159449D02*
X373701D01*
X396654Y182402D01*
X168701Y104331D02*
Y107677D01*
X170276Y109252D01*
X187992D01*
X186102Y180197D02*
X198819Y192913D01*
X206387Y123031D02*
X209646Y126290D01*
X198819Y123031D02*
X206387D01*
X173819Y104331D02*
X179134D01*
X222441Y90551D02*
X242689Y70303D01*
X152012Y115705D02*
Y178587D01*
X158465Y185039D01*
X152012Y115705D02*
X153543Y114173D01*
Y106594D02*
Y114173D01*
D34*
X281889Y104724D02*
X292322Y115158D01*
X284449Y90551D02*
X290945D01*
X291339Y90945D01*
X281496Y104724D02*
X281889D01*
X274606Y104724D02*
X281496D01*
X281496Y104724D01*
X257874Y100394D02*
Y108268D01*
X292323Y115158D02*
X293307Y116143D01*
Y123031D01*
X261811Y91142D02*
Y97441D01*
X257874Y100394D02*
X260827Y97441D01*
X261811D01*
D35*
X324803Y131890D02*
X367126Y174213D01*
X361220Y37402D02*
X361221Y37402D01*
X368110D01*
X350394Y151575D02*
X369094Y170276D01*
X350394Y147638D02*
Y151575D01*
X367126Y209646D02*
X374016Y216535D01*
X369094Y192913D02*
X373819Y197638D01*
X367126Y174213D02*
Y209646D01*
X369094Y170276D02*
Y192913D01*
X336221Y135827D02*
X344515D01*
X345342Y135000D01*
X336024Y51279D02*
Y59055D01*
X335925Y46949D02*
Y51181D01*
Y46949D02*
X341535Y41339D01*
X346457Y47933D02*
X349705Y51181D01*
X346457Y39370D02*
Y47933D01*
D36*
X226378Y56102D02*
Y59213D01*
X326772Y100394D02*
X332677D01*
X336614D02*
X339370Y97638D01*
X332677Y100394D02*
X336614D01*
X226378Y133007D02*
Y141142D01*
X181102Y218504D02*
X204724Y194882D01*
X192913Y92677D02*
X226378Y59213D01*
X192913Y92677D02*
Y158465D01*
X204724Y170276D01*
Y194882D01*
D39*
X329331Y177165D02*
X340551D01*
X348425Y185039D01*
X405354Y108425D02*
X415354D01*
X399606Y114173D02*
X405354Y108425D01*
X391732Y114173D02*
X399606D01*
X383858Y122047D02*
X391732Y114173D01*
Y98425D02*
X415354D01*
X372047Y118110D02*
X391732Y98425D01*
X270669Y62992D02*
X272638Y61024D01*
Y43307D02*
Y61024D01*
X271654Y42323D02*
X272638Y43307D01*
X270669Y42323D02*
X271654D01*
X244094Y32480D02*
Y43307D01*
X206693Y51181D02*
Y68898D01*
X357480Y96260D02*
Y97638D01*
Y96260D02*
X366831Y86910D01*
Y85630D02*
Y86910D01*
Y85630D02*
X368110D01*
X386516Y67224D02*
X386516Y63976D01*
X368110Y85630D02*
X386516Y67224D01*
X337598Y184055D02*
X344882Y191339D01*
X329331Y184055D02*
X337598D01*
D40*
X161417Y43307D02*
Y53150D01*
Y34449D02*
Y43307D01*
Y53150D02*
Y108268D01*
Y166339D01*
Y175197D01*
D41*
X215158Y203740D02*
Y213976D01*
X212441Y216693D02*
X215158Y213976D01*
X212441Y216693D02*
Y218504D01*
X217520Y140748D02*
Y176993D01*
X303150Y114842D02*
X317598Y100394D01*
X326772D01*
X260827Y173228D02*
X263779D01*
X217520Y176993D02*
X222441Y181914D01*
Y190354D01*
X257874Y118110D02*
X263597Y112388D01*
Y102415D02*
X266320Y99691D01*
X263597Y102415D02*
Y112388D01*
X266320Y99691D02*
X270519D01*
X271837Y94174D02*
X275994Y90017D01*
X270519Y99691D02*
X271837Y98373D01*
Y94174D02*
Y98373D01*
X257874Y118110D02*
X266732Y126969D01*
X260433Y149606D02*
X262795D01*
X266732Y145669D01*
Y126969D02*
Y145669D01*
X275994Y82274D02*
Y90017D01*
X309646Y175787D02*
Y183071D01*
X307087Y173228D02*
X309646Y175787D01*
X300408Y187191D02*
X304528Y183071D01*
X285682Y187191D02*
X300408D01*
X282874Y184383D02*
X285682Y187191D01*
X282874Y183071D02*
Y184383D01*
X287992Y175787D02*
Y183071D01*
X285433Y173228D02*
X287992Y175787D01*
X282874Y178094D02*
Y183071D01*
X280183Y175403D02*
X282874Y178094D01*
X280183Y161746D02*
Y175403D01*
Y161746D02*
X283465Y158465D01*
X295118Y204882D02*
X307087Y192913D01*
X295118Y204882D02*
Y218504D01*
X238707Y151108D02*
X260827Y173228D01*
X226378Y124016D02*
Y133007D01*
X237932Y144561D01*
X238065D01*
X238707Y145203D01*
Y151108D01*
X275994Y82274D02*
X283465Y74803D01*
X293307D01*
X255512Y86024D02*
X261811D01*
X253937Y87598D02*
X255512Y86024D01*
X223425Y121063D02*
X226378Y124016D01*
X173819Y206693D02*
Y215787D01*
X171102Y218504D02*
X173819Y215787D01*
D42*
X338090Y61122D02*
Y69882D01*
Y61122D02*
X341142Y58071D01*
X363972D01*
X364173Y58272D01*
D43*
X393898Y27559D02*
X413386Y47047D01*
D45*
X19685Y147638D02*
D03*
Y127953D02*
D03*
Y108268D02*
D03*
X413386Y66929D02*
D03*
D46*
X19685Y88583D02*
D03*
X413386Y47244D02*
D03*
D47*
X198819Y192913D02*
D03*
Y173228D02*
D03*
X177165Y192913D02*
D03*
Y173228D02*
D03*
X263779D02*
D03*
Y192913D02*
D03*
X242126D02*
D03*
Y173228D02*
D03*
X147638Y29528D02*
D03*
Y9843D02*
D03*
X19685Y196850D02*
D03*
Y177165D02*
D03*
X51181Y151575D02*
D03*
Y131890D02*
D03*
Y104331D02*
D03*
Y84646D02*
D03*
X19685Y59055D02*
D03*
Y39370D02*
D03*
X307087Y173228D02*
D03*
Y192913D02*
D03*
X285433Y173228D02*
D03*
Y192913D02*
D03*
D48*
X396654Y202402D02*
D03*
Y212402D02*
D03*
Y192402D02*
D03*
Y172402D02*
D03*
Y182402D02*
D03*
X303150Y94842D02*
D03*
Y84842D02*
D03*
Y104842D02*
D03*
Y124843D02*
D03*
Y114842D02*
D03*
D49*
X396654Y162402D02*
D03*
X303150Y134843D02*
D03*
D50*
X415354Y138425D02*
D03*
Y128425D02*
D03*
Y118425D02*
D03*
Y108425D02*
D03*
X243779Y218504D02*
D03*
X253780D02*
D03*
X161102D02*
D03*
X171102D02*
D03*
X202441D02*
D03*
X212441D02*
D03*
X285118D02*
D03*
X295118D02*
D03*
D51*
X415354Y98425D02*
D03*
D52*
X263779Y218504D02*
D03*
X181102D02*
D03*
X222441D02*
D03*
X305118D02*
D03*
D53*
X15748Y220472D02*
D03*
Y15748D02*
D03*
X417323D02*
D03*
Y220472D02*
D03*
D54*
X336221Y135827D02*
D03*
X142717Y37402D02*
D03*
X152559D02*
D03*
X147638D02*
D03*
X113189Y54134D02*
D03*
Y59055D02*
D03*
Y63976D02*
D03*
Y68898D02*
D03*
X130905D02*
D03*
X133858Y73819D02*
D03*
X128937Y34449D02*
D03*
Y29528D02*
D03*
Y24606D02*
D03*
Y19685D02*
D03*
X119095Y7874D02*
D03*
X124016D02*
D03*
X128937D02*
D03*
X133858D02*
D03*
X157480Y195866D02*
D03*
X126969Y101378D02*
D03*
X132874D02*
D03*
X138779D02*
D03*
Y106299D02*
D03*
X132874D02*
D03*
X126969D02*
D03*
Y130905D02*
D03*
X132874D02*
D03*
X138779D02*
D03*
Y135827D02*
D03*
X132874D02*
D03*
X126969D02*
D03*
X146653Y208661D02*
D03*
X141732D02*
D03*
X136811D02*
D03*
X146653Y213583D02*
D03*
X141732D02*
D03*
X136811D02*
D03*
Y218504D02*
D03*
X141732D02*
D03*
X146653D02*
D03*
X181102Y147638D02*
D03*
Y152559D02*
D03*
X176181Y132874D02*
D03*
X181102Y142717D02*
D03*
Y137795D02*
D03*
Y132874D02*
D03*
X225394Y165354D02*
D03*
X209646Y145669D02*
D03*
X155512Y125000D02*
D03*
X138779Y112205D02*
D03*
X134843D02*
D03*
X130905D02*
D03*
X126969D02*
D03*
Y116142D02*
D03*
X130905D02*
D03*
X134843D02*
D03*
X138779D02*
D03*
Y120079D02*
D03*
X134843D02*
D03*
X130905D02*
D03*
X126969D02*
D03*
X138779Y124016D02*
D03*
X134843D02*
D03*
X130905D02*
D03*
X126969D02*
D03*
X364173Y58272D02*
D03*
X328740Y127953D02*
D03*
X374016Y216535D02*
D03*
X346457Y39370D02*
D03*
X387538Y15491D02*
D03*
X383858Y122047D02*
D03*
X372047Y118110D02*
D03*
X364173Y128937D02*
D03*
X373819Y197638D02*
D03*
X324803Y131890D02*
D03*
X368110Y37402D02*
D03*
X361220Y37402D02*
D03*
X244094Y43307D02*
D03*
X270669Y62992D02*
D03*
Y42323D02*
D03*
X244094Y32480D02*
D03*
X196161Y19980D02*
D03*
Y55413D02*
D03*
X350394Y147638D02*
D03*
X341535Y41339D02*
D03*
X317913Y139764D02*
D03*
X228346Y105315D02*
D03*
X176181Y152559D02*
D03*
X187008Y103347D02*
D03*
Y98425D02*
D03*
X184055Y114173D02*
D03*
X153543Y106594D02*
D03*
X179134Y86614D02*
D03*
X174213D02*
D03*
X169291D02*
D03*
X184055D02*
D03*
D55*
X46260Y178839D02*
D03*
Y57382D02*
D03*
X217520Y140748D02*
D03*
X226378Y56102D02*
D03*
X161417Y34449D02*
D03*
Y53150D02*
D03*
Y43307D02*
D03*
Y175197D02*
D03*
Y166339D02*
D03*
X257874Y118110D02*
D03*
X348425Y185039D02*
D03*
X344882Y191339D02*
D03*
X326772Y100394D02*
D03*
X332677D02*
D03*
X337402Y7087D02*
D03*
X358268Y21654D02*
D03*
X307087Y8858D02*
D03*
X283465Y158465D02*
D03*
X284449Y90551D02*
D03*
X257874Y108268D02*
D03*
X293307D02*
D03*
X286417Y139764D02*
D03*
X206693Y68898D02*
D03*
Y51181D02*
D03*
X174213Y56102D02*
D03*
X225394Y178150D02*
D03*
X242126Y51181D02*
D03*
X241957Y126969D02*
D03*
X246457Y144291D02*
D03*
X249016Y126720D02*
D03*
X327756Y12795D02*
D03*
X293307Y123031D02*
D03*
X291472Y8858D02*
D03*
X299213D02*
D03*
X304777Y31496D02*
D03*
X299213Y151575D02*
D03*
X295276Y64961D02*
D03*
X293307Y74803D02*
D03*
X261811Y97441D02*
D03*
X253937Y87598D02*
D03*
X369094Y159449D02*
D03*
X223425Y121063D02*
D03*
X187992Y109252D02*
D03*
X198819Y123031D02*
D03*
X179134Y104331D02*
D03*
X222441Y90551D02*
D03*
D56*
X332677Y27559D02*
D03*
D57*
X369882D02*
D03*
X393898D02*
D03*
D58*
X338090Y69882D02*
D03*
X315453D02*
D03*
D59*
X339075Y85630D02*
D03*
X349902D02*
D03*
D60*
X357480Y97638D02*
D03*
X348425D02*
D03*
X339370D02*
D03*
D61*
X348425Y122835D02*
D03*
M02*
