M48
;Layer_Color=9474304
;FILE_FORMAT=2:4
INCH
;TYPE=PLATED
T1F00S00C0.0150
T2F00S00C0.0200
T3F00S00C0.0250
T4F00S00C0.0270
T5F00S00C0.0280
T6F00S00C0.0300
T7F00S00C0.0335
T8F00S00C0.0400
T9F00S00C0.0512
T10F00S00C0.1181
%
T01
X011909Y000787
X012402
X012894
X013386
X012894Y001969
Y002461
Y002953
Y003445
X014272Y003740
X014764
X015256
X011319Y005413
X019616Y005541
Y001998
X024409Y003248
Y004331
X027067Y004232
X034154Y004134
X034646Y003937
X036122Y003740
X036811Y003740
X038754Y001549
X038386Y012205
X037205Y011811
X037382Y019764
X035039Y014764
X033622Y013583
X032874Y012795
X032480Y013189
X031791Y013976
X036417Y012894
Y005827
X027067Y006299
X022835Y010532
X022539Y016535
X020965Y014567
X018110Y014764
Y015256
X017618
X018110Y014272
Y013780
Y013287
X017618
X018406Y011417
X018701Y010335
Y009843
X018406Y008661
X017913
X017421
X016929
X015354Y010659
X013878Y010630
Y010138
X013287
Y010630
X012697
Y010138
Y011220
X013091
X013484
X013878
Y011614
X013484
X013091
X012697
Y012008
X013091
X013484
X013878
Y012402
X013484
X013091
X012697
Y013091
Y013583
X013287
Y013091
X013878
Y013583
X015551Y012500
X013386Y007382
X013091Y006890
X011319
Y006398
Y005906
X013681Y020866
X014173
X014665
X015748Y019587
X014665Y021358
X014173
X013681
Y021850
X014173
X014665
X037402Y021654
T02
X033268Y002756
T03
X016142Y003445
Y004331
Y005315
X017421Y005610
X020669Y005118
X022638Y005610
X024213Y005118
X030478Y003150
X029147Y000886
X029331Y007480
X028445Y009055
X029331Y010827
Y012303
X028642Y013976
X028346Y015846
X029921Y015157
X024646Y014429
X024902Y012672
X024196Y012697
X022343Y012106
X021752Y014075
X022539Y017815
X022244Y009055
X025394Y008760
X026181Y009744
X025787Y010827
Y011811
X033268Y010039
X034843Y018504
X034488Y019134
X016142Y017520
Y016634
X017913Y010433
X018799Y010925
X019882Y012303
X020669Y006890
X004626Y005738
Y017884
T04
X032776Y001280
X033740Y000709
X035827Y002165
X029528Y006496
T05
X029921Y000886
X030709
X032677Y010039
T06
X001969Y003937
X014764Y002953
Y000984
X036909Y015945
X030709Y017323
Y019291
X028543
Y017323
X026378
Y019291
X024213
Y017323
X019882
Y019291
X017717
Y017323
X005118Y015157
Y013189
Y010433
Y008465
X001969Y005906
Y017717
Y019685
T07
X039665Y016240
Y017240
Y018240
Y019240
Y020240
Y021240
X030315Y013484
Y012484
Y011484
Y010484
Y009484
Y008484
T08
X041535Y009843
Y010843
Y011843
Y012843
Y013843
X021244Y021850
X020244
X018110
X017110
X016110
X022244
X024378
X025378
X026378
X028512
X029512
X030512
T09
X041339Y004724
Y006693
X001969Y008858
Y010827
Y012795
Y014764
T10
X001575Y001575
X041732
X001575Y022047
X041732
M30
