G04 Layer_Physical_Order=1*
G04 Layer_Color=255*
%FSLAX24Y24*%
%MOIN*%
G70*
G01*
G75*
%ADD10R,0.0394X0.0236*%
%ADD11R,0.0236X0.0394*%
%ADD12R,0.0590X0.1170*%
%ADD13R,0.0157X0.0748*%
%ADD14R,0.0571X0.0236*%
%ADD15R,0.0750X0.1380*%
%ADD16R,0.1380X0.4020*%
%ADD17R,0.1181X0.0630*%
%ADD18R,0.2441X0.2283*%
%ADD19R,0.0374X0.0532*%
%ADD20R,0.0276X0.0374*%
%ADD21R,0.0374X0.0276*%
%ADD22R,0.0315X0.0315*%
%ADD23R,0.0709X0.0551*%
%ADD24R,0.0335X0.0374*%
%ADD25R,0.0374X0.0335*%
%ADD26R,0.0700X0.1300*%
%ADD27R,0.0500X0.0220*%
%ADD28R,0.0220X0.0500*%
%ADD29R,0.0460X0.0120*%
%ADD30R,0.1618X0.1717*%
%ADD31R,0.0540X0.0130*%
%ADD32R,0.0280X0.0310*%
%ADD33C,0.0200*%
%ADD34C,0.0120*%
%ADD35C,0.0100*%
%ADD36C,0.0300*%
%ADD37C,0.0350*%
%ADD38C,0.0340*%
%ADD39C,0.0150*%
%ADD40C,0.0600*%
%ADD41C,0.0250*%
%ADD42C,0.0098*%
%ADD43C,0.0400*%
%ADD44R,0.1654X0.0315*%
%ADD45C,0.0787*%
%ADD46R,0.0787X0.0787*%
%ADD47C,0.0600*%
%ADD48C,0.0630*%
%ADD49R,0.0630X0.0630*%
%ADD50C,0.0680*%
%ADD51R,0.0680X0.0680*%
%ADD52R,0.0680X0.0680*%
%ADD53C,0.1969*%
%ADD54C,0.0300*%
%ADD55C,0.0500*%
%ADD56C,0.0400*%
G36*
X33365Y23130D02*
Y22963D01*
X33958D01*
Y23010D01*
X33959Y23130D01*
X41160D01*
X41171Y23113D01*
X41135Y22953D01*
X41093Y22927D01*
X40963Y22816D01*
X40852Y22687D01*
X40763Y22541D01*
X40698Y22383D01*
X40658Y22217D01*
X40656Y22197D01*
X41732D01*
Y22047D01*
X41882D01*
Y20971D01*
X41902Y20973D01*
X42068Y21013D01*
X42226Y21078D01*
X42372Y21167D01*
X42501Y21278D01*
X42612Y21408D01*
X42638Y21450D01*
X42798Y21486D01*
X42815Y21475D01*
Y2147D01*
X42798Y2136D01*
X42638Y2172D01*
X42612Y2214D01*
X42501Y2344D01*
X42372Y2455D01*
X42226Y2544D01*
X42068Y2609D01*
X41902Y2649D01*
X41882Y2651D01*
Y1575D01*
X41732D01*
Y1425D01*
X40656D01*
X40658Y1405D01*
X40698Y1239D01*
X40763Y1081D01*
X40852Y936D01*
X40963Y806D01*
X41093Y695D01*
X41135Y669D01*
X41171Y509D01*
X41160Y492D01*
X33945D01*
X33935Y504D01*
X33892Y612D01*
X33910Y638D01*
X33924Y709D01*
Y1174D01*
X33978Y1288D01*
X34090Y1308D01*
X34470D01*
Y1840D01*
X34547Y1887D01*
X34566Y1898D01*
X34946D01*
X35057Y1878D01*
X35057Y1878D01*
Y1878D01*
X35145D01*
Y2165D01*
X35445D01*
Y1878D01*
X35533D01*
Y1982D01*
X35827D01*
X35897Y1996D01*
X35957Y2036D01*
X35996Y2095D01*
X36010Y2165D01*
X35996Y2236D01*
X35959Y2291D01*
Y3428D01*
X35986Y3462D01*
X36067Y3517D01*
X36122Y3506D01*
X36212Y3523D01*
X36258Y3555D01*
X36358Y3518D01*
X36378Y3502D01*
Y3450D01*
X36389Y3399D01*
X36417Y3356D01*
X37461Y2312D01*
X37420Y2214D01*
X37420D01*
Y884D01*
X38170D01*
Y1366D01*
X38614D01*
X38664Y1332D01*
X38754Y1315D01*
X38844Y1332D01*
X38920Y1383D01*
X38970Y1459D01*
X38988Y1549D01*
X38970Y1639D01*
X38920Y1715D01*
X38844Y1766D01*
X38754Y1784D01*
X38664Y1766D01*
X38614Y1733D01*
X38170D01*
Y2214D01*
X37918D01*
X37918Y2216D01*
X37889Y2259D01*
X36753Y3395D01*
X36811Y3506D01*
X36901Y3523D01*
X36977Y3574D01*
X37028Y3650D01*
X37046Y3740D01*
X37028Y3830D01*
X36977Y3906D01*
X36976Y3915D01*
X37304Y4242D01*
X37420Y4189D01*
Y2904D01*
X38170D01*
Y3335D01*
X38608D01*
X38698Y3352D01*
X38774Y3403D01*
X39536Y4165D01*
X39536Y4165D01*
X39587Y4241D01*
X39605Y4331D01*
Y5512D01*
X39587Y5602D01*
X39536Y5678D01*
X39460Y5728D01*
X39370Y5746D01*
X38974D01*
Y7102D01*
X38967Y7134D01*
X38962Y7142D01*
Y7437D01*
X38522D01*
Y7437D01*
X38462D01*
Y7437D01*
X38022D01*
Y7437D01*
X37962D01*
Y7437D01*
X37522D01*
X37522Y7437D01*
X37462D01*
Y7437D01*
X37402Y7437D01*
X37022D01*
Y7437D01*
X36874D01*
X36874Y7437D01*
X36784Y7419D01*
X36708Y7368D01*
X35331Y5991D01*
X34597D01*
Y5202D01*
X35938D01*
Y5935D01*
X36891Y6888D01*
X37011Y6838D01*
Y5577D01*
X36900Y5531D01*
X36644Y5787D01*
X36652Y5827D01*
X36634Y5917D01*
X36583Y5993D01*
X36507Y6044D01*
X36417Y6062D01*
X36328Y6044D01*
X36251Y5993D01*
X36201Y5917D01*
X36183Y5827D01*
X36201Y5737D01*
X36251Y5661D01*
X36328Y5611D01*
X36417Y5593D01*
X36458Y5601D01*
X37022Y5036D01*
Y4767D01*
X37297D01*
X37343Y4656D01*
X36738Y4052D01*
X36663Y4040D01*
X36588Y4052D01*
X36413Y4228D01*
X36370Y4256D01*
X36319Y4266D01*
X35664D01*
Y4279D01*
X35384D01*
X35042Y4621D01*
X34999Y4650D01*
X34948Y4660D01*
X32954D01*
Y4795D01*
X32518D01*
X32518Y4795D01*
X32442D01*
Y4795D01*
X32398Y4795D01*
X32007D01*
Y4336D01*
X31987Y4224D01*
X31987Y4224D01*
X31987Y4224D01*
Y4087D01*
X32224D01*
Y3787D01*
X31987D01*
Y3650D01*
X32092D01*
Y3437D01*
X31947D01*
Y3282D01*
X30478D01*
X30427Y3272D01*
X30384Y3243D01*
X30384Y3243D01*
X30355Y3200D01*
X30345Y3150D01*
X30355Y3099D01*
X30384Y3056D01*
X30427Y3027D01*
X30478Y3017D01*
X30478Y3017D01*
X31862D01*
X31947Y2932D01*
Y2863D01*
X31967Y2751D01*
Y2292D01*
X31967D01*
X32007Y2236D01*
Y1701D01*
X32387D01*
X32498Y1681D01*
X32507D01*
X32592Y1597D01*
Y1280D01*
X32606Y1209D01*
X32644Y1153D01*
X32641Y1135D01*
X32605Y1033D01*
X32065D01*
X29430Y3667D01*
X29476Y3778D01*
X29589D01*
Y4604D01*
X30254Y5269D01*
X32067D01*
X32109Y5274D01*
X34312D01*
Y7718D01*
X31819D01*
X31811Y7719D01*
X30157D01*
X30150Y7718D01*
X30048D01*
Y7689D01*
X29586D01*
X29566Y7716D01*
X29497Y7769D01*
X29417Y7802D01*
X29331Y7813D01*
X29245Y7802D01*
X29164Y7769D01*
X29095Y7716D01*
X29059Y7713D01*
X28652Y8120D01*
X28623Y8139D01*
Y8239D01*
X28188D01*
Y8239D01*
X28111D01*
Y8239D01*
X27676D01*
Y8181D01*
X27442D01*
Y8239D01*
X27427D01*
X27418Y8289D01*
X27372Y8356D01*
X27043Y8686D01*
X27110Y8788D01*
X27329D01*
X27655Y8462D01*
X27655Y8462D01*
X27701Y8431D01*
X27756Y8420D01*
X28051D01*
X28051Y8420D01*
X28051Y8420D01*
X29528D01*
X29528Y8420D01*
X29582Y8431D01*
X29628Y8462D01*
X29842Y8675D01*
X29842Y8675D01*
X29938Y8606D01*
X29930Y8587D01*
X29917Y8484D01*
X29930Y8381D01*
X29970Y8285D01*
X30033Y8203D01*
X30116Y8139D01*
X30212Y8099D01*
X30315Y8086D01*
X30418Y8099D01*
X30514Y8139D01*
X30597Y8203D01*
X30660Y8285D01*
X30677Y8326D01*
X30856D01*
X30917Y8338D01*
X30968Y8372D01*
X31502Y8906D01*
X31613Y8861D01*
Y8591D01*
X32005D01*
X32048Y8591D01*
Y8591D01*
X32125D01*
Y8591D01*
X32560D01*
Y8700D01*
X32579D01*
X32639Y8712D01*
X32690Y8747D01*
X32806Y8862D01*
X32841Y8914D01*
X32853Y8974D01*
Y9708D01*
X32853Y9709D01*
X32942Y9804D01*
X33032D01*
X33101Y9751D01*
X33182Y9718D01*
X33268Y9707D01*
X33354Y9718D01*
X33434Y9751D01*
X33503Y9804D01*
X33556Y9873D01*
X33589Y9953D01*
X33601Y10039D01*
X33612Y10053D01*
X33819D01*
X33889Y10067D01*
X33949Y10106D01*
X33999Y10157D01*
X34057Y10148D01*
X34124Y10113D01*
X34130Y10087D01*
X34158Y10044D01*
X34802Y9400D01*
Y8995D01*
X35119D01*
Y9903D01*
X34802D01*
Y9903D01*
X34712Y9865D01*
X34385Y10193D01*
Y10382D01*
X34757D01*
Y10579D01*
X35060D01*
X35596Y10043D01*
X35583Y10010D01*
Y9599D01*
X35612D01*
Y9730D01*
X35732Y9794D01*
X35747Y9784D01*
Y8995D01*
X36064D01*
Y9903D01*
X36038D01*
Y9921D01*
X36028Y9972D01*
X35999Y10015D01*
X35209Y10805D01*
X35166Y10834D01*
X35115Y10844D01*
X34757D01*
Y11017D01*
X34796Y11070D01*
X34849Y11109D01*
X35485D01*
Y11116D01*
X35770D01*
X36642Y10244D01*
X36701Y10204D01*
X36772Y10190D01*
X36938D01*
Y10156D01*
X37472D01*
Y10190D01*
X38119D01*
Y10156D01*
X38653D01*
Y10190D01*
X39300D01*
Y10156D01*
X39834D01*
Y10322D01*
X39945Y10367D01*
X40581Y9731D01*
X40633Y9697D01*
X40693Y9684D01*
X41115D01*
Y9423D01*
X41955D01*
Y10262D01*
X41115D01*
Y10001D01*
X40759D01*
X39834Y10925D01*
Y11104D01*
X39300D01*
Y10668D01*
X39300Y10668D01*
X39277Y10558D01*
X38676D01*
X38653Y10668D01*
X38653Y10712D01*
Y11104D01*
X38653D01*
X38640Y11143D01*
X38727Y11259D01*
X39895D01*
X40424Y10731D01*
X40475Y10697D01*
X40535Y10684D01*
X41146D01*
X41169Y10631D01*
X41236Y10543D01*
X41324Y10476D01*
X41426Y10433D01*
X41535Y10419D01*
X41645Y10433D01*
X41747Y10476D01*
X41835Y10543D01*
X41902Y10631D01*
X41945Y10733D01*
X41959Y10843D01*
X41945Y10952D01*
X41902Y11054D01*
X41835Y11142D01*
X41747Y11209D01*
X41645Y11252D01*
X41535Y11266D01*
X41426Y11252D01*
X41324Y11209D01*
X41236Y11142D01*
X41169Y11054D01*
X41146Y11001D01*
X40601D01*
X40072Y11529D01*
X40021Y11563D01*
X40015Y11564D01*
X40027Y11684D01*
X41146D01*
X41169Y11631D01*
X41236Y11543D01*
X41324Y11476D01*
X41426Y11433D01*
X41535Y11419D01*
X41645Y11433D01*
X41747Y11476D01*
X41835Y11543D01*
X41902Y11631D01*
X41945Y11733D01*
X41959Y11843D01*
X41945Y11952D01*
X41902Y12054D01*
X41835Y12142D01*
X41747Y12209D01*
X41645Y12252D01*
X41535Y12266D01*
X41426Y12252D01*
X41324Y12209D01*
X41236Y12142D01*
X41169Y12054D01*
X41146Y12001D01*
X38670D01*
X38603Y12114D01*
X38604Y12121D01*
X38620Y12205D01*
X38602Y12294D01*
X38552Y12371D01*
X38476Y12421D01*
X38386Y12439D01*
X38296Y12421D01*
X38267Y12402D01*
X35485D01*
Y12690D01*
X36308D01*
X36328Y12677D01*
X36417Y12659D01*
X36507Y12677D01*
X36583Y12728D01*
X36634Y12804D01*
X36652Y12894D01*
X36634Y12983D01*
X36583Y13060D01*
X36507Y13110D01*
X36417Y13128D01*
X36328Y13110D01*
X36251Y13060D01*
X36250Y13058D01*
X36125D01*
X36075Y13177D01*
X36631Y13734D01*
X36938D01*
Y13700D01*
X37163D01*
X38150Y12713D01*
X38209Y12673D01*
X38280Y12659D01*
X41157D01*
X41169Y12631D01*
X41236Y12543D01*
X41324Y12476D01*
X41426Y12433D01*
X41535Y12419D01*
X41645Y12433D01*
X41747Y12476D01*
X41835Y12543D01*
X41902Y12631D01*
X41945Y12733D01*
X41959Y12843D01*
X41945Y12952D01*
X41902Y13054D01*
X41835Y13142D01*
X41747Y13209D01*
X41645Y13252D01*
X41535Y13266D01*
X41426Y13252D01*
X41324Y13209D01*
X41236Y13142D01*
X41169Y13054D01*
X41157Y13026D01*
X38356D01*
X37472Y13910D01*
Y14135D01*
X37472Y14135D01*
X37495Y14246D01*
X38096D01*
X38119Y14135D01*
X38119Y14091D01*
Y13700D01*
X38351D01*
X38390Y13673D01*
X38461Y13659D01*
X41157D01*
X41169Y13631D01*
X41236Y13543D01*
X41324Y13476D01*
X41426Y13433D01*
X41535Y13419D01*
X41645Y13433D01*
X41747Y13476D01*
X41835Y13543D01*
X41902Y13631D01*
X41945Y13733D01*
X41959Y13843D01*
X41945Y13952D01*
X41902Y14054D01*
X41835Y14142D01*
X41747Y14209D01*
X41645Y14252D01*
X41535Y14266D01*
X41426Y14252D01*
X41324Y14209D01*
X41236Y14142D01*
X41169Y14054D01*
X41157Y14026D01*
X38738D01*
X38653Y14111D01*
X38653Y14211D01*
X38653Y14255D01*
Y14647D01*
X38653D01*
X38569Y14767D01*
X38571Y14777D01*
X40059D01*
X40129Y14791D01*
X40189Y14831D01*
X41557Y16200D01*
X41773D01*
Y16670D01*
X41773Y16674D01*
Y16790D01*
X41773Y16794D01*
Y17265D01*
X41298D01*
Y17186D01*
X40335D01*
X40274Y17174D01*
X40223Y17139D01*
X40151Y17068D01*
X40050Y17136D01*
X40050Y17137D01*
X40064Y17240D01*
X40050Y17343D01*
X40010Y17439D01*
X39947Y17522D01*
X39865Y17585D01*
X39768Y17625D01*
X39672Y17638D01*
X39578Y17732D01*
X39634Y17846D01*
X39665Y17842D01*
X39768Y17855D01*
X39865Y17895D01*
X39947Y17958D01*
X40010Y18041D01*
X40050Y18137D01*
X40064Y18240D01*
X40050Y18343D01*
X40010Y18439D01*
X39993Y18462D01*
X39995Y18490D01*
X40045Y18591D01*
X40060Y18594D01*
X40112Y18628D01*
X40348Y18865D01*
X40382Y18916D01*
X40394Y18976D01*
Y19669D01*
X40382Y19730D01*
X40348Y19781D01*
X40033Y20096D01*
X40050Y20137D01*
X40064Y20240D01*
X40050Y20343D01*
X40010Y20439D01*
X39947Y20522D01*
X39865Y20585D01*
X39768Y20625D01*
X39665Y20639D01*
X39562Y20625D01*
X39466Y20585D01*
X39384Y20522D01*
X39320Y20439D01*
X39281Y20343D01*
X39267Y20240D01*
X39281Y20137D01*
X39320Y20041D01*
X39384Y19958D01*
X39466Y19895D01*
X39562Y19855D01*
X39665Y19842D01*
X39768Y19855D01*
X39810Y19872D01*
X40025Y19657D01*
X40017Y19620D01*
X39882Y19572D01*
X39865Y19585D01*
X39768Y19625D01*
X39665Y19639D01*
X39562Y19625D01*
X39466Y19585D01*
X39384Y19522D01*
X39320Y19439D01*
X39281Y19343D01*
X39274Y19292D01*
X38780D01*
X38730Y19412D01*
X38891Y19573D01*
X38926Y19625D01*
X38938Y19685D01*
Y20289D01*
X39521Y20872D01*
X39562Y20855D01*
X39665Y20842D01*
X39768Y20855D01*
X39865Y20895D01*
X39947Y20958D01*
X40010Y21041D01*
X40050Y21137D01*
X40064Y21240D01*
X40050Y21343D01*
X40010Y21439D01*
X39947Y21522D01*
X39865Y21585D01*
X39768Y21625D01*
X39665Y21639D01*
X39562Y21625D01*
X39466Y21585D01*
X39384Y21522D01*
X39320Y21439D01*
X39281Y21343D01*
X39267Y21240D01*
X39281Y21137D01*
X39298Y21096D01*
X38668Y20466D01*
X38634Y20415D01*
X38621Y20354D01*
Y19757D01*
X38530Y19682D01*
X38426Y19725D01*
Y20196D01*
Y20511D01*
Y20826D01*
Y21140D01*
Y21455D01*
Y21770D01*
Y22167D01*
X37873D01*
Y21786D01*
X37590D01*
X37567Y21819D01*
X37491Y21870D01*
X37402Y21888D01*
X37312Y21870D01*
X37236Y21819D01*
X37185Y21743D01*
X37167Y21654D01*
X37185Y21564D01*
X37236Y21488D01*
X37312Y21437D01*
X37402Y21419D01*
X37491Y21437D01*
X37567Y21488D01*
X37590Y21521D01*
X37873D01*
Y21140D01*
Y20826D01*
Y20511D01*
Y20196D01*
Y19896D01*
X37570D01*
X37548Y19930D01*
X37472Y19980D01*
X37382Y19998D01*
X37292Y19980D01*
X37216Y19930D01*
X37165Y19854D01*
X37147Y19764D01*
X37165Y19674D01*
X37216Y19598D01*
X37292Y19547D01*
X37382Y19529D01*
X37472Y19547D01*
X37548Y19598D01*
X37570Y19631D01*
X37873D01*
Y19251D01*
Y18936D01*
Y18621D01*
Y18306D01*
Y17991D01*
Y17676D01*
Y17361D01*
Y16852D01*
X35809D01*
Y16872D01*
X35641D01*
Y16575D01*
X35541D01*
Y16872D01*
X35372D01*
Y16852D01*
X34234D01*
Y16872D01*
X34066D01*
Y16575D01*
X34016D01*
Y16525D01*
X33798D01*
Y16278D01*
X33898D01*
X33944Y16167D01*
X32288Y14511D01*
X32259Y14468D01*
X32250Y14422D01*
X32172D01*
Y13786D01*
X32133Y13733D01*
X32095Y13705D01*
X32008Y13726D01*
X31982Y13847D01*
X32008Y13887D01*
X32026Y13976D01*
X32008Y14066D01*
X31957Y14142D01*
X31881Y14193D01*
X31791Y14211D01*
X31702Y14193D01*
X31626Y14142D01*
X31575Y14066D01*
X31557Y13976D01*
X31575Y13887D01*
X31608Y13837D01*
Y13694D01*
X31445D01*
Y13314D01*
Y12999D01*
Y12684D01*
Y12369D01*
Y12087D01*
X31122D01*
X31062Y12075D01*
X31010Y12041D01*
X30794Y11824D01*
X30759Y11773D01*
X30756Y11754D01*
X30641Y11720D01*
X30631Y11721D01*
X30597Y11766D01*
X30514Y11829D01*
X30418Y11869D01*
X30315Y11883D01*
X30212Y11869D01*
X30116Y11829D01*
X30033Y11766D01*
X29970Y11683D01*
X29930Y11587D01*
X29917Y11484D01*
X29930Y11381D01*
X29970Y11285D01*
X30033Y11203D01*
X30116Y11139D01*
X30212Y11099D01*
X30315Y11086D01*
X30418Y11099D01*
X30514Y11139D01*
X30559Y11174D01*
X30671Y11145D01*
X30691Y11129D01*
X30699Y11092D01*
X30459Y10852D01*
X30418Y10869D01*
X30315Y10883D01*
X30212Y10869D01*
X30116Y10829D01*
X30033Y10766D01*
X30003Y10727D01*
X29883Y10768D01*
Y11007D01*
X29873Y11062D01*
X29842Y11108D01*
X29842Y11108D01*
X29538Y11412D01*
X29492Y11443D01*
X29437Y11454D01*
X29437Y11454D01*
X29111D01*
X29068Y11508D01*
X29125Y11628D01*
X29642D01*
X29712Y11641D01*
X29772Y11681D01*
X30165Y12075D01*
Y12334D01*
X29905D01*
X29769Y12198D01*
X29657Y12256D01*
X29664Y12303D01*
X29652Y12389D01*
X29619Y12470D01*
X29566Y12539D01*
X29497Y12591D01*
X29469Y12603D01*
X29435Y12726D01*
X29437Y12741D01*
X29780Y13083D01*
X29900Y13069D01*
X29900Y13069D01*
X30165D01*
Y13484D01*
Y13899D01*
X30077D01*
X30027Y14019D01*
X32551Y16543D01*
X32591Y16603D01*
X32605Y16673D01*
Y18608D01*
X32715Y18631D01*
X32759Y18631D01*
X33151D01*
Y18661D01*
X33385D01*
Y18407D01*
X33365D01*
Y18239D01*
X33958D01*
Y18346D01*
X34551D01*
X34554Y18338D01*
X34607Y18269D01*
X34676Y18216D01*
X34756Y18182D01*
X34843Y18171D01*
X34929Y18182D01*
X35009Y18216D01*
X35078Y18269D01*
X35131Y18338D01*
X35164Y18418D01*
X35175Y18504D01*
X35164Y18590D01*
X35131Y18670D01*
X35078Y18739D01*
X35009Y18792D01*
X34929Y18825D01*
X34843Y18837D01*
X34826Y18835D01*
X34761Y18947D01*
X34776Y18967D01*
X34810Y19048D01*
X34821Y19134D01*
X34810Y19220D01*
X34776Y19300D01*
X34724Y19369D01*
X34655Y19422D01*
X34574Y19455D01*
X34488Y19467D01*
X34402Y19455D01*
X34322Y19422D01*
X34253Y19369D01*
X34200Y19300D01*
X34196Y19292D01*
X33938D01*
Y19566D01*
Y19861D01*
X33958D01*
Y20029D01*
X33365D01*
Y19861D01*
X33385D01*
Y19607D01*
X33151D01*
Y19755D01*
X32759D01*
X32639Y19755D01*
X32595Y19755D01*
X32203D01*
Y19221D01*
X32203D01*
Y19165D01*
X32203D01*
Y18631D01*
X32238D01*
Y16749D01*
X29595Y14106D01*
X29555Y14047D01*
X29541Y13976D01*
Y13363D01*
X29172Y12995D01*
X29001D01*
X28997Y13113D01*
X28997Y13129D01*
Y13509D01*
X28825D01*
Y13701D01*
X28877Y13741D01*
X28930Y13810D01*
X28963Y13890D01*
X28975Y13976D01*
X28963Y14063D01*
X28930Y14143D01*
X28877Y14212D01*
X28825Y14252D01*
Y14331D01*
X28811Y14401D01*
X28772Y14460D01*
X28033Y15199D01*
Y15523D01*
X27641D01*
X27521Y15523D01*
X27477Y15523D01*
X27085D01*
Y14989D01*
X27120D01*
Y14834D01*
X27085D01*
Y14300D01*
X27120D01*
Y11139D01*
X26975Y10995D01*
X26856D01*
X26852Y11113D01*
X26852Y11129D01*
Y11493D01*
X26852Y11509D01*
Y11613D01*
X26852Y11629D01*
Y11993D01*
X26852Y12009D01*
Y12113D01*
X26852Y12129D01*
Y12493D01*
X26852Y12509D01*
Y12613D01*
X26852Y12629D01*
Y12993D01*
X26852Y13009D01*
Y13113D01*
X26852Y13129D01*
Y13509D01*
X26817D01*
Y14300D01*
X26852D01*
Y14834D01*
X26817D01*
Y15000D01*
X26803Y15070D01*
X26764Y15130D01*
X25917Y15976D01*
X25858Y16016D01*
X25787Y16030D01*
X25375D01*
Y16113D01*
X25233D01*
X25187Y16224D01*
X25627Y16664D01*
X25666Y16723D01*
X25680Y16793D01*
Y20731D01*
X25666Y20802D01*
X25627Y20861D01*
X25102Y21386D01*
X25166Y21484D01*
X25268Y21441D01*
X25378Y21427D01*
X25488Y21441D01*
X25590Y21484D01*
X25677Y21551D01*
X25745Y21639D01*
X25787Y21741D01*
X25802Y21850D01*
X25787Y21960D01*
X25745Y22062D01*
X25677Y22150D01*
X25590Y22217D01*
X25488Y22260D01*
X25378Y22274D01*
X25268Y22260D01*
X25249Y22252D01*
X25105Y22396D01*
X25151Y22507D01*
X25567D01*
X25958Y22116D01*
Y21430D01*
X26798D01*
Y22270D01*
X26323D01*
X25773Y22820D01*
X25713Y22860D01*
X25643Y22874D01*
X24030D01*
X23960Y22860D01*
X23900Y22820D01*
X23408Y22328D01*
X23368Y22269D01*
X23354Y22198D01*
Y21502D01*
X23368Y21432D01*
X23408Y21373D01*
X24529Y20252D01*
Y19679D01*
X24409Y19620D01*
X24404Y19623D01*
X24312Y19662D01*
X24213Y19675D01*
X24113Y19662D01*
X24021Y19623D01*
X23942Y19562D01*
X23881Y19483D01*
X23842Y19391D01*
X23829Y19291D01*
X23842Y19192D01*
X23881Y19100D01*
X23942Y19020D01*
X24021Y18959D01*
X24113Y18921D01*
X24213Y18908D01*
X24312Y18921D01*
X24404Y18959D01*
X24409Y18963D01*
X24529Y18904D01*
Y17710D01*
X24409Y17651D01*
X24404Y17655D01*
X24312Y17693D01*
X24213Y17706D01*
X24113Y17693D01*
X24021Y17655D01*
X23942Y17594D01*
X23881Y17514D01*
X23877Y17506D01*
X23524D01*
X23453Y17492D01*
X23394Y17453D01*
X23202Y17260D01*
X22974D01*
Y17432D01*
X22443D01*
X22187Y17689D01*
X22127Y17729D01*
X22057Y17743D01*
X22042D01*
X22019Y17853D01*
X22019Y17853D01*
X22019Y17853D01*
Y17987D01*
X22085Y18079D01*
X22381D01*
Y17815D01*
X22393Y17754D01*
X22428Y17703D01*
X22479Y17669D01*
X22539Y17657D01*
X22600Y17669D01*
X22651Y17703D01*
X22685Y17754D01*
X22697Y17815D01*
Y18079D01*
X22994D01*
Y18305D01*
X22539D01*
Y18455D01*
X22389D01*
Y18830D01*
X22249D01*
X22203Y18941D01*
X22443Y19182D01*
X22974D01*
Y19893D01*
X22105D01*
Y19363D01*
X21622Y18880D01*
X21582Y18820D01*
X21568Y18750D01*
Y18289D01*
X21485D01*
Y18159D01*
X21032Y17706D01*
X20992Y17646D01*
X20978Y17576D01*
Y15828D01*
X20894D01*
Y15392D01*
X20894D01*
Y15316D01*
X20894D01*
Y14881D01*
X20894Y14881D01*
X20861Y14774D01*
X20799Y14733D01*
X20748Y14657D01*
X20730Y14567D01*
X20748Y14477D01*
X20799Y14401D01*
X20821Y14386D01*
X20847Y14243D01*
X19841Y13237D01*
X19470D01*
Y13251D01*
X18739D01*
Y12871D01*
X18739Y12855D01*
Y12751D01*
X18739Y12735D01*
Y12371D01*
X18739Y12355D01*
X18735Y12237D01*
X18352D01*
X18282Y12223D01*
X18223Y12183D01*
X17784Y11744D01*
X17744Y11684D01*
X17730Y11614D01*
Y10708D01*
X17678Y10668D01*
X17625Y10599D01*
X17592Y10519D01*
X17581Y10433D01*
X17584Y10404D01*
X17471Y10348D01*
X17310Y10509D01*
Y12402D01*
X17296Y12472D01*
X17256Y12531D01*
X16847Y12940D01*
X16788Y12980D01*
X16718Y12994D01*
X16647Y12980D01*
X16607Y12953D01*
X15423D01*
X15423Y12953D01*
X15368Y12942D01*
X15322Y12911D01*
X15322Y12911D01*
X15260Y12849D01*
X15102D01*
Y12913D01*
X14772D01*
X14442D01*
Y12803D01*
X14462D01*
Y12611D01*
X14442D01*
Y12501D01*
X14772D01*
Y12401D01*
X14442D01*
Y12291D01*
X14462D01*
Y12099D01*
X14442D01*
Y11989D01*
X14772D01*
Y11889D01*
X14442D01*
Y11779D01*
X14462D01*
Y11543D01*
Y11075D01*
X14442D01*
Y10965D01*
X14772D01*
Y10865D01*
X14442D01*
Y10755D01*
X14462D01*
Y10519D01*
Y10052D01*
X14442D01*
Y9942D01*
X14772D01*
Y9892D01*
X14822D01*
Y9732D01*
X15102D01*
X15113Y9616D01*
Y9055D01*
X15113Y9055D01*
X15124Y9000D01*
X15155Y8954D01*
X15450Y8659D01*
X15450Y8659D01*
X15497Y8628D01*
X15551Y8617D01*
X15551Y8617D01*
X15905D01*
X16003Y8520D01*
X15996Y8366D01*
X15961Y8338D01*
X15570D01*
Y8214D01*
X14305D01*
Y8661D01*
Y8986D01*
X14285Y9086D01*
X14229Y9170D01*
X13767Y9633D01*
X13682Y9689D01*
X13583Y9709D01*
X12214D01*
X12112Y9810D01*
Y10264D01*
Y10755D01*
X12132D01*
Y10865D01*
X11802D01*
Y10965D01*
X12132D01*
Y11075D01*
X12112D01*
Y11523D01*
X12132D01*
Y11633D01*
X11802D01*
X11472D01*
Y11570D01*
X9163D01*
X9109Y11559D01*
X9062Y11528D01*
X9062Y11528D01*
X8295Y10760D01*
X8264Y10714D01*
X8261Y10700D01*
X8148D01*
Y10408D01*
X8037Y10362D01*
X7930Y10470D01*
Y10973D01*
X8013D01*
Y11665D01*
X7874D01*
Y11957D01*
X8013D01*
Y12649D01*
X7930D01*
Y12955D01*
X8037Y13063D01*
X8148Y13017D01*
Y12725D01*
X8158D01*
X8253Y12667D01*
X8264Y12613D01*
X8295Y12566D01*
X9023Y11838D01*
X9023Y11838D01*
X9069Y11807D01*
X9124Y11796D01*
X9124Y11796D01*
X11472D01*
Y11733D01*
X11802D01*
X12132D01*
Y11843D01*
X12112D01*
Y12291D01*
X12132D01*
Y12401D01*
X11802D01*
Y12501D01*
X12132D01*
Y12611D01*
X12112D01*
Y13079D01*
Y13334D01*
Y13819D01*
X12212Y13918D01*
X13583D01*
X13680Y13938D01*
X13763Y13993D01*
X14226Y14456D01*
X14281Y14538D01*
X14300Y14636D01*
Y14961D01*
Y15446D01*
X14676Y15822D01*
X15194D01*
Y16251D01*
X16142D01*
X16241Y16264D01*
X16333Y16302D01*
X16413Y16363D01*
X16474Y16442D01*
X16512Y16535D01*
X16525Y16634D01*
Y17520D01*
X16512Y17619D01*
X16474Y17711D01*
X16413Y17791D01*
X16333Y17852D01*
X16241Y17890D01*
X16142Y17903D01*
X16043Y17890D01*
X15950Y17852D01*
X15871Y17791D01*
X15810Y17711D01*
X15772Y17619D01*
X15758Y17520D01*
Y17017D01*
X15194D01*
Y17282D01*
X14576D01*
X12241Y19616D01*
Y20234D01*
X11381D01*
Y18774D01*
X11999D01*
X14334Y16439D01*
Y16200D01*
X13952Y15818D01*
X13893D01*
X13781Y15838D01*
X13686Y15838D01*
X13664D01*
Y15551D01*
X13514D01*
Y15401D01*
X13246D01*
Y15368D01*
X13246Y15264D01*
X13246Y15144D01*
Y15111D01*
X13514D01*
Y14811D01*
X13246D01*
Y14674D01*
X13566D01*
X13612Y14563D01*
X13477Y14428D01*
X12587D01*
X12541Y14539D01*
X12571Y14570D01*
X12602Y14616D01*
X12613Y14671D01*
X12718Y14694D01*
Y15164D01*
X12718Y15228D01*
X12718Y15348D01*
Y15818D01*
X12712D01*
Y15993D01*
X12836D01*
Y16684D01*
X12302D01*
Y15993D01*
X12353D01*
X12396Y15873D01*
X12341Y15818D01*
X12223Y15818D01*
X12103Y15818D01*
X11953D01*
X11928Y15853D01*
X11989Y15973D01*
X12128D01*
Y16189D01*
X11841D01*
Y16339D01*
X11691D01*
Y16704D01*
X11554D01*
Y16306D01*
X11443Y16260D01*
X11109Y16594D01*
Y18898D01*
X11095Y18968D01*
X11055Y19027D01*
X9086Y20996D01*
X9027Y21036D01*
X8960Y21049D01*
Y22956D01*
X7874D01*
Y23130D01*
X33365Y23130D01*
D02*
G37*
G36*
X6496Y18701D02*
X4724D01*
X2559Y16535D01*
Y14173D01*
X2362Y13976D01*
X1575D01*
X1378Y14173D01*
Y17717D01*
X1555Y17893D01*
X1597Y17865D01*
X1579Y17821D01*
X1565Y17717D01*
X1579Y17612D01*
X1619Y17515D01*
X1683Y17431D01*
X1767Y17367D01*
X1819Y17346D01*
Y17717D01*
X1969D01*
Y17867D01*
X2339D01*
X2318Y17918D01*
X2254Y18002D01*
X2170Y18066D01*
X2073Y18106D01*
X1969Y18120D01*
X1864Y18106D01*
X1820Y18088D01*
X1792Y18130D01*
X3622Y19961D01*
X3847D01*
Y19585D01*
X3984D01*
Y19823D01*
X4134D01*
Y19973D01*
X4421D01*
Y20051D01*
X4528Y20157D01*
Y22835D01*
X4724Y23031D01*
X6496D01*
Y18701D01*
D02*
G37*
G36*
X39180Y16621D02*
X39231Y16586D01*
X39250Y16582D01*
Y16390D01*
X39665D01*
X40080D01*
Y16582D01*
X40100Y16586D01*
X40151Y16621D01*
X40400Y16870D01*
X41209D01*
X41298Y16790D01*
Y16674D01*
X41298Y16670D01*
Y16459D01*
X39983Y15144D01*
X38466D01*
Y15228D01*
X38074D01*
X37954Y15228D01*
X37910Y15228D01*
X37518D01*
Y15144D01*
X36596D01*
Y15228D01*
X36586D01*
X36572Y15348D01*
X36845Y15621D01*
X36909Y15612D01*
X36996Y15623D01*
X37076Y15657D01*
X37145Y15710D01*
X37198Y15778D01*
X37231Y15859D01*
X37242Y15945D01*
X37234Y16010D01*
X37295Y16071D01*
X37335Y16131D01*
X37349Y16201D01*
Y16298D01*
X37993D01*
Y16731D01*
X38426D01*
Y17204D01*
X38546Y17254D01*
X39180Y16621D01*
D02*
G37*
G36*
X10742Y18822D02*
Y18544D01*
X10731Y18429D01*
X9191D01*
Y14249D01*
X9191D01*
X9204Y14218D01*
X8935Y13948D01*
X8680D01*
Y13948D01*
X8643D01*
Y13948D01*
X8148D01*
Y13693D01*
X7985Y13530D01*
X7874Y13576D01*
Y14092D01*
X8268D01*
X8299Y14098D01*
X8325Y14116D01*
X8343Y14142D01*
X8349Y14173D01*
Y18504D01*
X8343Y18535D01*
X8325Y18562D01*
X8299Y18579D01*
X8268Y18585D01*
X7874D01*
Y18776D01*
X8960D01*
Y20447D01*
X9071Y20493D01*
X10742Y18822D01*
D02*
G37*
G36*
X8268Y14173D02*
X4331D01*
X2559Y12402D01*
X2362Y12205D01*
X1575D01*
X1378Y12402D01*
Y13583D01*
X1729Y13895D01*
X2362D01*
X2362Y13895D01*
X2393Y13901D01*
X2420Y13919D01*
X2617Y14116D01*
X2634Y14142D01*
X2641Y14173D01*
X2641Y14173D01*
Y14705D01*
X4788Y16614D01*
X4831Y16632D01*
Y16632D01*
X4831Y16632D01*
X4968D01*
Y16870D01*
X5118D01*
Y17020D01*
X5405D01*
Y17026D01*
X5512Y17133D01*
Y17520D01*
X6496Y18504D01*
X8268D01*
Y14173D01*
D02*
G37*
G36*
X33097Y13742D02*
X33175D01*
Y13283D01*
X32869Y12978D01*
X32804Y12965D01*
X32744Y12925D01*
X32704Y12866D01*
X32690Y12795D01*
X32704Y12725D01*
X32744Y12665D01*
X32809Y12601D01*
Y11062D01*
X32782D01*
Y11042D01*
X32449D01*
X32400Y11162D01*
X32406Y11170D01*
X32416Y11220D01*
Y12205D01*
X32406Y12255D01*
X32377Y12298D01*
X32338Y12338D01*
X32295Y12367D01*
X32244Y12377D01*
X32105D01*
Y12684D01*
Y13056D01*
X32292D01*
X32314Y13023D01*
X32391Y12972D01*
X32480Y12954D01*
X32570Y12972D01*
X32646Y13023D01*
X32697Y13099D01*
X32715Y13189D01*
X32697Y13279D01*
X32646Y13355D01*
X32570Y13406D01*
X32480Y13423D01*
X32391Y13406D01*
X32314Y13355D01*
X32292Y13322D01*
X32105D01*
Y13670D01*
X32144Y13723D01*
X32197Y13762D01*
X33097D01*
Y13742D01*
D02*
G37*
G36*
X11692Y15492D02*
Y15284D01*
X11692D01*
Y15228D01*
X11692D01*
Y14915D01*
X11091Y14315D01*
X11061Y14269D01*
X11050Y14214D01*
X11050Y14214D01*
Y12922D01*
X11050Y12922D01*
X11061Y12867D01*
X11091Y12821D01*
X11307Y12606D01*
X11307Y12606D01*
X11353Y12575D01*
X11400Y12474D01*
X11284Y12441D01*
X10632Y13093D01*
X10586Y13124D01*
X10532Y13135D01*
X10531Y13135D01*
X9174D01*
Y13259D01*
X9111D01*
Y13414D01*
X9174D01*
Y13669D01*
X9754Y14249D01*
X10731D01*
Y16283D01*
X10851Y16333D01*
X11692Y15492D01*
D02*
G37*
G36*
X22105Y17194D02*
Y16721D01*
X22243D01*
X22273Y16684D01*
X22318Y16601D01*
X22305Y16535D01*
X22318Y16470D01*
X22273Y16387D01*
X22243Y16350D01*
X22105D01*
Y15639D01*
X22925D01*
X22978Y15633D01*
X23040Y15546D01*
Y10815D01*
X22925Y10748D01*
X22920Y10749D01*
X22835Y10766D01*
X22745Y10748D01*
X22669Y10697D01*
X22618Y10621D01*
X22600Y10532D01*
X22618Y10442D01*
X22651Y10392D01*
Y9557D01*
X22652Y9552D01*
X22651Y9547D01*
Y9248D01*
X22536Y9222D01*
X22531Y9223D01*
X22479Y9290D01*
X22411Y9343D01*
X22330Y9377D01*
X22244Y9388D01*
X22158Y9377D01*
X22078Y9343D01*
X22009Y9290D01*
X21969Y9239D01*
X18580D01*
X17828Y9990D01*
X17884Y10104D01*
X17913Y10100D01*
X18000Y10112D01*
X18080Y10145D01*
X18149Y10198D01*
X18202Y10267D01*
X18235Y10347D01*
X18246Y10433D01*
X18235Y10519D01*
X18202Y10599D01*
X18149Y10668D01*
X18097Y10708D01*
Y11538D01*
X18428Y11870D01*
X18667D01*
X18719Y11771D01*
X18719Y11743D01*
Y11703D01*
X19104D01*
Y11403D01*
X18719D01*
X18719Y11358D01*
X18718Y11332D01*
X18678Y11232D01*
X18633Y11213D01*
X18564Y11161D01*
X18511Y11092D01*
X18478Y11011D01*
X18466Y10925D01*
X18478Y10839D01*
X18511Y10759D01*
X18564Y10690D01*
X18633Y10637D01*
X18713Y10604D01*
X18799Y10592D01*
X18885Y10604D01*
X18966Y10637D01*
X19035Y10690D01*
X19074Y10742D01*
X21115D01*
X21115Y10742D01*
X21051Y10622D01*
X21022D01*
Y10485D01*
X21289D01*
Y10185D01*
X21022D01*
Y10151D01*
X21022Y10048D01*
X21022Y9928D01*
Y9894D01*
X21289D01*
Y9744D01*
X21439D01*
Y9457D01*
X21462D01*
X21557Y9457D01*
X21668Y9477D01*
X22068D01*
Y10011D01*
X22068D01*
Y10068D01*
X22068D01*
Y10602D01*
X21891D01*
X21437Y11055D01*
X21378Y11095D01*
X21308Y11109D01*
X20568D01*
X20558Y11122D01*
Y11408D01*
X20668Y11454D01*
X20699Y11423D01*
X20759Y11384D01*
X20829Y11370D01*
X20885D01*
Y11355D01*
X21615D01*
Y11735D01*
X21615Y11751D01*
X21619Y11870D01*
X22109D01*
X22176Y11818D01*
X22256Y11785D01*
X22343Y11773D01*
X22429Y11785D01*
X22509Y11818D01*
X22578Y11871D01*
X22631Y11940D01*
X22664Y12020D01*
X22675Y12106D01*
X22664Y12192D01*
X22631Y12273D01*
X22578Y12342D01*
X22509Y12395D01*
X22429Y12428D01*
X22343Y12439D01*
X22256Y12428D01*
X22176Y12395D01*
X22107Y12342D01*
X22054Y12273D01*
X22039Y12237D01*
X21619D01*
X21615Y12355D01*
X21615Y12371D01*
X21679Y12384D01*
X21738Y12423D01*
X21882Y12567D01*
X21922Y12627D01*
X21936Y12697D01*
Y13800D01*
X21987Y13839D01*
X22040Y13908D01*
X22073Y13989D01*
X22085Y14075D01*
X22073Y14161D01*
X22040Y14241D01*
X21987Y14310D01*
X21918Y14363D01*
X21838Y14396D01*
X21752Y14408D01*
X21694Y14400D01*
X21641Y14476D01*
X21631Y14507D01*
X21882Y14758D01*
X21922Y14817D01*
X21936Y14888D01*
Y17171D01*
X22055Y17231D01*
X22105Y17194D01*
D02*
G37*
G36*
X34786Y13723D02*
X34825Y13670D01*
Y13314D01*
Y12999D01*
Y12684D01*
Y12369D01*
Y12054D01*
Y11739D01*
Y11424D01*
Y11134D01*
X34786Y11081D01*
X34733Y11042D01*
X34120D01*
Y13192D01*
X34382Y13453D01*
X34422Y13512D01*
X34435Y13583D01*
Y13762D01*
X34733D01*
X34786Y13723D01*
D02*
G37*
G36*
X11433Y10864D02*
X11418Y10797D01*
X11392Y10791D01*
X11346Y10760D01*
X11091Y10506D01*
X11061Y10460D01*
X11050Y10405D01*
X11050Y10405D01*
Y9408D01*
X11050Y9408D01*
X11061Y9353D01*
X11091Y9307D01*
X11692Y8707D01*
Y8394D01*
X11692D01*
Y8338D01*
X11640Y8239D01*
X11583Y8201D01*
X10842Y7460D01*
X10731Y7506D01*
Y9373D01*
X9557D01*
X9174Y9756D01*
Y10011D01*
X9111D01*
Y10166D01*
X9174D01*
Y10290D01*
X10630D01*
X10630Y10290D01*
X10685Y10301D01*
X10731Y10332D01*
X11323Y10924D01*
X11433Y10864D01*
D02*
G37*
G36*
X28374Y14338D02*
X28406Y14212D01*
X28353Y14143D01*
X28320Y14063D01*
X28309Y13976D01*
X28320Y13890D01*
X28353Y13810D01*
X28406Y13741D01*
X28458Y13701D01*
Y13509D01*
X28266D01*
Y13129D01*
X28266Y13113D01*
Y13009D01*
X28266Y12993D01*
Y12629D01*
X28266Y12613D01*
Y12509D01*
X28266Y12493D01*
Y12113D01*
X28266Y12113D01*
X28246Y12029D01*
X28246Y12029D01*
X28246Y12001D01*
Y11961D01*
X28632D01*
Y11661D01*
X28246D01*
Y11621D01*
X28246Y11593D01*
X28266Y11481D01*
Y11113D01*
X28266D01*
Y11009D01*
X28266D01*
Y10613D01*
X28266D01*
Y10509D01*
X28266D01*
Y10113D01*
X28266D01*
X28310Y10008D01*
X28153Y9851D01*
X28033Y9900D01*
Y9913D01*
X27641D01*
X27521Y9913D01*
X27477Y9913D01*
X27085D01*
Y9788D01*
X26508D01*
X26503Y9830D01*
X26469Y9911D01*
X26416Y9979D01*
X26399Y9993D01*
X26440Y10113D01*
X26852D01*
Y10128D01*
X27142D01*
X27212Y10141D01*
X27271Y10181D01*
X27945Y10854D01*
X27985Y10914D01*
X27998Y10984D01*
Y14300D01*
X28033D01*
Y14523D01*
X28144Y14569D01*
X28374Y14338D01*
D02*
G37*
G36*
X25982Y10007D02*
X25946Y9979D01*
X25893Y9911D01*
X25860Y9830D01*
X25848Y9744D01*
X25860Y9658D01*
X25893Y9578D01*
X25946Y9509D01*
X26015Y9456D01*
X26095Y9423D01*
X26181Y9411D01*
X26267Y9423D01*
X26348Y9456D01*
X26409Y9503D01*
X27001D01*
X27085Y9418D01*
X27085Y9322D01*
X27085Y9259D01*
Y8813D01*
X26983Y8746D01*
X26821Y8908D01*
X26753Y8953D01*
X26673Y8969D01*
X26673Y8969D01*
X25649D01*
X25629Y8995D01*
X25560Y9048D01*
X25480Y9081D01*
X25394Y9093D01*
X25308Y9081D01*
X25227Y9048D01*
X25158Y8995D01*
X25105Y8926D01*
X25072Y8846D01*
X25061Y8760D01*
X25072Y8674D01*
X25105Y8593D01*
X25158Y8524D01*
X25227Y8472D01*
X25308Y8438D01*
X25394Y8427D01*
X25480Y8438D01*
X25560Y8472D01*
X25629Y8524D01*
X25649Y8551D01*
X26587D01*
X26767Y8370D01*
X26721Y8259D01*
X26475D01*
Y8122D01*
X26713D01*
Y7822D01*
X26475D01*
Y7792D01*
X26378Y7689D01*
X26378Y7689D01*
X26356Y7689D01*
X24762D01*
X24496Y7955D01*
X24467Y7998D01*
X24234Y8232D01*
Y8436D01*
X23739D01*
X23739Y8436D01*
X23632Y8467D01*
X23624Y8505D01*
X23584Y8565D01*
X23407Y8742D01*
Y10022D01*
X23527Y10072D01*
X23886Y9713D01*
X23946Y9673D01*
X24016Y9659D01*
X24409D01*
X24480Y9673D01*
X24539Y9713D01*
X24775Y9949D01*
X24789Y9969D01*
X24940Y9969D01*
X24983Y9969D01*
X25375D01*
Y10128D01*
X25942D01*
X25982Y10007D01*
D02*
G37*
G36*
X29164Y10539D02*
X29245Y10505D01*
X29331Y10494D01*
X29417Y10505D01*
X29478Y10531D01*
X29544Y10504D01*
X29598Y10465D01*
Y8835D01*
X29468Y8706D01*
X28729D01*
X28689Y8799D01*
X28685Y8826D01*
X28733Y8889D01*
X28766Y8969D01*
X28778Y9055D01*
X28766Y9141D01*
X28733Y9222D01*
X28680Y9290D01*
X28611Y9343D01*
X28531Y9377D01*
X28445Y9388D01*
X28359Y9377D01*
X28278Y9343D01*
X28210Y9290D01*
X28194Y9270D01*
X28057Y9279D01*
X28033Y9322D01*
X28033Y9379D01*
X28033D01*
Y9503D01*
X28150D01*
X28150Y9503D01*
X28204Y9514D01*
X28251Y9545D01*
X28733Y10027D01*
X28733Y10027D01*
X28764Y10073D01*
X28772Y10113D01*
X28997D01*
Y10489D01*
X29058Y10560D01*
X29120Y10573D01*
X29164Y10539D01*
D02*
G37*
G36*
X9191Y9220D02*
Y5193D01*
X10668D01*
Y4727D01*
X9071Y3129D01*
X8960Y3175D01*
Y4846D01*
X7874D01*
Y5037D01*
X8268D01*
X8299Y5043D01*
X8325Y5060D01*
X8343Y5087D01*
X8349Y5118D01*
Y9449D01*
X8372Y9477D01*
X8643D01*
Y9477D01*
X8680D01*
Y9477D01*
X8935D01*
X9191Y9220D01*
D02*
G37*
G36*
X31970Y11024D02*
Y10399D01*
X31980Y10349D01*
X31990Y10334D01*
Y9716D01*
X31574D01*
Y9425D01*
X30791Y8642D01*
X30677D01*
X30660Y8683D01*
X30597Y8766D01*
X30514Y8829D01*
X30418Y8869D01*
X30315Y8883D01*
X30212Y8869D01*
X30116Y8829D01*
X30033Y8766D01*
X29993Y8714D01*
X29881Y8765D01*
X29883Y8776D01*
X29883Y8776D01*
Y9201D01*
X30003Y9241D01*
X30033Y9203D01*
X30116Y9139D01*
X30212Y9099D01*
X30315Y9086D01*
X30418Y9099D01*
X30514Y9139D01*
X30597Y9203D01*
X30660Y9285D01*
X30700Y9381D01*
X30713Y9484D01*
X30700Y9587D01*
X30683Y9629D01*
X31313Y10258D01*
X31347Y10310D01*
X31359Y10370D01*
Y11026D01*
X31445Y11109D01*
X31870D01*
X31970Y11024D01*
D02*
G37*
G36*
X16942Y12326D02*
Y10433D01*
X16956Y10363D01*
X16996Y10303D01*
X18374Y8925D01*
X18434Y8886D01*
X18504Y8872D01*
X21969D01*
X22009Y8820D01*
X22078Y8767D01*
X22158Y8734D01*
X22244Y8722D01*
X22330Y8734D01*
X22411Y8767D01*
X22479Y8820D01*
X22531Y8887D01*
X22536Y8888D01*
X22651Y8862D01*
Y8737D01*
X22168Y8254D01*
X21734D01*
Y8338D01*
X21604D01*
X21352Y8590D01*
X21293Y8629D01*
X21223Y8643D01*
X19619D01*
X19549Y8629D01*
X19489Y8590D01*
X18514Y7615D01*
X17856D01*
Y7787D01*
X16987D01*
Y7076D01*
X17856D01*
Y7248D01*
X18590D01*
X18661Y7262D01*
X18720Y7301D01*
X18954Y7536D01*
X19065Y7490D01*
Y7120D01*
X18002Y6056D01*
X17856D01*
Y6704D01*
X16987D01*
Y6246D01*
X16612Y5871D01*
X16610Y5868D01*
X16475Y5882D01*
X16474Y5884D01*
X16413Y5964D01*
X15194Y7183D01*
Y7801D01*
X14790D01*
X14784Y7808D01*
X14849Y7928D01*
X15570D01*
Y7804D01*
X15961D01*
X16081Y7804D01*
X16125Y7804D01*
X16517D01*
Y8338D01*
X16517D01*
X16442Y8425D01*
X16431Y8480D01*
X16400Y8526D01*
X16400Y8526D01*
X16065Y8861D01*
X16019Y8892D01*
X15965Y8903D01*
X15965Y8903D01*
X15646D01*
X15598Y8964D01*
X15652Y9083D01*
X15930D01*
X16042Y9063D01*
X16042Y9063D01*
X16042Y9063D01*
X16159D01*
Y9350D01*
X16309D01*
Y9500D01*
X16576D01*
Y9637D01*
X16549D01*
X16537Y9752D01*
X16537D01*
Y9889D01*
X16299D01*
Y10189D01*
X16537D01*
Y10326D01*
X16422D01*
X16376Y10437D01*
X16695Y10756D01*
X16695Y10756D01*
X16726Y10803D01*
X16737Y10857D01*
X16737Y10857D01*
Y11446D01*
X16812D01*
Y11980D01*
X16540D01*
X16379Y12141D01*
X16333Y12171D01*
X16278Y12182D01*
X16278Y12182D01*
X15805D01*
X15724Y12273D01*
X15717Y12334D01*
X15768Y12410D01*
X15786Y12500D01*
X15776Y12547D01*
X15838Y12648D01*
X15860Y12667D01*
X16601D01*
X16942Y12326D01*
D02*
G37*
G36*
X13605Y9059D02*
X13559Y8948D01*
X13246D01*
Y8811D01*
X13514D01*
Y8511D01*
X13246D01*
Y8478D01*
X13246Y8374D01*
X13246Y8254D01*
Y8221D01*
X13514D01*
Y8071D01*
X13664D01*
Y7784D01*
X13686D01*
X13781Y7784D01*
X13893Y7804D01*
X13945D01*
X14334Y7415D01*
Y7183D01*
X11999Y4848D01*
X11381D01*
Y3388D01*
X12241D01*
Y4006D01*
X14576Y6341D01*
X14952D01*
X15758Y5534D01*
Y5315D01*
Y4331D01*
Y3445D01*
Y3346D01*
X15772Y3247D01*
X15810Y3155D01*
X15871Y3075D01*
X18036Y910D01*
X18115Y849D01*
X18208Y811D01*
X18307Y798D01*
X25905D01*
X26004Y811D01*
X26096Y849D01*
X26176Y910D01*
X28887Y3621D01*
X29022Y3628D01*
X31888Y763D01*
X31939Y729D01*
X31999Y716D01*
X32961D01*
X33022Y729D01*
X33073Y763D01*
X33437Y1127D01*
X33557Y1077D01*
Y709D01*
X33571Y638D01*
X33588Y612D01*
X33545Y504D01*
X33535Y492D01*
X14935D01*
X14911Y612D01*
X14966Y635D01*
X15049Y699D01*
X15113Y783D01*
X15135Y834D01*
X14764D01*
X14393D01*
X14414Y783D01*
X14478Y699D01*
X14562Y635D01*
X14617Y612D01*
X14593Y492D01*
X7874D01*
Y666D01*
X8960D01*
Y2573D01*
X9027Y2586D01*
X9086Y2626D01*
X10981Y4521D01*
X11021Y4580D01*
X11035Y4651D01*
Y7134D01*
X11434Y7532D01*
X11554Y7483D01*
Y7433D01*
X11841D01*
X12128D01*
Y7649D01*
X11827D01*
X11763Y7769D01*
X11786Y7804D01*
X12103D01*
X12186Y7804D01*
X12243D01*
X12299Y7748D01*
X12302Y7629D01*
X12302D01*
Y6938D01*
X12836D01*
Y7629D01*
X12613D01*
Y7804D01*
X12718D01*
Y8274D01*
X12718Y8338D01*
X12718Y8458D01*
Y8928D01*
X12605D01*
X12602Y8942D01*
X12571Y8989D01*
X12491Y9069D01*
X12541Y9189D01*
X13475D01*
X13605Y9059D01*
D02*
G37*
G36*
X31711Y5834D02*
X30137D01*
X30064Y5824D01*
X29996Y5796D01*
X29937Y5751D01*
X29504Y5318D01*
X28679D01*
Y4497D01*
X26983Y2801D01*
X26872Y2847D01*
Y3141D01*
X26784D01*
Y2854D01*
X26484D01*
Y3141D01*
X26452D01*
X26396Y3141D01*
X26284Y3121D01*
X25904D01*
Y3012D01*
X24770D01*
X24625Y3157D01*
X24626Y3158D01*
X24644Y3248D01*
X24626Y3338D01*
X24625Y3340D01*
X24689Y3460D01*
X25904D01*
Y3276D01*
X26296D01*
X26416Y3276D01*
X26460Y3276D01*
X26852D01*
Y3810D01*
X26852D01*
X26849Y3930D01*
X26891Y3965D01*
D01*
X27011Y4009D01*
X27067Y3998D01*
X27157Y4016D01*
X27233Y4066D01*
X27284Y4143D01*
X27301Y4232D01*
X27284Y4322D01*
X27233Y4398D01*
X27157Y4449D01*
X27067Y4467D01*
X27011Y4456D01*
X26891Y4499D01*
Y4499D01*
X26480D01*
X26396Y4499D01*
X26276Y4499D01*
X26021D01*
X25998Y4534D01*
X26062Y4654D01*
X26284D01*
X26396Y4634D01*
X26452Y4634D01*
X26484D01*
Y4921D01*
X26784D01*
Y4634D01*
X26872D01*
Y4900D01*
X27124Y5152D01*
X27279D01*
X27350Y5166D01*
X27409Y5205D01*
X28516Y6313D01*
X29528D01*
X29598Y6327D01*
X29657Y6366D01*
X29982Y6691D01*
X30028Y6672D01*
Y6672D01*
X30165D01*
Y6939D01*
X30465D01*
Y6672D01*
X30602D01*
Y6672D01*
X30619D01*
Y6672D01*
X30756D01*
Y6939D01*
X30906D01*
Y7089D01*
X31193D01*
Y7206D01*
X31298Y7241D01*
X31711D01*
Y5834D01*
D02*
G37*
G36*
X2559Y9449D02*
Y7087D01*
X4724Y4921D01*
X6496D01*
Y591D01*
X4724D01*
X4528Y787D01*
Y3465D01*
X4421Y3571D01*
Y3649D01*
X4134D01*
Y3799D01*
X3984D01*
Y4037D01*
X3847D01*
Y3661D01*
X3622D01*
X1792Y5492D01*
X1820Y5534D01*
X1864Y5516D01*
X1969Y5502D01*
X2073Y5516D01*
X2170Y5556D01*
X2254Y5620D01*
X2318Y5704D01*
X2339Y5756D01*
X1969D01*
Y5906D01*
X1819D01*
Y6276D01*
X1767Y6255D01*
X1683Y6191D01*
X1619Y6107D01*
X1579Y6010D01*
X1565Y5906D01*
X1579Y5801D01*
X1597Y5757D01*
X1555Y5729D01*
X1378Y5906D01*
Y9449D01*
X1575Y9646D01*
X2362D01*
X2559Y9449D01*
D02*
G37*
G36*
X38892Y5352D02*
X37092D01*
Y7102D01*
X38892D01*
Y5352D01*
D02*
G37*
G36*
X19408Y6774D02*
Y6426D01*
X19844D01*
Y6426D01*
X19860D01*
X19879Y6414D01*
X19879Y6410D01*
X19789Y6291D01*
X19766D01*
Y6004D01*
X19616D01*
Y5854D01*
X19349D01*
Y5717D01*
X19458D01*
Y5541D01*
X19470Y5481D01*
X19504Y5430D01*
X19556Y5395D01*
X19616Y5383D01*
X19677Y5395D01*
X19728Y5430D01*
X19762Y5481D01*
X19774Y5541D01*
Y5632D01*
X19859Y5717D01*
X19883D01*
X19995Y5737D01*
X20191D01*
X20422Y5506D01*
X20429Y5501D01*
X20446Y5375D01*
X20442Y5360D01*
X20434Y5353D01*
X20381Y5285D01*
X20348Y5204D01*
X20346Y5188D01*
X19964D01*
X19844Y5188D01*
X19800Y5188D01*
X19408D01*
Y4654D01*
X19468D01*
Y4499D01*
X19408D01*
Y3965D01*
X19468D01*
Y3712D01*
X19369D01*
Y3178D01*
X19277Y3111D01*
X18432D01*
X17895Y3647D01*
Y3909D01*
X17835D01*
Y4753D01*
X17895D01*
Y5287D01*
X17734D01*
X17720Y5303D01*
X17681Y5407D01*
X17710Y5444D01*
X17743Y5524D01*
X17754Y5610D01*
X17865Y5689D01*
X18078D01*
X18148Y5703D01*
X18207Y5743D01*
X19288Y6824D01*
X19408Y6774D01*
D02*
G37*
G36*
X2559Y11220D02*
X4331Y9449D01*
X8268D01*
Y5118D01*
X6496D01*
X5512Y6102D01*
Y6489D01*
X5405Y6596D01*
Y6602D01*
X5118D01*
Y6752D01*
X4968D01*
Y6990D01*
X4831D01*
X4831Y6990D01*
Y6990D01*
X4788Y7008D01*
X2641Y8917D01*
Y9449D01*
X2641Y9449D01*
X2634Y9480D01*
X2617Y9506D01*
X2420Y9703D01*
X2393Y9721D01*
X2362Y9727D01*
X2362Y9727D01*
X1729D01*
X1378Y10039D01*
Y11220D01*
X1575Y11417D01*
X2362D01*
X2559Y11220D01*
D02*
G37*
G36*
X23099Y6957D02*
X23137Y6931D01*
X23148Y6816D01*
X23148Y6816D01*
X23148Y6816D01*
Y6420D01*
X23148D01*
Y6316D01*
X23148D01*
Y5936D01*
X23148Y5920D01*
Y5816D01*
X23148Y5800D01*
Y5448D01*
X23128Y5336D01*
X23128Y5308D01*
Y5268D01*
X23514D01*
Y4968D01*
X23128D01*
Y4928D01*
X23128Y4900D01*
X23148Y4788D01*
Y4436D01*
X23148Y4420D01*
Y4316D01*
X23148Y4300D01*
Y3920D01*
X23148D01*
Y3816D01*
X23148D01*
Y3420D01*
X23320D01*
X23343Y3317D01*
X23268Y3220D01*
X23135Y3220D01*
X22872Y3483D01*
Y5374D01*
X22873Y5375D01*
X22926Y5444D01*
X22959Y5524D01*
X22971Y5610D01*
X22959Y5696D01*
X22926Y5777D01*
X22873Y5846D01*
X22804Y5898D01*
X22724Y5932D01*
X22638Y5943D01*
X22552Y5932D01*
X22471Y5898D01*
X22402Y5846D01*
X22350Y5777D01*
X22316Y5696D01*
X22305Y5610D01*
X22316Y5524D01*
X22350Y5444D01*
X22402Y5375D01*
X22403Y5374D01*
Y4994D01*
X22283Y4945D01*
X21980Y5248D01*
X21921Y5288D01*
X21850Y5302D01*
X21737D01*
X21734Y5420D01*
X21734Y5420D01*
X21734Y5420D01*
Y5816D01*
X21734D01*
Y5920D01*
X21734D01*
Y6316D01*
X21734D01*
Y6420D01*
X21734D01*
Y6816D01*
X21113D01*
X21002Y6890D01*
X20991Y6976D01*
X20958Y7056D01*
X20941Y7078D01*
X21000Y7198D01*
X22857D01*
X23099Y6957D01*
D02*
G37*
G36*
X24194Y3340D02*
X24193Y3338D01*
X24175Y3248D01*
X24193Y3158D01*
X24244Y3082D01*
X24288Y3053D01*
X24298Y3038D01*
X24593Y2743D01*
X24644Y2708D01*
X24705Y2696D01*
X25904D01*
Y2587D01*
X26284D01*
X26396Y2567D01*
X26452Y2567D01*
X26592D01*
X26638Y2456D01*
X25746Y1564D01*
X22795D01*
X22768Y1606D01*
X22231Y2143D01*
Y2430D01*
X22374Y2574D01*
X22414Y2633D01*
X22428Y2703D01*
Y3095D01*
X22548Y3144D01*
X22853Y2839D01*
Y2686D01*
X23245D01*
X23365Y2686D01*
X23409Y2686D01*
X23800D01*
Y3220D01*
X23672D01*
Y3420D01*
X23879D01*
Y3460D01*
X24130D01*
X24194Y3340D01*
D02*
G37*
G36*
X16931Y3801D02*
Y3642D01*
X16948Y3558D01*
Y3375D01*
X17339D01*
X17383Y3375D01*
Y3375D01*
X17459D01*
Y3375D01*
X17721D01*
X18254Y2841D01*
X18306Y2807D01*
X18366Y2795D01*
X19248D01*
X19349Y2748D01*
X19349Y2675D01*
Y2611D01*
X19616D01*
Y2311D01*
X19349D01*
Y2174D01*
X19458D01*
Y1998D01*
X19470Y1938D01*
X19504Y1886D01*
X19632Y1758D01*
X19684Y1724D01*
X19744Y1712D01*
X20543D01*
X20562Y1694D01*
X20521Y1565D01*
X20516Y1564D01*
X18466D01*
X16525Y3505D01*
Y4039D01*
X16645Y4086D01*
X16931Y3801D01*
D02*
G37*
%LPC*%
G36*
X33958Y22863D02*
X33365D01*
Y22695D01*
Y22648D01*
X33958D01*
Y22695D01*
Y22863D01*
D02*
G37*
G36*
Y22548D02*
X33365D01*
Y22380D01*
Y22333D01*
X33958D01*
Y22380D01*
Y22548D01*
D02*
G37*
G36*
X16260Y22264D02*
Y22000D01*
X16524D01*
X16495Y22072D01*
X16424Y22164D01*
X16332Y22235D01*
X16260Y22264D01*
D02*
G37*
G36*
X20094D02*
X20022Y22235D01*
X19930Y22164D01*
X19860Y22072D01*
X19830Y22000D01*
X20094D01*
Y22264D01*
D02*
G37*
G36*
X15960D02*
X15888Y22235D01*
X15796Y22164D01*
X15726Y22072D01*
X15696Y22000D01*
X15960D01*
Y22264D01*
D02*
G37*
G36*
X12261Y22584D02*
X11961D01*
Y21984D01*
X12261D01*
Y22584D01*
D02*
G37*
G36*
X11661D02*
X11361D01*
Y21984D01*
X11661D01*
Y22584D01*
D02*
G37*
G36*
X21244Y22274D02*
X21134Y22260D01*
X21032Y22217D01*
X20945Y22150D01*
X20877Y22062D01*
X20835Y21960D01*
X20821Y21850D01*
X20805Y21840D01*
X20786Y21842D01*
X20681Y21899D01*
X20673Y21965D01*
X20628Y22072D01*
X20558Y22164D01*
X20466Y22235D01*
X20394Y22264D01*
Y21850D01*
X20244D01*
Y21700D01*
X19830D01*
X19860Y21629D01*
X19930Y21537D01*
X20022Y21466D01*
X20129Y21422D01*
X20244Y21407D01*
X20307Y21415D01*
X20363Y21301D01*
X20307Y21245D01*
X20256Y21168D01*
X20238Y21079D01*
Y19641D01*
X20230Y19633D01*
X20118Y19589D01*
X20074Y19623D01*
X19981Y19662D01*
X19882Y19675D01*
X19783Y19662D01*
X19690Y19623D01*
X19611Y19562D01*
X19550Y19483D01*
X19512Y19391D01*
X19499Y19291D01*
X19512Y19192D01*
X19550Y19100D01*
X19611Y19020D01*
X19690Y18959D01*
X19783Y18921D01*
X19882Y18908D01*
X19981Y18921D01*
X20074Y18959D01*
X20118Y18993D01*
X20230Y18949D01*
X20238Y18941D01*
Y17673D01*
X20230Y17665D01*
X20118Y17621D01*
X20074Y17655D01*
X19981Y17693D01*
X19882Y17706D01*
X19836Y17700D01*
X19132Y18404D01*
Y19923D01*
X19114Y20013D01*
X19063Y20089D01*
X17833Y21320D01*
X17879Y21430D01*
X18530D01*
Y22270D01*
X17690D01*
Y21619D01*
X17579Y21573D01*
X17488Y21665D01*
X17519Y21741D01*
X17534Y21850D01*
X17519Y21960D01*
X17477Y22062D01*
X17410Y22150D01*
X17322Y22217D01*
X17220Y22260D01*
X17110Y22274D01*
X17001Y22260D01*
X16898Y22217D01*
X16811Y22150D01*
X16743Y22062D01*
X16701Y21960D01*
X16687Y21850D01*
X16701Y21741D01*
X16743Y21639D01*
X16811Y21551D01*
X16898Y21484D01*
X17001Y21441D01*
X17055Y21434D01*
X18663Y19826D01*
Y18307D01*
X18681Y18217D01*
X18732Y18141D01*
X19505Y17368D01*
X19499Y17323D01*
X19512Y17224D01*
X19550Y17131D01*
X19611Y17052D01*
X19690Y16991D01*
X19783Y16953D01*
X19882Y16940D01*
X19883Y16940D01*
X19939Y16826D01*
X19785Y16672D01*
X18306D01*
X17984Y16994D01*
X17988Y17052D01*
X18048Y17131D01*
X18087Y17224D01*
X18100Y17323D01*
X18087Y17422D01*
X18048Y17514D01*
X17988Y17594D01*
X17908Y17655D01*
X17816Y17693D01*
X17717Y17706D01*
X17617Y17693D01*
X17525Y17655D01*
X17446Y17594D01*
X17385Y17514D01*
X17346Y17422D01*
X17333Y17323D01*
X17346Y17224D01*
X17385Y17131D01*
X17446Y17052D01*
X17482Y17024D01*
Y16929D01*
X17500Y16839D01*
X17551Y16763D01*
X18043Y16271D01*
X18119Y16220D01*
X18209Y16202D01*
X19882D01*
X19972Y16220D01*
X20048Y16271D01*
X20638Y16862D01*
X20689Y16938D01*
X20707Y17028D01*
Y20982D01*
X21163Y21438D01*
X21244Y21427D01*
X21354Y21441D01*
X21456Y21484D01*
X21544Y21551D01*
X21611Y21639D01*
X21653Y21741D01*
X21668Y21850D01*
X21653Y21960D01*
X21611Y22062D01*
X21544Y22150D01*
X21456Y22217D01*
X21354Y22260D01*
X21244Y22274D01*
D02*
G37*
G36*
X16524Y21700D02*
X16260D01*
Y21436D01*
X16332Y21466D01*
X16424Y21537D01*
X16495Y21629D01*
X16524Y21700D01*
D02*
G37*
G36*
X15960D02*
X15696D01*
X15726Y21629D01*
X15796Y21537D01*
X15888Y21466D01*
X15960Y21436D01*
Y21700D01*
D02*
G37*
G36*
X22664Y22270D02*
X21824D01*
Y21430D01*
X22664D01*
Y22270D01*
D02*
G37*
G36*
X33958Y22233D02*
X33365D01*
Y22065D01*
X33385D01*
Y21770D01*
Y21557D01*
X33365D01*
Y21389D01*
X33958D01*
Y21557D01*
X33938D01*
Y21770D01*
Y22065D01*
X33958D01*
Y22233D01*
D02*
G37*
G36*
X12261Y21684D02*
X11961D01*
Y21084D01*
X12261D01*
Y21684D01*
D02*
G37*
G36*
X11661D02*
X11361D01*
Y21084D01*
X11661D01*
Y21684D01*
D02*
G37*
G36*
X33958Y21289D02*
X33365D01*
Y21120D01*
Y21074D01*
X33958D01*
Y21120D01*
Y21289D01*
D02*
G37*
G36*
X41582Y21897D02*
X40656D01*
X40658Y21877D01*
X40698Y21711D01*
X40763Y21553D01*
X40852Y21408D01*
X40963Y21278D01*
X41093Y21167D01*
X41239Y21078D01*
X41396Y21013D01*
X41562Y20973D01*
X41582Y20971D01*
Y21897D01*
D02*
G37*
G36*
X33958Y20974D02*
X33365D01*
Y20806D01*
Y20759D01*
X33958D01*
Y20806D01*
Y20974D01*
D02*
G37*
G36*
Y20659D02*
X33365D01*
Y20491D01*
Y20444D01*
X33958D01*
Y20491D01*
Y20659D01*
D02*
G37*
G36*
Y20344D02*
X33365D01*
Y20176D01*
Y20129D01*
X33958D01*
Y20176D01*
Y20344D01*
D02*
G37*
G36*
X15214Y19632D02*
X14914D01*
Y19032D01*
X15214D01*
Y19632D01*
D02*
G37*
G36*
X14614D02*
X14314D01*
Y19032D01*
X14614D01*
Y19632D01*
D02*
G37*
G36*
X30709Y19675D02*
X30609Y19662D01*
X30517Y19623D01*
X30438Y19562D01*
X30377Y19483D01*
X30338Y19391D01*
X30325Y19291D01*
X30338Y19192D01*
X30377Y19100D01*
X30438Y19020D01*
X30517Y18959D01*
X30609Y18921D01*
X30709Y18908D01*
X30808Y18921D01*
X30900Y18959D01*
X30980Y19020D01*
X31041Y19100D01*
X31079Y19192D01*
X31092Y19291D01*
X31079Y19391D01*
X31041Y19483D01*
X30980Y19562D01*
X30900Y19623D01*
X30808Y19662D01*
X30709Y19675D01*
D02*
G37*
G36*
X28512Y22274D02*
X28402Y22260D01*
X28300Y22217D01*
X28212Y22150D01*
X28145Y22062D01*
X28103Y21960D01*
X28088Y21850D01*
X28103Y21741D01*
X28145Y21639D01*
X28212Y21551D01*
X28300Y21484D01*
X28334Y21469D01*
Y19610D01*
X28272Y19562D01*
X28211Y19483D01*
X28173Y19391D01*
X28160Y19291D01*
X28173Y19192D01*
X28211Y19100D01*
X28272Y19020D01*
X28352Y18959D01*
X28444Y18921D01*
X28543Y18908D01*
X28643Y18921D01*
X28735Y18959D01*
X28814Y19020D01*
X28875Y19100D01*
X28914Y19192D01*
X28927Y19291D01*
X28914Y19391D01*
X28875Y19483D01*
X28814Y19562D01*
X28752Y19610D01*
Y21506D01*
X28811Y21551D01*
X28879Y21639D01*
X28921Y21741D01*
X28935Y21850D01*
X28921Y21960D01*
X28879Y22062D01*
X28811Y22150D01*
X28724Y22217D01*
X28621Y22260D01*
X28512Y22274D01*
D02*
G37*
G36*
X26378Y19675D02*
X26279Y19662D01*
X26186Y19623D01*
X26107Y19562D01*
X26046Y19483D01*
X26008Y19391D01*
X25995Y19291D01*
X26008Y19192D01*
X26046Y19100D01*
X26107Y19020D01*
X26186Y18959D01*
X26279Y18921D01*
X26378Y18908D01*
X26477Y18921D01*
X26570Y18959D01*
X26649Y19020D01*
X26710Y19100D01*
X26748Y19192D01*
X26761Y19291D01*
X26748Y19391D01*
X26710Y19483D01*
X26649Y19562D01*
X26570Y19623D01*
X26477Y19662D01*
X26378Y19675D01*
D02*
G37*
G36*
X17717D02*
X17617Y19662D01*
X17525Y19623D01*
X17446Y19562D01*
X17385Y19483D01*
X17346Y19391D01*
X17333Y19291D01*
X17346Y19192D01*
X17385Y19100D01*
X17446Y19020D01*
X17525Y18959D01*
X17617Y18921D01*
X17717Y18908D01*
X17816Y18921D01*
X17908Y18959D01*
X17988Y19020D01*
X18048Y19100D01*
X18087Y19192D01*
X18100Y19291D01*
X18087Y19391D01*
X18048Y19483D01*
X17988Y19562D01*
X17908Y19623D01*
X17816Y19662D01*
X17717Y19675D01*
D02*
G37*
G36*
X22994Y18830D02*
X22689D01*
Y18605D01*
X22994D01*
Y18830D01*
D02*
G37*
G36*
X15214Y18732D02*
X14914D01*
Y18132D01*
X15214D01*
Y18732D01*
D02*
G37*
G36*
X14614D02*
X14314D01*
Y18132D01*
X14614D01*
Y18732D01*
D02*
G37*
G36*
X33958Y18139D02*
X33365D01*
Y17971D01*
Y17924D01*
X33958D01*
Y17971D01*
Y18139D01*
D02*
G37*
G36*
Y17824D02*
X33365D01*
Y17656D01*
Y17609D01*
X33958D01*
Y17656D01*
Y17824D01*
D02*
G37*
G36*
Y17509D02*
X33365D01*
Y17341D01*
Y17294D01*
X33958D01*
Y17341D01*
Y17509D01*
D02*
G37*
G36*
Y17194D02*
X33365D01*
Y17026D01*
Y16979D01*
X33958D01*
Y17194D01*
D02*
G37*
G36*
X30709Y17706D02*
X30609Y17693D01*
X30517Y17655D01*
X30438Y17594D01*
X30377Y17514D01*
X30338Y17422D01*
X30325Y17323D01*
X30338Y17224D01*
X30377Y17131D01*
X30438Y17052D01*
X30517Y16991D01*
X30609Y16953D01*
X30709Y16940D01*
X30808Y16953D01*
X30900Y16991D01*
X30980Y17052D01*
X31041Y17131D01*
X31079Y17224D01*
X31092Y17323D01*
X31079Y17422D01*
X31041Y17514D01*
X30980Y17594D01*
X30900Y17655D01*
X30808Y17693D01*
X30709Y17706D01*
D02*
G37*
G36*
X28543D02*
X28444Y17693D01*
X28352Y17655D01*
X28272Y17594D01*
X28211Y17514D01*
X28173Y17422D01*
X28160Y17323D01*
X28173Y17224D01*
X28211Y17131D01*
X28272Y17052D01*
X28352Y16991D01*
X28444Y16953D01*
X28543Y16940D01*
X28643Y16953D01*
X28735Y16991D01*
X28814Y17052D01*
X28875Y17131D01*
X28914Y17224D01*
X28927Y17323D01*
X28914Y17422D01*
X28875Y17514D01*
X28814Y17594D01*
X28735Y17655D01*
X28643Y17693D01*
X28543Y17706D01*
D02*
G37*
G36*
X26378D02*
X26279Y17693D01*
X26186Y17655D01*
X26107Y17594D01*
X26046Y17514D01*
X26008Y17422D01*
X25995Y17323D01*
X26008Y17224D01*
X26046Y17131D01*
X26107Y17052D01*
X26186Y16991D01*
X26279Y16953D01*
X26378Y16940D01*
X26477Y16953D01*
X26570Y16991D01*
X26649Y17052D01*
X26710Y17131D01*
X26748Y17224D01*
X26761Y17323D01*
X26748Y17422D01*
X26710Y17514D01*
X26649Y17594D01*
X26570Y17655D01*
X26477Y17693D01*
X26378Y17706D01*
D02*
G37*
G36*
X33611Y16879D02*
X33365D01*
Y16711D01*
X33611D01*
Y16879D01*
D02*
G37*
G36*
X33958D02*
X33711D01*
Y16711D01*
X33798D01*
Y16625D01*
X33966D01*
Y16872D01*
X33958D01*
Y16879D01*
D02*
G37*
G36*
X12128Y16704D02*
X11991D01*
Y16489D01*
X12128D01*
Y16704D01*
D02*
G37*
G36*
X29512Y22274D02*
X29402Y22260D01*
X29300Y22217D01*
X29212Y22150D01*
X29145Y22062D01*
X29103Y21960D01*
X29088Y21850D01*
X29103Y21741D01*
X29145Y21639D01*
X29212Y21551D01*
X29300Y21484D01*
X29402Y21441D01*
X29512Y21427D01*
X29621Y21441D01*
X29649Y21453D01*
X29717Y21351D01*
X29340Y20975D01*
X29295Y20907D01*
X29279Y20827D01*
X29279Y20827D01*
Y16198D01*
X29194Y16113D01*
X29150Y16113D01*
X28759D01*
Y16030D01*
X28622D01*
X28582Y16082D01*
X28513Y16135D01*
X28433Y16168D01*
X28346Y16179D01*
X28260Y16168D01*
X28180Y16135D01*
X28111Y16082D01*
X28058Y16013D01*
X28025Y15933D01*
X28014Y15846D01*
X28025Y15760D01*
X28058Y15680D01*
X28111Y15611D01*
X28180Y15558D01*
X28260Y15525D01*
X28346Y15514D01*
X28433Y15525D01*
X28513Y15558D01*
X28582Y15611D01*
X28622Y15663D01*
X28759D01*
Y15579D01*
X29150D01*
X29194Y15579D01*
X29305Y15556D01*
Y15492D01*
X29319Y15422D01*
X29358Y15362D01*
X29592Y15129D01*
X29600Y15071D01*
X29633Y14991D01*
X29686Y14922D01*
X29755Y14869D01*
X29835Y14836D01*
X29921Y14825D01*
X30007Y14836D01*
X30088Y14869D01*
X30157Y14922D01*
X30210Y14991D01*
X30243Y15071D01*
X30254Y15157D01*
X30243Y15244D01*
X30210Y15324D01*
X30157Y15393D01*
X30088Y15446D01*
X30007Y15479D01*
X29921Y15490D01*
X29835Y15479D01*
X29783Y15457D01*
X29759Y15481D01*
X29706Y15579D01*
Y16113D01*
X29697D01*
Y20740D01*
X30387Y21430D01*
X30932D01*
Y22270D01*
X30092D01*
Y21726D01*
X30011Y21646D01*
X29910Y21714D01*
X29921Y21741D01*
X29935Y21850D01*
X29921Y21960D01*
X29879Y22062D01*
X29811Y22150D01*
X29724Y22217D01*
X29621Y22260D01*
X29512Y22274D01*
D02*
G37*
G36*
X13364Y15838D02*
X13246D01*
Y15701D01*
X13364D01*
Y15838D01*
D02*
G37*
G36*
X30730Y13899D02*
X30465D01*
Y13634D01*
X30730D01*
Y13899D01*
D02*
G37*
G36*
X16104Y14736D02*
X16060Y14736D01*
X15668D01*
Y14492D01*
X15049Y13873D01*
X14772D01*
X14759Y13870D01*
X14462D01*
Y13634D01*
X14442D01*
Y13524D01*
X14772D01*
Y13424D01*
X14442D01*
Y13314D01*
Y13269D01*
X14772D01*
X15120D01*
X15148Y13332D01*
X15202Y13343D01*
X15249Y13374D01*
X15489Y13614D01*
X15609Y13581D01*
Y13493D01*
X15726D01*
Y13780D01*
X16026D01*
Y13493D01*
X16048D01*
X16143Y13493D01*
X16255Y13513D01*
X16655D01*
Y14047D01*
X16540D01*
Y14202D01*
X16615D01*
Y14736D01*
X16224D01*
X16104Y14736D01*
D02*
G37*
G36*
X30730Y13334D02*
X30465D01*
Y13069D01*
X30730D01*
Y13334D01*
D02*
G37*
G36*
X15102Y13169D02*
X14772D01*
X14442D01*
Y13059D01*
Y13013D01*
X14772D01*
X15102D01*
Y13169D01*
D02*
G37*
G36*
X30465Y12871D02*
Y12634D01*
X30702D01*
X30677Y12694D01*
X30611Y12780D01*
X30524Y12847D01*
X30465Y12871D01*
D02*
G37*
G36*
X30165Y12871D02*
X30106Y12847D01*
X30019Y12780D01*
X29952Y12694D01*
X29928Y12634D01*
X30165D01*
Y12871D01*
D02*
G37*
G36*
X13386Y12897D02*
X13189D01*
X13158Y12890D01*
X13131Y12873D01*
X13114Y12846D01*
X13107Y12815D01*
Y12777D01*
X13092Y12766D01*
X13074Y12740D01*
X13068Y12709D01*
Y12669D01*
X13074Y12638D01*
X13092Y12612D01*
X13118Y12594D01*
X13150Y12588D01*
X13425D01*
X13456Y12594D01*
X13483Y12612D01*
X13501Y12638D01*
X13507Y12669D01*
Y12709D01*
X13501Y12740D01*
X13483Y12766D01*
X13467Y12777D01*
Y12815D01*
X13461Y12846D01*
X13443Y12873D01*
X13417Y12890D01*
X13386Y12897D01*
D02*
G37*
G36*
X30702Y12334D02*
X30465D01*
Y12097D01*
X30524Y12122D01*
X30611Y12188D01*
X30677Y12275D01*
X30702Y12334D01*
D02*
G37*
G36*
X13425Y11034D02*
X13150D01*
X13118Y11028D01*
X13092Y11010D01*
X13074Y10984D01*
X13068Y10953D01*
Y10913D01*
X13074Y10882D01*
X13092Y10856D01*
X13107Y10845D01*
Y10807D01*
X13114Y10776D01*
X13131Y10749D01*
X13158Y10732D01*
X13189Y10726D01*
X13386D01*
X13417Y10732D01*
X13443Y10749D01*
X13461Y10776D01*
X13467Y10807D01*
Y10845D01*
X13483Y10856D01*
X13501Y10882D01*
X13507Y10913D01*
Y10953D01*
X13501Y10984D01*
X13483Y11010D01*
X13456Y11028D01*
X13425Y11034D01*
D02*
G37*
G36*
X14722Y9842D02*
X14442D01*
Y9732D01*
X14722D01*
Y9842D01*
D02*
G37*
G36*
X35283Y9923D02*
X35254D01*
Y9599D01*
X35283D01*
Y9923D01*
D02*
G37*
G36*
X35612Y9299D02*
X35583D01*
Y8975D01*
X35612D01*
Y9299D01*
D02*
G37*
G36*
X35283D02*
X35254D01*
Y8975D01*
X35283D01*
Y9299D01*
D02*
G37*
G36*
X35938Y7791D02*
X34597D01*
Y7001D01*
X35938D01*
Y7791D01*
D02*
G37*
G36*
X41489Y7165D02*
Y6843D01*
X41811D01*
X41770Y6942D01*
X41691Y7045D01*
X41588Y7124D01*
X41489Y7165D01*
D02*
G37*
G36*
X41189Y7165D02*
X41090Y7124D01*
X40986Y7045D01*
X40907Y6942D01*
X40866Y6843D01*
X41189D01*
Y7165D01*
D02*
G37*
G36*
X41811Y6543D02*
X41489D01*
Y6221D01*
X41588Y6262D01*
X41691Y6341D01*
X41770Y6444D01*
X41811Y6543D01*
D02*
G37*
G36*
X41189D02*
X40866D01*
X40907Y6444D01*
X40986Y6341D01*
X41090Y6262D01*
X41189Y6221D01*
Y6543D01*
D02*
G37*
G36*
X41812Y5198D02*
X40865D01*
Y4251D01*
X41812D01*
Y5198D01*
D02*
G37*
G36*
X41582Y2651D02*
X41562Y2649D01*
X41396Y2609D01*
X41239Y2544D01*
X41093Y2455D01*
X40963Y2344D01*
X40852Y2214D01*
X40763Y2069D01*
X40698Y1911D01*
X40658Y1745D01*
X40656Y1725D01*
X41582D01*
Y2651D01*
D02*
G37*
%LPD*%
G36*
X13386Y12709D02*
X13425D01*
Y12669D01*
X13150D01*
Y12709D01*
X13189D01*
Y12815D01*
X13386D01*
Y12709D01*
D02*
G37*
G36*
X13425Y10913D02*
X13386D01*
Y10807D01*
X13189D01*
Y10913D01*
X13150D01*
Y10953D01*
X13425D01*
Y10913D01*
D02*
G37*
%LPC*%
G36*
X6380Y22976D02*
X5740D01*
Y21016D01*
X6380D01*
Y22976D01*
D02*
G37*
G36*
X5440D02*
X4800D01*
Y21016D01*
X5440D01*
Y22976D01*
D02*
G37*
G36*
X4421Y19673D02*
X4284D01*
Y19585D01*
X4421D01*
Y19673D01*
D02*
G37*
G36*
X6380Y20716D02*
X5740D01*
Y18756D01*
X6380D01*
Y20716D01*
D02*
G37*
G36*
X5440D02*
X4800D01*
Y18756D01*
X5440D01*
Y20716D01*
D02*
G37*
G36*
X2339Y17567D02*
X2119D01*
Y17346D01*
X2170Y17367D01*
X2254Y17431D01*
X2318Y17515D01*
X2339Y17567D01*
D02*
G37*
G36*
X2119Y15236D02*
Y14914D01*
X2441D01*
X2400Y15013D01*
X2321Y15116D01*
X2217Y15195D01*
X2119Y15236D01*
D02*
G37*
G36*
X1819D02*
X1720Y15195D01*
X1616Y15116D01*
X1537Y15013D01*
X1496Y14914D01*
X1819D01*
Y15236D01*
D02*
G37*
G36*
X2441Y14614D02*
X2119D01*
Y14292D01*
X2217Y14333D01*
X2321Y14412D01*
X2400Y14515D01*
X2441Y14614D01*
D02*
G37*
G36*
X1819D02*
X1496D01*
X1537Y14515D01*
X1616Y14412D01*
X1720Y14333D01*
X1819Y14292D01*
Y14614D01*
D02*
G37*
G36*
X40080Y16090D02*
X39815D01*
Y15825D01*
X40080D01*
Y16090D01*
D02*
G37*
G36*
X39515D02*
X39250D01*
Y15825D01*
X39515D01*
Y16090D01*
D02*
G37*
G36*
X5405Y16720D02*
X5268D01*
Y16632D01*
X5405D01*
Y16720D01*
D02*
G37*
G36*
X8151Y18449D02*
X7511D01*
Y16489D01*
X8151D01*
Y18449D01*
D02*
G37*
G36*
X7211D02*
X6571D01*
Y16489D01*
X7211D01*
Y18449D01*
D02*
G37*
G36*
X5268Y15528D02*
Y15307D01*
X5489D01*
X5468Y15359D01*
X5403Y15443D01*
X5320Y15507D01*
X5268Y15528D01*
D02*
G37*
G36*
X4968D02*
X4916Y15507D01*
X4833Y15443D01*
X4769Y15359D01*
X4747Y15307D01*
X4968D01*
Y15528D01*
D02*
G37*
G36*
X5489Y15007D02*
X5268D01*
Y14787D01*
X5320Y14808D01*
X5403Y14872D01*
X5468Y14956D01*
X5489Y15007D01*
D02*
G37*
G36*
X4968D02*
X4747D01*
X4769Y14956D01*
X4833Y14872D01*
X4916Y14808D01*
X4968Y14787D01*
Y15007D01*
D02*
G37*
G36*
X8151Y16189D02*
X7511D01*
Y14229D01*
X8151D01*
Y16189D01*
D02*
G37*
G36*
X7211D02*
X6571D01*
Y14229D01*
X7211D01*
Y16189D01*
D02*
G37*
G36*
X2119Y13268D02*
Y12945D01*
X2441D01*
X2400Y13044D01*
X2321Y13147D01*
X2217Y13227D01*
X2119Y13268D01*
D02*
G37*
G36*
X1819D02*
X1720Y13227D01*
X1616Y13147D01*
X1537Y13044D01*
X1496Y12945D01*
X1819D01*
Y13268D01*
D02*
G37*
G36*
X2441Y12645D02*
X2119D01*
Y12323D01*
X2217Y12364D01*
X2321Y12443D01*
X2400Y12546D01*
X2441Y12645D01*
D02*
G37*
G36*
X1819D02*
X1496D01*
X1537Y12546D01*
X1616Y12443D01*
X1720Y12364D01*
X1819Y12323D01*
Y12645D01*
D02*
G37*
G36*
X21139Y9594D02*
X21022D01*
Y9457D01*
X21139D01*
Y9594D01*
D02*
G37*
G36*
X16576Y9200D02*
X16459D01*
Y9063D01*
X16576D01*
Y9200D01*
D02*
G37*
G36*
X13364Y7921D02*
X13246D01*
Y7784D01*
X13364D01*
Y7921D01*
D02*
G37*
G36*
X12128Y7133D02*
X11991D01*
Y6918D01*
X12128D01*
Y7133D01*
D02*
G37*
G36*
X11691D02*
X11554D01*
Y6918D01*
X11691D01*
Y7133D01*
D02*
G37*
G36*
X15214Y5491D02*
X14914D01*
Y4891D01*
X15214D01*
Y5491D01*
D02*
G37*
G36*
X14614D02*
X14314D01*
Y4891D01*
X14614D01*
Y5491D01*
D02*
G37*
G36*
X15214Y4591D02*
X14914D01*
Y3991D01*
X15214D01*
Y4591D01*
D02*
G37*
G36*
X14614D02*
X14314D01*
Y3991D01*
X14614D01*
Y4591D01*
D02*
G37*
G36*
X14764Y3336D02*
X14665Y3323D01*
X14572Y3285D01*
X14493Y3224D01*
X14432Y3144D01*
X14394Y3052D01*
X14381Y2953D01*
X14394Y2854D01*
X14432Y2761D01*
X14493Y2682D01*
X14572Y2621D01*
X14665Y2583D01*
X14764Y2569D01*
X14863Y2583D01*
X14955Y2621D01*
X15035Y2682D01*
X15096Y2761D01*
X15134Y2854D01*
X15147Y2953D01*
X15134Y3052D01*
X15096Y3144D01*
X15035Y3224D01*
X14955Y3285D01*
X14863Y3323D01*
X14764Y3336D01*
D02*
G37*
G36*
X29609Y2738D02*
X29284D01*
Y2098D01*
X29609D01*
Y2738D01*
D02*
G37*
G36*
X28984D02*
X28659D01*
Y2098D01*
X28984D01*
Y2738D01*
D02*
G37*
G36*
X12261Y2538D02*
X11961D01*
Y1938D01*
X12261D01*
Y2538D01*
D02*
G37*
G36*
X11661D02*
X11361D01*
Y1938D01*
X11661D01*
Y2538D01*
D02*
G37*
G36*
X14914Y1355D02*
Y1134D01*
X15135D01*
X15113Y1186D01*
X15049Y1270D01*
X14966Y1334D01*
X14914Y1355D01*
D02*
G37*
G36*
X14614D02*
X14562Y1334D01*
X14478Y1270D01*
X14414Y1186D01*
X14393Y1134D01*
X14614D01*
Y1355D01*
D02*
G37*
G36*
X12261Y1638D02*
X11961D01*
Y1038D01*
X12261D01*
Y1638D01*
D02*
G37*
G36*
X11661D02*
X11361D01*
Y1038D01*
X11661D01*
Y1638D01*
D02*
G37*
G36*
X29609Y1798D02*
X29134D01*
X28659D01*
Y1158D01*
X28964D01*
Y886D01*
X28978Y816D01*
X29017Y756D01*
X29077Y716D01*
X29147Y702D01*
X30709D01*
X30779Y716D01*
X30838Y756D01*
X30878Y816D01*
X30892Y886D01*
X30878Y956D01*
X30838Y1016D01*
X30779Y1055D01*
X30709Y1069D01*
X29684D01*
X29609Y1158D01*
Y1798D01*
D02*
G37*
G36*
X31193Y6789D02*
X31056D01*
Y6672D01*
X31193D01*
Y6789D01*
D02*
G37*
G36*
X2462Y9352D02*
X2119D01*
Y9008D01*
X2462D01*
Y9352D01*
D02*
G37*
G36*
X1819D02*
X1475D01*
Y9008D01*
X1819D01*
Y9352D01*
D02*
G37*
G36*
X2462Y8708D02*
X2119D01*
Y8365D01*
X2462D01*
Y8708D01*
D02*
G37*
G36*
X1819D02*
X1475D01*
Y8365D01*
X1819D01*
Y8708D01*
D02*
G37*
G36*
X2119Y6276D02*
Y6056D01*
X2339D01*
X2318Y6107D01*
X2254Y6191D01*
X2170Y6255D01*
X2119Y6276D01*
D02*
G37*
G36*
X4421Y4037D02*
X4284D01*
Y3949D01*
X4421D01*
Y4037D01*
D02*
G37*
G36*
X6380Y4866D02*
X5740D01*
Y2906D01*
X6380D01*
Y4866D01*
D02*
G37*
G36*
X5440D02*
X4800D01*
Y2906D01*
X5440D01*
Y4866D01*
D02*
G37*
G36*
X6380Y2606D02*
X5740D01*
Y646D01*
X6380D01*
Y2606D01*
D02*
G37*
G36*
X5440D02*
X4800D01*
Y646D01*
X5440D01*
Y2606D01*
D02*
G37*
G36*
X19466Y6291D02*
X19349D01*
Y6154D01*
X19466D01*
Y6291D01*
D02*
G37*
G36*
X2119Y11299D02*
Y10977D01*
X2441D01*
X2400Y11076D01*
X2321Y11179D01*
X2217Y11258D01*
X2119Y11299D01*
D02*
G37*
G36*
X1819D02*
X1720Y11258D01*
X1616Y11179D01*
X1537Y11076D01*
X1496Y10977D01*
X1819D01*
Y11299D01*
D02*
G37*
G36*
X2441Y10677D02*
X2119D01*
Y10355D01*
X2217Y10396D01*
X2321Y10475D01*
X2400Y10578D01*
X2441Y10677D01*
D02*
G37*
G36*
X1819D02*
X1496D01*
X1537Y10578D01*
X1616Y10475D01*
X1720Y10396D01*
X1819Y10355D01*
Y10677D01*
D02*
G37*
G36*
X5268Y8835D02*
Y8615D01*
X5489D01*
X5468Y8666D01*
X5403Y8750D01*
X5320Y8814D01*
X5268Y8835D01*
D02*
G37*
G36*
X4968Y8835D02*
X4916Y8814D01*
X4833Y8750D01*
X4769Y8666D01*
X4747Y8615D01*
X4968D01*
Y8835D01*
D02*
G37*
G36*
X5489Y8315D02*
X5268D01*
Y8094D01*
X5320Y8115D01*
X5403Y8179D01*
X5468Y8263D01*
X5489Y8315D01*
D02*
G37*
G36*
X4968D02*
X4747D01*
X4769Y8263D01*
X4833Y8179D01*
X4916Y8115D01*
X4968Y8094D01*
Y8315D01*
D02*
G37*
G36*
X8151Y9393D02*
X7511D01*
Y7433D01*
X8151D01*
Y9393D01*
D02*
G37*
G36*
X7211D02*
X6571D01*
Y7433D01*
X7211D01*
Y9393D01*
D02*
G37*
G36*
X5405Y6990D02*
X5268D01*
Y6902D01*
X5405D01*
Y6990D01*
D02*
G37*
G36*
X8151Y7133D02*
X7511D01*
Y5173D01*
X8151D01*
Y7133D01*
D02*
G37*
G36*
X7211D02*
X6571D01*
Y5173D01*
X7211D01*
Y7133D01*
D02*
G37*
%LPD*%
D10*
X33661Y16929D02*
D03*
Y17244D02*
D03*
Y17559D02*
D03*
Y17874D02*
D03*
Y18189D02*
D03*
Y18504D02*
D03*
Y18819D02*
D03*
Y19134D02*
D03*
Y19449D02*
D03*
Y19764D02*
D03*
Y20079D02*
D03*
Y20394D02*
D03*
Y20709D02*
D03*
Y21024D02*
D03*
Y21339D02*
D03*
Y21654D02*
D03*
Y21969D02*
D03*
Y22283D02*
D03*
Y22598D02*
D03*
Y22913D02*
D03*
Y23228D02*
D03*
X38150Y16929D02*
D03*
Y17244D02*
D03*
Y17559D02*
D03*
Y17874D02*
D03*
Y18189D02*
D03*
Y18504D02*
D03*
Y18819D02*
D03*
Y19134D02*
D03*
Y19449D02*
D03*
Y19764D02*
D03*
Y20079D02*
D03*
Y20394D02*
D03*
Y20709D02*
D03*
Y21024D02*
D03*
Y21339D02*
D03*
Y21654D02*
D03*
Y21969D02*
D03*
D11*
X34016Y16575D02*
D03*
X34331D02*
D03*
X34646D02*
D03*
X34961D02*
D03*
X35276D02*
D03*
X35591D02*
D03*
X35906D02*
D03*
X36220D02*
D03*
X36535D02*
D03*
X36850D02*
D03*
X37165D02*
D03*
X37480D02*
D03*
X37795D02*
D03*
D12*
X37795Y3569D02*
D03*
Y1549D02*
D03*
D13*
X35906Y9449D02*
D03*
X34961D02*
D03*
X35433D02*
D03*
D14*
X21368Y6618D02*
D03*
Y6118D02*
D03*
Y5618D02*
D03*
Y5118D02*
D03*
Y4618D02*
D03*
Y4118D02*
D03*
Y3618D02*
D03*
X23514Y6618D02*
D03*
Y6118D02*
D03*
Y5618D02*
D03*
Y5118D02*
D03*
Y4618D02*
D03*
Y4118D02*
D03*
Y3618D02*
D03*
X26486Y13311D02*
D03*
Y12811D02*
D03*
Y12311D02*
D03*
Y11811D02*
D03*
Y11311D02*
D03*
Y10811D02*
D03*
Y10311D02*
D03*
X28632Y13311D02*
D03*
Y12811D02*
D03*
Y12311D02*
D03*
Y11811D02*
D03*
Y11311D02*
D03*
Y10811D02*
D03*
Y10311D02*
D03*
X19104Y13053D02*
D03*
Y12553D02*
D03*
Y12053D02*
D03*
Y11553D02*
D03*
X21250Y13053D02*
D03*
Y12553D02*
D03*
Y12053D02*
D03*
Y11553D02*
D03*
D15*
X29134Y1948D02*
D03*
Y4548D02*
D03*
D16*
X5590Y20866D02*
D03*
X8190D02*
D03*
X7361Y16339D02*
D03*
X9961D02*
D03*
X7361Y7283D02*
D03*
X9961D02*
D03*
X5590Y2756D02*
D03*
X8190D02*
D03*
D17*
X35268Y5596D02*
D03*
Y7396D02*
D03*
D18*
X33012Y6496D02*
D03*
D19*
X12569Y16339D02*
D03*
X11841D02*
D03*
X7746Y12303D02*
D03*
X7018D02*
D03*
X7746Y11319D02*
D03*
X7018D02*
D03*
X12569Y7283D02*
D03*
X11841D02*
D03*
D20*
X38248Y14961D02*
D03*
X37736D02*
D03*
X21004Y8071D02*
D03*
X21516D02*
D03*
X17677Y5020D02*
D03*
X17165D02*
D03*
X17677Y3642D02*
D03*
X17165D02*
D03*
X23583Y2953D02*
D03*
X23071D02*
D03*
X26634Y3543D02*
D03*
X26122D02*
D03*
X26122Y2854D02*
D03*
X26634D02*
D03*
X19626Y4232D02*
D03*
X20138D02*
D03*
X20138Y4921D02*
D03*
X19626D02*
D03*
X26634Y6988D02*
D03*
X26122D02*
D03*
X26634Y4921D02*
D03*
X26122D02*
D03*
X19626Y6693D02*
D03*
X20138D02*
D03*
X23465Y7579D02*
D03*
X23976D02*
D03*
X16398Y14468D02*
D03*
X15886D02*
D03*
X15787Y10039D02*
D03*
X16299D02*
D03*
X16299Y8071D02*
D03*
X15787D02*
D03*
X25157Y10827D02*
D03*
X24646D02*
D03*
X25157Y10236D02*
D03*
X24646D02*
D03*
X24646Y15059D02*
D03*
X25157D02*
D03*
X25157Y15846D02*
D03*
X24646D02*
D03*
X26713Y7972D02*
D03*
X27224D02*
D03*
X27894D02*
D03*
X28406D02*
D03*
X27815Y14567D02*
D03*
X27303D02*
D03*
X26122D02*
D03*
X26634D02*
D03*
X27815Y15256D02*
D03*
X27303D02*
D03*
X27815Y9646D02*
D03*
X27303D02*
D03*
X24646Y13189D02*
D03*
X25157D02*
D03*
X24646Y13878D02*
D03*
X25157D02*
D03*
X29488Y15846D02*
D03*
X28976D02*
D03*
X27303Y9055D02*
D03*
X27815D02*
D03*
X32933Y18898D02*
D03*
X32421D02*
D03*
X32933Y19488D02*
D03*
X32421D02*
D03*
X35295Y2165D02*
D03*
X34783D02*
D03*
X33740Y1575D02*
D03*
X34252D02*
D03*
X33740Y2165D02*
D03*
X34252D02*
D03*
X32224Y4528D02*
D03*
X32736D02*
D03*
X32224Y3937D02*
D03*
X32736D02*
D03*
Y1969D02*
D03*
X32224D02*
D03*
X35866Y14961D02*
D03*
X36378D02*
D03*
X31831Y8858D02*
D03*
X32343D02*
D03*
X16083Y11713D02*
D03*
X16594D02*
D03*
D21*
X38386Y14429D02*
D03*
Y13917D02*
D03*
X37205Y14429D02*
D03*
Y13917D02*
D03*
Y10374D02*
D03*
Y10886D02*
D03*
X38386Y10374D02*
D03*
Y10886D02*
D03*
X39567Y10374D02*
D03*
Y10886D02*
D03*
X21752Y18071D02*
D03*
Y17559D02*
D03*
X21161Y15098D02*
D03*
Y15610D02*
D03*
X4134Y19823D02*
D03*
Y20335D02*
D03*
X5118Y17382D02*
D03*
Y16870D02*
D03*
Y6752D02*
D03*
Y6240D02*
D03*
X4134Y3287D02*
D03*
Y3799D02*
D03*
D22*
X41535Y16437D02*
D03*
Y17028D02*
D03*
D23*
X22539Y17077D02*
D03*
Y15994D02*
D03*
Y18455D02*
D03*
Y19537D02*
D03*
X17421Y7431D02*
D03*
Y6348D02*
D03*
D24*
X21821Y10335D02*
D03*
X21289D02*
D03*
X21821Y9744D02*
D03*
X21289D02*
D03*
X20148Y3445D02*
D03*
X19616D02*
D03*
X26112Y4232D02*
D03*
X26644D02*
D03*
X20148Y2461D02*
D03*
X19616D02*
D03*
X26644Y6299D02*
D03*
X26112D02*
D03*
X21427Y2461D02*
D03*
X20896D02*
D03*
X21427Y1870D02*
D03*
X20896D02*
D03*
X20148Y7382D02*
D03*
X19616D02*
D03*
X26112Y5610D02*
D03*
X26644D02*
D03*
X20148Y6004D02*
D03*
X19616D02*
D03*
X23986Y8169D02*
D03*
X23455D02*
D03*
X12470Y15551D02*
D03*
X11939D02*
D03*
X12470Y8071D02*
D03*
X11939D02*
D03*
X8396Y13681D02*
D03*
X8927D02*
D03*
X8396Y9744D02*
D03*
X8927D02*
D03*
X14045Y8661D02*
D03*
X13514D02*
D03*
X14045Y15551D02*
D03*
X13514D02*
D03*
X14045Y8071D02*
D03*
X13514D02*
D03*
X11939Y14961D02*
D03*
X12470D02*
D03*
X8927Y12992D02*
D03*
X8396D02*
D03*
X8927Y10433D02*
D03*
X8396D02*
D03*
X11939Y8661D02*
D03*
X12470D02*
D03*
X14045Y14961D02*
D03*
X13514D02*
D03*
X15778Y9350D02*
D03*
X16309D02*
D03*
X16407Y13780D02*
D03*
X15876D02*
D03*
X24636Y12106D02*
D03*
X25167D02*
D03*
Y11516D02*
D03*
X24636D02*
D03*
X32746Y3150D02*
D03*
X32215D02*
D03*
X32746Y2559D02*
D03*
X32215D02*
D03*
X32352Y9449D02*
D03*
X31821D02*
D03*
D25*
X3445Y21329D02*
D03*
Y20797D02*
D03*
X4134Y16860D02*
D03*
Y17392D02*
D03*
Y6230D02*
D03*
Y6762D02*
D03*
X3445Y2825D02*
D03*
Y2293D02*
D03*
X30906Y7470D02*
D03*
Y6939D02*
D03*
X30315Y7470D02*
D03*
Y6939D02*
D03*
D26*
X14764Y18882D02*
D03*
Y16552D02*
D03*
Y4741D02*
D03*
Y7071D02*
D03*
X11811Y21834D02*
D03*
Y19504D02*
D03*
Y1788D02*
D03*
Y4118D02*
D03*
D27*
X31775Y11299D02*
D03*
Y11614D02*
D03*
Y11929D02*
D03*
Y12244D02*
D03*
Y12559D02*
D03*
Y12874D02*
D03*
Y13189D02*
D03*
Y13504D02*
D03*
X35155D02*
D03*
Y13189D02*
D03*
Y12874D02*
D03*
Y12559D02*
D03*
Y12244D02*
D03*
Y11929D02*
D03*
Y11614D02*
D03*
Y11299D02*
D03*
D28*
X32362Y14092D02*
D03*
X32677D02*
D03*
X32992D02*
D03*
X33307D02*
D03*
X33622D02*
D03*
X33937D02*
D03*
X34252D02*
D03*
X34567D02*
D03*
Y10712D02*
D03*
X34252D02*
D03*
X33937D02*
D03*
X33622D02*
D03*
X33307D02*
D03*
X32992D02*
D03*
X32677D02*
D03*
X32362D02*
D03*
D29*
X14772Y9892D02*
D03*
Y10148D02*
D03*
Y10404D02*
D03*
Y10659D02*
D03*
Y10915D02*
D03*
Y11171D02*
D03*
Y11427D02*
D03*
Y11683D02*
D03*
Y11939D02*
D03*
Y12195D02*
D03*
Y12451D02*
D03*
Y12707D02*
D03*
Y12963D02*
D03*
Y13219D02*
D03*
Y13474D02*
D03*
Y13730D02*
D03*
X11802D02*
D03*
Y13474D02*
D03*
Y13219D02*
D03*
Y12963D02*
D03*
Y12707D02*
D03*
Y12451D02*
D03*
Y12195D02*
D03*
Y11939D02*
D03*
Y11683D02*
D03*
Y11427D02*
D03*
Y11171D02*
D03*
Y10915D02*
D03*
Y10659D02*
D03*
Y10404D02*
D03*
Y10148D02*
D03*
Y9892D02*
D03*
D30*
X13287Y11811D02*
D03*
D31*
X33584Y4134D02*
D03*
Y3937D02*
D03*
Y3740D02*
D03*
Y3543D02*
D03*
Y3346D02*
D03*
X35314D02*
D03*
Y3543D02*
D03*
Y3740D02*
D03*
Y3937D02*
D03*
Y4134D02*
D03*
D32*
X37242Y5002D02*
D03*
X37742D02*
D03*
X38242D02*
D03*
X38742D02*
D03*
Y7202D02*
D03*
X38242D02*
D03*
X37742D02*
D03*
X37242D02*
D03*
D33*
X31775Y13504D02*
X31791Y13521D01*
X28632Y11811D02*
X29642D01*
X30315Y12484D01*
X10851Y4651D02*
Y7210D01*
X8957Y2756D02*
X10851Y4651D01*
X8190Y2756D02*
X8957D01*
X11713Y8071D02*
X11939D01*
X10851Y7210D02*
X11713Y8071D01*
X10925Y16518D02*
Y18898D01*
X8957Y20866D02*
X10925Y18898D01*
X8190Y20866D02*
X8957D01*
X10925Y16518D02*
X11892Y15551D01*
X6132Y13189D02*
X7018Y12303D01*
X5118Y13189D02*
X6132D01*
X5118Y10433D02*
X6132D01*
X7018Y11319D01*
Y12303D01*
X7746Y10394D02*
X8396Y9744D01*
X7746Y10394D02*
Y11319D01*
Y12303D02*
Y13031D01*
X8396Y13681D01*
X9961Y14715D02*
Y16339D01*
X8927Y13681D02*
X9961Y14715D01*
Y7283D02*
Y8710D01*
X8927Y9744D02*
X9961Y8710D01*
X11939Y8071D02*
Y8661D01*
X11892Y15551D02*
X11939D01*
Y14961D02*
Y15551D01*
X24646Y15709D02*
X25157Y15197D01*
X24646Y15942D02*
X25497Y16793D01*
X24378Y21850D02*
X25497Y20731D01*
X24646Y15846D02*
Y15942D01*
X25497Y16793D02*
Y20731D01*
X22539Y15994D02*
Y16535D01*
X20965Y14567D02*
X21161Y14764D01*
Y15098D01*
X23976Y7441D02*
Y7579D01*
X23622Y7087D02*
X23976Y7441D01*
X23228Y7087D02*
X23622D01*
X22933Y7382D02*
X23228Y7087D01*
X20866Y7382D02*
X22933D01*
X18590Y7431D02*
X19619Y8460D01*
X20388Y7860D02*
X20866Y7382D01*
X19868Y7860D02*
X20388D01*
X19616Y7608D02*
X19868Y7860D01*
X20915Y8160D02*
X21004Y8071D01*
X19743Y8160D02*
X20915D01*
X19249Y7665D02*
X19743Y8160D01*
X21223Y8460D02*
X21516Y8167D01*
X19619Y8460D02*
X21223D01*
X21516Y8071D02*
Y8167D01*
X23455Y8169D02*
X23465Y8159D01*
Y7579D02*
Y8159D01*
X17421Y7431D02*
X18590D01*
X21457Y2490D02*
X22047D01*
X22638Y1181D02*
Y1476D01*
X22047Y2067D02*
Y2490D01*
Y2067D02*
X22638Y1476D01*
X21850Y5118D02*
X22244Y4724D01*
X21368Y5118D02*
X21850D01*
X22047Y2490D02*
Y2506D01*
X22244Y2703D01*
Y4724D01*
X26378Y21850D02*
Y21956D01*
X25643Y22690D02*
X26378Y21956D01*
X24030Y22690D02*
X25643D01*
X23538Y22198D02*
X24030Y22690D01*
X23538Y21502D02*
Y22198D01*
Y21502D02*
X24713Y20328D01*
Y17116D02*
Y20328D01*
X23838Y21627D02*
Y22074D01*
X24162Y21310D02*
X25197Y20276D01*
X24154Y21310D02*
X24162D01*
X23838Y21627D02*
X24154Y21310D01*
X25197Y17028D02*
Y20276D01*
X28440Y6496D02*
X28543D01*
X27279Y5335D02*
X28440Y6496D01*
X27048Y5335D02*
X27279D01*
X26634Y4921D02*
X27048Y5335D01*
X27657Y7382D02*
X28543Y6496D01*
X27165Y7382D02*
X27657D01*
X23514Y5118D02*
X24213D01*
X25167Y11516D02*
Y12106D01*
X25157Y10236D02*
X25232Y10311D01*
X26486D01*
X27303Y14468D02*
Y15157D01*
X26486Y10811D02*
X27051D01*
X27303Y11063D01*
Y14468D01*
X26486Y10311D02*
X27142D01*
X27815Y10984D01*
Y14468D01*
X28632Y12811D02*
X29248D01*
X29724Y13287D01*
Y13976D01*
X32421Y18898D02*
Y19488D01*
X32677Y10039D02*
X32680Y10037D01*
X33937Y10354D02*
Y10712D01*
X37795Y1549D02*
X38754D01*
X35155Y11299D02*
X35846D01*
X36772Y10374D01*
X37205D01*
X38386D01*
X39567D01*
X35155Y13504D02*
Y14092D01*
X35492Y14429D01*
X37205D01*
X38386D01*
X36398Y12874D02*
X36417Y12894D01*
X35155Y12874D02*
X36398D01*
X38280Y12843D02*
X41535D01*
X37205Y13917D02*
X38280Y12843D01*
X36555Y13917D02*
X37205D01*
X35827Y13189D02*
X36555Y13917D01*
X35155Y13189D02*
X35827D01*
X38461Y13843D02*
X41535D01*
X33937Y10712D02*
Y13268D01*
X34252Y13583D01*
Y14092D01*
X36909Y15945D02*
X37165Y16201D01*
Y16575D01*
X36378Y14961D02*
Y15413D01*
X36909Y15945D01*
X37165Y16575D02*
X37480D01*
X8927Y12992D02*
Y13681D01*
X8927Y9744D02*
Y10433D01*
X30315Y6939D02*
X30906D01*
X33740Y709D02*
Y1575D01*
X35295Y2165D02*
X35827D01*
X32992Y10712D02*
Y12677D01*
X33622Y10712D02*
Y12047D01*
X32992Y12677D02*
X33622Y12047D01*
X32874Y12795D02*
X32992Y12677D01*
X26634Y13459D02*
Y14468D01*
X26486Y13311D02*
X26634Y13459D01*
X28346Y15846D02*
X28976D01*
X24196Y12739D02*
X24646Y13189D01*
X24646Y10079D02*
Y10236D01*
X23838Y22074D02*
X24154Y22390D01*
X24851D01*
X25378Y21863D01*
Y21850D02*
Y21863D01*
X29315Y10811D02*
X29331Y10827D01*
X28632Y10811D02*
X29315D01*
X28632Y13311D02*
X28642Y13321D01*
Y13976D01*
Y14331D01*
X27815Y15157D02*
X28642Y14331D01*
X21427Y1870D02*
Y2461D01*
X17165Y5354D02*
X17421Y5610D01*
X17165Y5020D02*
Y5354D01*
X17421Y5610D02*
X17684Y5873D01*
X18078D01*
X19249Y7044D01*
Y7665D01*
X21752Y18071D02*
Y18750D01*
X22539Y19537D01*
X21752Y17559D02*
X22057D01*
X22539Y17077D01*
X23524Y17323D02*
X24213D01*
X23278Y17077D02*
X23524Y17323D01*
X22539Y17077D02*
X23278D01*
X19616Y7382D02*
Y7608D01*
X24016Y9843D02*
X24409D01*
X24646Y10079D01*
X21656Y18071D02*
X21752D01*
X21161Y17576D02*
X21656Y18071D01*
X21161Y15610D02*
Y17576D01*
X23455Y8169D02*
Y8435D01*
X23538Y10320D02*
Y10337D01*
Y10320D02*
X24016Y9843D01*
X24196Y12697D02*
Y12739D01*
X24646Y13878D02*
Y14429D01*
X23224Y15627D02*
X24713Y17116D01*
X23524Y15354D02*
X25197Y17028D01*
X23224Y8666D02*
Y15627D01*
X23524Y10351D02*
Y15354D01*
X32736Y1969D02*
X32776Y1929D01*
Y1280D02*
Y1929D01*
X35410Y15945D02*
X36909D01*
X34252Y14092D02*
Y14787D01*
X35410Y15945D01*
X31791Y13521D02*
Y13976D01*
X33307Y10079D02*
X33465Y10236D01*
X33819D01*
X33937Y10354D01*
X29147Y1824D02*
X29331Y2007D01*
X29147Y886D02*
Y1824D01*
Y886D02*
X29921D01*
X30709D01*
X26634Y14567D02*
Y15000D01*
X25787Y15846D02*
X26634Y15000D01*
X25157Y15846D02*
X25787D01*
X32421Y16673D02*
Y18898D01*
X29724Y13976D02*
X32421Y16673D01*
X29488Y15492D02*
Y15846D01*
Y15492D02*
X29823Y15157D01*
X29921D01*
X28543Y6496D02*
X29528D01*
X29970Y6939D01*
X30315D01*
X26713Y7835D02*
X27165Y7382D01*
X26713Y7835D02*
Y7972D01*
X22835Y9557D02*
Y10532D01*
X23224Y8666D02*
X23455Y8435D01*
X23524Y10351D02*
X23538Y10337D01*
X3907Y3287D02*
X4134D01*
X3445Y2825D02*
X3907Y3287D01*
X2982Y2293D02*
X3445D01*
X1969Y3307D02*
X2982Y2293D01*
X1969Y3307D02*
Y3937D01*
X3907Y20335D02*
X4134D01*
X3445Y20797D02*
X3907Y20335D01*
X2982Y21329D02*
X3445D01*
X1969Y20315D02*
X2982Y21329D01*
X1969Y19685D02*
Y20315D01*
X36378Y14961D02*
X37736D01*
X40059D02*
X41535Y16437D01*
X38248Y14961D02*
X40059D01*
X16718Y12810D02*
X17126Y12402D01*
X22289Y12053D02*
X22343Y12106D01*
X21250Y12053D02*
X22289D01*
X21752Y12697D02*
Y14075D01*
X21608Y12553D02*
X21752Y12697D01*
X21250Y12553D02*
X21608D01*
X20813D02*
X21250D01*
X20669Y11713D02*
X20829Y11553D01*
X21250D01*
X20374Y12510D02*
X20917Y13053D01*
X21250D01*
X20177Y10925D02*
X20374Y11122D01*
X18799Y10925D02*
X20177D01*
X19104Y12553D02*
X19730D01*
X19882Y12402D01*
X20669Y11713D02*
Y12409D01*
X20813Y12553D01*
X20374Y11122D02*
Y12510D01*
X19882Y12303D02*
Y12402D01*
X17913Y10433D02*
Y11614D01*
X18352Y12053D01*
X19104D01*
X21516Y8071D02*
X22244D01*
X22835Y8661D01*
Y9547D01*
X20177Y10925D02*
X21308D01*
X21821Y10412D01*
Y9744D02*
Y10335D01*
Y10412D01*
X21752Y14888D02*
Y17559D01*
X19917Y13053D02*
X21752Y14888D01*
X19104Y13053D02*
X19917D01*
X17126Y10433D02*
Y12402D01*
Y10433D02*
X18504Y9055D01*
X22244D01*
X16299Y9360D02*
Y10039D01*
Y9360D02*
X16309Y9350D01*
D34*
X15319Y12707D02*
X15423Y12810D01*
X14772Y12707D02*
X15319D01*
X28632Y12311D02*
X28640Y12303D01*
X14772Y10148D02*
Y10404D01*
X8927Y12992D02*
X10532D01*
X11329Y12195D01*
X11802D01*
X9124Y11939D02*
X11802D01*
X8396Y12667D02*
X9124Y11939D01*
X8396Y12667D02*
Y12992D01*
X9163Y11427D02*
X11802D01*
X8396Y10659D02*
X9163Y11427D01*
X8396Y10433D02*
Y10659D01*
X11368Y11171D02*
X11802D01*
X10630Y10433D02*
X11368Y11171D01*
X8927Y10433D02*
X10630D01*
X11192Y14214D02*
X11939Y14961D01*
X11192Y12922D02*
Y14214D01*
Y12922D02*
X11407Y12707D01*
X11412Y13092D02*
Y13946D01*
X11970Y14503D01*
X11412Y13092D02*
X11542Y12963D01*
X11192Y9408D02*
X11939Y8661D01*
X11192Y9408D02*
Y10405D01*
X12008Y9055D02*
X12303D01*
X11412Y9651D02*
X12008Y9055D01*
X11412Y9651D02*
Y10274D01*
X11192Y10405D02*
X11447Y10659D01*
X11412Y10274D02*
X11542Y10404D01*
X11447Y10659D02*
X11802D01*
X12470Y8661D02*
Y8888D01*
X12303Y9055D02*
X12470Y8888D01*
X11542Y10404D02*
X11802D01*
X11407Y12707D02*
X11802D01*
X11542Y12963D02*
X11802D01*
X11970Y14503D02*
X12303D01*
X12470Y14671D01*
Y14961D01*
Y15551D02*
X12569Y15650D01*
Y16339D01*
X25157Y15059D02*
Y15197D01*
X24646Y15709D02*
Y15846D01*
X16398Y13789D02*
X16407Y13780D01*
X16398Y13789D02*
Y14468D01*
X15846D02*
X15886D01*
X15108Y13730D02*
X15846Y14468D01*
X14772Y13730D02*
X15108D01*
X15551Y12303D02*
Y12500D01*
X15443Y12195D02*
X15551Y12303D01*
X14772Y12195D02*
X15443D01*
X27815Y9055D02*
Y9646D01*
X27303Y9016D02*
Y9055D01*
Y9016D02*
X27756Y8563D01*
X28632Y11311D02*
X29437D01*
X12470Y7382D02*
Y8071D01*
X25157Y13878D02*
X25531D01*
X26122Y14468D01*
X25531Y13248D02*
Y13878D01*
Y13248D02*
X25968Y12811D01*
X26486D01*
X25157Y13189D02*
X26035Y12311D01*
X26486D01*
X27815Y9646D02*
X28150D01*
X28632Y10128D01*
Y10311D01*
X28051Y8563D02*
X28445Y8957D01*
Y9055D01*
X27756Y8563D02*
X28051D01*
X29528D01*
X25787Y11122D02*
X25976Y11311D01*
X26486D01*
X25787Y10827D02*
Y11122D01*
X29741Y8776D02*
Y11007D01*
X29528Y8563D02*
X29741Y8776D01*
X29437Y11311D02*
X29741Y11007D01*
X16299Y8071D02*
Y8425D01*
X15148Y10148D02*
X15256Y10039D01*
X14772Y10148D02*
X15148D01*
X15965Y8760D02*
X16299Y8425D01*
X14045Y8071D02*
X15787D01*
X24636Y11388D02*
Y11516D01*
Y11388D02*
X24855Y11169D01*
X24983D01*
X25157Y10994D01*
Y10827D02*
Y10994D01*
X24636Y11516D02*
Y12106D01*
X24646Y14839D02*
Y15059D01*
X23786Y14149D02*
X24476Y14839D01*
X23786Y12435D02*
Y14149D01*
Y12435D02*
X24114Y12106D01*
X24636D01*
X24476Y14839D02*
X24646D01*
X24636Y12106D02*
Y12406D01*
X24902Y12672D01*
X15453Y13780D02*
X15876D01*
X15148Y13474D02*
X15453Y13780D01*
X14772Y13474D02*
X15148D01*
X28640Y12303D02*
X29331D01*
X26634Y14468D02*
Y14567D01*
X26181Y9744D02*
X26280Y9646D01*
X27303D01*
X15423Y12810D02*
X16718D01*
X14772Y11683D02*
X15448D01*
X15805Y12040D01*
X16278D01*
X16594Y11724D01*
X14772Y11427D02*
X15797D01*
X16083Y11713D01*
X16594D02*
X16616Y11691D01*
X15256Y9055D02*
Y10039D01*
Y9055D02*
X15551Y8760D01*
X15965D01*
X14772Y10659D02*
X15354D01*
X14772Y11171D02*
X14828Y11115D01*
X15309D01*
X15644Y10780D01*
Y10419D02*
Y10780D01*
X15456Y10231D02*
X15644Y10419D01*
X15456Y9672D02*
Y10231D01*
Y9672D02*
X15778Y9350D01*
X16594Y10857D02*
Y11713D01*
X15787Y10050D02*
X16594Y10857D01*
X15787Y10039D02*
Y10050D01*
D35*
X33622Y13583D02*
Y14092D01*
X32874Y12795D02*
X33307Y13228D01*
Y14092D01*
X31775Y12244D02*
X32244D01*
X32283Y12205D01*
Y11220D02*
Y12205D01*
X32122Y11059D02*
X32283Y11220D01*
X37402Y21654D02*
X38150D01*
X38444Y4697D02*
X38742Y4995D01*
Y5002D01*
X35314Y2696D02*
Y3346D01*
X35120Y2502D02*
X35314Y2696D01*
X35095Y2502D02*
X35120D01*
X34783Y2190D02*
X35095Y2502D01*
X34783Y2165D02*
Y2190D01*
X34252Y2165D02*
Y3346D01*
X34055Y3543D02*
X34252Y3346D01*
X33584Y3543D02*
X34055D01*
X34252Y1575D02*
Y2165D01*
X32746Y3150D02*
Y3253D01*
X33234Y3740D01*
X33584D01*
X32746Y2559D02*
Y3150D01*
X32215Y1978D02*
Y2559D01*
Y1978D02*
X32224Y1969D01*
X32736Y3937D02*
X33584D01*
X33584Y3937D01*
X32224Y4449D02*
X32736Y3937D01*
X34646Y3937D02*
X35314D01*
X32736Y4528D02*
X34948D01*
X33584Y4134D02*
X33584Y4134D01*
X37571Y4697D02*
X38444D01*
X36811Y3937D02*
X37571Y4697D01*
X32362Y14092D02*
X32382Y14111D01*
Y14418D01*
X34331Y16366D01*
X32677Y14092D02*
Y14398D01*
X34646Y16366D01*
X32992Y14092D02*
Y14398D01*
X34961Y16366D01*
X37382Y19764D02*
X38150D01*
X34567Y14092D02*
Y14685D01*
X31775Y13189D02*
X32480D01*
X32480Y13189D01*
X33268Y3030D02*
X33584Y3346D01*
X33268Y2756D02*
Y3030D01*
X32224Y3159D02*
Y3937D01*
X32215Y3150D02*
X32224Y3159D01*
X36811Y3740D02*
Y3937D01*
X36319Y4134D02*
X36516Y3937D01*
Y3869D02*
Y3937D01*
X36511Y3450D02*
X37795Y2165D01*
Y1549D02*
Y2165D01*
X35314Y4134D02*
X35342D01*
X34948Y4528D02*
X35342Y4134D01*
X36511Y3450D02*
Y3864D01*
X36516Y3869D01*
X35342Y4134D02*
X36319D01*
X35314Y3740D02*
X36122D01*
X35314Y3543D02*
X35728D01*
X35827Y3445D01*
Y2165D02*
Y3445D01*
X35827Y2165D02*
X35827Y2165D01*
X33661Y22913D02*
Y23228D01*
X31831Y8858D02*
Y8927D01*
X32015Y9112D01*
X32050D01*
X32138Y9200D01*
Y9235D01*
X32352Y9449D01*
X32122Y9714D02*
X32138Y9698D01*
Y9663D02*
Y9698D01*
Y9663D02*
X32352Y9449D01*
X32122Y11044D02*
Y11059D01*
X32102Y11024D02*
X32122Y11044D01*
X32102Y10399D02*
Y11024D01*
Y10399D02*
X32122Y10379D01*
Y9714D02*
Y10379D01*
X33937Y15028D02*
X35276Y16366D01*
X33937Y14092D02*
Y15028D01*
X35039Y14764D02*
X35512D01*
X34567Y14685D02*
X34646Y14764D01*
X35039D01*
X35512D02*
X35709Y14961D01*
X35866D01*
X33584Y4134D02*
X34154D01*
X34252Y10138D02*
Y10712D01*
Y10138D02*
X34961Y9429D01*
X35906Y9449D02*
Y9921D01*
X35115Y10712D02*
X35906Y9921D01*
X34567Y10712D02*
X35115D01*
X30478Y3150D02*
X30478Y3150D01*
X32215D01*
D36*
X4134Y17392D02*
X4626Y17884D01*
X4134Y6230D02*
X4626Y5738D01*
X16094Y21834D02*
X16110Y21850D01*
X22638Y3386D02*
Y5610D01*
Y3386D02*
X23071Y2953D01*
X36874Y7202D02*
X37242D01*
X35268Y5596D02*
X36874Y7202D01*
X37795Y3569D02*
X38608D01*
X39370Y4331D01*
Y5512D01*
X38780D02*
X39370D01*
X37992Y6299D02*
X38780Y5512D01*
X16778Y5705D02*
X17421Y6348D01*
X16778Y4285D02*
Y5705D01*
Y4285D02*
X17165Y3898D01*
Y3642D02*
Y3898D01*
X20472Y21079D02*
X21244Y21850D01*
X17717Y16929D02*
Y17323D01*
Y16929D02*
X18209Y16437D01*
X19882D01*
X20472Y17028D01*
Y21079D01*
X17110Y21710D02*
X18898Y19923D01*
Y18307D02*
Y19923D01*
Y18307D02*
X19882Y17323D01*
X17110Y21710D02*
Y21850D01*
D37*
X12106Y9449D02*
X13583D01*
X11811Y9744D02*
X12106Y9449D01*
X11811Y9744D02*
Y10060D01*
X13583Y9449D02*
X14045Y8986D01*
Y8661D02*
Y8986D01*
X14764Y7071D02*
Y7352D01*
X14045Y8071D02*
X14764Y7352D01*
X14045Y8071D02*
Y8661D01*
D38*
X12106Y14173D02*
X13583D01*
X11811Y13878D02*
X12106Y14173D01*
X13583D02*
X14045Y14636D01*
X11811Y13301D02*
Y13878D01*
X11802Y13293D02*
X11811Y13301D01*
X14045Y14636D02*
Y14961D01*
X14764Y16270D02*
Y16552D01*
X14045Y15551D02*
X14764Y16270D01*
X14045Y14961D02*
Y15551D01*
D39*
X23542Y6618D02*
X23913Y6988D01*
X23514Y6618D02*
X23542D01*
X23913Y6988D02*
X26122D01*
X21661Y4618D02*
X21949Y4331D01*
Y3445D02*
Y4331D01*
X23514Y3022D02*
X23583Y2953D01*
X23514Y3022D02*
Y3618D01*
X21368D02*
Y4118D01*
X19616Y6703D02*
X19626Y6693D01*
X19616Y6703D02*
Y7382D01*
X21368Y6118D02*
Y6618D01*
X23514Y3618D02*
X26047D01*
X33661Y18504D02*
X34843D01*
X33661Y19134D02*
X34488D01*
X32933Y18898D02*
X33012Y18819D01*
X33661D01*
X32972Y19449D02*
X33661D01*
X30856Y8484D02*
X31821Y9449D01*
X30315Y8484D02*
X30856D01*
X30315Y9484D02*
X31201Y10370D01*
Y11333D01*
X31452Y11584D01*
X31745D01*
X31775Y11614D01*
X30315Y10484D02*
X30906Y11075D01*
Y11713D01*
X31122Y11929D01*
X31775D01*
X33307Y10079D02*
Y10712D01*
X40693Y9843D02*
X41535D01*
X39650Y10886D02*
X40693Y9843D01*
X39567Y10886D02*
X39650D01*
X40535Y10843D02*
X41535D01*
X38386Y10886D02*
Y11220D01*
X37925Y11843D02*
X41535D01*
X37205Y11122D02*
X37925Y11843D01*
X37205Y10886D02*
Y11122D01*
X38386Y11220D02*
X38583Y11417D01*
X39961D01*
X40535Y10843D01*
X35155Y11614D02*
X36713D01*
X37205Y11122D01*
X35155Y12244D02*
X38346D01*
X38386Y12205D01*
X37087Y11929D02*
X37205Y11811D01*
X35155Y11929D02*
X37087D01*
X4134Y16860D02*
X4204D01*
X4726Y17382D01*
X5118D01*
X4134Y6762D02*
X4262D01*
X4783Y6240D01*
X5118D01*
X33427Y1853D02*
X33740Y2165D01*
X33427Y1341D02*
Y1853D01*
X23514Y3618D02*
Y4118D01*
X26047Y3618D02*
X26122Y3543D01*
X25984Y4232D02*
X26112D01*
X25598Y4618D02*
X25984Y4232D01*
X24697Y4618D02*
X25598D01*
X24409Y4331D02*
X24697Y4618D01*
X23514D02*
X24697D01*
X26122Y4921D02*
Y5600D01*
X23514Y5618D02*
X26104D01*
X26112Y5610D01*
X26122Y5600D01*
X26644Y3553D02*
Y4232D01*
X26634Y3543D02*
X26644Y3553D01*
Y6299D02*
X27067D01*
X26644Y4232D02*
X27067D01*
X26644Y5610D02*
X27165D01*
X27461Y5906D01*
Y6791D01*
X27264Y6988D02*
X27461Y6791D01*
X26634Y6988D02*
X27264D01*
X23695Y6299D02*
X26112D01*
X23514Y6118D02*
X23695Y6299D01*
X26122Y6309D02*
Y6988D01*
X26112Y6299D02*
X26122Y6309D01*
X24409Y3150D02*
Y3248D01*
Y3150D02*
X24705Y2854D01*
X26122D01*
X21368Y4618D02*
X21661D01*
X20148Y3445D02*
X21195D01*
X21368Y3618D01*
X20138Y4232D02*
X20472D01*
X20858Y4618D01*
X21368D01*
X20148Y6004D02*
X20533Y5618D01*
X21368D01*
X20138Y6014D02*
Y6693D01*
Y6014D02*
X20148Y6004D01*
X20941Y6618D02*
X21368D01*
X20669Y6890D02*
X20941Y6618D01*
X20177Y7382D02*
X20669Y6890D01*
X20148Y7382D02*
X20177D01*
X20472Y4921D02*
X20669Y5118D01*
X20138Y4921D02*
X20472D01*
X19616Y1998D02*
Y2461D01*
Y5541D02*
Y6004D01*
X21654Y3150D02*
X21949Y3445D01*
X20148Y2461D02*
Y2726D01*
X20571Y3150D01*
X21654D01*
X20896Y1870D02*
Y2461D01*
X19744Y1870D02*
X20896D01*
X19616Y1998D02*
X19744Y1870D01*
X19626Y3455D02*
Y4921D01*
X19616Y3445D02*
X19626Y3455D01*
X17677Y3642D02*
Y5020D01*
Y3642D02*
X18366Y2953D01*
X19726D01*
X20148Y3375D01*
Y3445D01*
X22539Y17815D02*
Y18455D01*
X32343Y8858D02*
X32579D01*
X32680Y9723D02*
X32695Y9708D01*
X32680Y9723D02*
Y10037D01*
X32695Y8974D02*
Y9708D01*
X32579Y8858D02*
X32695Y8974D01*
X31999Y875D02*
X32961D01*
X33427Y1341D01*
X29134Y3740D02*
X31999Y875D01*
X29134Y3740D02*
Y4253D01*
X29331Y4450D01*
X38150Y19449D02*
X38543D01*
X38780Y19685D01*
Y20354D01*
X39665Y21240D01*
X38150Y19134D02*
X39559D01*
X39665Y19240D01*
X38150Y18819D02*
X38661D01*
X38740Y18740D01*
X40000D01*
X40236Y18976D01*
Y19669D01*
X39665Y20240D02*
X40236Y19669D01*
X38150Y18504D02*
X38583D01*
X39665Y17421D01*
Y17240D02*
Y17421D01*
X38150Y17559D02*
X38465D01*
X39291Y16732D01*
X40039D01*
X40335Y17028D01*
X41535D01*
D40*
X16142Y3346D02*
Y3445D01*
Y3346D02*
X18307Y1181D01*
X16142Y3445D02*
Y4331D01*
Y5315D02*
Y5693D01*
X14764Y7071D02*
X16142Y5693D01*
Y4331D02*
Y5315D01*
X14846Y16634D02*
X16142D01*
Y17520D01*
X18307Y1181D02*
X22638D01*
X11811Y19504D02*
X14764Y16552D01*
X11811Y4118D02*
X14764Y7071D01*
Y16552D02*
Y16634D01*
Y16552D02*
X14846Y16634D01*
X22638Y1181D02*
X25905D01*
X29134Y4410D01*
Y4548D01*
D41*
X26634Y6988D02*
Y7224D01*
X25167Y11516D02*
X25463Y11811D01*
X25787D01*
X26486D01*
X30305Y7480D02*
X30315Y7470D01*
X29488Y15846D02*
Y20827D01*
X30512Y21850D01*
X28543Y19291D02*
Y21819D01*
X28512Y21850D02*
X28543Y21819D01*
X24646Y10236D02*
Y10827D01*
X28996Y7480D02*
X29331D01*
X30305D01*
X28504Y7972D02*
X28996Y7480D01*
X24675D02*
X26378D01*
X26634Y7224D01*
X24319Y7836D02*
Y7851D01*
Y7836D02*
X24675Y7480D01*
X23986Y8169D02*
X24001D01*
X24319Y7851D01*
X25394Y8760D02*
X26673D01*
X28406Y7972D02*
X28504D01*
X26673Y8760D02*
X27224Y8209D01*
Y7972D02*
Y8209D01*
Y7972D02*
X27894D01*
D42*
X36417Y5827D02*
X37242Y5002D01*
X37742D01*
X38242D01*
D43*
X30137Y5551D02*
X32067D01*
X32421Y5906D01*
X29134Y4548D02*
X30137Y5551D01*
D44*
X30984Y7480D02*
D03*
D45*
X1969Y14764D02*
D03*
Y12795D02*
D03*
Y10827D02*
D03*
X41339Y6693D02*
D03*
D46*
X1969Y8858D02*
D03*
X41339Y4724D02*
D03*
D47*
X19882Y19291D02*
D03*
Y17323D02*
D03*
X17717Y19291D02*
D03*
Y17323D02*
D03*
X26378D02*
D03*
Y19291D02*
D03*
X24213D02*
D03*
Y17323D02*
D03*
X14764Y2953D02*
D03*
Y984D02*
D03*
X1969Y19685D02*
D03*
Y17717D02*
D03*
X5118Y15157D02*
D03*
Y13189D02*
D03*
Y10433D02*
D03*
Y8465D02*
D03*
X1969Y5906D02*
D03*
Y3937D02*
D03*
X30709Y17323D02*
D03*
Y19291D02*
D03*
X28543Y17323D02*
D03*
Y19291D02*
D03*
D48*
X39665Y20240D02*
D03*
Y21240D02*
D03*
Y19240D02*
D03*
Y17240D02*
D03*
Y18240D02*
D03*
X30315Y9484D02*
D03*
Y8484D02*
D03*
Y10484D02*
D03*
Y12484D02*
D03*
Y11484D02*
D03*
D49*
X39665Y16240D02*
D03*
X30315Y13484D02*
D03*
D50*
X41535Y13843D02*
D03*
Y12843D02*
D03*
Y11843D02*
D03*
Y10843D02*
D03*
X24378Y21850D02*
D03*
X25378D02*
D03*
X16110D02*
D03*
X17110D02*
D03*
X20244D02*
D03*
X21244D02*
D03*
X28512D02*
D03*
X29512D02*
D03*
D51*
X41535Y9843D02*
D03*
D52*
X26378Y21850D02*
D03*
X18110D02*
D03*
X22244D02*
D03*
X30512D02*
D03*
D53*
X1575Y22047D02*
D03*
Y1575D02*
D03*
X41732D02*
D03*
Y22047D02*
D03*
D54*
X33622Y13583D02*
D03*
X14272Y3740D02*
D03*
X15256D02*
D03*
X14764D02*
D03*
X11319Y5413D02*
D03*
Y5906D02*
D03*
Y6398D02*
D03*
Y6890D02*
D03*
X13091D02*
D03*
X13386Y7382D02*
D03*
X12894Y3445D02*
D03*
Y2953D02*
D03*
Y2461D02*
D03*
Y1969D02*
D03*
X11909Y787D02*
D03*
X12402D02*
D03*
X12894D02*
D03*
X13386D02*
D03*
X15748Y19587D02*
D03*
X12697Y10138D02*
D03*
X13287D02*
D03*
X13878D02*
D03*
Y10630D02*
D03*
X13287D02*
D03*
X12697D02*
D03*
Y13091D02*
D03*
X13287D02*
D03*
X13878D02*
D03*
Y13583D02*
D03*
X13287D02*
D03*
X12697D02*
D03*
X14665Y20866D02*
D03*
X14173D02*
D03*
X13681D02*
D03*
X14665Y21358D02*
D03*
X14173D02*
D03*
X13681D02*
D03*
Y21850D02*
D03*
X14173D02*
D03*
X14665D02*
D03*
X18110Y14764D02*
D03*
Y15256D02*
D03*
X17618Y13287D02*
D03*
X18110Y14272D02*
D03*
Y13780D02*
D03*
Y13287D02*
D03*
X22539Y16535D02*
D03*
X20965Y14567D02*
D03*
X15551Y12500D02*
D03*
X13878Y11220D02*
D03*
X13484D02*
D03*
X13091D02*
D03*
X12697D02*
D03*
Y11614D02*
D03*
X13091D02*
D03*
X13484D02*
D03*
X13878D02*
D03*
Y12008D02*
D03*
X13484D02*
D03*
X13091D02*
D03*
X12697D02*
D03*
X13878Y12402D02*
D03*
X13484D02*
D03*
X13091D02*
D03*
X12697D02*
D03*
X36417Y5827D02*
D03*
X32874Y12795D02*
D03*
X37402Y21654D02*
D03*
X34646Y3937D02*
D03*
X38754Y1549D02*
D03*
X38386Y12205D02*
D03*
X37205Y11811D02*
D03*
X36417Y12894D02*
D03*
X37382Y19764D02*
D03*
X32480Y13189D02*
D03*
X36811Y3740D02*
D03*
X36122Y3740D02*
D03*
X24409Y4331D02*
D03*
X27067Y6299D02*
D03*
Y4232D02*
D03*
X24409Y3248D02*
D03*
X19616Y1998D02*
D03*
Y5541D02*
D03*
X35039Y14764D02*
D03*
X34154Y4134D02*
D03*
X31791Y13976D02*
D03*
X22835Y10532D02*
D03*
X17618Y15256D02*
D03*
X18701Y10335D02*
D03*
Y9843D02*
D03*
X18406Y11417D02*
D03*
X15354Y10659D02*
D03*
X17913Y8661D02*
D03*
X17421D02*
D03*
X16929D02*
D03*
X18406D02*
D03*
D55*
X4626Y17884D02*
D03*
Y5738D02*
D03*
X21752Y14075D02*
D03*
X22638Y5610D02*
D03*
X16142Y3445D02*
D03*
Y5315D02*
D03*
Y4331D02*
D03*
Y17520D02*
D03*
Y16634D02*
D03*
X25787Y11811D02*
D03*
X34843Y18504D02*
D03*
X34488Y19134D02*
D03*
X32677Y10039D02*
D03*
X33268D02*
D03*
X33740Y709D02*
D03*
X35827Y2165D02*
D03*
X30709Y886D02*
D03*
X28346Y15846D02*
D03*
X28445Y9055D02*
D03*
X25787Y10827D02*
D03*
X29331D02*
D03*
X28642Y13976D02*
D03*
X20669Y6890D02*
D03*
Y5118D02*
D03*
X17421Y5610D02*
D03*
X22539Y17815D02*
D03*
X24213Y5118D02*
D03*
X24196Y12697D02*
D03*
X24646Y14429D02*
D03*
X24902Y12672D02*
D03*
X32776Y1280D02*
D03*
X29331Y12303D02*
D03*
X29147Y886D02*
D03*
X29921D02*
D03*
X30478Y3150D02*
D03*
X29921Y15157D02*
D03*
X29528Y6496D02*
D03*
X29331Y7480D02*
D03*
X26181Y9744D02*
D03*
X25394Y8760D02*
D03*
X36909Y15945D02*
D03*
X22343Y12106D02*
D03*
X18799Y10925D02*
D03*
X19882Y12303D02*
D03*
X17913Y10433D02*
D03*
X22244Y9055D02*
D03*
D56*
X33268Y2756D02*
D03*
M02*
