G04 Layer_Color=65535*
%FSLAX24Y24*%
%MOIN*%
G70*
G01*
G75*
%ADD33C,0.0200*%
%ADD35C,0.0100*%
%ADD39C,0.0150*%
%ADD42C,0.0098*%
%ADD62C,0.0060*%
%ADD63C,0.0236*%
%ADD64C,0.0039*%
%ADD65C,0.0080*%
%ADD66C,0.0079*%
%ADD67C,0.0067*%
D33*
X40305Y9403D02*
G03*
X40305Y9403I-100J0D01*
G01*
X26918Y20520D02*
G03*
X26918Y20520I-100J0D01*
G01*
X18650D02*
G03*
X18650Y20520I-100J0D01*
G01*
X22784D02*
G03*
X22784Y20520I-100J0D01*
G01*
X31052D02*
G03*
X31052Y20520I-100J0D01*
G01*
D35*
X18898Y19764D02*
X20866D01*
X18898Y16850D02*
X20866D01*
X18898D02*
Y19764D01*
X20866Y16850D02*
Y19764D01*
X16732D02*
X18701D01*
X16732Y16850D02*
X18701D01*
X16732D02*
Y19764D01*
X18701Y16850D02*
Y19764D01*
X25394Y16850D02*
X27362D01*
X25394Y19764D02*
X27362D01*
Y16850D02*
Y19764D01*
X25394Y16850D02*
Y19764D01*
X23228D02*
X25197D01*
X23228Y16850D02*
X25197D01*
X23228D02*
Y19764D01*
X25197Y16850D02*
Y19764D01*
X13780Y3425D02*
X15748D01*
X13780Y512D02*
X15748D01*
X13780D02*
Y3425D01*
X15748Y512D02*
Y3425D01*
X984Y20157D02*
X2953D01*
X984Y17244D02*
X2953D01*
X984D02*
Y20157D01*
X2953Y17244D02*
Y20157D01*
X4134Y15630D02*
X6102D01*
X4134Y12717D02*
X6102D01*
X4134D02*
Y15630D01*
X6102Y12717D02*
Y15630D01*
X4134Y10906D02*
X6102D01*
X4134Y7992D02*
X6102D01*
X4134D02*
Y10906D01*
X6102Y7992D02*
Y10906D01*
X984Y6378D02*
X2953D01*
X984Y3465D02*
X2953D01*
X984D02*
Y6378D01*
X2953Y3465D02*
Y6378D01*
X29724Y16850D02*
X31693D01*
X29724Y19764D02*
X31693D01*
Y16850D02*
Y19764D01*
X29724Y16850D02*
Y19764D01*
X27559Y16850D02*
X29528D01*
X27559Y19764D02*
X29528D01*
Y16850D02*
Y19764D01*
X27559Y16850D02*
Y19764D01*
X40246Y15718D02*
Y21762D01*
X39085Y15718D02*
X40246D01*
X39085D02*
Y21762D01*
Y21766D02*
X40246D01*
X29734Y7963D02*
Y14006D01*
X30896D01*
Y7963D02*
Y14006D01*
X29734Y7959D02*
X30896D01*
X43135Y11243D02*
Y12443D01*
X40505Y14793D02*
X42585D01*
X40505Y8892D02*
X42585D01*
X40505D02*
Y14793D01*
X42585Y8892D02*
Y11243D01*
X43135D01*
X42585Y12443D02*
Y14793D01*
Y12443D02*
X43135D01*
Y11243D02*
Y12443D01*
X27328Y20820D02*
Y22900D01*
X23378Y20820D02*
X27328D01*
X24758Y23430D02*
X25958D01*
X24758D02*
X25968D01*
Y22900D02*
Y23430D01*
X25978Y22900D02*
X27328D01*
X23378Y20820D02*
Y22900D01*
X24758D02*
Y23430D01*
X23378Y22900D02*
X24758D01*
X19060Y20820D02*
Y22900D01*
X15110Y20820D02*
X19060D01*
X16490Y23430D02*
X17690D01*
X16490D02*
X17700D01*
Y22900D02*
Y23430D01*
X17710Y22900D02*
X19060D01*
X15110Y20820D02*
Y22900D01*
X16490D02*
Y23430D01*
X15110Y22900D02*
X16490D01*
X23194Y20820D02*
Y22900D01*
X19244Y20820D02*
X23194D01*
X20624Y23430D02*
X21824D01*
X20624D02*
X21834D01*
Y22900D02*
Y23430D01*
X21844Y22900D02*
X23194D01*
X19244Y20820D02*
Y22900D01*
X20624D02*
Y23430D01*
X19244Y22900D02*
X20624D01*
X31462Y20820D02*
Y22900D01*
X27512Y20820D02*
X31462D01*
X28892Y23430D02*
X30092D01*
X28892D02*
X30102D01*
Y22900D02*
Y23430D01*
X30112Y22900D02*
X31462D01*
X27512Y20820D02*
Y22900D01*
X28892D02*
Y23430D01*
X27512Y22900D02*
X28892D01*
X31955Y10171D02*
X31890Y10236D01*
X31759D01*
X31693Y10171D01*
Y9908D01*
X31759Y9843D01*
X31890D01*
X31955Y9908D01*
X32086Y9843D02*
X32218D01*
X32152D01*
Y10236D01*
X32086Y10171D01*
X31467Y2695D02*
X31401Y2762D01*
X31267D01*
X31201Y2695D01*
Y2429D01*
X31267Y2362D01*
X31401D01*
X31467Y2429D01*
X31601Y2695D02*
X31667Y2762D01*
X31801D01*
X31867Y2695D01*
Y2629D01*
X31801Y2562D01*
X31734D01*
X31801D01*
X31867Y2495D01*
Y2429D01*
X31801Y2362D01*
X31667D01*
X31601Y2429D01*
X31467Y3384D02*
X31401Y3451D01*
X31267D01*
X31201Y3384D01*
Y3118D01*
X31267Y3051D01*
X31401D01*
X31467Y3118D01*
X31867Y3451D02*
X31601D01*
Y3251D01*
X31734Y3318D01*
X31801D01*
X31867Y3251D01*
Y3118D01*
X31801Y3051D01*
X31667D01*
X31601Y3118D01*
X30184Y5873D02*
X30118Y5807D01*
Y5676D01*
X30184Y5610D01*
X30446D01*
X30512Y5676D01*
Y5807D01*
X30446Y5873D01*
X30512Y6004D02*
Y6135D01*
Y6069D01*
X30118D01*
X30184Y6004D01*
X30512Y6594D02*
Y6332D01*
X30249Y6594D01*
X30184D01*
X30118Y6529D01*
Y6397D01*
X30184Y6332D01*
X30873Y5873D02*
X30807Y5807D01*
Y5676D01*
X30873Y5610D01*
X31135D01*
X31201Y5676D01*
Y5807D01*
X31135Y5873D01*
X31201Y6004D02*
Y6135D01*
Y6069D01*
X30807D01*
X30873Y6004D01*
Y6332D02*
X30807Y6397D01*
Y6529D01*
X30873Y6594D01*
X30938D01*
X31004Y6529D01*
Y6463D01*
Y6529D01*
X31070Y6594D01*
X31135D01*
X31201Y6529D01*
Y6397D01*
X31135Y6332D01*
X27821Y1214D02*
X27756Y1279D01*
X27625D01*
X27559Y1214D01*
Y951D01*
X27625Y886D01*
X27756D01*
X27821Y951D01*
X27953Y886D02*
X28084D01*
X28018D01*
Y1279D01*
X27953Y1214D01*
X28477Y886D02*
Y1279D01*
X28281Y1083D01*
X28543D01*
X28318Y16573D02*
X28251Y16640D01*
X28118D01*
X28051Y16573D01*
Y16307D01*
X28118Y16240D01*
X28251D01*
X28318Y16307D01*
X28451Y16240D02*
X28584D01*
X28518D01*
Y16640D01*
X28451Y16573D01*
X29051Y16640D02*
X28784D01*
Y16440D01*
X28918Y16507D01*
X28984D01*
X29051Y16440D01*
Y16307D01*
X28984Y16240D01*
X28851D01*
X28784Y16307D01*
X30483Y16573D02*
X30416Y16640D01*
X30283D01*
X30217Y16573D01*
Y16307D01*
X30283Y16240D01*
X30416D01*
X30483Y16307D01*
X30616Y16240D02*
X30750D01*
X30683D01*
Y16640D01*
X30616Y16573D01*
X31216Y16640D02*
X31083Y16573D01*
X30950Y16440D01*
Y16307D01*
X31016Y16240D01*
X31150D01*
X31216Y16307D01*
Y16373D01*
X31150Y16440D01*
X30950D01*
X23495Y11554D02*
X23428Y11620D01*
X23295D01*
X23228Y11554D01*
Y11287D01*
X23295Y11220D01*
X23428D01*
X23495Y11287D01*
X23628Y11220D02*
X23762D01*
X23695D01*
Y11620D01*
X23628Y11554D01*
X23961Y11620D02*
X24228D01*
Y11554D01*
X23961Y11287D01*
Y11220D01*
X23490Y12243D02*
X23424Y12309D01*
X23290D01*
X23224Y12243D01*
Y11976D01*
X23290Y11909D01*
X23424D01*
X23490Y11976D01*
X23623Y11909D02*
X23757D01*
X23690D01*
Y12309D01*
X23623Y12243D01*
X23957D02*
X24023Y12309D01*
X24157D01*
X24223Y12243D01*
Y12176D01*
X24157Y12109D01*
X24223Y12043D01*
Y11976D01*
X24157Y11909D01*
X24023D01*
X23957Y11976D01*
Y12043D01*
X24023Y12109D01*
X23957Y12176D01*
Y12243D01*
X24023Y12109D02*
X24157D01*
X16999Y13916D02*
X16932Y13983D01*
X16799D01*
X16732Y13916D01*
Y13649D01*
X16799Y13583D01*
X16932D01*
X16999Y13649D01*
X17132Y13583D02*
X17265D01*
X17199D01*
Y13983D01*
X17132Y13916D01*
X17465Y13649D02*
X17532Y13583D01*
X17665D01*
X17732Y13649D01*
Y13916D01*
X17665Y13983D01*
X17532D01*
X17465Y13916D01*
Y13849D01*
X17532Y13783D01*
X17732D01*
X16900Y9487D02*
X16834Y9553D01*
X16701D01*
X16634Y9487D01*
Y9220D01*
X16701Y9154D01*
X16834D01*
X16900Y9220D01*
X17300Y9154D02*
X17034D01*
X17300Y9420D01*
Y9487D01*
X17234Y9553D01*
X17100D01*
X17034Y9487D01*
X17434D02*
X17500Y9553D01*
X17634D01*
X17700Y9487D01*
Y9220D01*
X17634Y9154D01*
X17500D01*
X17434Y9220D01*
Y9487D01*
X14735Y14999D02*
X14668Y15065D01*
X14535D01*
X14468Y14999D01*
Y14732D01*
X14535Y14665D01*
X14668D01*
X14735Y14732D01*
X15135Y14665D02*
X14868D01*
X15135Y14932D01*
Y14999D01*
X15068Y15065D01*
X14935D01*
X14868Y14999D01*
X15268Y14665D02*
X15402D01*
X15335D01*
Y15065D01*
X15268Y14999D01*
X11979Y6632D02*
X11913Y6699D01*
X11779D01*
X11713Y6632D01*
Y6366D01*
X11779Y6299D01*
X11913D01*
X11979Y6366D01*
X12379Y6299D02*
X12112D01*
X12379Y6566D01*
Y6632D01*
X12312Y6699D01*
X12179D01*
X12112Y6632D01*
X12779Y6299D02*
X12512D01*
X12779Y6566D01*
Y6632D01*
X12712Y6699D01*
X12579D01*
X12512Y6632D01*
X7156Y10668D02*
X7090Y10735D01*
X6956D01*
X6890Y10668D01*
Y10401D01*
X6956Y10335D01*
X7090D01*
X7156Y10401D01*
X7556Y10335D02*
X7290D01*
X7556Y10601D01*
Y10668D01*
X7490Y10735D01*
X7356D01*
X7290Y10668D01*
X7690D02*
X7756Y10735D01*
X7889D01*
X7956Y10668D01*
Y10601D01*
X7889Y10535D01*
X7823D01*
X7889D01*
X7956Y10468D01*
Y10401D01*
X7889Y10335D01*
X7756D01*
X7690Y10401D01*
X7156Y13128D02*
X7090Y13195D01*
X6956D01*
X6890Y13128D01*
Y12862D01*
X6956Y12795D01*
X7090D01*
X7156Y12862D01*
X7556Y12795D02*
X7290D01*
X7556Y13062D01*
Y13128D01*
X7490Y13195D01*
X7356D01*
X7290Y13128D01*
X7889Y12795D02*
Y13195D01*
X7690Y12995D01*
X7956D01*
X11881Y17164D02*
X11814Y17231D01*
X11681D01*
X11614Y17164D01*
Y16897D01*
X11681Y16831D01*
X11814D01*
X11881Y16897D01*
X12281Y16831D02*
X12014D01*
X12281Y17097D01*
Y17164D01*
X12214Y17231D01*
X12081D01*
X12014Y17164D01*
X12680Y17231D02*
X12414D01*
Y17031D01*
X12547Y17097D01*
X12614D01*
X12680Y17031D01*
Y16897D01*
X12614Y16831D01*
X12481D01*
X12414Y16897D01*
X14637Y8306D02*
X14570Y8372D01*
X14437D01*
X14370Y8306D01*
Y8039D01*
X14437Y7972D01*
X14570D01*
X14637Y8039D01*
X15037Y7972D02*
X14770D01*
X15037Y8239D01*
Y8306D01*
X14970Y8372D01*
X14837D01*
X14770Y8306D01*
X15436Y8372D02*
X15303Y8306D01*
X15170Y8172D01*
Y8039D01*
X15236Y7972D01*
X15370D01*
X15436Y8039D01*
Y8106D01*
X15370Y8172D01*
X15170D01*
X14735Y15688D02*
X14668Y15754D01*
X14535D01*
X14468Y15688D01*
Y15421D01*
X14535Y15354D01*
X14668D01*
X14735Y15421D01*
X15135Y15354D02*
X14868D01*
X15135Y15621D01*
Y15688D01*
X15068Y15754D01*
X14935D01*
X14868Y15688D01*
X15268Y15754D02*
X15535D01*
Y15688D01*
X15268Y15421D01*
Y15354D01*
X14637Y8995D02*
X14570Y9061D01*
X14437D01*
X14370Y8995D01*
Y8728D01*
X14437Y8661D01*
X14570D01*
X14637Y8728D01*
X15037Y8661D02*
X14770D01*
X15037Y8928D01*
Y8995D01*
X14970Y9061D01*
X14837D01*
X14770Y8995D01*
X15170D02*
X15236Y9061D01*
X15370D01*
X15436Y8995D01*
Y8928D01*
X15370Y8861D01*
X15436Y8795D01*
Y8728D01*
X15370Y8661D01*
X15236D01*
X15170Y8728D01*
Y8795D01*
X15236Y8861D01*
X15170Y8928D01*
Y8995D01*
X15236Y8861D02*
X15370D01*
X7156Y9979D02*
X7090Y10046D01*
X6956D01*
X6890Y9979D01*
Y9712D01*
X6956Y9646D01*
X7090D01*
X7156Y9712D01*
X7556Y9646D02*
X7290D01*
X7556Y9912D01*
Y9979D01*
X7490Y10046D01*
X7356D01*
X7290Y9979D01*
X7690Y9712D02*
X7756Y9646D01*
X7889D01*
X7956Y9712D01*
Y9979D01*
X7889Y10046D01*
X7756D01*
X7690Y9979D01*
Y9912D01*
X7756Y9846D01*
X7956D01*
X7156Y13916D02*
X7090Y13983D01*
X6956D01*
X6890Y13916D01*
Y13649D01*
X6956Y13583D01*
X7090D01*
X7156Y13649D01*
X7290Y13916D02*
X7356Y13983D01*
X7490D01*
X7556Y13916D01*
Y13849D01*
X7490Y13783D01*
X7423D01*
X7490D01*
X7556Y13716D01*
Y13649D01*
X7490Y13583D01*
X7356D01*
X7290Y13649D01*
X7690Y13916D02*
X7756Y13983D01*
X7889D01*
X7956Y13916D01*
Y13649D01*
X7889Y13583D01*
X7756D01*
X7690Y13649D01*
Y13916D01*
X11979Y5943D02*
X11913Y6010D01*
X11779D01*
X11713Y5943D01*
Y5677D01*
X11779Y5610D01*
X11913D01*
X11979Y5677D01*
X12112Y5943D02*
X12179Y6010D01*
X12312D01*
X12379Y5943D01*
Y5877D01*
X12312Y5810D01*
X12246D01*
X12312D01*
X12379Y5744D01*
Y5677D01*
X12312Y5610D01*
X12179D01*
X12112Y5677D01*
X12512Y5610D02*
X12646D01*
X12579D01*
Y6010D01*
X12512Y5943D01*
X11881Y17853D02*
X11814Y17920D01*
X11681D01*
X11614Y17853D01*
Y17586D01*
X11681Y17520D01*
X11814D01*
X11881Y17586D01*
X12014Y17853D02*
X12081Y17920D01*
X12214D01*
X12281Y17853D01*
Y17786D01*
X12214Y17720D01*
X12147D01*
X12214D01*
X12281Y17653D01*
Y17586D01*
X12214Y17520D01*
X12081D01*
X12014Y17586D01*
X12680Y17520D02*
X12414D01*
X12680Y17786D01*
Y17853D01*
X12614Y17920D01*
X12481D01*
X12414Y17853D01*
X10499Y1312D02*
X10433Y1378D01*
X10302D01*
X10236Y1312D01*
Y1050D01*
X10302Y984D01*
X10433D01*
X10499Y1050D01*
X10630Y1312D02*
X10695Y1378D01*
X10827D01*
X10892Y1312D01*
Y1247D01*
X10827Y1181D01*
X10761D01*
X10827D01*
X10892Y1115D01*
Y1050D01*
X10827Y984D01*
X10695D01*
X10630Y1050D01*
X11023Y1312D02*
X11089Y1378D01*
X11220D01*
X11286Y1312D01*
Y1247D01*
X11220Y1181D01*
X11155D01*
X11220D01*
X11286Y1115D01*
Y1050D01*
X11220Y984D01*
X11089D01*
X11023Y1050D01*
X10499Y22572D02*
X10433Y22638D01*
X10302D01*
X10236Y22572D01*
Y22310D01*
X10302Y22244D01*
X10433D01*
X10499Y22310D01*
X10630Y22572D02*
X10695Y22638D01*
X10827D01*
X10892Y22572D01*
Y22506D01*
X10827Y22441D01*
X10761D01*
X10827D01*
X10892Y22375D01*
Y22310D01*
X10827Y22244D01*
X10695D01*
X10630Y22310D01*
X11220Y22244D02*
Y22638D01*
X11023Y22441D01*
X11286D01*
X13747Y5577D02*
X13681Y5512D01*
Y5381D01*
X13747Y5315D01*
X14009D01*
X14075Y5381D01*
Y5512D01*
X14009Y5577D01*
X13747Y5709D02*
X13681Y5774D01*
Y5905D01*
X13747Y5971D01*
X13812D01*
X13878Y5905D01*
Y5840D01*
Y5905D01*
X13944Y5971D01*
X14009D01*
X14075Y5905D01*
Y5774D01*
X14009Y5709D01*
X13681Y6364D02*
Y6102D01*
X13878D01*
X13812Y6233D01*
Y6299D01*
X13878Y6364D01*
X14009D01*
X14075Y6299D01*
Y6168D01*
X14009Y6102D01*
X13648Y20013D02*
X13583Y20079D01*
X13451D01*
X13386Y20013D01*
Y19751D01*
X13451Y19685D01*
X13583D01*
X13648Y19751D01*
X13779Y20013D02*
X13845Y20079D01*
X13976D01*
X14042Y20013D01*
Y19947D01*
X13976Y19882D01*
X13911D01*
X13976D01*
X14042Y19816D01*
Y19751D01*
X13976Y19685D01*
X13845D01*
X13779Y19751D01*
X14435Y20079D02*
X14304Y20013D01*
X14173Y19882D01*
Y19751D01*
X14239Y19685D01*
X14370D01*
X14435Y19751D01*
Y19816D01*
X14370Y19882D01*
X14173D01*
X1299Y7060D02*
X1233Y7127D01*
X1099D01*
X1033Y7060D01*
Y6794D01*
X1099Y6727D01*
X1233D01*
X1299Y6794D01*
X1432Y7060D02*
X1499Y7127D01*
X1632D01*
X1699Y7060D01*
Y6993D01*
X1632Y6927D01*
X1566D01*
X1632D01*
X1699Y6860D01*
Y6794D01*
X1632Y6727D01*
X1499D01*
X1432Y6794D01*
X1832Y7127D02*
X2099D01*
Y7060D01*
X1832Y6794D01*
Y6727D01*
X4400Y11455D02*
X4334Y11522D01*
X4200D01*
X4134Y11455D01*
Y11189D01*
X4200Y11122D01*
X4334D01*
X4400Y11189D01*
X4534Y11455D02*
X4600Y11522D01*
X4734D01*
X4800Y11455D01*
Y11389D01*
X4734Y11322D01*
X4667D01*
X4734D01*
X4800Y11255D01*
Y11189D01*
X4734Y11122D01*
X4600D01*
X4534Y11189D01*
X4934Y11455D02*
X5000Y11522D01*
X5134D01*
X5200Y11455D01*
Y11389D01*
X5134Y11322D01*
X5200Y11255D01*
Y11189D01*
X5134Y11122D01*
X5000D01*
X4934Y11189D01*
Y11255D01*
X5000Y11322D01*
X4934Y11389D01*
Y11455D01*
X5000Y11322D02*
X5134D01*
X4400Y12440D02*
X4334Y12506D01*
X4200D01*
X4134Y12440D01*
Y12173D01*
X4200Y12106D01*
X4334D01*
X4400Y12173D01*
X4534Y12440D02*
X4600Y12506D01*
X4734D01*
X4800Y12440D01*
Y12373D01*
X4734Y12306D01*
X4667D01*
X4734D01*
X4800Y12240D01*
Y12173D01*
X4734Y12106D01*
X4600D01*
X4534Y12173D01*
X4934D02*
X5000Y12106D01*
X5134D01*
X5200Y12173D01*
Y12440D01*
X5134Y12506D01*
X5000D01*
X4934Y12440D01*
Y12373D01*
X5000Y12306D01*
X5200D01*
X1299Y20836D02*
X1233Y20903D01*
X1099D01*
X1033Y20836D01*
Y20570D01*
X1099Y20503D01*
X1233D01*
X1299Y20570D01*
X1632Y20503D02*
Y20903D01*
X1432Y20703D01*
X1699D01*
X1832Y20836D02*
X1899Y20903D01*
X2032D01*
X2099Y20836D01*
Y20570D01*
X2032Y20503D01*
X1899D01*
X1832Y20570D01*
Y20836D01*
X3309Y1251D02*
X3242Y1184D01*
Y1051D01*
X3309Y984D01*
X3575D01*
X3642Y1051D01*
Y1184D01*
X3575Y1251D01*
X3642Y1584D02*
X3242D01*
X3442Y1384D01*
Y1651D01*
X3642Y1784D02*
Y1917D01*
Y1851D01*
X3242D01*
X3309Y1784D01*
X3407Y6271D02*
X3340Y6204D01*
Y6071D01*
X3407Y6004D01*
X3674D01*
X3740Y6071D01*
Y6204D01*
X3674Y6271D01*
X3740Y6604D02*
X3340D01*
X3540Y6404D01*
Y6670D01*
X3740Y7070D02*
Y6804D01*
X3474Y7070D01*
X3407D01*
X3340Y7004D01*
Y6870D01*
X3407Y6804D01*
X3505Y16900D02*
X3439Y16834D01*
Y16701D01*
X3505Y16634D01*
X3772D01*
X3839Y16701D01*
Y16834D01*
X3772Y16900D01*
X3839Y17234D02*
X3439D01*
X3639Y17034D01*
Y17300D01*
X3505Y17434D02*
X3439Y17500D01*
Y17634D01*
X3505Y17700D01*
X3572D01*
X3639Y17634D01*
Y17567D01*
Y17634D01*
X3705Y17700D01*
X3772D01*
X3839Y17634D01*
Y17500D01*
X3772Y17434D01*
X3309Y22019D02*
X3242Y21952D01*
Y21819D01*
X3309Y21752D01*
X3575D01*
X3642Y21819D01*
Y21952D01*
X3575Y22019D01*
X3642Y22352D02*
X3242D01*
X3442Y22152D01*
Y22418D01*
X3642Y22752D02*
X3242D01*
X3442Y22552D01*
Y22818D01*
X23200Y9585D02*
X23133Y9652D01*
X23000D01*
X22933Y9585D01*
Y9319D01*
X23000Y9252D01*
X23133D01*
X23200Y9319D01*
X23533Y9252D02*
Y9652D01*
X23333Y9452D01*
X23600D01*
X23999Y9652D02*
X23733D01*
Y9452D01*
X23866Y9519D01*
X23933D01*
X23999Y9452D01*
Y9319D01*
X23933Y9252D01*
X23799D01*
X23733Y9319D01*
X18377Y6140D02*
X18310Y6207D01*
X18177D01*
X18110Y6140D01*
Y5874D01*
X18177Y5807D01*
X18310D01*
X18377Y5874D01*
X18710Y5807D02*
Y6207D01*
X18510Y6007D01*
X18777D01*
X19177Y6207D02*
X19043Y6140D01*
X18910Y6007D01*
Y5874D01*
X18977Y5807D01*
X19110D01*
X19177Y5874D01*
Y5940D01*
X19110Y6007D01*
X18910D01*
X24971Y5747D02*
X24905Y5813D01*
X24771D01*
X24705Y5747D01*
Y5480D01*
X24771Y5413D01*
X24905D01*
X24971Y5480D01*
X25305Y5413D02*
Y5813D01*
X25105Y5613D01*
X25371D01*
X25504Y5813D02*
X25771D01*
Y5747D01*
X25504Y5480D01*
Y5413D01*
X18377Y7518D02*
X18310Y7585D01*
X18177D01*
X18110Y7518D01*
Y7252D01*
X18177Y7185D01*
X18310D01*
X18377Y7252D01*
X18710Y7185D02*
Y7585D01*
X18510Y7385D01*
X18777D01*
X18910Y7518D02*
X18977Y7585D01*
X19110D01*
X19177Y7518D01*
Y7452D01*
X19110Y7385D01*
X19177Y7318D01*
Y7252D01*
X19110Y7185D01*
X18977D01*
X18910Y7252D01*
Y7318D01*
X18977Y7385D01*
X18910Y7452D01*
Y7518D01*
X18977Y7385D02*
X19110D01*
X20936Y1416D02*
X20869Y1483D01*
X20736D01*
X20669Y1416D01*
Y1149D01*
X20736Y1083D01*
X20869D01*
X20936Y1149D01*
X21269Y1083D02*
Y1483D01*
X21069Y1283D01*
X21336D01*
X21469Y1149D02*
X21536Y1083D01*
X21669D01*
X21736Y1149D01*
Y1416D01*
X21669Y1483D01*
X21536D01*
X21469Y1416D01*
Y1349D01*
X21536Y1283D01*
X21736D01*
X20936Y3188D02*
X20869Y3254D01*
X20736D01*
X20669Y3188D01*
Y2921D01*
X20736Y2854D01*
X20869D01*
X20936Y2921D01*
X21336Y3254D02*
X21069D01*
Y3054D01*
X21202Y3121D01*
X21269D01*
X21336Y3054D01*
Y2921D01*
X21269Y2854D01*
X21136D01*
X21069Y2921D01*
X21469Y3188D02*
X21536Y3254D01*
X21669D01*
X21736Y3188D01*
Y2921D01*
X21669Y2854D01*
X21536D01*
X21469Y2921D01*
Y3188D01*
X24971Y6436D02*
X24905Y6502D01*
X24771D01*
X24705Y6436D01*
Y6169D01*
X24771Y6102D01*
X24905D01*
X24971Y6169D01*
X25371Y6502D02*
X25105D01*
Y6302D01*
X25238Y6369D01*
X25305D01*
X25371Y6302D01*
Y6169D01*
X25305Y6102D01*
X25171D01*
X25105Y6169D01*
X25504Y6102D02*
X25638D01*
X25571D01*
Y6502D01*
X25504Y6436D01*
X18377Y2695D02*
X18310Y2762D01*
X18177D01*
X18110Y2695D01*
Y2429D01*
X18177Y2362D01*
X18310D01*
X18377Y2429D01*
X18777Y2762D02*
X18510D01*
Y2562D01*
X18643Y2629D01*
X18710D01*
X18777Y2562D01*
Y2429D01*
X18710Y2362D01*
X18577D01*
X18510Y2429D01*
X19177Y2362D02*
X18910D01*
X19177Y2629D01*
Y2695D01*
X19110Y2762D01*
X18977D01*
X18910Y2695D01*
X24971Y4369D02*
X24905Y4435D01*
X24771D01*
X24705Y4369D01*
Y4102D01*
X24771Y4035D01*
X24905D01*
X24971Y4102D01*
X25371Y4435D02*
X25105D01*
Y4235D01*
X25238Y4302D01*
X25305D01*
X25371Y4235D01*
Y4102D01*
X25305Y4035D01*
X25171D01*
X25105Y4102D01*
X25504Y4369D02*
X25571Y4435D01*
X25704D01*
X25771Y4369D01*
Y4302D01*
X25704Y4235D01*
X25638D01*
X25704D01*
X25771Y4169D01*
Y4102D01*
X25704Y4035D01*
X25571D01*
X25504Y4102D01*
X18377Y3581D02*
X18310Y3648D01*
X18177D01*
X18110Y3581D01*
Y3315D01*
X18177Y3248D01*
X18310D01*
X18377Y3315D01*
X18777Y3648D02*
X18510D01*
Y3448D01*
X18643Y3515D01*
X18710D01*
X18777Y3448D01*
Y3315D01*
X18710Y3248D01*
X18577D01*
X18510Y3315D01*
X19110Y3248D02*
Y3648D01*
X18910Y3448D01*
X19177D01*
X16377Y1407D02*
X16443Y1473D01*
Y1607D01*
X16377Y1673D01*
X16110D01*
X16043Y1607D01*
Y1473D01*
X16110Y1407D01*
X16443Y1007D02*
Y1273D01*
X16243D01*
X16310Y1140D01*
Y1073D01*
X16243Y1007D01*
X16110D01*
X16043Y1073D01*
Y1207D01*
X16110Y1273D01*
X16443Y607D02*
Y873D01*
X16243D01*
X16310Y740D01*
Y674D01*
X16243Y607D01*
X16110D01*
X16043Y674D01*
Y807D01*
X16110Y873D01*
X16497Y6566D02*
X16431Y6499D01*
Y6366D01*
X16497Y6299D01*
X16764D01*
X16831Y6366D01*
Y6499D01*
X16764Y6566D01*
X16431Y6966D02*
Y6699D01*
X16631D01*
X16564Y6832D01*
Y6899D01*
X16631Y6966D01*
X16764D01*
X16831Y6899D01*
Y6766D01*
X16764Y6699D01*
X16431Y7366D02*
X16497Y7232D01*
X16631Y7099D01*
X16764D01*
X16831Y7166D01*
Y7299D01*
X16764Y7366D01*
X16697D01*
X16631Y7299D01*
Y7099D01*
X21616Y18771D02*
X21549Y18704D01*
Y18571D01*
X21616Y18504D01*
X21882D01*
X21949Y18571D01*
Y18704D01*
X21882Y18771D01*
X21549Y19170D02*
Y18904D01*
X21749D01*
X21682Y19037D01*
Y19104D01*
X21749Y19170D01*
X21882D01*
X21949Y19104D01*
Y18970D01*
X21882Y18904D01*
X21549Y19304D02*
Y19570D01*
X21616D01*
X21882Y19304D01*
X21949D01*
X22403Y14735D02*
X22336Y14668D01*
Y14535D01*
X22403Y14468D01*
X22670D01*
X22736Y14535D01*
Y14668D01*
X22670Y14735D01*
X22336Y15135D02*
Y14868D01*
X22536D01*
X22470Y15002D01*
Y15068D01*
X22536Y15135D01*
X22670D01*
X22736Y15068D01*
Y14935D01*
X22670Y14868D01*
X22403Y15268D02*
X22336Y15335D01*
Y15468D01*
X22403Y15535D01*
X22470D01*
X22536Y15468D01*
X22603Y15535D01*
X22670D01*
X22736Y15468D01*
Y15335D01*
X22670Y15268D01*
X22603D01*
X22536Y15335D01*
X22470Y15268D01*
X22403D01*
X22536Y15335D02*
Y15468D01*
X23889Y16573D02*
X23822Y16640D01*
X23689D01*
X23622Y16573D01*
Y16307D01*
X23689Y16240D01*
X23822D01*
X23889Y16307D01*
X24288Y16640D02*
X24022D01*
Y16440D01*
X24155Y16507D01*
X24222D01*
X24288Y16440D01*
Y16307D01*
X24222Y16240D01*
X24089D01*
X24022Y16307D01*
X24422D02*
X24488Y16240D01*
X24622D01*
X24688Y16307D01*
Y16573D01*
X24622Y16640D01*
X24488D01*
X24422Y16573D01*
Y16507D01*
X24488Y16440D01*
X24688D01*
X26152Y16573D02*
X26086Y16640D01*
X25952D01*
X25886Y16573D01*
Y16307D01*
X25952Y16240D01*
X26086D01*
X26152Y16307D01*
X26552Y16640D02*
X26419Y16573D01*
X26286Y16440D01*
Y16307D01*
X26352Y16240D01*
X26486D01*
X26552Y16307D01*
Y16373D01*
X26486Y16440D01*
X26286D01*
X26686Y16573D02*
X26752Y16640D01*
X26885D01*
X26952Y16573D01*
Y16307D01*
X26885Y16240D01*
X26752D01*
X26686Y16307D01*
Y16573D01*
X17097D02*
X17031Y16640D01*
X16897D01*
X16831Y16573D01*
Y16307D01*
X16897Y16240D01*
X17031D01*
X17097Y16307D01*
X17497Y16640D02*
X17364Y16573D01*
X17231Y16440D01*
Y16307D01*
X17297Y16240D01*
X17431D01*
X17497Y16307D01*
Y16373D01*
X17431Y16440D01*
X17231D01*
X17630Y16240D02*
X17764D01*
X17697D01*
Y16640D01*
X17630Y16573D01*
X19263D02*
X19196Y16640D01*
X19063D01*
X18996Y16573D01*
Y16307D01*
X19063Y16240D01*
X19196D01*
X19263Y16307D01*
X19663Y16640D02*
X19529Y16573D01*
X19396Y16440D01*
Y16307D01*
X19463Y16240D01*
X19596D01*
X19663Y16307D01*
Y16373D01*
X19596Y16440D01*
X19396D01*
X20062Y16240D02*
X19796D01*
X20062Y16507D01*
Y16573D01*
X19996Y16640D01*
X19862D01*
X19796Y16573D01*
X20050Y9880D02*
X19983Y9947D01*
X19850D01*
X19783Y9880D01*
Y9614D01*
X19850Y9547D01*
X19983D01*
X20050Y9614D01*
X20450Y9947D02*
X20317Y9880D01*
X20183Y9747D01*
Y9614D01*
X20250Y9547D01*
X20383D01*
X20450Y9614D01*
Y9681D01*
X20383Y9747D01*
X20183D01*
X20583Y9880D02*
X20650Y9947D01*
X20783D01*
X20850Y9880D01*
Y9814D01*
X20783Y9747D01*
X20716D01*
X20783D01*
X20850Y9681D01*
Y9614D01*
X20783Y9547D01*
X20650D01*
X20583Y9614D01*
X20050Y10471D02*
X19983Y10538D01*
X19850D01*
X19783Y10471D01*
Y10204D01*
X19850Y10138D01*
X19983D01*
X20050Y10204D01*
X20450Y10538D02*
X20317Y10471D01*
X20183Y10338D01*
Y10204D01*
X20250Y10138D01*
X20383D01*
X20450Y10204D01*
Y10271D01*
X20383Y10338D01*
X20183D01*
X20783Y10138D02*
Y10538D01*
X20583Y10338D01*
X20850D01*
X31890Y8268D02*
Y7874D01*
X32087D01*
X32152Y7940D01*
Y8202D01*
X32087Y8268D01*
X31890D01*
X32283Y7874D02*
X32415D01*
X32349D01*
Y8268D01*
X32283Y8202D01*
X40669Y16457D02*
X41063D01*
Y16653D01*
X40997Y16719D01*
X40735D01*
X40669Y16653D01*
Y16457D01*
X41063Y17047D02*
X40669D01*
X40866Y16850D01*
Y17113D01*
X27826Y20479D02*
X27692D01*
X27759D01*
Y20145D01*
X27692Y20079D01*
X27626D01*
X27559Y20145D01*
X27959Y20079D02*
X28092D01*
X28026D01*
Y20479D01*
X27959Y20412D01*
X30481Y14604D02*
X30350D01*
X30415D01*
Y14276D01*
X30350Y14211D01*
X30284D01*
X30218Y14276D01*
X30874Y14211D02*
X30612D01*
X30874Y14473D01*
Y14539D01*
X30809Y14604D01*
X30678D01*
X30612Y14539D01*
X39329Y22583D02*
X39198D01*
X39264D01*
Y22256D01*
X39198Y22190D01*
X39133D01*
X39067Y22256D01*
X39460Y22518D02*
X39526Y22583D01*
X39657D01*
X39723Y22518D01*
Y22452D01*
X39657Y22387D01*
X39592D01*
X39657D01*
X39723Y22321D01*
Y22256D01*
X39657Y22190D01*
X39526D01*
X39460Y22256D01*
X39758Y14243D02*
Y14110D01*
Y14176D01*
X40091D01*
X40157Y14110D01*
Y14043D01*
X40091Y13976D01*
X39758Y14643D02*
Y14376D01*
X39958D01*
X39891Y14510D01*
Y14576D01*
X39958Y14643D01*
X40091D01*
X40157Y14576D01*
Y14443D01*
X40091Y14376D01*
X327Y16723D02*
X193D01*
X260D01*
Y16390D01*
X193Y16323D01*
X127D01*
X60Y16390D01*
X726Y16723D02*
X593Y16656D01*
X460Y16523D01*
Y16390D01*
X527Y16323D01*
X660D01*
X726Y16390D01*
Y16456D01*
X660Y16523D01*
X460D01*
X39755Y8510D02*
X39621D01*
X39688D01*
Y8177D01*
X39621Y8110D01*
X39555D01*
X39488Y8177D01*
X39888Y8510D02*
X40155D01*
Y8443D01*
X39888Y8177D01*
Y8110D01*
X39561Y1181D02*
X39961D01*
Y1448D01*
Y1581D02*
Y1714D01*
Y1648D01*
X39561D01*
X39627Y1581D01*
X5118Y5518D02*
Y5118D01*
X5385D01*
X5785D02*
X5518D01*
X5785Y5385D01*
Y5451D01*
X5718Y5518D01*
X5585D01*
X5518Y5451D01*
X9843Y4927D02*
Y4528D01*
X10109D01*
X10242Y4861D02*
X10309Y4927D01*
X10442D01*
X10509Y4861D01*
Y4794D01*
X10442Y4727D01*
X10376D01*
X10442D01*
X10509Y4661D01*
Y4594D01*
X10442Y4528D01*
X10309D01*
X10242Y4594D01*
X9843Y19002D02*
Y18602D01*
X10109D01*
X10442D02*
Y19002D01*
X10242Y18802D01*
X10509D01*
X9055Y22841D02*
Y22441D01*
X9322D01*
X9722Y22841D02*
X9455D01*
Y22641D01*
X9588Y22708D01*
X9655D01*
X9722Y22641D01*
Y22508D01*
X9655Y22441D01*
X9522D01*
X9455Y22508D01*
X19291Y20079D02*
Y20479D01*
X19491D01*
X19558Y20412D01*
Y20279D01*
X19491Y20212D01*
X19291D01*
X19891Y20479D02*
X19758D01*
X19691Y20412D01*
Y20145D01*
X19758Y20079D01*
X19891D01*
X19958Y20145D01*
Y20412D01*
X19891Y20479D01*
X20091D02*
X20358D01*
X20224D01*
Y20079D01*
X20491D02*
X20624D01*
X20558D01*
Y20479D01*
X20491Y20412D01*
X15157Y20079D02*
Y20479D01*
X15357D01*
X15424Y20412D01*
Y20279D01*
X15357Y20212D01*
X15157D01*
X15757Y20479D02*
X15624D01*
X15557Y20412D01*
Y20145D01*
X15624Y20079D01*
X15757D01*
X15824Y20145D01*
Y20412D01*
X15757Y20479D01*
X15957D02*
X16224D01*
X16091D01*
Y20079D01*
X16624D02*
X16357D01*
X16624Y20345D01*
Y20412D01*
X16557Y20479D01*
X16424D01*
X16357Y20412D01*
X35892Y10105D02*
Y10367D01*
X35827Y10433D01*
X35696D01*
X35630Y10367D01*
Y10105D01*
X35696Y10039D01*
X35827D01*
X35761Y10171D02*
X35892Y10039D01*
X35827D02*
X35892Y10105D01*
X36023Y10039D02*
X36155D01*
X36089D01*
Y10433D01*
X36023Y10367D01*
X36548Y5188D02*
X36281D01*
X36214Y5121D01*
Y4988D01*
X36281Y4921D01*
X36548D01*
X36614Y4988D01*
Y5121D01*
X36481Y5055D02*
X36614Y5188D01*
Y5121D02*
X36548Y5188D01*
X36614Y5588D02*
Y5321D01*
X36348Y5588D01*
X36281D01*
X36214Y5521D01*
Y5388D01*
X36281Y5321D01*
X32776Y8661D02*
Y9055D01*
X32972D01*
X33038Y8989D01*
Y8858D01*
X32972Y8793D01*
X32776D01*
X32907D02*
X33038Y8661D01*
X33169D02*
X33300D01*
X33235D01*
Y9055D01*
X33169Y8989D01*
X35768Y15354D02*
Y15754D01*
X35968D01*
X36034Y15688D01*
Y15554D01*
X35968Y15488D01*
X35768D01*
X35901D02*
X36034Y15354D01*
X36434D02*
X36168D01*
X36434Y15621D01*
Y15688D01*
X36368Y15754D01*
X36234D01*
X36168Y15688D01*
X31201Y1673D02*
Y2073D01*
X31401D01*
X31467Y2006D01*
Y1873D01*
X31401Y1807D01*
X31201D01*
X31334D02*
X31467Y1673D01*
X31601Y2006D02*
X31667Y2073D01*
X31801D01*
X31867Y2006D01*
Y1940D01*
X31801Y1873D01*
X31734D01*
X31801D01*
X31867Y1807D01*
Y1740D01*
X31801Y1673D01*
X31667D01*
X31601Y1740D01*
X31201Y3740D02*
Y4134D01*
X31398D01*
X31463Y4068D01*
Y3937D01*
X31398Y3871D01*
X31201D01*
X31332D02*
X31463Y3740D01*
X31791D02*
Y4134D01*
X31594Y3937D01*
X31857D01*
X31201Y4429D02*
Y4823D01*
X31398D01*
X31463Y4757D01*
Y4626D01*
X31398Y4560D01*
X31201D01*
X31332D02*
X31463Y4429D01*
X31857Y4823D02*
X31594D01*
Y4626D01*
X31726Y4692D01*
X31791D01*
X31857Y4626D01*
Y4495D01*
X31791Y4429D01*
X31660D01*
X31594Y4495D01*
X33661Y2559D02*
Y2959D01*
X33861D01*
X33928Y2892D01*
Y2759D01*
X33861Y2692D01*
X33661D01*
X33795D02*
X33928Y2559D01*
X34328Y2959D02*
X34195Y2892D01*
X34061Y2759D01*
Y2626D01*
X34128Y2559D01*
X34261D01*
X34328Y2626D01*
Y2692D01*
X34261Y2759D01*
X34061D01*
X34646Y1378D02*
Y1778D01*
X34846D01*
X34912Y1711D01*
Y1578D01*
X34846Y1511D01*
X34646D01*
X34779D02*
X34912Y1378D01*
X35046Y1778D02*
X35312D01*
Y1711D01*
X35046Y1445D01*
Y1378D01*
X34744Y2559D02*
Y2959D01*
X34944D01*
X35011Y2892D01*
Y2759D01*
X34944Y2692D01*
X34744D01*
X34877D02*
X35011Y2559D01*
X35144Y2626D02*
X35211Y2559D01*
X35344D01*
X35411Y2626D01*
Y2892D01*
X35344Y2959D01*
X35211D01*
X35144Y2892D01*
Y2826D01*
X35211Y2759D01*
X35411D01*
X32283Y20472D02*
Y20822D01*
X32458D01*
X32517Y20764D01*
Y20647D01*
X32458Y20589D01*
X32283D01*
X32400D02*
X32517Y20472D01*
X32633D02*
X32750D01*
X32692D01*
Y20822D01*
X32633Y20764D01*
X33158Y20822D02*
X32925D01*
Y20647D01*
X33042Y20706D01*
X33100D01*
X33158Y20647D01*
Y20531D01*
X33100Y20472D01*
X32983D01*
X32925Y20531D01*
X32283Y19882D02*
Y20232D01*
X32458D01*
X32517Y20173D01*
Y20057D01*
X32458Y19999D01*
X32283D01*
X32400D02*
X32517Y19882D01*
X32633D02*
X32750D01*
X32692D01*
Y20232D01*
X32633Y20173D01*
X33158Y20232D02*
X33042Y20173D01*
X32925Y20057D01*
Y19940D01*
X32983Y19882D01*
X33100D01*
X33158Y19940D01*
Y19999D01*
X33100Y20057D01*
X32925D01*
X25886Y8858D02*
Y9258D01*
X26086D01*
X26152Y9191D01*
Y9058D01*
X26086Y8992D01*
X25886D01*
X26019D02*
X26152Y8858D01*
X26286D02*
X26419D01*
X26352D01*
Y9258D01*
X26286Y9191D01*
X26619Y9258D02*
X26885D01*
Y9191D01*
X26619Y8925D01*
Y8858D01*
X29823Y15650D02*
Y16049D01*
X30023D01*
X30089Y15983D01*
Y15850D01*
X30023Y15783D01*
X29823D01*
X29956D02*
X30089Y15650D01*
X30489D02*
X30223D01*
X30489Y15916D01*
Y15983D01*
X30423Y16049D01*
X30289D01*
X30223Y15983D01*
X30623D02*
X30689Y16049D01*
X30823D01*
X30889Y15983D01*
Y15916D01*
X30823Y15850D01*
X30756D01*
X30823D01*
X30889Y15783D01*
Y15716D01*
X30823Y15650D01*
X30689D01*
X30623Y15716D01*
X23228Y13681D02*
Y14081D01*
X23428D01*
X23495Y14014D01*
Y13881D01*
X23428Y13814D01*
X23228D01*
X23362D02*
X23495Y13681D01*
X23895D02*
X23628D01*
X23895Y13948D01*
Y14014D01*
X23828Y14081D01*
X23695D01*
X23628Y14014D01*
X24228Y13681D02*
Y14081D01*
X24028Y13881D01*
X24295D01*
X25492Y13386D02*
X25892D01*
Y13186D01*
X25825Y13119D01*
X25692D01*
X25625Y13186D01*
Y13386D01*
Y13253D02*
X25492Y13119D01*
Y12719D02*
Y12986D01*
X25759Y12719D01*
X25825D01*
X25892Y12786D01*
Y12919D01*
X25825Y12986D01*
X25892Y12320D02*
Y12586D01*
X25692D01*
X25759Y12453D01*
Y12386D01*
X25692Y12320D01*
X25559D01*
X25492Y12386D01*
Y12519D01*
X25559Y12586D01*
X28150Y9449D02*
Y9849D01*
X28350D01*
X28416Y9782D01*
Y9649D01*
X28350Y9582D01*
X28150D01*
X28283D02*
X28416Y9449D01*
X28816D02*
X28549D01*
X28816Y9715D01*
Y9782D01*
X28749Y9849D01*
X28616D01*
X28549Y9782D01*
X29216Y9849D02*
X29083Y9782D01*
X28949Y9649D01*
Y9515D01*
X29016Y9449D01*
X29149D01*
X29216Y9515D01*
Y9582D01*
X29149Y9649D01*
X28949D01*
X28150Y15059D02*
Y15459D01*
X28350D01*
X28416Y15392D01*
Y15259D01*
X28350Y15192D01*
X28150D01*
X28283D02*
X28416Y15059D01*
X28816D02*
X28549D01*
X28816Y15326D01*
Y15392D01*
X28749Y15459D01*
X28616D01*
X28549Y15392D01*
X28949Y15459D02*
X29216D01*
Y15392D01*
X28949Y15126D01*
Y15059D01*
X25886Y14961D02*
Y15360D01*
X26086D01*
X26152Y15294D01*
Y15161D01*
X26086Y15094D01*
X25886D01*
X26019D02*
X26152Y14961D01*
X26552D02*
X26286D01*
X26552Y15227D01*
Y15294D01*
X26486Y15360D01*
X26352D01*
X26286Y15294D01*
X26686D02*
X26752Y15360D01*
X26885D01*
X26952Y15294D01*
Y15227D01*
X26885Y15161D01*
X26952Y15094D01*
Y15027D01*
X26885Y14961D01*
X26752D01*
X26686Y15027D01*
Y15094D01*
X26752Y15161D01*
X26686Y15227D01*
Y15294D01*
X26752Y15161D02*
X26885D01*
X28150Y14370D02*
Y14770D01*
X28350D01*
X28416Y14703D01*
Y14570D01*
X28350Y14503D01*
X28150D01*
X28283D02*
X28416Y14370D01*
X28549Y14703D02*
X28616Y14770D01*
X28749D01*
X28816Y14703D01*
Y14637D01*
X28749Y14570D01*
X28683D01*
X28749D01*
X28816Y14503D01*
Y14437D01*
X28749Y14370D01*
X28616D01*
X28549Y14437D01*
X28949Y14703D02*
X29016Y14770D01*
X29149D01*
X29216Y14703D01*
Y14437D01*
X29149Y14370D01*
X29016D01*
X28949Y14437D01*
Y14703D01*
X27756Y7185D02*
Y7585D01*
X27956D01*
X28022Y7518D01*
Y7385D01*
X27956Y7318D01*
X27756D01*
X27889D02*
X28022Y7185D01*
X28156Y7518D02*
X28222Y7585D01*
X28356D01*
X28422Y7518D01*
Y7452D01*
X28356Y7385D01*
X28289D01*
X28356D01*
X28422Y7318D01*
Y7252D01*
X28356Y7185D01*
X28222D01*
X28156Y7252D01*
X28556Y7185D02*
X28689D01*
X28622D01*
Y7585D01*
X28556Y7518D01*
X25197Y7776D02*
Y8175D01*
X25397D01*
X25463Y8109D01*
Y7976D01*
X25397Y7909D01*
X25197D01*
X25330D02*
X25463Y7776D01*
X25597Y8109D02*
X25663Y8175D01*
X25797D01*
X25863Y8109D01*
Y8042D01*
X25797Y7976D01*
X25730D01*
X25797D01*
X25863Y7909D01*
Y7842D01*
X25797Y7776D01*
X25663D01*
X25597Y7842D01*
X26263Y7776D02*
X25997D01*
X26263Y8042D01*
Y8109D01*
X26197Y8175D01*
X26063D01*
X25997Y8109D01*
X23224Y15627D02*
Y16027D01*
X23424D01*
X23490Y15960D01*
Y15827D01*
X23424Y15760D01*
X23224D01*
X23357D02*
X23490Y15627D01*
X23623Y15960D02*
X23690Y16027D01*
X23823D01*
X23890Y15960D01*
Y15893D01*
X23823Y15827D01*
X23757D01*
X23823D01*
X23890Y15760D01*
Y15693D01*
X23823Y15627D01*
X23690D01*
X23623Y15693D01*
X24023Y15960D02*
X24090Y16027D01*
X24223D01*
X24290Y15960D01*
Y15893D01*
X24223Y15827D01*
X24157D01*
X24223D01*
X24290Y15760D01*
Y15693D01*
X24223Y15627D01*
X24090D01*
X24023Y15693D01*
X23228Y14862D02*
Y15262D01*
X23428D01*
X23495Y15195D01*
Y15062D01*
X23428Y14995D01*
X23228D01*
X23362D02*
X23495Y14862D01*
X23628Y15195D02*
X23695Y15262D01*
X23828D01*
X23895Y15195D01*
Y15129D01*
X23828Y15062D01*
X23762D01*
X23828D01*
X23895Y14995D01*
Y14929D01*
X23828Y14862D01*
X23695D01*
X23628Y14929D01*
X24228Y14862D02*
Y15262D01*
X24028Y15062D01*
X24295D01*
X24409Y9449D02*
Y9849D01*
X24609D01*
X24676Y9782D01*
Y9649D01*
X24609Y9582D01*
X24409D01*
X24543D02*
X24676Y9449D01*
X24809Y9782D02*
X24876Y9849D01*
X25009D01*
X25076Y9782D01*
Y9715D01*
X25009Y9649D01*
X24943D01*
X25009D01*
X25076Y9582D01*
Y9515D01*
X25009Y9449D01*
X24876D01*
X24809Y9515D01*
X25476Y9849D02*
X25209D01*
Y9649D01*
X25342Y9715D01*
X25409D01*
X25476Y9649D01*
Y9515D01*
X25409Y9449D01*
X25276D01*
X25209Y9515D01*
X23228Y10532D02*
Y10931D01*
X23428D01*
X23495Y10865D01*
Y10731D01*
X23428Y10665D01*
X23228D01*
X23362D02*
X23495Y10532D01*
X23628Y10865D02*
X23695Y10931D01*
X23828D01*
X23895Y10865D01*
Y10798D01*
X23828Y10731D01*
X23762D01*
X23828D01*
X23895Y10665D01*
Y10598D01*
X23828Y10532D01*
X23695D01*
X23628Y10598D01*
X24295Y10931D02*
X24161Y10865D01*
X24028Y10731D01*
Y10598D01*
X24095Y10532D01*
X24228D01*
X24295Y10598D01*
Y10665D01*
X24228Y10731D01*
X24028D01*
X16634Y7874D02*
Y8274D01*
X16834D01*
X16900Y8207D01*
Y8074D01*
X16834Y8007D01*
X16634D01*
X16767D02*
X16900Y7874D01*
X17034Y8207D02*
X17100Y8274D01*
X17234D01*
X17300Y8207D01*
Y8141D01*
X17234Y8074D01*
X17167D01*
X17234D01*
X17300Y8007D01*
Y7941D01*
X17234Y7874D01*
X17100D01*
X17034Y7941D01*
X17434Y8207D02*
X17500Y8274D01*
X17634D01*
X17700Y8207D01*
Y8141D01*
X17634Y8074D01*
X17700Y8007D01*
Y7941D01*
X17634Y7874D01*
X17500D01*
X17434Y7941D01*
Y8007D01*
X17500Y8074D01*
X17434Y8141D01*
Y8207D01*
X17500Y8074D02*
X17634D01*
X16634Y9843D02*
Y10242D01*
X16834D01*
X16900Y10176D01*
Y10042D01*
X16834Y9976D01*
X16634D01*
X16767D02*
X16900Y9843D01*
X17034Y10176D02*
X17100Y10242D01*
X17234D01*
X17300Y10176D01*
Y10109D01*
X17234Y10042D01*
X17167D01*
X17234D01*
X17300Y9976D01*
Y9909D01*
X17234Y9843D01*
X17100D01*
X17034Y9909D01*
X17434D02*
X17500Y9843D01*
X17634D01*
X17700Y9909D01*
Y10176D01*
X17634Y10242D01*
X17500D01*
X17434Y10176D01*
Y10109D01*
X17500Y10042D01*
X17700D01*
X16732Y14272D02*
Y14672D01*
X16932D01*
X16999Y14605D01*
Y14472D01*
X16932Y14405D01*
X16732D01*
X16866D02*
X16999Y14272D01*
X17332D02*
Y14672D01*
X17132Y14472D01*
X17399D01*
X17532Y14605D02*
X17599Y14672D01*
X17732D01*
X17799Y14605D01*
Y14338D01*
X17732Y14272D01*
X17599D01*
X17532Y14338D01*
Y14605D01*
X11713Y4921D02*
Y5321D01*
X11913D01*
X11979Y5254D01*
Y5121D01*
X11913Y5055D01*
X11713D01*
X11846D02*
X11979Y4921D01*
X12312D02*
Y5321D01*
X12112Y5121D01*
X12379D01*
X12512Y4921D02*
X12646D01*
X12579D01*
Y5321D01*
X12512Y5254D01*
X5610Y11122D02*
Y11522D01*
X5810D01*
X5877Y11455D01*
Y11322D01*
X5810Y11255D01*
X5610D01*
X5744D02*
X5877Y11122D01*
X6210D02*
Y11522D01*
X6010Y11322D01*
X6277D01*
X6677Y11122D02*
X6410D01*
X6677Y11389D01*
Y11455D01*
X6610Y11522D01*
X6477D01*
X6410Y11455D01*
X5610Y12106D02*
Y12506D01*
X5810D01*
X5877Y12440D01*
Y12306D01*
X5810Y12240D01*
X5610D01*
X5744D02*
X5877Y12106D01*
X6210D02*
Y12506D01*
X6010Y12306D01*
X6277D01*
X6410Y12440D02*
X6477Y12506D01*
X6610D01*
X6677Y12440D01*
Y12373D01*
X6610Y12306D01*
X6543D01*
X6610D01*
X6677Y12240D01*
Y12173D01*
X6610Y12106D01*
X6477D01*
X6410Y12173D01*
X11614Y18209D02*
Y18609D01*
X11814D01*
X11881Y18542D01*
Y18409D01*
X11814Y18342D01*
X11614D01*
X11747D02*
X11881Y18209D01*
X12214D02*
Y18609D01*
X12014Y18409D01*
X12281D01*
X12614Y18209D02*
Y18609D01*
X12414Y18409D01*
X12680D01*
X4331Y1870D02*
X3931D01*
Y2070D01*
X3997Y2137D01*
X4131D01*
X4197Y2070D01*
Y1870D01*
Y2003D02*
X4331Y2137D01*
Y2470D02*
X3931D01*
X4131Y2270D01*
Y2537D01*
X3931Y2936D02*
Y2670D01*
X4131D01*
X4064Y2803D01*
Y2870D01*
X4131Y2936D01*
X4264D01*
X4331Y2870D01*
Y2736D01*
X4264Y2670D01*
X5906Y6004D02*
X5506D01*
Y6204D01*
X5572Y6271D01*
X5706D01*
X5772Y6204D01*
Y6004D01*
Y6137D02*
X5906Y6271D01*
Y6604D02*
X5506D01*
X5706Y6404D01*
Y6670D01*
X5506Y7070D02*
X5572Y6937D01*
X5706Y6804D01*
X5839D01*
X5906Y6870D01*
Y7004D01*
X5839Y7070D01*
X5772D01*
X5706Y7004D01*
Y6804D01*
X5906Y16732D02*
X5506D01*
Y16932D01*
X5572Y16999D01*
X5706D01*
X5772Y16932D01*
Y16732D01*
Y16866D02*
X5906Y16999D01*
Y17332D02*
X5506D01*
X5706Y17132D01*
Y17399D01*
X5506Y17532D02*
Y17799D01*
X5572D01*
X5839Y17532D01*
X5906D01*
X4331Y20768D02*
X3931D01*
Y20968D01*
X3997Y21034D01*
X4131D01*
X4197Y20968D01*
Y20768D01*
Y20901D02*
X4331Y21034D01*
Y21368D02*
X3931D01*
X4131Y21168D01*
Y21434D01*
X3997Y21567D02*
X3931Y21634D01*
Y21767D01*
X3997Y21834D01*
X4064D01*
X4131Y21767D01*
X4197Y21834D01*
X4264D01*
X4331Y21767D01*
Y21634D01*
X4264Y21567D01*
X4197D01*
X4131Y21634D01*
X4064Y21567D01*
X3997D01*
X4131Y21634D02*
Y21767D01*
X22933Y8563D02*
Y8963D01*
X23133D01*
X23200Y8896D01*
Y8763D01*
X23133Y8696D01*
X22933D01*
X23066D02*
X23200Y8563D01*
X23533D02*
Y8963D01*
X23333Y8763D01*
X23600D01*
X23733Y8630D02*
X23799Y8563D01*
X23933D01*
X23999Y8630D01*
Y8896D01*
X23933Y8963D01*
X23799D01*
X23733Y8896D01*
Y8830D01*
X23799Y8763D01*
X23999D01*
X18110Y6496D02*
Y6896D01*
X18310D01*
X18377Y6829D01*
Y6696D01*
X18310Y6629D01*
X18110D01*
X18244D02*
X18377Y6496D01*
X18777Y6896D02*
X18510D01*
Y6696D01*
X18643Y6763D01*
X18710D01*
X18777Y6696D01*
Y6563D01*
X18710Y6496D01*
X18577D01*
X18510Y6563D01*
X18910Y6829D02*
X18977Y6896D01*
X19110D01*
X19177Y6829D01*
Y6563D01*
X19110Y6496D01*
X18977D01*
X18910Y6563D01*
Y6829D01*
X24705Y4724D02*
Y5124D01*
X24905D01*
X24971Y5058D01*
Y4924D01*
X24905Y4858D01*
X24705D01*
X24838D02*
X24971Y4724D01*
X25371Y5124D02*
X25105D01*
Y4924D01*
X25238Y4991D01*
X25305D01*
X25371Y4924D01*
Y4791D01*
X25305Y4724D01*
X25171D01*
X25105Y4791D01*
X25504Y4724D02*
X25638D01*
X25571D01*
Y5124D01*
X25504Y5058D01*
X24705Y6791D02*
Y7191D01*
X24905D01*
X24971Y7125D01*
Y6991D01*
X24905Y6925D01*
X24705D01*
X24838D02*
X24971Y6791D01*
X25371Y7191D02*
X25105D01*
Y6991D01*
X25238Y7058D01*
X25305D01*
X25371Y6991D01*
Y6858D01*
X25305Y6791D01*
X25171D01*
X25105Y6858D01*
X25771Y6791D02*
X25504D01*
X25771Y7058D01*
Y7125D01*
X25704Y7191D01*
X25571D01*
X25504Y7125D01*
X18110Y4724D02*
Y5124D01*
X18310D01*
X18377Y5058D01*
Y4924D01*
X18310Y4858D01*
X18110D01*
X18244D02*
X18377Y4724D01*
X18777Y5124D02*
X18510D01*
Y4924D01*
X18643Y4991D01*
X18710D01*
X18777Y4924D01*
Y4791D01*
X18710Y4724D01*
X18577D01*
X18510Y4791D01*
X18910Y5058D02*
X18977Y5124D01*
X19110D01*
X19177Y5058D01*
Y4991D01*
X19110Y4924D01*
X19043D01*
X19110D01*
X19177Y4858D01*
Y4791D01*
X19110Y4724D01*
X18977D01*
X18910Y4791D01*
X18110Y4035D02*
Y4435D01*
X18310D01*
X18377Y4369D01*
Y4235D01*
X18310Y4169D01*
X18110D01*
X18244D02*
X18377Y4035D01*
X18777Y4435D02*
X18510D01*
Y4235D01*
X18643Y4302D01*
X18710D01*
X18777Y4235D01*
Y4102D01*
X18710Y4035D01*
X18577D01*
X18510Y4102D01*
X19110Y4035D02*
Y4435D01*
X18910Y4235D01*
X19177D01*
X24705Y2657D02*
Y3057D01*
X24905D01*
X24971Y2991D01*
Y2857D01*
X24905Y2791D01*
X24705D01*
X24838D02*
X24971Y2657D01*
X25371Y3057D02*
X25105D01*
Y2857D01*
X25238Y2924D01*
X25305D01*
X25371Y2857D01*
Y2724D01*
X25305Y2657D01*
X25171D01*
X25105Y2724D01*
X25771Y3057D02*
X25504D01*
Y2857D01*
X25638Y2924D01*
X25704D01*
X25771Y2857D01*
Y2724D01*
X25704Y2657D01*
X25571D01*
X25504Y2724D01*
X24705Y3346D02*
Y3746D01*
X24905D01*
X24971Y3680D01*
Y3546D01*
X24905Y3480D01*
X24705D01*
X24838D02*
X24971Y3346D01*
X25371Y3746D02*
X25105D01*
Y3546D01*
X25238Y3613D01*
X25305D01*
X25371Y3546D01*
Y3413D01*
X25305Y3346D01*
X25171D01*
X25105Y3413D01*
X25771Y3746D02*
X25638Y3680D01*
X25504Y3546D01*
Y3413D01*
X25571Y3346D01*
X25704D01*
X25771Y3413D01*
Y3480D01*
X25704Y3546D01*
X25504D01*
X23031Y2165D02*
Y2565D01*
X23231D01*
X23298Y2499D01*
Y2365D01*
X23231Y2299D01*
X23031D01*
X23165D02*
X23298Y2165D01*
X23698Y2565D02*
X23431D01*
Y2365D01*
X23565Y2432D01*
X23631D01*
X23698Y2365D01*
Y2232D01*
X23631Y2165D01*
X23498D01*
X23431Y2232D01*
X23831Y2565D02*
X24098D01*
Y2499D01*
X23831Y2232D01*
Y2165D01*
X16831Y2854D02*
Y3254D01*
X17031D01*
X17097Y3188D01*
Y3054D01*
X17031Y2988D01*
X16831D01*
X16964D02*
X17097Y2854D01*
X17497Y3254D02*
X17231D01*
Y3054D01*
X17364Y3121D01*
X17431D01*
X17497Y3054D01*
Y2921D01*
X17431Y2854D01*
X17297D01*
X17231Y2921D01*
X17630Y3188D02*
X17697Y3254D01*
X17830D01*
X17897Y3188D01*
Y3121D01*
X17830Y3054D01*
X17897Y2988D01*
Y2921D01*
X17830Y2854D01*
X17697D01*
X17630Y2921D01*
Y2988D01*
X17697Y3054D01*
X17630Y3121D01*
Y3188D01*
X17697Y3054D02*
X17830D01*
X16831Y4232D02*
Y4632D01*
X17031D01*
X17097Y4566D01*
Y4432D01*
X17031Y4366D01*
X16831D01*
X16964D02*
X17097Y4232D01*
X17497Y4632D02*
X17231D01*
Y4432D01*
X17364Y4499D01*
X17431D01*
X17497Y4432D01*
Y4299D01*
X17431Y4232D01*
X17297D01*
X17231Y4299D01*
X17630D02*
X17697Y4232D01*
X17830D01*
X17897Y4299D01*
Y4566D01*
X17830Y4632D01*
X17697D01*
X17630Y4566D01*
Y4499D01*
X17697Y4432D01*
X17897D01*
X20768Y8465D02*
Y8864D01*
X20968D01*
X21034Y8798D01*
Y8665D01*
X20968Y8598D01*
X20768D01*
X20901D02*
X21034Y8465D01*
X21434Y8864D02*
X21301Y8798D01*
X21168Y8665D01*
Y8531D01*
X21234Y8465D01*
X21368D01*
X21434Y8531D01*
Y8598D01*
X21368Y8665D01*
X21168D01*
X21567Y8798D02*
X21634Y8864D01*
X21767D01*
X21834Y8798D01*
Y8531D01*
X21767Y8465D01*
X21634D01*
X21567Y8531D01*
Y8798D01*
X21949Y14862D02*
X21549D01*
Y15062D01*
X21616Y15129D01*
X21749D01*
X21816Y15062D01*
Y14862D01*
Y14995D02*
X21949Y15129D01*
X21549Y15529D02*
X21616Y15395D01*
X21749Y15262D01*
X21882D01*
X21949Y15329D01*
Y15462D01*
X21882Y15529D01*
X21816D01*
X21749Y15462D01*
Y15262D01*
X21949Y15862D02*
X21549D01*
X21749Y15662D01*
Y15929D01*
X21949Y16142D02*
X21549D01*
Y16342D01*
X21616Y16408D01*
X21749D01*
X21816Y16342D01*
Y16142D01*
Y16275D02*
X21949Y16408D01*
X21549Y16808D02*
X21616Y16675D01*
X21749Y16542D01*
X21882D01*
X21949Y16608D01*
Y16742D01*
X21882Y16808D01*
X21816D01*
X21749Y16742D01*
Y16542D01*
X21549Y16941D02*
Y17208D01*
X21616D01*
X21882Y16941D01*
X21949D01*
X39764Y9252D02*
X39469D01*
Y9400D01*
X39518Y9449D01*
X39616D01*
X39665Y9400D01*
Y9252D01*
Y9350D02*
X39764Y9449D01*
X39469Y9547D02*
Y9744D01*
X39518D01*
X39715Y9547D01*
X39764D01*
X39469Y10039D02*
Y9842D01*
X39616D01*
X39567Y9941D01*
Y9990D01*
X39616Y10039D01*
X39715D01*
X39764Y9990D01*
Y9892D01*
X39715Y9842D01*
X38583Y9252D02*
X38287D01*
Y9400D01*
X38337Y9449D01*
X38435D01*
X38484Y9400D01*
Y9252D01*
Y9350D02*
X38583Y9449D01*
X38287Y9547D02*
Y9744D01*
X38337D01*
X38533Y9547D01*
X38583D01*
X38287Y10039D02*
X38337Y9941D01*
X38435Y9842D01*
X38533D01*
X38583Y9892D01*
Y9990D01*
X38533Y10039D01*
X38484D01*
X38435Y9990D01*
Y9842D01*
X37402Y9252D02*
X37106D01*
Y9400D01*
X37156Y9449D01*
X37254D01*
X37303Y9400D01*
Y9252D01*
Y9350D02*
X37402Y9449D01*
X37106Y9547D02*
Y9744D01*
X37156D01*
X37352Y9547D01*
X37402D01*
X37106Y9842D02*
Y10039D01*
X37156D01*
X37352Y9842D01*
X37402D01*
X37008Y13484D02*
X37408D01*
Y13284D01*
X37341Y13218D01*
X37208D01*
X37141Y13284D01*
Y13484D01*
Y13351D02*
X37008Y13218D01*
X37408Y13084D02*
Y12818D01*
X37341D01*
X37075Y13084D01*
X37008D01*
X37341Y12685D02*
X37408Y12618D01*
Y12485D01*
X37341Y12418D01*
X37274D01*
X37208Y12485D01*
X37141Y12418D01*
X37075D01*
X37008Y12485D01*
Y12618D01*
X37075Y12685D01*
X37141D01*
X37208Y12618D01*
X37274Y12685D01*
X37341D01*
X37208Y12618D02*
Y12485D01*
X38780Y14764D02*
X39179D01*
Y14564D01*
X39113Y14497D01*
X38979D01*
X38913Y14564D01*
Y14764D01*
Y14630D02*
X38780Y14497D01*
X39179Y14364D02*
Y14097D01*
X39113D01*
X38846Y14364D01*
X38780D01*
X38846Y13964D02*
X38780Y13897D01*
Y13764D01*
X38846Y13697D01*
X39113D01*
X39179Y13764D01*
Y13897D01*
X39113Y13964D01*
X39046D01*
X38979Y13897D01*
Y13697D01*
X37559Y15315D02*
Y15709D01*
X37756D01*
X37821Y15643D01*
Y15512D01*
X37756Y15446D01*
X37559D01*
X37690D02*
X37821Y15315D01*
X37953Y15643D02*
X38018Y15709D01*
X38149D01*
X38215Y15643D01*
Y15577D01*
X38149Y15512D01*
X38215Y15446D01*
Y15381D01*
X38149Y15315D01*
X38018D01*
X37953Y15381D01*
Y15446D01*
X38018Y15512D01*
X37953Y15577D01*
Y15643D01*
X38018Y15512D02*
X38149D01*
X38346Y15315D02*
X38477D01*
X38412D01*
Y15709D01*
X38346Y15643D01*
X23692Y20412D02*
X23625Y20479D01*
X23492D01*
X23425Y20412D01*
Y20345D01*
X23492Y20279D01*
X23625D01*
X23692Y20212D01*
Y20145D01*
X23625Y20079D01*
X23492D01*
X23425Y20145D01*
X23825Y20079D02*
X23958D01*
X23892D01*
Y20479D01*
X23825Y20412D01*
X31580Y15080D02*
Y14747D01*
X31647Y14680D01*
X31780D01*
X31847Y14747D01*
Y15080D01*
X31980Y14680D02*
X32113D01*
X32047D01*
Y15080D01*
X31980Y15013D01*
X32671Y22047D02*
X33004D01*
X33071Y22114D01*
Y22247D01*
X33004Y22314D01*
X32671D01*
X33071Y22714D02*
Y22447D01*
X32804Y22714D01*
X32738D01*
X32671Y22647D01*
Y22514D01*
X32738Y22447D01*
X33268Y4961D02*
Y4633D01*
X33333Y4567D01*
X33465D01*
X33530Y4633D01*
Y4961D01*
X33858Y4567D02*
Y4961D01*
X33661Y4764D01*
X33924D01*
X27264Y11916D02*
Y11582D01*
X27330Y11516D01*
X27464D01*
X27530Y11582D01*
Y11916D01*
X27930D02*
X27664D01*
Y11716D01*
X27797Y11782D01*
X27864D01*
X27930Y11716D01*
Y11582D01*
X27864Y11516D01*
X27730D01*
X27664Y11582D01*
X11122Y14475D02*
Y14141D01*
X11189Y14075D01*
X11322D01*
X11389Y14141D01*
Y14475D01*
X11789D02*
X11655Y14408D01*
X11522Y14275D01*
Y14141D01*
X11589Y14075D01*
X11722D01*
X11789Y14141D01*
Y14208D01*
X11722Y14275D01*
X11522D01*
X21850Y7585D02*
Y7252D01*
X21917Y7185D01*
X22050D01*
X22117Y7252D01*
Y7585D01*
X22250D02*
X22517D01*
Y7518D01*
X22250Y7252D01*
Y7185D01*
X19783Y13983D02*
Y13649D01*
X19850Y13583D01*
X19983D01*
X20050Y13649D01*
Y13983D01*
X20183Y13916D02*
X20250Y13983D01*
X20383D01*
X20450Y13916D01*
Y13849D01*
X20383Y13783D01*
X20450Y13716D01*
Y13649D01*
X20383Y13583D01*
X20250D01*
X20183Y13649D01*
Y13716D01*
X20250Y13783D01*
X20183Y13849D01*
Y13916D01*
X20250Y13783D02*
X20383D01*
X15945Y12205D02*
Y12605D01*
X16145D01*
X16211Y12538D01*
Y12405D01*
X16145Y12338D01*
X15945D01*
X16078D02*
X16211Y12205D01*
X16345Y12605D02*
X16611D01*
Y12538D01*
X16345Y12271D01*
Y12205D01*
X16745Y12538D02*
X16811Y12605D01*
X16945D01*
X17011Y12538D01*
Y12471D01*
X16945Y12405D01*
X16878D01*
X16945D01*
X17011Y12338D01*
Y12271D01*
X16945Y12205D01*
X16811D01*
X16745Y12271D01*
X34843Y8858D02*
X34711D01*
X34777D01*
Y8465D01*
X34843Y8530D01*
D39*
X14847Y9461D02*
G03*
X14847Y9461I-80J0D01*
G01*
D42*
X21417Y6953D02*
G03*
X21417Y6953I-49J0D01*
G01*
X26535Y13646D02*
G03*
X26535Y13646I-49J0D01*
G01*
X35758Y5079D02*
G03*
X35758Y5079I-49J0D01*
G01*
X19154Y13388D02*
G03*
X19154Y13388I-49J0D01*
G01*
D62*
X37825Y564D02*
G03*
X37825Y564I-30J0D01*
G01*
X9210Y20866D02*
G03*
X9210Y20866I-30J0D01*
G01*
X10981Y16339D02*
G03*
X10981Y16339I-30J0D01*
G01*
Y7283D02*
G03*
X10981Y7283I-30J0D01*
G01*
X9210Y2756D02*
G03*
X9210Y2756I-30J0D01*
G01*
X34329Y4350D02*
G03*
X34569Y4350I120J0D01*
G01*
X37272Y4557D02*
G03*
X37272Y4557I-30J0D01*
G01*
X36425Y1014D02*
X37369D01*
X36425D02*
Y4104D01*
X38221D02*
X39165D01*
Y1014D02*
Y4104D01*
X38221Y1014D02*
X39165D01*
X36425Y4104D02*
X37369D01*
X29640Y4973D02*
X30859D01*
Y1523D02*
Y4973D01*
X27409Y1523D02*
X28628D01*
X27409D02*
Y4973D01*
X28984Y5678D02*
X29284D01*
X29134Y5528D02*
Y5828D01*
X27409Y4973D02*
X28628D01*
X29640Y1523D02*
X30859D01*
X6390Y18786D02*
X7389D01*
X6390Y22946D02*
X7389D01*
X8162Y14259D02*
X9161D01*
X8162Y18419D02*
X9161D01*
X8162Y5203D02*
X9161D01*
X8162Y9363D02*
X9161D01*
X6390Y676D02*
X7389D01*
X6390Y4836D02*
X7389D01*
X41815Y16191D02*
Y17292D01*
X41265Y16191D02*
Y17292D01*
X41815D01*
X41265Y16191D02*
X41378D01*
X41683D02*
X41815D01*
X16154Y16744D02*
Y19107D01*
X15736Y16327D02*
X16154Y16744D01*
X15245Y16327D02*
X15736D01*
X15245Y19107D02*
X16154D01*
X13374D02*
X14283D01*
X13792Y16327D02*
X14283D01*
X13374Y16744D02*
X13792Y16327D01*
X13374Y16744D02*
Y19107D01*
Y4516D02*
Y6878D01*
X13792Y7296D01*
X14283D01*
X13374Y4516D02*
X14283D01*
X15245D02*
X16154D01*
X15245Y7296D02*
X15736D01*
X16154Y6878D01*
Y4516D02*
Y6878D01*
X13201Y19697D02*
Y22059D01*
X12783Y19279D02*
X13201Y19697D01*
X12292Y19279D02*
X12783D01*
X12292Y22059D02*
X13201D01*
X10421D02*
X11330D01*
X10839Y19279D02*
X11330D01*
X10421Y19697D02*
X10839Y19279D01*
X10421Y19697D02*
Y22059D01*
Y1563D02*
Y3925D01*
X10839Y4343D01*
X11330D01*
X10421Y1563D02*
X11330D01*
X12292D02*
X13201D01*
X12292Y4343D02*
X12783D01*
X13201Y3925D01*
Y1563D02*
Y3925D01*
X33839Y3180D02*
X35059D01*
X33839Y4350D02*
X35059D01*
X39097Y4802D02*
Y7402D01*
X36887Y4802D02*
Y7402D01*
D63*
X22323Y6457D02*
G03*
X22323Y6457I-118J0D01*
G01*
X27441Y13150D02*
G03*
X27441Y13150I-118J0D01*
G01*
X20059Y12894D02*
G03*
X20059Y12894I-118J0D01*
G01*
D64*
X41919Y17333D02*
G03*
X41919Y17333I-20J0D01*
G01*
D65*
X32075Y10962D02*
G03*
X32075Y10962I-60J0D01*
G01*
X32165Y11260D02*
X32323Y11102D01*
X32165Y11260D02*
Y13701D01*
X32323Y11102D02*
X34764D01*
Y13701D01*
X32165D02*
X34764D01*
D66*
X3543Y7638D02*
Y15984D01*
X0Y7638D02*
Y15984D01*
Y7638D02*
X3543D01*
X0Y15984D02*
X3543D01*
X42913Y3504D02*
Y7913D01*
X39370Y3504D02*
Y7913D01*
Y3504D02*
X42913D01*
X39370Y7913D02*
X42913D01*
X36220Y9055D02*
Y9843D01*
X34646Y9055D02*
Y9843D01*
X21811Y3386D02*
Y6850D01*
X23071Y3386D02*
Y6850D01*
X21811D02*
X23071D01*
X21811Y3386D02*
X23071D01*
X26929Y10079D02*
Y13543D01*
X28189Y10079D02*
Y13543D01*
X26929D02*
X28189D01*
X26929Y10079D02*
X28189D01*
X19587Y18307D02*
X20177D01*
X19882Y17913D02*
Y18701D01*
X17421Y18307D02*
X18012D01*
X17717Y17913D02*
Y18701D01*
X26083Y18307D02*
X26673D01*
X26378Y17913D02*
Y18701D01*
X23917Y18307D02*
X24508D01*
X24213Y17913D02*
Y18701D01*
X14468Y1969D02*
X15059D01*
X14764Y1575D02*
Y2362D01*
X1673Y18701D02*
X2264D01*
X1969Y18307D02*
Y19094D01*
X4823Y14173D02*
X5413D01*
X5118Y13780D02*
Y14567D01*
X4823Y9449D02*
X5413D01*
X5118Y9055D02*
Y9843D01*
X1673Y4921D02*
X2264D01*
X1969Y4528D02*
Y5315D01*
X30413Y18307D02*
X31004D01*
X30709Y17913D02*
Y18701D01*
X28248Y18307D02*
X28839D01*
X28543Y17913D02*
Y18701D01*
X34272Y7815D02*
X34449D01*
Y5177D02*
Y7815D01*
X34272Y5177D02*
X34449D01*
X12185Y16112D02*
X12224D01*
X12185Y16565D02*
X12224D01*
X7362Y12077D02*
X7402D01*
X7362Y12530D02*
X7402D01*
X7362Y11093D02*
X7402D01*
X7362Y11545D02*
X7402D01*
X12185Y7057D02*
X12224D01*
X12185Y7510D02*
X12224D01*
X22854Y16417D02*
Y16654D01*
X22224Y16417D02*
Y16654D01*
X22224Y18878D02*
Y19114D01*
X22854Y18878D02*
Y19114D01*
X17736Y6772D02*
Y7008D01*
X17106Y6772D02*
Y7008D01*
X19547Y11319D02*
Y13287D01*
X20807Y11319D02*
Y13287D01*
X19547D02*
X20807D01*
X19547Y11319D02*
X20807D01*
D67*
X12037Y9611D02*
Y9711D01*
Y9611D02*
X14537D01*
Y9711D01*
X12037Y13911D02*
Y14011D01*
X14537D01*
Y13911D02*
Y14011D01*
M02*
