G04 Layer_Color=128*
%FSLAX24Y24*%
%MOIN*%
G70*
G01*
G75*
%ADD20R,0.0276X0.0374*%
%ADD21R,0.0374X0.0276*%
%ADD24R,0.0335X0.0374*%
%ADD57R,0.1575X0.0984*%
%ADD58R,0.0630X0.1398*%
%ADD59R,0.0551X0.0709*%
%ADD60R,0.0433X0.0768*%
%ADD61R,0.1339X0.0768*%
D20*
X16870Y20669D02*
D03*
X17382D02*
D03*
X21004Y20374D02*
D03*
X21516D02*
D03*
X16870Y9744D02*
D03*
X17382D02*
D03*
X17382Y10433D02*
D03*
X16870D02*
D03*
X30965Y18307D02*
D03*
X30453D02*
D03*
X28799D02*
D03*
X28287D02*
D03*
X25531Y14173D02*
D03*
X26043D02*
D03*
X25531Y14961D02*
D03*
X26043D02*
D03*
X32933Y17717D02*
D03*
X32421D02*
D03*
X32933Y18406D02*
D03*
X32421D02*
D03*
X33602Y5807D02*
D03*
X34114D02*
D03*
D21*
X22244Y19035D02*
D03*
Y19547D02*
D03*
X23031Y19547D02*
D03*
Y19035D02*
D03*
X22638Y14626D02*
D03*
Y14114D02*
D03*
Y15295D02*
D03*
Y15807D02*
D03*
X31791Y15020D02*
D03*
Y14508D02*
D03*
X26181Y9114D02*
D03*
Y8602D02*
D03*
X27461Y10472D02*
D03*
Y10984D02*
D03*
X28150Y10984D02*
D03*
Y10472D02*
D03*
X29134Y9606D02*
D03*
Y9094D02*
D03*
D24*
X35502Y5118D02*
D03*
X34970D02*
D03*
X33593D02*
D03*
X34124D02*
D03*
X38652Y5709D02*
D03*
X38120D02*
D03*
X38652Y6398D02*
D03*
X38120D02*
D03*
X36683Y8563D02*
D03*
X36152D02*
D03*
X34534Y13500D02*
D03*
X35066D02*
D03*
D57*
X36988Y2756D02*
D03*
X39390D02*
D03*
D58*
X33809Y6988D02*
D03*
X31545D02*
D03*
D59*
X33907Y8563D02*
D03*
X34990D02*
D03*
D60*
X35748Y9764D02*
D03*
X34843D02*
D03*
X33937D02*
D03*
D61*
X34843Y12283D02*
D03*
M02*
