G04 Layer_Color=16711935*
%FSLAX24Y24*%
%MOIN*%
G70*
G01*
G75*
%ADD76R,0.0356X0.0454*%
%ADD77R,0.0454X0.0356*%
%ADD80R,0.0415X0.0454*%
%ADD89C,0.0867*%
%ADD90R,0.0867X0.0867*%
%ADD91C,0.0680*%
%ADD92C,0.0710*%
%ADD93R,0.0710X0.0710*%
%ADD94C,0.0760*%
%ADD95R,0.0760X0.0760*%
%ADD96R,0.0760X0.0760*%
%ADD97C,0.2049*%
%ADD98R,0.1655X0.1064*%
%ADD99R,0.0710X0.1478*%
%ADD100R,0.0631X0.0789*%
%ADD101R,0.0513X0.0848*%
%ADD102R,0.1419X0.0848*%
D76*
X16870Y20669D02*
D03*
X17382D02*
D03*
X21004Y20374D02*
D03*
X21516D02*
D03*
X16870Y9744D02*
D03*
X17382D02*
D03*
X17382Y10433D02*
D03*
X16870D02*
D03*
X30965Y18307D02*
D03*
X30453D02*
D03*
X28799D02*
D03*
X28287D02*
D03*
X25531Y14173D02*
D03*
X26043D02*
D03*
X25531Y14961D02*
D03*
X26043D02*
D03*
X32933Y17717D02*
D03*
X32421D02*
D03*
X32933Y18406D02*
D03*
X32421D02*
D03*
X33602Y5807D02*
D03*
X34114D02*
D03*
D77*
X22244Y19035D02*
D03*
Y19547D02*
D03*
X23031Y19547D02*
D03*
Y19035D02*
D03*
X22638Y14626D02*
D03*
Y14114D02*
D03*
Y15295D02*
D03*
Y15807D02*
D03*
X31791Y15020D02*
D03*
Y14508D02*
D03*
X26181Y9114D02*
D03*
Y8602D02*
D03*
X27461Y10472D02*
D03*
Y10984D02*
D03*
X28150Y10984D02*
D03*
Y10472D02*
D03*
X29134Y9606D02*
D03*
Y9094D02*
D03*
D80*
X35502Y5118D02*
D03*
X34970D02*
D03*
X33593D02*
D03*
X34124D02*
D03*
X38652Y5709D02*
D03*
X38120D02*
D03*
X38652Y6398D02*
D03*
X38120D02*
D03*
X36683Y8563D02*
D03*
X36152D02*
D03*
X34534Y13500D02*
D03*
X35066D02*
D03*
D89*
X1969Y14764D02*
D03*
Y12795D02*
D03*
Y10827D02*
D03*
X41339Y6693D02*
D03*
D90*
X1969Y8858D02*
D03*
X41339Y4724D02*
D03*
D91*
X19882Y19291D02*
D03*
Y17323D02*
D03*
X17717Y19291D02*
D03*
Y17323D02*
D03*
X26378D02*
D03*
Y19291D02*
D03*
X24213D02*
D03*
Y17323D02*
D03*
X14764Y2953D02*
D03*
Y984D02*
D03*
X1969Y19685D02*
D03*
Y17717D02*
D03*
X5118Y15157D02*
D03*
Y13189D02*
D03*
Y10433D02*
D03*
Y8465D02*
D03*
X1969Y5906D02*
D03*
Y3937D02*
D03*
X30709Y17323D02*
D03*
Y19291D02*
D03*
X28543Y17323D02*
D03*
Y19291D02*
D03*
D92*
X39665Y20240D02*
D03*
Y21240D02*
D03*
Y19240D02*
D03*
Y17240D02*
D03*
Y18240D02*
D03*
X30315Y9484D02*
D03*
Y8484D02*
D03*
Y10484D02*
D03*
Y12484D02*
D03*
Y11484D02*
D03*
D93*
X39665Y16240D02*
D03*
X30315Y13484D02*
D03*
D94*
X41535Y13843D02*
D03*
Y12843D02*
D03*
Y11843D02*
D03*
Y10843D02*
D03*
X24378Y21850D02*
D03*
X25378D02*
D03*
X16110D02*
D03*
X17110D02*
D03*
X20244D02*
D03*
X21244D02*
D03*
X28512D02*
D03*
X29512D02*
D03*
D95*
X41535Y9843D02*
D03*
D96*
X26378Y21850D02*
D03*
X18110D02*
D03*
X22244D02*
D03*
X30512D02*
D03*
D97*
X1575Y22047D02*
D03*
Y1575D02*
D03*
X41732D02*
D03*
Y22047D02*
D03*
D98*
X36988Y2756D02*
D03*
X39390D02*
D03*
D99*
X33809Y6988D02*
D03*
X31545D02*
D03*
D100*
X33907Y8563D02*
D03*
X34990D02*
D03*
D101*
X35748Y9764D02*
D03*
X34843D02*
D03*
X33937D02*
D03*
D102*
X34843Y12283D02*
D03*
M02*
