G04 Layer_Physical_Order=2*
G04 Layer_Color=16711680*
%FSLAX24Y24*%
%MOIN*%
G70*
G01*
G75*
%ADD20R,0.0276X0.0374*%
%ADD21R,0.0374X0.0276*%
%ADD24R,0.0335X0.0374*%
%ADD33C,0.0200*%
%ADD34C,0.0120*%
%ADD35C,0.0100*%
%ADD36C,0.0300*%
%ADD39C,0.0150*%
%ADD40C,0.0600*%
%ADD41C,0.0250*%
%ADD42C,0.0098*%
%ADD43C,0.0400*%
%ADD45C,0.0787*%
%ADD46R,0.0787X0.0787*%
%ADD47C,0.0600*%
%ADD48C,0.0630*%
%ADD49R,0.0630X0.0630*%
%ADD50C,0.0680*%
%ADD51R,0.0680X0.0680*%
%ADD52R,0.0680X0.0680*%
%ADD53C,0.1969*%
%ADD54C,0.0300*%
%ADD55C,0.0500*%
%ADD56C,0.0400*%
%ADD57R,0.1575X0.0984*%
%ADD58R,0.0630X0.1398*%
%ADD59R,0.0551X0.0709*%
%ADD60R,0.0433X0.0768*%
%ADD61R,0.1339X0.0768*%
G36*
X41271Y23030D02*
X41239Y23016D01*
X41093Y22927D01*
X40963Y22816D01*
X40852Y22687D01*
X40763Y22541D01*
X40698Y22383D01*
X40658Y22217D01*
X40656Y22197D01*
X41732D01*
Y22047D01*
X41882D01*
Y20971D01*
X41902Y20973D01*
X42068Y21013D01*
X42226Y21078D01*
X42372Y21167D01*
X42501Y21278D01*
X42612Y21408D01*
X42701Y21553D01*
X42715Y21586D01*
X42815Y21566D01*
Y2056D01*
X42715Y2036D01*
X42701Y2069D01*
X42612Y2214D01*
X42501Y2344D01*
X42372Y2455D01*
X42226Y2544D01*
X42068Y2609D01*
X41902Y2649D01*
X41882Y2651D01*
Y1575D01*
X41732D01*
Y1425D01*
X40656D01*
X40658Y1405D01*
X40698Y1239D01*
X40763Y1081D01*
X40852Y936D01*
X40963Y806D01*
X41093Y695D01*
X41239Y606D01*
X41271Y592D01*
X41252Y492D01*
X14856D01*
X14850Y592D01*
X14868Y595D01*
X14966Y635D01*
X15049Y699D01*
X15113Y783D01*
X15135Y834D01*
X14764D01*
X14393D01*
X14414Y783D01*
X14478Y699D01*
X14562Y635D01*
X14659Y595D01*
X14678Y592D01*
X14671Y492D01*
X2056D01*
X2036Y592D01*
X2069Y606D01*
X2214Y695D01*
X2344Y806D01*
X2455Y936D01*
X2544Y1081D01*
X2609Y1239D01*
X2649Y1405D01*
X2651Y1425D01*
X1575D01*
Y1575D01*
X1425D01*
Y2651D01*
X1405Y2649D01*
X1239Y2609D01*
X1081Y2544D01*
X1072Y2538D01*
X984Y2587D01*
Y21035D01*
X1072Y21084D01*
X1081Y21078D01*
X1239Y21013D01*
X1405Y20973D01*
X1425Y20971D01*
Y22047D01*
X1575D01*
Y22197D01*
X2651D01*
X2649Y22217D01*
X2609Y22383D01*
X2544Y22541D01*
X2455Y22687D01*
X2344Y22816D01*
X2214Y22927D01*
X2069Y23016D01*
X2036Y23030D01*
X2056Y23130D01*
X34997D01*
Y22106D01*
X35003Y22075D01*
X35021Y22049D01*
X35048Y22031D01*
X35079Y22025D01*
X38228D01*
X38260Y22031D01*
X38286Y22049D01*
X38304Y22075D01*
X38310Y22106D01*
Y23130D01*
X41252D01*
X41271Y23030D01*
D02*
G37*
%LPC*%
G36*
X20394Y22264D02*
Y22000D01*
X20658D01*
X20628Y22072D01*
X20558Y22164D01*
X20466Y22235D01*
X20394Y22264D01*
D02*
G37*
G36*
X16260D02*
Y22000D01*
X16524D01*
X16495Y22072D01*
X16424Y22164D01*
X16332Y22235D01*
X16260Y22264D01*
D02*
G37*
G36*
X20094D02*
X20022Y22235D01*
X19930Y22164D01*
X19860Y22072D01*
X19830Y22000D01*
X20094D01*
Y22264D01*
D02*
G37*
G36*
X15960D02*
X15888Y22235D01*
X15796Y22164D01*
X15726Y22072D01*
X15696Y22000D01*
X15960D01*
Y22264D01*
D02*
G37*
G36*
X20658Y21700D02*
X20394D01*
Y21436D01*
X20466Y21466D01*
X20558Y21537D01*
X20628Y21629D01*
X20658Y21700D01*
D02*
G37*
G36*
X16524D02*
X16260D01*
Y21436D01*
X16332Y21466D01*
X16424Y21537D01*
X16495Y21629D01*
X16524Y21700D01*
D02*
G37*
G36*
X20094D02*
X19830D01*
X19860Y21629D01*
X19930Y21537D01*
X20022Y21466D01*
X20094Y21436D01*
Y21700D01*
D02*
G37*
G36*
X15960D02*
X15696D01*
X15726Y21629D01*
X15796Y21537D01*
X15888Y21466D01*
X15960Y21436D01*
Y21700D01*
D02*
G37*
G36*
X30932Y22270D02*
X30092D01*
Y21430D01*
X30932D01*
Y22270D01*
D02*
G37*
G36*
X26798D02*
X25958D01*
Y21430D01*
X26798D01*
Y22270D01*
D02*
G37*
G36*
X28512Y22274D02*
X28402Y22260D01*
X28300Y22217D01*
X28212Y22150D01*
X28145Y22062D01*
X28103Y21960D01*
X28088Y21850D01*
X28103Y21741D01*
X28145Y21639D01*
X28212Y21551D01*
X28300Y21484D01*
X28402Y21441D01*
X28512Y21427D01*
X28621Y21441D01*
X28724Y21484D01*
X28811Y21551D01*
X28879Y21639D01*
X28921Y21741D01*
X28935Y21850D01*
X28921Y21960D01*
X28879Y22062D01*
X28811Y22150D01*
X28724Y22217D01*
X28621Y22260D01*
X28512Y22274D01*
D02*
G37*
G36*
X25378D02*
X25268Y22260D01*
X25166Y22217D01*
X25078Y22150D01*
X25011Y22062D01*
X24969Y21960D01*
X24954Y21850D01*
X24969Y21741D01*
X25011Y21639D01*
X25078Y21551D01*
X25166Y21484D01*
X25268Y21441D01*
X25378Y21427D01*
X25488Y21441D01*
X25590Y21484D01*
X25677Y21551D01*
X25745Y21639D01*
X25787Y21741D01*
X25802Y21850D01*
X25787Y21960D01*
X25745Y22062D01*
X25677Y22150D01*
X25590Y22217D01*
X25488Y22260D01*
X25378Y22274D01*
D02*
G37*
G36*
X24378D02*
X24268Y22260D01*
X24166Y22217D01*
X24078Y22150D01*
X24011Y22062D01*
X23969Y21960D01*
X23954Y21850D01*
X23969Y21741D01*
X24011Y21639D01*
X24078Y21551D01*
X24166Y21484D01*
X24268Y21441D01*
X24378Y21427D01*
X24488Y21441D01*
X24590Y21484D01*
X24677Y21551D01*
X24745Y21639D01*
X24787Y21741D01*
X24802Y21850D01*
X24787Y21960D01*
X24745Y22062D01*
X24677Y22150D01*
X24590Y22217D01*
X24488Y22260D01*
X24378Y22274D01*
D02*
G37*
G36*
X37402Y21888D02*
X37312Y21870D01*
X37236Y21819D01*
X37185Y21743D01*
X37167Y21654D01*
X37175Y21614D01*
X36619Y21058D01*
X36590Y21015D01*
X36580Y20965D01*
Y17476D01*
X32520Y13416D01*
X32480Y13423D01*
X32391Y13406D01*
X32314Y13355D01*
X32264Y13279D01*
X32246Y13189D01*
X32264Y13099D01*
X32314Y13023D01*
X32391Y12972D01*
X32480Y12954D01*
X32570Y12972D01*
X32646Y13023D01*
X32697Y13099D01*
X32715Y13189D01*
X32707Y13228D01*
X36666Y17187D01*
X36761Y17150D01*
X36770Y17075D01*
X34946Y15251D01*
X34917Y15208D01*
X34907Y15157D01*
Y14952D01*
X34874Y14930D01*
X34823Y14854D01*
X34805Y14764D01*
X34823Y14674D01*
X34874Y14598D01*
X34950Y14547D01*
X35039Y14529D01*
X35129Y14547D01*
X35205Y14598D01*
X35256Y14674D01*
X35274Y14764D01*
X35256Y14854D01*
X35205Y14930D01*
X35172Y14952D01*
Y15103D01*
X37003Y16934D01*
X37032Y16977D01*
X37042Y17028D01*
Y19236D01*
X37343Y19537D01*
X37382Y19529D01*
X37472Y19547D01*
X37548Y19598D01*
X37599Y19674D01*
X37616Y19764D01*
X37599Y19854D01*
X37548Y19930D01*
X37472Y19980D01*
X37382Y19998D01*
X37292Y19980D01*
X37216Y19930D01*
X37165Y19854D01*
X37147Y19764D01*
X37155Y19725D01*
X36938Y19507D01*
X36845Y19545D01*
Y20910D01*
X37362Y21427D01*
X37402Y21419D01*
X37491Y21437D01*
X37567Y21488D01*
X37618Y21564D01*
X37636Y21654D01*
X37618Y21743D01*
X37567Y21819D01*
X37491Y21870D01*
X37402Y21888D01*
D02*
G37*
G36*
X41582Y21897D02*
X40656D01*
X40658Y21877D01*
X40698Y21711D01*
X40763Y21553D01*
X40852Y21408D01*
X40963Y21278D01*
X41093Y21167D01*
X41239Y21078D01*
X41396Y21013D01*
X41562Y20973D01*
X41582Y20971D01*
Y21897D01*
D02*
G37*
G36*
X2651D02*
X1725D01*
Y20971D01*
X1745Y20973D01*
X1911Y21013D01*
X2069Y21078D01*
X2214Y21167D01*
X2344Y21278D01*
X2455Y21408D01*
X2544Y21553D01*
X2609Y21711D01*
X2649Y21877D01*
X2651Y21897D01*
D02*
G37*
G36*
X39665Y21639D02*
X39562Y21625D01*
X39466Y21585D01*
X39384Y21522D01*
X39320Y21439D01*
X39281Y21343D01*
X39267Y21240D01*
X39281Y21137D01*
X39320Y21041D01*
X39384Y20958D01*
X39466Y20895D01*
X39562Y20855D01*
X39665Y20842D01*
X39768Y20855D01*
X39865Y20895D01*
X39947Y20958D01*
X40010Y21041D01*
X40050Y21137D01*
X40064Y21240D01*
X40050Y21343D01*
X40010Y21439D01*
X39947Y21522D01*
X39865Y21585D01*
X39768Y21625D01*
X39665Y21639D01*
D02*
G37*
G36*
X16720Y20956D02*
X16632D01*
Y20819D01*
X16720D01*
Y20956D01*
D02*
G37*
G36*
X20854Y20661D02*
X20766D01*
Y20524D01*
X20854D01*
Y20661D01*
D02*
G37*
G36*
X16720Y20519D02*
X16632D01*
Y20382D01*
X16720D01*
Y20519D01*
D02*
G37*
G36*
X20854Y20224D02*
X20766D01*
Y20087D01*
X20854D01*
Y20224D01*
D02*
G37*
G36*
X21244Y22274D02*
X21134Y22260D01*
X21032Y22217D01*
X20945Y22150D01*
X20877Y22062D01*
X20835Y21960D01*
X20821Y21850D01*
X20835Y21741D01*
X20877Y21639D01*
X20945Y21551D01*
X21032Y21484D01*
X21134Y21441D01*
X21183Y21435D01*
X21307Y21311D01*
Y20734D01*
X21242Y20661D01*
X21206Y20661D01*
X21154D01*
Y20374D01*
Y20087D01*
X21206D01*
X21242Y20087D01*
X21333Y20107D01*
X21734D01*
Y20641D01*
X21725D01*
Y21398D01*
X21725Y21398D01*
X21709Y21478D01*
X21664Y21545D01*
X21664Y21545D01*
X21593Y21616D01*
X21611Y21639D01*
X21653Y21741D01*
X21668Y21850D01*
X21653Y21960D01*
X21611Y22062D01*
X21544Y22150D01*
X21456Y22217D01*
X21354Y22260D01*
X21244Y22274D01*
D02*
G37*
G36*
X39665Y20639D02*
X39562Y20625D01*
X39466Y20585D01*
X39384Y20522D01*
X39320Y20439D01*
X39281Y20343D01*
X39267Y20240D01*
X39281Y20137D01*
X39320Y20041D01*
X39384Y19958D01*
X39466Y19895D01*
X39562Y19855D01*
X39665Y19842D01*
X39768Y19855D01*
X39865Y19895D01*
X39947Y19958D01*
X40010Y20041D01*
X40050Y20137D01*
X40064Y20240D01*
X40050Y20343D01*
X40010Y20439D01*
X39947Y20522D01*
X39865Y20585D01*
X39768Y20625D01*
X39665Y20639D01*
D02*
G37*
G36*
X2119Y20056D02*
Y19835D01*
X2339D01*
X2318Y19887D01*
X2254Y19970D01*
X2170Y20034D01*
X2119Y20056D01*
D02*
G37*
G36*
X1819Y20056D02*
X1767Y20034D01*
X1683Y19970D01*
X1619Y19887D01*
X1598Y19835D01*
X1819D01*
Y20056D01*
D02*
G37*
G36*
X2339Y19535D02*
X2119D01*
Y19314D01*
X2170Y19336D01*
X2254Y19400D01*
X2318Y19483D01*
X2339Y19535D01*
D02*
G37*
G36*
X1819D02*
X1598D01*
X1619Y19483D01*
X1683Y19400D01*
X1767Y19336D01*
X1819Y19314D01*
Y19535D01*
D02*
G37*
G36*
X29512Y22274D02*
X29402Y22260D01*
X29300Y22217D01*
X29212Y22150D01*
X29145Y22062D01*
X29103Y21960D01*
X29088Y21850D01*
X29103Y21741D01*
X29145Y21639D01*
X29212Y21551D01*
X29300Y21484D01*
X29303Y21482D01*
Y20488D01*
X29303Y20488D01*
X29319Y20408D01*
X29364Y20340D01*
X30336Y19369D01*
X30325Y19291D01*
X30338Y19192D01*
X30377Y19100D01*
X30438Y19020D01*
X30517Y18959D01*
X30609Y18921D01*
X30709Y18908D01*
X30808Y18921D01*
X30900Y18959D01*
X30980Y19020D01*
X31041Y19100D01*
X31079Y19192D01*
X31092Y19291D01*
X31079Y19391D01*
X31041Y19483D01*
X30980Y19562D01*
X30900Y19623D01*
X30808Y19662D01*
X30709Y19675D01*
X30631Y19664D01*
X29721Y20575D01*
Y21482D01*
X29724Y21484D01*
X29811Y21551D01*
X29879Y21639D01*
X29921Y21741D01*
X29935Y21850D01*
X29921Y21960D01*
X29879Y22062D01*
X29811Y22150D01*
X29724Y22217D01*
X29621Y22260D01*
X29512Y22274D01*
D02*
G37*
G36*
X17110D02*
X17001Y22260D01*
X16898Y22217D01*
X16811Y22150D01*
X16743Y22062D01*
X16701Y21960D01*
X16687Y21850D01*
X16701Y21741D01*
X16743Y21639D01*
X16811Y21551D01*
X16898Y21484D01*
X17001Y21441D01*
X17110Y21427D01*
X17173Y21372D01*
Y21029D01*
X17108Y20956D01*
X17072Y20956D01*
X17020D01*
Y20669D01*
Y20382D01*
X17072D01*
X17108Y20382D01*
X17200Y20402D01*
X17600D01*
Y20936D01*
X17591D01*
Y21429D01*
X17690Y21430D01*
X17691Y21430D01*
X18199D01*
X19857Y19772D01*
X19821Y19667D01*
X19783Y19662D01*
X19690Y19623D01*
X19611Y19562D01*
X19550Y19483D01*
X19512Y19391D01*
X19499Y19291D01*
X19512Y19192D01*
X19515Y19184D01*
X18534Y18203D01*
X16032D01*
X16031Y18204D01*
X15984Y18303D01*
X15999Y18320D01*
X16929D01*
X16999Y18334D01*
X17059Y18374D01*
X17609Y18924D01*
X17617Y18921D01*
X17717Y18908D01*
X17816Y18921D01*
X17908Y18959D01*
X17988Y19020D01*
X18048Y19100D01*
X18087Y19192D01*
X18100Y19291D01*
X18087Y19391D01*
X18048Y19483D01*
X17988Y19562D01*
X17908Y19623D01*
X17816Y19662D01*
X17717Y19675D01*
X17617Y19662D01*
X17525Y19623D01*
X17446Y19562D01*
X17385Y19483D01*
X17346Y19391D01*
X17333Y19291D01*
X17346Y19192D01*
X17350Y19184D01*
X16853Y18687D01*
X15846D01*
X15776Y18673D01*
X15717Y18634D01*
X15071Y17988D01*
X15032Y17929D01*
X15018Y17859D01*
Y11570D01*
X15032Y11500D01*
X15071Y11441D01*
X15171Y11341D01*
Y10799D01*
X15138Y10749D01*
X15120Y10659D01*
X15138Y10570D01*
X15189Y10494D01*
X15265Y10443D01*
X15354Y10425D01*
X15444Y10443D01*
X15520Y10494D01*
X15571Y10570D01*
X15589Y10659D01*
X15571Y10749D01*
X15538Y10799D01*
Y11417D01*
X15524Y11488D01*
X15484Y11547D01*
X15385Y11646D01*
Y12214D01*
X15411Y12238D01*
X15485Y12279D01*
X15551Y12265D01*
X15641Y12283D01*
X15658Y12295D01*
X15758Y12242D01*
Y10827D01*
Y5315D01*
Y4331D01*
Y3445D01*
X15772Y3346D01*
X15810Y3253D01*
X15829Y3228D01*
X15780Y3128D01*
X15102D01*
X15096Y3144D01*
X15035Y3224D01*
X14955Y3285D01*
X14863Y3323D01*
X14764Y3336D01*
X14665Y3323D01*
X14572Y3285D01*
X14493Y3224D01*
X14432Y3144D01*
X14394Y3052D01*
X14381Y2953D01*
X14394Y2854D01*
X14432Y2761D01*
X14493Y2682D01*
X14572Y2621D01*
X14665Y2583D01*
X14764Y2569D01*
X14863Y2583D01*
X14955Y2621D01*
X15035Y2682D01*
X15096Y2761D01*
X15096Y2761D01*
X16349D01*
X16419Y2775D01*
X16479Y2815D01*
X17551Y3888D01*
X17591Y3947D01*
X17605Y4017D01*
Y5335D01*
X17657Y5375D01*
X17710Y5444D01*
X17743Y5524D01*
X17754Y5610D01*
X17743Y5696D01*
X17710Y5777D01*
X17657Y5846D01*
X17588Y5898D01*
X17507Y5932D01*
X17421Y5943D01*
X17335Y5932D01*
X17255Y5898D01*
X17186Y5846D01*
X17133Y5777D01*
X17100Y5696D01*
X17088Y5610D01*
X17100Y5524D01*
X17133Y5444D01*
X17186Y5375D01*
X17238Y5335D01*
Y4093D01*
X16625Y3481D01*
X16525Y3522D01*
Y4331D01*
Y5315D01*
Y10241D01*
X16535Y10250D01*
X16652D01*
Y10166D01*
X17088D01*
Y10166D01*
X17098D01*
X17129Y10140D01*
X17110Y10040D01*
X17102Y10031D01*
X17072Y10031D01*
X17020D01*
Y9744D01*
Y9457D01*
X17072D01*
X17108Y9457D01*
X17200Y9477D01*
X17600D01*
Y10011D01*
X17600D01*
X17579Y10111D01*
X17600Y10166D01*
X17700Y10181D01*
X17747Y10145D01*
X17827Y10112D01*
X17913Y10100D01*
X18000Y10112D01*
X18080Y10145D01*
X18149Y10198D01*
X18202Y10267D01*
X18235Y10347D01*
X18246Y10433D01*
X18235Y10519D01*
X18202Y10599D01*
X18169Y10642D01*
X18202Y10729D01*
X18213Y10742D01*
X18524D01*
X18564Y10690D01*
X18633Y10637D01*
X18713Y10604D01*
X18799Y10592D01*
X18885Y10604D01*
X18957Y10633D01*
X18992Y10621D01*
X19057Y10581D01*
Y9268D01*
X19075Y9178D01*
X19126Y9102D01*
X22393Y5834D01*
X22350Y5777D01*
X22316Y5696D01*
X22305Y5610D01*
X22316Y5524D01*
X22350Y5444D01*
X22402Y5375D01*
X22471Y5322D01*
X22552Y5289D01*
X22638Y5277D01*
X22724Y5289D01*
X22804Y5322D01*
X22873Y5375D01*
X22926Y5444D01*
X22959Y5524D01*
X22971Y5610D01*
X22959Y5696D01*
X22926Y5777D01*
X22873Y5846D01*
X22872Y5846D01*
Y5921D01*
X22854Y6011D01*
X22804Y6087D01*
X22804Y6087D01*
X19526Y9365D01*
Y12061D01*
X19626Y12095D01*
X19646Y12068D01*
X19715Y12015D01*
X19796Y11982D01*
X19882Y11970D01*
X19968Y11982D01*
X20048Y12015D01*
X20117Y12068D01*
X20157Y12120D01*
X20639D01*
X20709Y12134D01*
X20768Y12173D01*
X20965Y12369D01*
X22651Y10683D01*
Y10671D01*
X22618Y10621D01*
X22600Y10532D01*
X22618Y10442D01*
X22669Y10366D01*
X22745Y10315D01*
X22835Y10297D01*
X22924Y10315D01*
X23000Y10366D01*
X23051Y10442D01*
X23069Y10532D01*
X23051Y10621D01*
X23018Y10671D01*
Y10759D01*
X23004Y10829D01*
X22964Y10889D01*
X22112Y11741D01*
X22176Y11818D01*
X22256Y11785D01*
X22343Y11773D01*
X22429Y11785D01*
X22509Y11818D01*
X22578Y11871D01*
X22631Y11940D01*
X22664Y12020D01*
X22675Y12106D01*
X22671Y12139D01*
X22786Y12254D01*
X22831Y12322D01*
X22847Y12402D01*
X22847Y12402D01*
Y13200D01*
X22854Y13211D01*
X22857Y13224D01*
X23912Y14279D01*
X23920Y14279D01*
X23978Y14256D01*
X24014Y14232D01*
X24026Y14173D01*
X24066Y14113D01*
X24620Y13559D01*
Y13380D01*
X24260Y13021D01*
X24196Y13030D01*
X24110Y13018D01*
X24029Y12985D01*
X23960Y12932D01*
X23907Y12863D01*
X23874Y12783D01*
X23863Y12697D01*
X23874Y12611D01*
X23907Y12530D01*
X23960Y12461D01*
X24029Y12409D01*
X24110Y12375D01*
X24196Y12364D01*
X24282Y12375D01*
X24362Y12409D01*
X24431Y12461D01*
X24484Y12530D01*
X24517Y12611D01*
X24529Y12697D01*
X24520Y12762D01*
X24933Y13175D01*
X24973Y13234D01*
X24987Y13304D01*
Y13635D01*
X24973Y13705D01*
X24933Y13765D01*
X24696Y14002D01*
X24732Y14108D01*
X24732Y14108D01*
X24812Y14141D01*
X24881Y14194D01*
X24921Y14246D01*
X25180D01*
X25194Y14248D01*
X25287Y14188D01*
X25294Y14178D01*
Y13886D01*
X25382D01*
Y14173D01*
X25682D01*
Y13886D01*
X25769D01*
X25769Y13886D01*
X25769Y13886D01*
X25861Y13906D01*
X26261D01*
Y14440D01*
X26132D01*
X25978Y14594D01*
X26020Y14694D01*
X26251D01*
X26464Y14480D01*
Y12783D01*
X25820Y12140D01*
X25787Y12144D01*
X25701Y12133D01*
X25621Y12099D01*
X25552Y12046D01*
X25499Y11977D01*
X25466Y11897D01*
X25455Y11811D01*
X25466Y11725D01*
X25499Y11645D01*
X25552Y11576D01*
X25621Y11523D01*
X25701Y11490D01*
X25787Y11478D01*
X25820Y11483D01*
X26150Y11152D01*
X26141Y11056D01*
X26051Y11026D01*
X26023Y11062D01*
X25954Y11115D01*
X25874Y11148D01*
X25787Y11160D01*
X25701Y11148D01*
X25621Y11115D01*
X25552Y11062D01*
X25499Y10993D01*
X25466Y10913D01*
X25455Y10827D01*
X25466Y10741D01*
X25499Y10660D01*
X25552Y10591D01*
X25621Y10539D01*
X25645Y10529D01*
Y10039D01*
X25645Y10039D01*
X25656Y9985D01*
X25686Y9938D01*
X25852Y9773D01*
X25848Y9744D01*
X25860Y9658D01*
X25893Y9578D01*
X25946Y9509D01*
X26015Y9456D01*
X26038Y9446D01*
Y9332D01*
X25914D01*
Y8920D01*
X25914Y8896D01*
X25878Y8811D01*
X25720D01*
X25715Y8846D01*
X25682Y8926D01*
X25629Y8995D01*
X25560Y9048D01*
X25480Y9081D01*
X25394Y9093D01*
X25308Y9081D01*
X25227Y9048D01*
X25158Y8995D01*
X25105Y8926D01*
X25072Y8846D01*
X25061Y8760D01*
X25072Y8674D01*
X25105Y8593D01*
X25158Y8524D01*
X25227Y8472D01*
X25308Y8438D01*
X25394Y8427D01*
X25436Y8433D01*
X25471Y8409D01*
X25551Y8393D01*
X25914D01*
Y8385D01*
X26448D01*
Y8796D01*
X26448Y8820D01*
Y8896D01*
X26448Y8920D01*
Y9332D01*
X26324D01*
Y9446D01*
X26348Y9456D01*
X26416Y9509D01*
X26469Y9578D01*
X26503Y9658D01*
X26507Y9691D01*
X26510Y9697D01*
X26598Y9761D01*
X26612Y9764D01*
X26632Y9760D01*
X26965D01*
X26975Y9751D01*
Y9417D01*
X26975Y9417D01*
X26991Y9337D01*
X27036Y9270D01*
X27390Y8915D01*
Y8227D01*
X27390Y8227D01*
X27406Y8147D01*
X27452Y8080D01*
X28199Y7333D01*
X28199Y7333D01*
X28227Y7314D01*
X28226Y7278D01*
X28196Y7214D01*
X24345D01*
X22568Y8990D01*
X22577Y9055D01*
X22566Y9141D01*
X22532Y9222D01*
X22479Y9290D01*
X22411Y9343D01*
X22330Y9377D01*
X22244Y9388D01*
X22158Y9377D01*
X22078Y9343D01*
X22009Y9290D01*
X21956Y9222D01*
X21923Y9141D01*
X21911Y9055D01*
X21923Y8969D01*
X21956Y8889D01*
X22009Y8820D01*
X22078Y8767D01*
X22158Y8734D01*
X22244Y8722D01*
X22309Y8731D01*
X24139Y6901D01*
X24199Y6861D01*
X24269Y6847D01*
X29996D01*
X30066Y6861D01*
X30125Y6901D01*
X31014Y7789D01*
X31031D01*
X31130Y7787D01*
X31130Y7689D01*
Y7138D01*
X31545D01*
X31960D01*
Y7689D01*
X31960Y7787D01*
X32059Y7789D01*
X33323D01*
X33414Y7767D01*
X33414Y7689D01*
Y6209D01*
X33663D01*
X33668Y6165D01*
X33589Y6074D01*
X33385D01*
Y5540D01*
X33470D01*
Y5385D01*
X33345D01*
Y4851D01*
X33460D01*
Y4695D01*
X33470Y4644D01*
X33499Y4601D01*
X33927Y4173D01*
X33919Y4134D01*
X33937Y4044D01*
X33988Y3968D01*
X34064Y3917D01*
X34154Y3899D01*
X34243Y3917D01*
X34315Y3965D01*
X34372Y3950D01*
X34373Y3950D01*
X34413Y3928D01*
X34429Y3847D01*
X34480Y3771D01*
X34556Y3720D01*
X34646Y3702D01*
X34735Y3720D01*
X34811Y3771D01*
X34862Y3847D01*
X34880Y3937D01*
X34862Y4027D01*
X34811Y4103D01*
X34778Y4125D01*
Y4738D01*
X34891Y4851D01*
X35143D01*
X35235Y4831D01*
X35310Y4831D01*
X35352D01*
Y5118D01*
Y5405D01*
X35310D01*
X35235Y5405D01*
X35143Y5385D01*
X34723D01*
Y5058D01*
X34552Y4887D01*
X34523Y4844D01*
X34513Y4793D01*
Y4200D01*
X34483Y4172D01*
X34389Y4197D01*
X34372Y4215D01*
X34370Y4224D01*
X34319Y4300D01*
X34243Y4351D01*
X34154Y4368D01*
X34114Y4361D01*
X33787Y4688D01*
X33798Y4818D01*
X33825Y4838D01*
X33857Y4831D01*
X33932Y4831D01*
X33974D01*
Y5118D01*
Y5405D01*
X33932D01*
X33857Y5405D01*
X33835Y5400D01*
X33803Y5425D01*
X33818Y5539D01*
X33820Y5540D01*
X33896D01*
Y5540D01*
X33920Y5540D01*
X34332D01*
Y5675D01*
X36242D01*
X36251Y5661D01*
X36328Y5611D01*
X36417Y5593D01*
X36507Y5611D01*
X36583Y5661D01*
X36634Y5737D01*
X36652Y5827D01*
X36634Y5917D01*
X36583Y5993D01*
X36507Y6044D01*
X36417Y6062D01*
X36328Y6044D01*
X36251Y5993D01*
X36215Y5939D01*
X34332D01*
Y6074D01*
X34092D01*
X34067Y6109D01*
X34118Y6209D01*
X34204D01*
X34204Y7718D01*
X34242Y7774D01*
X34272Y7803D01*
X34285Y7812D01*
X34331Y7843D01*
X34539Y8050D01*
X34615Y8109D01*
X34840D01*
Y8563D01*
Y9017D01*
X34632D01*
Y9280D01*
X34693D01*
Y9764D01*
Y10248D01*
X34589D01*
X34576Y10268D01*
X31975Y12869D01*
Y13837D01*
X32008Y13887D01*
X32026Y13976D01*
X32008Y14066D01*
X31975Y14116D01*
Y14290D01*
X32058D01*
Y14690D01*
X32078Y14782D01*
X32078Y14817D01*
Y14870D01*
X31791D01*
X31504D01*
Y14817D01*
X31504Y14782D01*
X31524Y14690D01*
Y14290D01*
X31608D01*
Y14116D01*
X31575Y14066D01*
X31557Y13976D01*
X31575Y13887D01*
X31608Y13837D01*
Y12793D01*
X31622Y12722D01*
X31662Y12663D01*
X34004Y10320D01*
X33966Y10228D01*
X33794D01*
X33751Y10256D01*
X33661Y10274D01*
X33504D01*
X33503Y10275D01*
X33434Y10328D01*
X33354Y10361D01*
X33268Y10372D01*
X33182Y10361D01*
X33101Y10328D01*
X33032Y10275D01*
X33032Y10274D01*
X32913D01*
X32913Y10275D01*
X32844Y10328D01*
X32763Y10361D01*
X32677Y10372D01*
X32591Y10361D01*
X32511Y10328D01*
X32442Y10275D01*
X32422Y10248D01*
X31846D01*
X30701Y11393D01*
X30713Y11484D01*
X30700Y11587D01*
X30660Y11683D01*
X30597Y11766D01*
X30514Y11829D01*
X30418Y11869D01*
X30315Y11883D01*
X30212Y11869D01*
X30116Y11829D01*
X30044Y11774D01*
X29999Y11784D01*
X29944Y11814D01*
Y12125D01*
X29961Y12139D01*
X30044Y12169D01*
X30106Y12122D01*
X30165Y12097D01*
Y12484D01*
Y12871D01*
X30106Y12847D01*
X30044Y12800D01*
X29961Y12830D01*
X29944Y12844D01*
Y13069D01*
X30165D01*
Y13484D01*
Y13899D01*
X30048D01*
X30007Y13999D01*
X32551Y16543D01*
X32591Y16603D01*
X32605Y16673D01*
Y17415D01*
X32639Y17450D01*
X32715D01*
X32739Y17450D01*
X33151D01*
Y17558D01*
X34055D01*
X34116Y17571D01*
X34167Y17605D01*
X34748Y18186D01*
X34756Y18182D01*
X34843Y18171D01*
X34929Y18182D01*
X35009Y18216D01*
X35078Y18269D01*
X35131Y18338D01*
X35164Y18418D01*
X35175Y18504D01*
X35164Y18590D01*
X35131Y18670D01*
X35078Y18739D01*
X35009Y18792D01*
X34929Y18825D01*
X34843Y18837D01*
X34791Y18830D01*
X34788Y18833D01*
X34744Y18925D01*
X34776Y18967D01*
X34810Y19048D01*
X34821Y19134D01*
X34810Y19220D01*
X34776Y19300D01*
X34724Y19369D01*
X34655Y19422D01*
X34574Y19455D01*
X34488Y19467D01*
X34402Y19455D01*
X34322Y19422D01*
X34253Y19369D01*
X34200Y19300D01*
X34167Y19220D01*
X34155Y19134D01*
X34167Y19048D01*
X34170Y19039D01*
X33694Y18564D01*
X33151D01*
Y18673D01*
X32739D01*
X32715Y18673D01*
X32639D01*
X32615Y18673D01*
X32203D01*
Y18139D01*
X32238D01*
Y17984D01*
X32203D01*
Y17450D01*
X32238D01*
Y16749D01*
X29631Y14142D01*
X29591Y14083D01*
X29577Y14013D01*
Y12656D01*
X29541Y12627D01*
X29477Y12600D01*
X29417Y12625D01*
X29331Y12636D01*
X29245Y12625D01*
X29164Y12591D01*
X29095Y12539D01*
X29042Y12470D01*
X29009Y12389D01*
X28998Y12303D01*
X29009Y12217D01*
X29042Y12137D01*
X29095Y12068D01*
X29164Y12015D01*
X29188Y12005D01*
Y11673D01*
X29131Y11617D01*
X29131Y11617D01*
X29131Y11617D01*
X28529Y11014D01*
X28437Y11053D01*
Y11222D01*
X28300D01*
Y10984D01*
X28150D01*
Y10834D01*
X27863D01*
Y10746D01*
X27863Y10746D01*
X27863Y10746D01*
X27871Y10709D01*
X27863Y10692D01*
X27742Y10672D01*
X27728Y10686D01*
Y10766D01*
X27728Y10790D01*
Y11202D01*
X27644D01*
Y12532D01*
X28772Y13660D01*
X28784Y13678D01*
X28808Y13688D01*
X28877Y13741D01*
X28930Y13810D01*
X28963Y13890D01*
X28975Y13976D01*
X28963Y14063D01*
X28930Y14143D01*
X28877Y14212D01*
X28808Y14265D01*
X28728Y14298D01*
X28642Y14309D01*
X28556Y14298D01*
X28475Y14265D01*
X28406Y14212D01*
X28353Y14143D01*
X28320Y14063D01*
X28309Y13976D01*
X28320Y13890D01*
X28353Y13810D01*
X28375Y13782D01*
X27331Y12738D01*
X27291Y12679D01*
X27277Y12608D01*
Y11202D01*
X27194D01*
Y10790D01*
X27194Y10766D01*
Y10690D01*
X27194Y10666D01*
Y10255D01*
X27728D01*
Y10330D01*
X27883D01*
Y10255D01*
X28417D01*
Y10498D01*
X28960Y11041D01*
X29042Y10993D01*
X29009Y10913D01*
X28998Y10827D01*
X29009Y10741D01*
X29042Y10660D01*
X29095Y10591D01*
X29164Y10539D01*
X29245Y10505D01*
X29331Y10494D01*
X29417Y10505D01*
X29497Y10539D01*
X29566Y10591D01*
X29619Y10660D01*
X29652Y10741D01*
X29664Y10827D01*
X29655Y10892D01*
X29890Y11127D01*
X29925Y11179D01*
X29949Y11192D01*
X29974Y11200D01*
X30033Y11203D01*
X30116Y11139D01*
X30212Y11099D01*
X30315Y11086D01*
X30406Y11098D01*
X31612Y9892D01*
X31612Y9892D01*
X31680Y9846D01*
X31760Y9830D01*
X31760Y9830D01*
X32422D01*
X32442Y9804D01*
X32511Y9751D01*
X32591Y9718D01*
X32677Y9707D01*
X32763Y9718D01*
X32844Y9751D01*
X32913Y9804D01*
X32913Y9805D01*
X33032D01*
X33032Y9804D01*
X33101Y9751D01*
X33182Y9718D01*
X33268Y9707D01*
X33354Y9718D01*
X33434Y9751D01*
X33503Y9804D01*
X33592Y9777D01*
X33640Y9729D01*
Y9300D01*
X33724D01*
Y8997D01*
X33552D01*
Y8156D01*
X30938D01*
X30867Y8142D01*
X30808Y8102D01*
X29919Y7214D01*
X29668D01*
X29619Y7314D01*
X29619Y7314D01*
X29652Y7394D01*
X29664Y7480D01*
X29652Y7566D01*
X29619Y7647D01*
X29566Y7716D01*
X29497Y7769D01*
X29417Y7802D01*
X29331Y7813D01*
X29245Y7802D01*
X29164Y7769D01*
X29095Y7716D01*
X29075Y7689D01*
X28433D01*
X27808Y8314D01*
Y9002D01*
X27793Y9082D01*
X27747Y9149D01*
X27393Y9504D01*
Y9837D01*
X27377Y9917D01*
X27331Y9985D01*
X27200Y10117D01*
X27132Y10162D01*
X27052Y10178D01*
X27052Y10178D01*
X26719D01*
X26569Y10328D01*
Y11239D01*
X26553Y11319D01*
X26507Y11387D01*
X26507Y11387D01*
X26116Y11778D01*
X26120Y11811D01*
X26116Y11844D01*
X26821Y12549D01*
X26866Y12617D01*
X26882Y12697D01*
Y14567D01*
X26882Y14567D01*
X26866Y14647D01*
X26821Y14715D01*
X26654Y14882D01*
X26692Y14974D01*
X29646D01*
X29686Y14922D01*
X29755Y14869D01*
X29835Y14836D01*
X29921Y14825D01*
X30007Y14836D01*
X30088Y14869D01*
X30157Y14922D01*
X30210Y14991D01*
X30243Y15071D01*
X30254Y15157D01*
X30243Y15244D01*
X30210Y15324D01*
X30157Y15393D01*
X30088Y15446D01*
X30007Y15479D01*
X29921Y15490D01*
X29835Y15479D01*
X29755Y15446D01*
X29686Y15393D01*
X29646Y15341D01*
X26618D01*
X26396Y15563D01*
X26418Y15640D01*
X26434Y15663D01*
X28071D01*
X28111Y15611D01*
X28180Y15558D01*
X28260Y15525D01*
X28346Y15514D01*
X28433Y15525D01*
X28513Y15558D01*
X28582Y15611D01*
X28635Y15680D01*
X28668Y15760D01*
X28679Y15846D01*
X28668Y15933D01*
X28635Y16013D01*
X28582Y16082D01*
X28513Y16135D01*
X28433Y16168D01*
X28346Y16179D01*
X28314Y16175D01*
X28227Y16261D01*
Y16960D01*
X28327Y17010D01*
X28352Y16991D01*
X28444Y16953D01*
X28543Y16940D01*
X28643Y16953D01*
X28735Y16991D01*
X28814Y17052D01*
X28875Y17131D01*
X28914Y17224D01*
X28927Y17323D01*
X28916Y17400D01*
X28947Y17431D01*
X28947Y17431D01*
X28992Y17499D01*
X29008Y17579D01*
X29008Y17579D01*
Y18040D01*
X29017D01*
Y18510D01*
X29954D01*
X30235Y18229D01*
Y18040D01*
X30647D01*
X30671Y18040D01*
X30756Y18004D01*
Y17747D01*
X30709Y17706D01*
X30609Y17693D01*
X30517Y17655D01*
X30438Y17594D01*
X30377Y17514D01*
X30338Y17422D01*
X30325Y17323D01*
X30338Y17224D01*
X30377Y17131D01*
X30438Y17052D01*
X30517Y16991D01*
X30609Y16953D01*
X30709Y16940D01*
X30808Y16953D01*
X30900Y16991D01*
X30980Y17052D01*
X31041Y17131D01*
X31079Y17224D01*
X31092Y17323D01*
X31082Y17400D01*
X31112Y17431D01*
X31112Y17431D01*
X31158Y17499D01*
X31174Y17579D01*
X31174Y17579D01*
Y18040D01*
X31182D01*
Y18574D01*
X30771D01*
X30747Y18574D01*
X30671D01*
X30647Y18574D01*
X30481D01*
X30189Y18867D01*
X30121Y18912D01*
X30041Y18928D01*
X30041Y18928D01*
X28858D01*
X28827Y18994D01*
X28820Y19028D01*
X28875Y19100D01*
X28914Y19192D01*
X28927Y19291D01*
X28914Y19391D01*
X28875Y19483D01*
X28814Y19562D01*
X28735Y19623D01*
X28643Y19662D01*
X28543Y19675D01*
X28444Y19662D01*
X28352Y19623D01*
X28272Y19562D01*
X28211Y19483D01*
X28173Y19391D01*
X28160Y19291D01*
X28173Y19192D01*
X28211Y19100D01*
X28272Y19020D01*
X28352Y18959D01*
X28368Y18952D01*
X28378Y18936D01*
X28389Y18836D01*
X28140Y18586D01*
X28132Y18574D01*
X28070D01*
Y18040D01*
X28078D01*
Y17896D01*
X27871Y17688D01*
X27825Y17620D01*
X27809Y17540D01*
X27809Y17540D01*
Y16175D01*
X27809Y16175D01*
X27818Y16130D01*
X27757Y16030D01*
X25427D01*
X25356Y16016D01*
X25297Y15976D01*
X24172Y14851D01*
X24080Y14890D01*
Y15024D01*
X26107Y17052D01*
X26186Y16991D01*
X26279Y16953D01*
X26378Y16940D01*
X26477Y16953D01*
X26570Y16991D01*
X26649Y17052D01*
X26710Y17131D01*
X26748Y17224D01*
X26761Y17323D01*
X26748Y17422D01*
X26710Y17514D01*
X26649Y17594D01*
X26570Y17655D01*
X26477Y17693D01*
X26378Y17706D01*
X26279Y17693D01*
X26186Y17655D01*
X26107Y17594D01*
X26055Y17526D01*
X26003Y17516D01*
X25935Y17471D01*
X23723Y15259D01*
X23678Y15191D01*
X23662Y15111D01*
X23662Y15111D01*
Y14615D01*
X23645Y14604D01*
X23005Y13963D01*
X22905Y14005D01*
Y14296D01*
X22925Y14388D01*
X22925Y14388D01*
X22925Y14388D01*
Y14476D01*
X22638D01*
Y14776D01*
X22925D01*
Y14864D01*
X22596D01*
X22558Y14956D01*
X22680Y15077D01*
X22905D01*
Y15489D01*
X22905Y15513D01*
Y15589D01*
X22905Y15613D01*
Y16025D01*
X22821D01*
Y16437D01*
X22807Y16507D01*
X22768Y16567D01*
X22756Y16625D01*
X22705Y16701D01*
X22629Y16752D01*
X22539Y16770D01*
X22450Y16752D01*
X22374Y16701D01*
X22323Y16625D01*
X22305Y16535D01*
X22323Y16446D01*
X22374Y16370D01*
X22450Y16319D01*
X22454Y16318D01*
Y16025D01*
X22371D01*
Y15613D01*
X22371Y15589D01*
Y15513D01*
X22371Y15489D01*
Y15288D01*
X22072Y14989D01*
X22061Y14972D01*
X21961Y15003D01*
Y17613D01*
X22392Y18044D01*
X22437Y18111D01*
X22453Y18191D01*
X22453Y18191D01*
Y18818D01*
X22511D01*
Y18852D01*
X22764D01*
Y18818D01*
X23298D01*
Y19229D01*
X23299Y19253D01*
Y19329D01*
X23333Y19364D01*
X23766D01*
X23829Y19291D01*
X23842Y19192D01*
X23881Y19100D01*
X23942Y19020D01*
X24021Y18959D01*
X24113Y18921D01*
X24213Y18908D01*
X24312Y18921D01*
X24404Y18959D01*
X24484Y19020D01*
X24545Y19100D01*
X24548Y19108D01*
X26043D01*
X26046Y19100D01*
X26107Y19020D01*
X26186Y18959D01*
X26279Y18921D01*
X26378Y18908D01*
X26477Y18921D01*
X26570Y18959D01*
X26649Y19020D01*
X26710Y19100D01*
X26748Y19192D01*
X26761Y19291D01*
X26748Y19391D01*
X26710Y19483D01*
X26649Y19562D01*
X26570Y19623D01*
X26477Y19662D01*
X26378Y19675D01*
X26279Y19662D01*
X26186Y19623D01*
X26107Y19562D01*
X26046Y19483D01*
X26043Y19475D01*
X24548D01*
X24545Y19483D01*
X24484Y19562D01*
X24404Y19623D01*
X24312Y19662D01*
X24213Y19675D01*
X24113Y19662D01*
X24105Y19658D01*
X24086Y19677D01*
X24027Y19717D01*
X23957Y19731D01*
X23298D01*
Y19765D01*
X22764D01*
Y19353D01*
X22764Y19329D01*
Y19253D01*
X22730Y19219D01*
X22545D01*
X22511Y19253D01*
Y19329D01*
X22511Y19353D01*
Y19765D01*
X22428D01*
Y21430D01*
X22664D01*
Y22270D01*
X21824D01*
Y21430D01*
X22061D01*
Y19765D01*
X21977D01*
Y19353D01*
X21977Y19329D01*
Y19253D01*
X21977Y19229D01*
Y18818D01*
X22035D01*
Y18278D01*
X21604Y17847D01*
X21559Y17779D01*
X21543Y17699D01*
X21543Y17699D01*
Y14330D01*
X21517Y14310D01*
X21464Y14241D01*
X21430Y14161D01*
X21419Y14075D01*
X21430Y13989D01*
X21464Y13908D01*
X21464Y13908D01*
X21414Y13808D01*
X21302D01*
X21248Y13798D01*
X21242Y13797D01*
X21196Y13822D01*
X21148Y13859D01*
Y14428D01*
X21181Y14477D01*
X21199Y14567D01*
X21181Y14657D01*
X21130Y14733D01*
X21054Y14784D01*
X20965Y14801D01*
X20875Y14784D01*
X20799Y14733D01*
X20748Y14657D01*
X20730Y14567D01*
X20748Y14477D01*
X20781Y14428D01*
Y13287D01*
Y12705D01*
X20563Y12487D01*
X20157D01*
X20117Y12538D01*
X20048Y12591D01*
X19968Y12625D01*
X19882Y12636D01*
X19796Y12625D01*
X19715Y12591D01*
X19646Y12538D01*
X19626Y12512D01*
X19526Y12546D01*
Y15749D01*
X20638Y16862D01*
X20638Y16862D01*
X20689Y16938D01*
X20707Y17028D01*
Y19488D01*
X20689Y19578D01*
X20638Y19654D01*
X18530Y21762D01*
Y22270D01*
X17690D01*
Y21580D01*
X17591Y21579D01*
X17575Y21659D01*
X17530Y21727D01*
X17530Y21727D01*
X17518Y21738D01*
X17519Y21741D01*
X17534Y21850D01*
X17519Y21960D01*
X17477Y22062D01*
X17410Y22150D01*
X17322Y22217D01*
X17220Y22260D01*
X17110Y22274D01*
D02*
G37*
G36*
X39665Y19639D02*
X39562Y19625D01*
X39466Y19585D01*
X39384Y19522D01*
X39320Y19439D01*
X39281Y19343D01*
X39267Y19240D01*
X39281Y19137D01*
X39320Y19041D01*
X39384Y18958D01*
X39466Y18895D01*
X39562Y18855D01*
X39665Y18842D01*
X39768Y18855D01*
X39865Y18895D01*
X39947Y18958D01*
X40010Y19041D01*
X40050Y19137D01*
X40064Y19240D01*
X40050Y19343D01*
X40010Y19439D01*
X39947Y19522D01*
X39865Y19585D01*
X39768Y19625D01*
X39665Y19639D01*
D02*
G37*
G36*
Y18639D02*
X39562Y18625D01*
X39466Y18585D01*
X39384Y18522D01*
X39320Y18439D01*
X39281Y18343D01*
X39267Y18240D01*
X39281Y18137D01*
X39287Y18121D01*
X37294Y16128D01*
X37185D01*
X37145Y16180D01*
X37076Y16233D01*
X36996Y16266D01*
X36909Y16278D01*
X36823Y16266D01*
X36743Y16233D01*
X36674Y16180D01*
X36621Y16111D01*
X36588Y16031D01*
X36577Y15945D01*
X36588Y15859D01*
X36621Y15778D01*
X36674Y15710D01*
X36743Y15657D01*
X36823Y15623D01*
X36909Y15612D01*
X36996Y15623D01*
X37076Y15657D01*
X37145Y15710D01*
X37185Y15761D01*
X37370D01*
X37440Y15775D01*
X37500Y15815D01*
X39547Y17862D01*
X39562Y17855D01*
X39665Y17842D01*
X39768Y17855D01*
X39865Y17895D01*
X39947Y17958D01*
X40010Y18041D01*
X40050Y18137D01*
X40064Y18240D01*
X40050Y18343D01*
X40010Y18439D01*
X39947Y18522D01*
X39865Y18585D01*
X39768Y18625D01*
X39665Y18639D01*
D02*
G37*
G36*
X1969Y18100D02*
X1869Y18087D01*
X1777Y18048D01*
X1697Y17988D01*
X1637Y17908D01*
X1598Y17816D01*
X1585Y17717D01*
X1598Y17617D01*
X1637Y17525D01*
X1697Y17446D01*
X1777Y17385D01*
X1869Y17346D01*
X1969Y17333D01*
X2068Y17346D01*
X2160Y17385D01*
X2240Y17446D01*
X2300Y17525D01*
X2339Y17617D01*
X2352Y17717D01*
X2339Y17816D01*
X2300Y17908D01*
X2240Y17988D01*
X2160Y18048D01*
X2068Y18087D01*
X1969Y18100D01*
D02*
G37*
G36*
X24213Y17706D02*
X24113Y17693D01*
X24021Y17655D01*
X23942Y17594D01*
X23881Y17514D01*
X23842Y17422D01*
X23829Y17323D01*
X23842Y17224D01*
X23881Y17131D01*
X23942Y17052D01*
X24021Y16991D01*
X24113Y16953D01*
X24213Y16940D01*
X24312Y16953D01*
X24404Y16991D01*
X24484Y17052D01*
X24545Y17131D01*
X24583Y17224D01*
X24596Y17323D01*
X24583Y17422D01*
X24545Y17514D01*
X24484Y17594D01*
X24404Y17655D01*
X24312Y17693D01*
X24213Y17706D01*
D02*
G37*
G36*
X39665Y17639D02*
X39562Y17625D01*
X39466Y17585D01*
X39384Y17522D01*
X39320Y17439D01*
X39281Y17343D01*
X39267Y17240D01*
X39281Y17137D01*
X39320Y17041D01*
X39384Y16958D01*
X39466Y16895D01*
X39562Y16855D01*
X39665Y16842D01*
X39768Y16855D01*
X39865Y16895D01*
X39947Y16958D01*
X40010Y17041D01*
X40050Y17137D01*
X40064Y17240D01*
X40050Y17343D01*
X40010Y17439D01*
X39947Y17522D01*
X39865Y17585D01*
X39768Y17625D01*
X39665Y17639D01*
D02*
G37*
G36*
X40080Y16655D02*
X39815D01*
Y16390D01*
X40080D01*
Y16655D01*
D02*
G37*
G36*
X39515D02*
X39250D01*
Y16390D01*
X39515D01*
Y16655D01*
D02*
G37*
G36*
X40080Y16090D02*
X39815D01*
Y15825D01*
X40080D01*
Y16090D01*
D02*
G37*
G36*
X39515D02*
X39250D01*
Y15825D01*
X39515D01*
Y16090D01*
D02*
G37*
G36*
X32078Y15257D02*
X31941D01*
Y15170D01*
X32078D01*
Y15257D01*
D02*
G37*
G36*
X31641D02*
X31504D01*
Y15170D01*
X31641D01*
Y15257D01*
D02*
G37*
G36*
X5118Y15541D02*
X5019Y15528D01*
X4926Y15489D01*
X4847Y15429D01*
X4786Y15349D01*
X4748Y15257D01*
X4735Y15157D01*
X4748Y15058D01*
X4786Y14966D01*
X4847Y14886D01*
X4926Y14826D01*
X5019Y14787D01*
X5118Y14774D01*
X5217Y14787D01*
X5310Y14826D01*
X5389Y14886D01*
X5450Y14966D01*
X5488Y15058D01*
X5501Y15157D01*
X5488Y15257D01*
X5450Y15349D01*
X5389Y15429D01*
X5310Y15489D01*
X5217Y15528D01*
X5118Y15541D01*
D02*
G37*
G36*
X1969Y15242D02*
X1845Y15225D01*
X1730Y15178D01*
X1631Y15102D01*
X1555Y15003D01*
X1507Y14887D01*
X1491Y14764D01*
X1507Y14640D01*
X1555Y14525D01*
X1631Y14426D01*
X1730Y14350D01*
X1845Y14302D01*
X1969Y14286D01*
X2092Y14302D01*
X2207Y14350D01*
X2306Y14426D01*
X2382Y14525D01*
X2430Y14640D01*
X2446Y14764D01*
X2430Y14887D01*
X2382Y15003D01*
X2306Y15102D01*
X2207Y15178D01*
X2092Y15225D01*
X1969Y15242D01*
D02*
G37*
G36*
X35216Y13787D02*
Y13650D01*
X35333D01*
Y13787D01*
X35216D01*
D02*
G37*
G36*
X30730Y13899D02*
X30465D01*
Y13634D01*
X30730D01*
Y13899D01*
D02*
G37*
G36*
X41535Y14266D02*
X41426Y14252D01*
X41324Y14209D01*
X41236Y14142D01*
X41169Y14054D01*
X41157Y14026D01*
X37366D01*
X37296Y14012D01*
X37236Y13972D01*
X36386Y13122D01*
X36328Y13110D01*
X36251Y13060D01*
X36201Y12983D01*
X36183Y12894D01*
X36201Y12804D01*
X36251Y12728D01*
X36328Y12677D01*
X36417Y12659D01*
X36507Y12677D01*
X36583Y12728D01*
X36634Y12804D01*
X36646Y12862D01*
X37442Y13659D01*
X41157D01*
X41169Y13631D01*
X41236Y13543D01*
X41324Y13476D01*
X41426Y13433D01*
X41535Y13419D01*
X41645Y13433D01*
X41747Y13476D01*
X41835Y13543D01*
X41902Y13631D01*
X41945Y13733D01*
X41959Y13843D01*
X41945Y13952D01*
X41902Y14054D01*
X41835Y14142D01*
X41747Y14209D01*
X41645Y14252D01*
X41535Y14266D01*
D02*
G37*
G36*
X5268Y13560D02*
Y13339D01*
X5489D01*
X5468Y13391D01*
X5403Y13474D01*
X5320Y13538D01*
X5268Y13560D01*
D02*
G37*
G36*
X4968D02*
X4916Y13538D01*
X4833Y13474D01*
X4769Y13391D01*
X4747Y13339D01*
X4968D01*
Y13560D01*
D02*
G37*
G36*
X35333Y13350D02*
X35216D01*
Y13213D01*
X35333D01*
Y13350D01*
D02*
G37*
G36*
X33622Y13817D02*
X33532Y13799D01*
X33456Y13749D01*
X33405Y13672D01*
X33388Y13583D01*
X33405Y13493D01*
X33456Y13417D01*
X33532Y13366D01*
X33622Y13348D01*
X33712Y13366D01*
X33788Y13417D01*
X33810Y13450D01*
X34287D01*
Y13233D01*
X34707D01*
X34798Y13213D01*
X34873Y13213D01*
X34916D01*
Y13500D01*
Y13787D01*
X34873D01*
X34798Y13787D01*
X34707Y13767D01*
X34287D01*
Y13715D01*
X33810D01*
X33788Y13749D01*
X33712Y13799D01*
X33622Y13817D01*
D02*
G37*
G36*
X30730Y13334D02*
X30465D01*
Y13069D01*
X30730D01*
Y13334D01*
D02*
G37*
G36*
X5489Y13039D02*
X5268D01*
Y12818D01*
X5320Y12840D01*
X5403Y12904D01*
X5468Y12987D01*
X5489Y13039D01*
D02*
G37*
G36*
X4968D02*
X4747D01*
X4769Y12987D01*
X4833Y12904D01*
X4916Y12840D01*
X4968Y12818D01*
Y13039D01*
D02*
G37*
G36*
X30465Y12871D02*
Y12634D01*
X30702D01*
X30677Y12694D01*
X30611Y12780D01*
X30524Y12847D01*
X30465Y12871D01*
D02*
G37*
G36*
X35612Y12767D02*
X34993D01*
Y12433D01*
X35612D01*
Y12767D01*
D02*
G37*
G36*
X34693D02*
X34073D01*
Y12433D01*
X34693D01*
Y12767D01*
D02*
G37*
G36*
X41535Y13266D02*
X41426Y13252D01*
X41324Y13209D01*
X41236Y13142D01*
X41169Y13054D01*
X41126Y12952D01*
X41112Y12843D01*
X41126Y12733D01*
X41169Y12631D01*
X41236Y12543D01*
X41324Y12476D01*
X41426Y12433D01*
X41535Y12419D01*
X41645Y12433D01*
X41747Y12476D01*
X41835Y12543D01*
X41902Y12631D01*
X41945Y12733D01*
X41959Y12843D01*
X41945Y12952D01*
X41902Y13054D01*
X41835Y13142D01*
X41747Y13209D01*
X41645Y13252D01*
X41535Y13266D01*
D02*
G37*
G36*
X1969Y13273D02*
X1845Y13257D01*
X1730Y13209D01*
X1631Y13133D01*
X1555Y13034D01*
X1507Y12919D01*
X1491Y12795D01*
X1507Y12672D01*
X1555Y12556D01*
X1631Y12457D01*
X1730Y12382D01*
X1845Y12334D01*
X1969Y12317D01*
X2092Y12334D01*
X2207Y12382D01*
X2306Y12457D01*
X2382Y12556D01*
X2430Y12672D01*
X2446Y12795D01*
X2430Y12919D01*
X2382Y13034D01*
X2306Y13133D01*
X2207Y13209D01*
X2092Y13257D01*
X1969Y13273D01*
D02*
G37*
G36*
X30702Y12334D02*
X30465D01*
Y12097D01*
X30524Y12122D01*
X30611Y12188D01*
X30677Y12275D01*
X30702Y12334D01*
D02*
G37*
G36*
X35612Y12133D02*
X34993D01*
Y11800D01*
X35612D01*
Y12133D01*
D02*
G37*
G36*
X34693D02*
X34073D01*
Y11800D01*
X34693D01*
Y12133D01*
D02*
G37*
G36*
X41535Y12266D02*
X41426Y12252D01*
X41324Y12209D01*
X41236Y12142D01*
X41169Y12054D01*
X41126Y11952D01*
X41112Y11843D01*
X41126Y11733D01*
X41169Y11631D01*
X41236Y11543D01*
X41324Y11476D01*
X41426Y11433D01*
X41535Y11419D01*
X41645Y11433D01*
X41747Y11476D01*
X41835Y11543D01*
X41902Y11631D01*
X41945Y11733D01*
X41959Y11843D01*
X41945Y11952D01*
X41902Y12054D01*
X41835Y12142D01*
X41747Y12209D01*
X41645Y12252D01*
X41535Y12266D01*
D02*
G37*
G36*
X28000Y11222D02*
X27863D01*
Y11134D01*
X28000D01*
Y11222D01*
D02*
G37*
G36*
X5268Y10804D02*
Y10583D01*
X5489D01*
X5468Y10635D01*
X5403Y10718D01*
X5320Y10782D01*
X5268Y10804D01*
D02*
G37*
G36*
X4968Y10804D02*
X4916Y10782D01*
X4833Y10718D01*
X4769Y10635D01*
X4747Y10583D01*
X4968D01*
Y10804D01*
D02*
G37*
G36*
X38386Y12439D02*
X38296Y12421D01*
X38220Y12371D01*
X38169Y12294D01*
X38151Y12205D01*
X38169Y12115D01*
X38220Y12039D01*
X38296Y11988D01*
X38386Y11970D01*
X38395Y11972D01*
X39061Y11306D01*
X39113Y11271D01*
X39173Y11259D01*
X39895D01*
X40424Y10731D01*
X40475Y10697D01*
X40535Y10684D01*
X41146D01*
X41169Y10631D01*
X41236Y10543D01*
X41324Y10476D01*
X41426Y10433D01*
X41535Y10419D01*
X41645Y10433D01*
X41747Y10476D01*
X41835Y10543D01*
X41902Y10631D01*
X41945Y10733D01*
X41959Y10843D01*
X41945Y10952D01*
X41902Y11054D01*
X41835Y11142D01*
X41747Y11209D01*
X41645Y11252D01*
X41535Y11266D01*
X41426Y11252D01*
X41324Y11209D01*
X41236Y11142D01*
X41169Y11054D01*
X41146Y11001D01*
X40601D01*
X40072Y11529D01*
X40021Y11563D01*
X39961Y11575D01*
X39239D01*
X38619Y12196D01*
X38620Y12205D01*
X38602Y12294D01*
X38552Y12371D01*
X38476Y12421D01*
X38386Y12439D01*
D02*
G37*
G36*
X1969Y11305D02*
X1845Y11288D01*
X1730Y11241D01*
X1631Y11165D01*
X1555Y11066D01*
X1507Y10950D01*
X1491Y10827D01*
X1507Y10703D01*
X1555Y10588D01*
X1631Y10489D01*
X1730Y10413D01*
X1845Y10365D01*
X1969Y10349D01*
X2092Y10365D01*
X2207Y10413D01*
X2306Y10489D01*
X2382Y10588D01*
X2430Y10703D01*
X2446Y10827D01*
X2430Y10950D01*
X2382Y11066D01*
X2306Y11165D01*
X2207Y11241D01*
X2092Y11288D01*
X1969Y11305D01*
D02*
G37*
G36*
X30315Y10883D02*
X30212Y10869D01*
X30116Y10829D01*
X30033Y10766D01*
X29970Y10683D01*
X29930Y10587D01*
X29917Y10484D01*
X29930Y10381D01*
X29970Y10285D01*
X30033Y10203D01*
X30116Y10139D01*
X30212Y10099D01*
X30315Y10086D01*
X30418Y10099D01*
X30514Y10139D01*
X30597Y10203D01*
X30660Y10285D01*
X30700Y10381D01*
X30713Y10484D01*
X30700Y10587D01*
X30660Y10683D01*
X30597Y10766D01*
X30514Y10829D01*
X30418Y10869D01*
X30315Y10883D01*
D02*
G37*
G36*
X5489Y10283D02*
X5268D01*
Y10062D01*
X5320Y10084D01*
X5403Y10148D01*
X5468Y10231D01*
X5489Y10283D01*
D02*
G37*
G36*
X4968D02*
X4747D01*
X4769Y10231D01*
X4833Y10148D01*
X4916Y10084D01*
X4968Y10062D01*
Y10283D01*
D02*
G37*
G36*
X35159Y10248D02*
X34993D01*
Y9914D01*
X35159D01*
Y10248D01*
D02*
G37*
G36*
X16720Y10031D02*
X16632D01*
Y9894D01*
X16720D01*
Y10031D01*
D02*
G37*
G36*
X29421Y9844D02*
X29284D01*
Y9756D01*
X29421D01*
Y9844D01*
D02*
G37*
G36*
X28984D02*
X28847D01*
Y9756D01*
X28984D01*
Y9844D01*
D02*
G37*
G36*
X16720Y9594D02*
X16632D01*
Y9457D01*
X16720D01*
Y9594D01*
D02*
G37*
G36*
X37205Y12046D02*
X37115Y12028D01*
X37039Y11977D01*
X36988Y11901D01*
X36970Y11811D01*
X36988Y11721D01*
X37039Y11645D01*
X37115Y11594D01*
X37205Y11577D01*
X37214Y11578D01*
X39061Y9731D01*
X39113Y9697D01*
X39173Y9684D01*
X41115D01*
Y9423D01*
X41955D01*
Y10262D01*
X41115D01*
Y10001D01*
X39239D01*
X37437Y11802D01*
X37439Y11811D01*
X37421Y11901D01*
X37371Y11977D01*
X37294Y12028D01*
X37205Y12046D01*
D02*
G37*
G36*
X35159Y9614D02*
X34993D01*
Y9280D01*
X35159D01*
Y9614D01*
D02*
G37*
G36*
X29421Y9456D02*
X29134D01*
X28847D01*
Y9404D01*
X28847Y9369D01*
X28862Y9298D01*
X28833Y9242D01*
X28785Y9232D01*
X28715Y9245D01*
X28680Y9290D01*
X28611Y9343D01*
X28531Y9377D01*
X28445Y9388D01*
X28359Y9377D01*
X28278Y9343D01*
X28210Y9290D01*
X28157Y9222D01*
X28123Y9141D01*
X28112Y9055D01*
X28123Y8969D01*
X28157Y8889D01*
X28210Y8820D01*
X28278Y8767D01*
X28359Y8734D01*
X28445Y8722D01*
X28531Y8734D01*
X28611Y8767D01*
X28680Y8820D01*
X28733Y8889D01*
X28743Y8912D01*
X28867D01*
Y8877D01*
X29401D01*
Y9277D01*
X29421Y9369D01*
X29421Y9404D01*
Y9456D01*
D02*
G37*
G36*
X30315Y9883D02*
X30212Y9869D01*
X30116Y9829D01*
X30033Y9766D01*
X29970Y9683D01*
X29930Y9587D01*
X29917Y9484D01*
X29930Y9381D01*
X29970Y9285D01*
X30033Y9203D01*
X30116Y9139D01*
X30212Y9099D01*
X30315Y9086D01*
X30418Y9099D01*
X30514Y9139D01*
X30597Y9203D01*
X30660Y9285D01*
X30700Y9381D01*
X30713Y9484D01*
X30700Y9587D01*
X30660Y9683D01*
X30597Y9766D01*
X30514Y9829D01*
X30418Y9869D01*
X30315Y9883D01*
D02*
G37*
G36*
X35366Y9017D02*
X35140D01*
Y8713D01*
X35366D01*
Y9017D01*
D02*
G37*
G36*
X2442Y9332D02*
X1495D01*
Y8385D01*
X2442D01*
Y9332D01*
D02*
G37*
G36*
X36002Y8413D02*
X35884D01*
Y8276D01*
X36002D01*
Y8413D01*
D02*
G37*
G36*
X35366Y8413D02*
X35140D01*
Y8109D01*
X35366D01*
Y8413D01*
D02*
G37*
G36*
X30315Y8883D02*
X30212Y8869D01*
X30116Y8829D01*
X30033Y8766D01*
X29970Y8683D01*
X29930Y8587D01*
X29917Y8484D01*
X29930Y8381D01*
X29970Y8285D01*
X30033Y8203D01*
X30116Y8139D01*
X30212Y8099D01*
X30315Y8086D01*
X30418Y8099D01*
X30514Y8139D01*
X30597Y8203D01*
X30660Y8285D01*
X30700Y8381D01*
X30713Y8484D01*
X30700Y8587D01*
X30660Y8683D01*
X30597Y8766D01*
X30514Y8829D01*
X30418Y8869D01*
X30315Y8883D01*
D02*
G37*
G36*
X5118Y8848D02*
X5019Y8835D01*
X4926Y8796D01*
X4847Y8736D01*
X4786Y8656D01*
X4748Y8564D01*
X4735Y8465D01*
X4748Y8365D01*
X4786Y8273D01*
X4847Y8194D01*
X4926Y8133D01*
X5019Y8094D01*
X5118Y8081D01*
X5217Y8094D01*
X5310Y8133D01*
X5389Y8194D01*
X5450Y8273D01*
X5488Y8365D01*
X5501Y8465D01*
X5488Y8564D01*
X5450Y8656D01*
X5389Y8736D01*
X5310Y8796D01*
X5217Y8835D01*
X5118Y8848D01*
D02*
G37*
G36*
X41489Y7165D02*
Y6843D01*
X41811D01*
X41770Y6942D01*
X41691Y7045D01*
X41588Y7124D01*
X41489Y7165D01*
D02*
G37*
G36*
X41189Y7165D02*
X41090Y7124D01*
X40986Y7045D01*
X40907Y6942D01*
X40866Y6843D01*
X41189D01*
Y7165D01*
D02*
G37*
G36*
X37970Y6685D02*
X37853D01*
Y6548D01*
X37970D01*
Y6685D01*
D02*
G37*
G36*
X41811Y6543D02*
X41489D01*
Y6221D01*
X41588Y6262D01*
X41691Y6341D01*
X41770Y6444D01*
X41811Y6543D01*
D02*
G37*
G36*
X41189D02*
X40866D01*
X40907Y6444D01*
X40986Y6341D01*
X41090Y6262D01*
X41189Y6221D01*
Y6543D01*
D02*
G37*
G36*
X31960Y6838D02*
X31695D01*
Y6189D01*
X31960D01*
Y6838D01*
D02*
G37*
G36*
X31395D02*
X31130D01*
Y6189D01*
X31395D01*
Y6838D01*
D02*
G37*
G36*
X37970Y6248D02*
X37853D01*
Y6111D01*
X37970D01*
Y6248D01*
D02*
G37*
G36*
X37970Y5996D02*
X37853D01*
Y5859D01*
X37970D01*
Y5996D01*
D02*
G37*
G36*
X1969Y6289D02*
X1869Y6276D01*
X1777Y6237D01*
X1697Y6177D01*
X1637Y6097D01*
X1598Y6005D01*
X1585Y5906D01*
X1598Y5806D01*
X1637Y5714D01*
X1697Y5634D01*
X1777Y5574D01*
X1869Y5535D01*
X1969Y5522D01*
X2068Y5535D01*
X2160Y5574D01*
X2240Y5634D01*
X2300Y5714D01*
X2339Y5806D01*
X2352Y5906D01*
X2339Y6005D01*
X2300Y6097D01*
X2240Y6177D01*
X2160Y6237D01*
X2068Y6276D01*
X1969Y6289D01*
D02*
G37*
G36*
X37970Y5559D02*
X37853D01*
Y5422D01*
X37970D01*
Y5559D01*
D02*
G37*
G36*
X34274Y5405D02*
Y5268D01*
X34391D01*
Y5405D01*
X34274D01*
D02*
G37*
G36*
X35652D02*
Y5268D01*
X35769D01*
Y5405D01*
X35652D01*
D02*
G37*
G36*
X35769Y4968D02*
X35652D01*
Y4831D01*
X35769D01*
Y4968D01*
D02*
G37*
G36*
X34391D02*
X34274D01*
Y4831D01*
X34391D01*
Y4968D01*
D02*
G37*
G36*
X20669Y7223D02*
X20583Y7211D01*
X20503Y7178D01*
X20434Y7125D01*
X20381Y7056D01*
X20348Y6976D01*
X20336Y6890D01*
X20348Y6804D01*
X20381Y6723D01*
X20434Y6654D01*
X20503Y6602D01*
X20511Y6598D01*
Y5410D01*
X20503Y5406D01*
X20434Y5353D01*
X20381Y5285D01*
X20348Y5204D01*
X20336Y5118D01*
X20348Y5032D01*
X20381Y4952D01*
X20434Y4883D01*
X20503Y4830D01*
X20583Y4797D01*
X20669Y4785D01*
X20755Y4797D01*
X20836Y4830D01*
X20905Y4883D01*
X20958Y4952D01*
X20991Y5032D01*
X21002Y5118D01*
X20991Y5204D01*
X20958Y5285D01*
X20905Y5353D01*
X20836Y5406D01*
X20827Y5410D01*
Y6598D01*
X20836Y6602D01*
X20905Y6654D01*
X20958Y6723D01*
X20991Y6804D01*
X21002Y6890D01*
X20991Y6976D01*
X20958Y7056D01*
X20905Y7125D01*
X20836Y7178D01*
X20755Y7211D01*
X20669Y7223D01*
D02*
G37*
G36*
X2119Y4308D02*
Y4087D01*
X2339D01*
X2318Y4139D01*
X2254Y4222D01*
X2170Y4286D01*
X2119Y4308D01*
D02*
G37*
G36*
X1819D02*
X1767Y4286D01*
X1683Y4222D01*
X1619Y4139D01*
X1598Y4087D01*
X1819D01*
Y4308D01*
D02*
G37*
G36*
X27067Y6534D02*
X26977Y6516D01*
X26901Y6465D01*
X26850Y6389D01*
X26832Y6299D01*
X26850Y6209D01*
X26901Y6133D01*
X26977Y6083D01*
X27067Y6065D01*
X27106Y5975D01*
Y4499D01*
X27067Y4467D01*
X26977Y4449D01*
X26901Y4398D01*
X26850Y4322D01*
X26832Y4232D01*
X26850Y4143D01*
X26901Y4066D01*
X26977Y4016D01*
X27067Y3998D01*
X27157Y4016D01*
X27233Y4066D01*
X27262Y4111D01*
X27277Y4121D01*
X27376Y4219D01*
X27410Y4270D01*
X27422Y4331D01*
Y6102D01*
X27410Y6163D01*
X27376Y6214D01*
X27300Y6290D01*
X27301Y6299D01*
X27284Y6389D01*
X27233Y6465D01*
X27157Y6516D01*
X27067Y6534D01*
D02*
G37*
G36*
X2339Y3787D02*
X2119D01*
Y3566D01*
X2170Y3588D01*
X2254Y3652D01*
X2318Y3735D01*
X2339Y3787D01*
D02*
G37*
G36*
X1819D02*
X1598D01*
X1619Y3735D01*
X1683Y3652D01*
X1767Y3588D01*
X1819Y3566D01*
Y3787D01*
D02*
G37*
G36*
X36122Y3975D02*
X36032Y3957D01*
X35956Y3906D01*
X35905Y3830D01*
X35888Y3740D01*
X35905Y3650D01*
X35956Y3574D01*
X36032Y3523D01*
X36122Y3506D01*
X36212Y3523D01*
X36288Y3574D01*
X36310Y3608D01*
X36623D01*
X36645Y3574D01*
X36721Y3523D01*
X36811Y3506D01*
X36901Y3523D01*
X36977Y3574D01*
X37028Y3650D01*
X37046Y3740D01*
X37028Y3830D01*
X36977Y3906D01*
X36901Y3957D01*
X36811Y3975D01*
X36721Y3957D01*
X36645Y3906D01*
X36623Y3873D01*
X36310D01*
X36288Y3906D01*
X36212Y3957D01*
X36122Y3975D01*
D02*
G37*
G36*
X24409Y4565D02*
X24320Y4547D01*
X24244Y4497D01*
X24193Y4420D01*
X24175Y4331D01*
X24193Y4241D01*
X24244Y4165D01*
X24251Y4160D01*
Y3419D01*
X24244Y3414D01*
X24193Y3338D01*
X24175Y3248D01*
X24193Y3158D01*
X24244Y3082D01*
X24320Y3031D01*
X24409Y3014D01*
X24499Y3031D01*
X24575Y3082D01*
X24626Y3158D01*
X24644Y3248D01*
X24626Y3338D01*
X24575Y3414D01*
X24567Y3419D01*
Y4160D01*
X24575Y4165D01*
X24626Y4241D01*
X24644Y4331D01*
X24626Y4420D01*
X24575Y4497D01*
X24499Y4547D01*
X24409Y4565D01*
D02*
G37*
G36*
X37876Y3348D02*
X37138D01*
Y2906D01*
X37876D01*
Y3348D01*
D02*
G37*
G36*
X36838D02*
X36101D01*
Y2906D01*
X36838D01*
Y3348D01*
D02*
G37*
G36*
X37876Y2606D02*
X37138D01*
Y2164D01*
X37876D01*
Y2606D01*
D02*
G37*
G36*
X36838D02*
X36101D01*
Y2164D01*
X36838D01*
Y2606D01*
D02*
G37*
G36*
X41582Y2651D02*
X41562Y2649D01*
X41396Y2609D01*
X41239Y2544D01*
X41093Y2455D01*
X40963Y2344D01*
X40852Y2214D01*
X40763Y2069D01*
X40698Y1911D01*
X40658Y1745D01*
X40656Y1725D01*
X41582D01*
Y2651D01*
D02*
G37*
G36*
X1725D02*
Y1725D01*
X2651D01*
X2649Y1745D01*
X2609Y1911D01*
X2544Y2069D01*
X2455Y2214D01*
X2344Y2344D01*
X2214Y2455D01*
X2069Y2544D01*
X1911Y2609D01*
X1745Y2649D01*
X1725Y2651D01*
D02*
G37*
G36*
X36045Y10228D02*
X35452D01*
Y9300D01*
X35851D01*
X36208Y8942D01*
X36170Y8850D01*
X35884D01*
Y8713D01*
X36152D01*
Y8563D01*
X36302D01*
Y8276D01*
X36419D01*
Y8276D01*
X36436Y8296D01*
X36855D01*
X38366Y6785D01*
X38324Y6685D01*
X38270D01*
Y6398D01*
Y6111D01*
X38368D01*
X38378Y6106D01*
X38381Y6069D01*
X38374Y6062D01*
X38287Y5996D01*
X38270D01*
Y5709D01*
Y5422D01*
X38313D01*
X38387Y5422D01*
X38479Y5442D01*
X38899D01*
Y5525D01*
X40259D01*
X40865Y4919D01*
Y4630D01*
X39562Y3328D01*
X38522D01*
Y2184D01*
X38998D01*
X39037Y2091D01*
X38723Y1777D01*
X38664Y1766D01*
X38588Y1715D01*
X38537Y1639D01*
X38519Y1549D01*
X38537Y1459D01*
X38588Y1383D01*
X38664Y1332D01*
X38754Y1315D01*
X38844Y1332D01*
X38920Y1383D01*
X38970Y1459D01*
X38982Y1518D01*
X39520Y2055D01*
X39559Y2115D01*
X39573Y2184D01*
X40257D01*
Y3224D01*
X41284Y4251D01*
X41812D01*
Y5198D01*
X41105D01*
X40464Y5838D01*
X40405Y5878D01*
X40335Y5892D01*
X38899D01*
Y5976D01*
X38835D01*
Y6131D01*
X38899D01*
Y6665D01*
X38810D01*
Y6722D01*
X38798Y6783D01*
X38763Y6834D01*
X36930Y8667D01*
Y8830D01*
X36768D01*
X36045Y9553D01*
Y10228D01*
D02*
G37*
G36*
X14914Y1355D02*
Y1134D01*
X15135D01*
X15113Y1186D01*
X15049Y1270D01*
X14966Y1334D01*
X14914Y1355D01*
D02*
G37*
G36*
X14614D02*
X14562Y1334D01*
X14478Y1270D01*
X14414Y1186D01*
X14393Y1134D01*
X14614D01*
Y1355D01*
D02*
G37*
%LPD*%
G36*
X20195Y18994D02*
X20238Y18967D01*
Y17647D01*
X20195Y17620D01*
X20138Y17605D01*
X20074Y17655D01*
X19981Y17693D01*
X19882Y17706D01*
X19783Y17693D01*
X19690Y17655D01*
X19611Y17594D01*
X19550Y17514D01*
X19512Y17422D01*
X19499Y17323D01*
X19512Y17224D01*
X19550Y17131D01*
X19611Y17052D01*
X19690Y16991D01*
X19783Y16953D01*
X19882Y16940D01*
X19916Y16944D01*
X19963Y16849D01*
X19126Y16012D01*
X19075Y15936D01*
X19057Y15846D01*
Y11270D01*
X18992Y11230D01*
X18957Y11217D01*
X18885Y11247D01*
X18799Y11258D01*
X18713Y11247D01*
X18633Y11213D01*
X18564Y11161D01*
X18524Y11109D01*
X17028D01*
X16957Y11095D01*
X16898Y11055D01*
X16740Y10897D01*
X16701Y10838D01*
X16690Y10784D01*
X16683Y10770D01*
X16561Y10741D01*
X16525Y10770D01*
Y10827D01*
Y16634D01*
Y17520D01*
X16512Y17619D01*
X16474Y17711D01*
X16455Y17736D01*
X16504Y17836D01*
X18610D01*
X18680Y17850D01*
X18740Y17890D01*
X19775Y18924D01*
X19783Y18921D01*
X19882Y18908D01*
X19981Y18921D01*
X20074Y18959D01*
X20138Y19009D01*
X20195Y18994D01*
D02*
G37*
G36*
X34402Y18812D02*
X34488Y18801D01*
X34540Y18808D01*
X34543Y18805D01*
X34587Y18713D01*
X34554Y18670D01*
X34521Y18590D01*
X34510Y18504D01*
X34521Y18418D01*
X34524Y18409D01*
X33990Y17875D01*
X33151D01*
Y17984D01*
X32739D01*
X32715Y17984D01*
X32639D01*
X32614Y18008D01*
Y18114D01*
X32639Y18139D01*
X32715D01*
X32739Y18139D01*
X33151D01*
Y18247D01*
X33760D01*
X33820Y18260D01*
X33872Y18294D01*
X34394Y18816D01*
X34402Y18812D01*
D02*
G37*
G36*
X22403Y13690D02*
Y13301D01*
X22421Y13211D01*
X22429Y13200D01*
Y12511D01*
X22349Y12438D01*
X22343Y12439D01*
X22256Y12428D01*
X22176Y12395D01*
X22107Y12342D01*
X22054Y12273D01*
X22021Y12192D01*
X22010Y12106D01*
X22021Y12020D01*
X22054Y11940D01*
X21978Y11875D01*
X21148Y12705D01*
Y13211D01*
X21378Y13441D01*
X21938D01*
X22009Y13455D01*
X22068Y13495D01*
X22303Y13730D01*
X22403Y13690D01*
D02*
G37*
%LPC*%
G36*
X17717Y17706D02*
X17617Y17693D01*
X17525Y17655D01*
X17446Y17594D01*
X17385Y17514D01*
X17346Y17422D01*
X17333Y17323D01*
X17346Y17224D01*
X17385Y17131D01*
X17446Y17052D01*
X17525Y16991D01*
X17617Y16953D01*
X17717Y16940D01*
X17816Y16953D01*
X17908Y16991D01*
X17988Y17052D01*
X18048Y17131D01*
X18087Y17224D01*
X18100Y17323D01*
X18087Y17422D01*
X18048Y17514D01*
X17988Y17594D01*
X17908Y17655D01*
X17816Y17693D01*
X17717Y17706D01*
D02*
G37*
%LPD*%
D20*
X16870Y20669D02*
D03*
X17382D02*
D03*
X21004Y20374D02*
D03*
X21516D02*
D03*
X16870Y9744D02*
D03*
X17382D02*
D03*
X17382Y10433D02*
D03*
X16870D02*
D03*
X30965Y18307D02*
D03*
X30453D02*
D03*
X28799D02*
D03*
X28287D02*
D03*
X25531Y14173D02*
D03*
X26043D02*
D03*
X25531Y14961D02*
D03*
X26043D02*
D03*
X32933Y17717D02*
D03*
X32421D02*
D03*
X32933Y18406D02*
D03*
X32421D02*
D03*
X33602Y5807D02*
D03*
X34114D02*
D03*
D21*
X22244Y19035D02*
D03*
Y19547D02*
D03*
X23031Y19547D02*
D03*
Y19035D02*
D03*
X22638Y14626D02*
D03*
Y14114D02*
D03*
Y15295D02*
D03*
Y15807D02*
D03*
X31791Y15020D02*
D03*
Y14508D02*
D03*
X26181Y9114D02*
D03*
Y8602D02*
D03*
X27461Y10472D02*
D03*
Y10984D02*
D03*
X28150Y10984D02*
D03*
Y10472D02*
D03*
X29134Y9606D02*
D03*
Y9094D02*
D03*
D24*
X35502Y5118D02*
D03*
X34970D02*
D03*
X33593D02*
D03*
X34124D02*
D03*
X38652Y5709D02*
D03*
X38120D02*
D03*
X38652Y6398D02*
D03*
X38120D02*
D03*
X36683Y8563D02*
D03*
X36152D02*
D03*
X34534Y13500D02*
D03*
X35066D02*
D03*
D33*
X15846Y18504D02*
X16929D01*
X17717Y19291D01*
X15935Y18020D02*
X18610D01*
X15551Y17636D02*
X15935Y18020D01*
X22638Y15807D02*
Y16437D01*
X22539Y16535D02*
X22638Y16437D01*
X20965Y13287D02*
Y14567D01*
Y12629D02*
Y13287D01*
X21302Y13625D01*
X21938D01*
X22202Y13888D01*
Y14859D01*
X22638Y15295D01*
X16142Y10827D02*
X16535Y10433D01*
X16870D01*
X16142Y10827D02*
X16240D01*
X15551Y12500D02*
Y17636D01*
X27461Y10984D02*
Y12608D01*
X32421Y17717D02*
Y18406D01*
X38652Y5709D02*
X38652Y6398D01*
X38652Y5709D02*
X40335D01*
X41339Y4705D01*
X39390Y2185D02*
Y2756D01*
X38754Y1549D02*
X39390Y2185D01*
X37366Y13843D02*
X41535D01*
X36417Y12894D02*
X37366Y13843D01*
X25180Y14429D02*
X25311Y14560D01*
X25752D02*
X26043Y14269D01*
Y14173D02*
Y14269D01*
X25531Y14560D02*
Y14961D01*
X25311Y14560D02*
X25531D01*
X25752D01*
X25531Y14961D02*
Y15056D01*
X25427Y15846D02*
X28346D01*
X25531Y15056D02*
X25928Y15453D01*
X26247D01*
X27461Y12608D02*
X28642Y13789D01*
Y13976D01*
X14764Y2945D02*
Y2953D01*
X16349Y2945D02*
X17421Y4017D01*
Y5610D01*
X14764Y2945D02*
X16349D01*
X17382Y9843D02*
Y10433D01*
X22244Y19547D02*
Y21850D01*
Y19035D02*
X23031D01*
X23031Y19547D02*
X23957D01*
X24213Y19291D01*
X26378D01*
X24646Y14429D02*
X25180D01*
X24196Y14243D02*
Y14616D01*
X24803Y13304D02*
Y13635D01*
X24196Y14243D02*
X24803Y13635D01*
X24196Y14616D02*
X25427Y15846D01*
X24196Y12697D02*
X24803Y13304D01*
X29331Y10827D02*
X29761Y11257D01*
Y14013D01*
X31791Y13976D02*
Y14409D01*
Y12793D02*
Y13976D01*
X32421Y16673D02*
Y17717D01*
X29761Y14013D02*
X32421Y16673D01*
X26247Y15453D02*
X26542Y15157D01*
X29921D01*
X24269Y7030D02*
X29996D01*
X22835Y10532D02*
Y10759D01*
X20965Y12629D02*
X22835Y10759D01*
X34449Y8220D02*
Y9303D01*
X34446Y9305D02*
X34449Y9303D01*
X34446Y9305D02*
Y10138D01*
X31791Y12793D02*
X34446Y10138D01*
X29996Y7030D02*
X30938Y7972D01*
X34201D02*
X34449Y8220D01*
X30938Y7972D02*
X34201D01*
X33907Y8563D02*
Y9734D01*
X33937Y9764D01*
X36909Y15945D02*
X37370D01*
X39665Y18240D01*
X16870Y10433D02*
Y10768D01*
X17028Y10925D01*
X18799D01*
X18610Y18020D02*
X19882Y19291D01*
X20639Y12303D02*
X20965Y12629D01*
X19882Y12303D02*
X20639D01*
X17382Y10433D02*
X17913D01*
X22244Y9055D02*
X24269Y7030D01*
X15201Y11570D02*
Y17859D01*
X15846Y18504D01*
X15201Y11570D02*
X15354Y11417D01*
Y10659D02*
Y11417D01*
D34*
X28189Y10472D02*
X29232Y11516D01*
X28445Y9055D02*
X29094D01*
X29134Y9094D01*
X28150Y10472D02*
X28189D01*
X27461Y10472D02*
X28150D01*
X28150Y10472D01*
X25787Y10039D02*
Y10827D01*
X29232Y11516D02*
X29331Y11614D01*
Y12303D01*
X26181Y9114D02*
Y9744D01*
X25787Y10039D02*
X26083Y9744D01*
X26181D01*
D35*
X32480Y13189D02*
X36713Y17421D01*
X36122Y3740D02*
X36122Y3740D01*
X36811D01*
X35039Y15157D02*
X36909Y17028D01*
X35039Y14764D02*
Y15157D01*
X36713Y20965D02*
X37402Y21654D01*
X36909Y19291D02*
X37382Y19764D01*
X36713Y17421D02*
Y20965D01*
X36909Y17028D02*
Y19291D01*
X33622Y13583D02*
X34452D01*
X34534Y13500D01*
X33602Y5128D02*
Y5906D01*
X33593Y4695D02*
Y5118D01*
Y4695D02*
X34154Y4134D01*
X34646Y4793D02*
X34970Y5118D01*
X34646Y3937D02*
Y4793D01*
D36*
X22638Y5610D02*
Y5921D01*
X32677Y10039D02*
X33268D01*
X33661D02*
X33937Y9764D01*
X33268Y10039D02*
X33661D01*
X22638Y13301D02*
Y14114D01*
X18110Y21850D02*
X20472Y19488D01*
X19291Y9268D02*
X22638Y5921D01*
X19291Y9268D02*
Y15846D01*
X20472Y17028D01*
Y19488D01*
D39*
X32933Y17717D02*
X34055D01*
X34843Y18504D01*
X40535Y10843D02*
X41535D01*
X39961Y11417D02*
X40535Y10843D01*
X39173Y11417D02*
X39961D01*
X38386Y12205D02*
X39173Y11417D01*
Y9843D02*
X41535D01*
X37205Y11811D02*
X39173Y9843D01*
X27067Y6299D02*
X27264Y6102D01*
Y4331D02*
Y6102D01*
X27165Y4232D02*
X27264Y4331D01*
X27067Y4232D02*
X27165D01*
X24409Y3248D02*
Y4331D01*
X20669Y5118D02*
Y6890D01*
X35748Y9626D02*
Y9764D01*
Y9626D02*
X36683Y8691D01*
Y8563D02*
Y8691D01*
Y8563D02*
X36811D01*
X38652Y6722D02*
X38652Y6398D01*
X36811Y8563D02*
X38652Y6722D01*
X33760Y18406D02*
X34488Y19134D01*
X32933Y18406D02*
X33760D01*
D40*
X16142Y4331D02*
Y5315D01*
Y3445D02*
Y4331D01*
Y5315D02*
Y10827D01*
Y16634D01*
Y17520D01*
D41*
X21516Y20374D02*
Y21398D01*
X21244Y21669D02*
X21516Y21398D01*
X21244Y21669D02*
Y21850D01*
X21752Y14075D02*
Y17699D01*
X30315Y11484D02*
X31760Y10039D01*
X32677D01*
X26083Y17323D02*
X26378D01*
X21752Y17699D02*
X22244Y18191D01*
Y19035D01*
X25787Y11811D02*
X26360Y11239D01*
Y10241D02*
X26632Y9969D01*
X26360Y10241D02*
Y11239D01*
X26632Y9969D02*
X27052D01*
X27184Y9417D02*
X27599Y9002D01*
X27052Y9969D02*
X27184Y9837D01*
Y9417D02*
Y9837D01*
X25787Y11811D02*
X26673Y12697D01*
X26043Y14961D02*
X26280D01*
X26673Y14567D01*
Y12697D02*
Y14567D01*
X27599Y8227D02*
Y9002D01*
X30965Y17579D02*
Y18307D01*
X30709Y17323D02*
X30965Y17579D01*
X30041Y18719D02*
X30453Y18307D01*
X28568Y18719D02*
X30041D01*
X28287Y18438D02*
X28568Y18719D01*
X28287Y18307D02*
Y18438D01*
X28799Y17579D02*
Y18307D01*
X28543Y17323D02*
X28799Y17579D01*
X28287Y17809D02*
Y18307D01*
X28018Y17540D02*
X28287Y17809D01*
X28018Y16175D02*
Y17540D01*
Y16175D02*
X28346Y15846D01*
X29512Y20488D02*
X30709Y19291D01*
X29512Y20488D02*
Y21850D01*
X23871Y15111D02*
X26083Y17323D01*
X22638Y12402D02*
Y13301D01*
X23793Y14456D01*
X23806D01*
X23871Y14520D01*
Y15111D01*
X27599Y8227D02*
X28346Y7480D01*
X29331D01*
X25551Y8602D02*
X26181D01*
X25394Y8760D02*
X25551Y8602D01*
X22343Y12106D02*
X22638Y12402D01*
X17382Y20669D02*
Y21579D01*
X17110Y21850D02*
X17382Y21579D01*
D42*
X33809Y6112D02*
Y6988D01*
Y6112D02*
X34114Y5807D01*
X36397D01*
X36417Y5827D01*
D43*
X39390Y2756D02*
X41339Y4705D01*
D45*
X1969Y14764D02*
D03*
Y12795D02*
D03*
Y10827D02*
D03*
X41339Y6693D02*
D03*
D46*
X1969Y8858D02*
D03*
X41339Y4724D02*
D03*
D47*
X19882Y19291D02*
D03*
Y17323D02*
D03*
X17717Y19291D02*
D03*
Y17323D02*
D03*
X26378D02*
D03*
Y19291D02*
D03*
X24213D02*
D03*
Y17323D02*
D03*
X14764Y2953D02*
D03*
Y984D02*
D03*
X1969Y19685D02*
D03*
Y17717D02*
D03*
X5118Y15157D02*
D03*
Y13189D02*
D03*
Y10433D02*
D03*
Y8465D02*
D03*
X1969Y5906D02*
D03*
Y3937D02*
D03*
X30709Y17323D02*
D03*
Y19291D02*
D03*
X28543Y17323D02*
D03*
Y19291D02*
D03*
D48*
X39665Y20240D02*
D03*
Y21240D02*
D03*
Y19240D02*
D03*
Y17240D02*
D03*
Y18240D02*
D03*
X30315Y9484D02*
D03*
Y8484D02*
D03*
Y10484D02*
D03*
Y12484D02*
D03*
Y11484D02*
D03*
D49*
X39665Y16240D02*
D03*
X30315Y13484D02*
D03*
D50*
X41535Y13843D02*
D03*
Y12843D02*
D03*
Y11843D02*
D03*
Y10843D02*
D03*
X24378Y21850D02*
D03*
X25378D02*
D03*
X16110D02*
D03*
X17110D02*
D03*
X20244D02*
D03*
X21244D02*
D03*
X28512D02*
D03*
X29512D02*
D03*
D51*
X41535Y9843D02*
D03*
D52*
X26378Y21850D02*
D03*
X18110D02*
D03*
X22244D02*
D03*
X30512D02*
D03*
D53*
X1575Y22047D02*
D03*
Y1575D02*
D03*
X41732D02*
D03*
Y22047D02*
D03*
D54*
X33622Y13583D02*
D03*
X14272Y3740D02*
D03*
X15256D02*
D03*
X14764D02*
D03*
X11319Y5413D02*
D03*
Y5906D02*
D03*
Y6398D02*
D03*
Y6890D02*
D03*
X13091D02*
D03*
X13386Y7382D02*
D03*
X12894Y3445D02*
D03*
Y2953D02*
D03*
Y2461D02*
D03*
Y1969D02*
D03*
X11909Y787D02*
D03*
X12402D02*
D03*
X12894D02*
D03*
X13386D02*
D03*
X15748Y19587D02*
D03*
X12697Y10138D02*
D03*
X13287D02*
D03*
X13878D02*
D03*
Y10630D02*
D03*
X13287D02*
D03*
X12697D02*
D03*
Y13091D02*
D03*
X13287D02*
D03*
X13878D02*
D03*
Y13583D02*
D03*
X13287D02*
D03*
X12697D02*
D03*
X14665Y20866D02*
D03*
X14173D02*
D03*
X13681D02*
D03*
X14665Y21358D02*
D03*
X14173D02*
D03*
X13681D02*
D03*
Y21850D02*
D03*
X14173D02*
D03*
X14665D02*
D03*
X18110Y14764D02*
D03*
Y15256D02*
D03*
X17618Y13287D02*
D03*
X18110Y14272D02*
D03*
Y13780D02*
D03*
Y13287D02*
D03*
X22539Y16535D02*
D03*
X20965Y14567D02*
D03*
X15551Y12500D02*
D03*
X13878Y11220D02*
D03*
X13484D02*
D03*
X13091D02*
D03*
X12697D02*
D03*
Y11614D02*
D03*
X13091D02*
D03*
X13484D02*
D03*
X13878D02*
D03*
Y12008D02*
D03*
X13484D02*
D03*
X13091D02*
D03*
X12697D02*
D03*
X13878Y12402D02*
D03*
X13484D02*
D03*
X13091D02*
D03*
X12697D02*
D03*
X36417Y5827D02*
D03*
X32874Y12795D02*
D03*
X37402Y21654D02*
D03*
X34646Y3937D02*
D03*
X38754Y1549D02*
D03*
X38386Y12205D02*
D03*
X37205Y11811D02*
D03*
X36417Y12894D02*
D03*
X37382Y19764D02*
D03*
X32480Y13189D02*
D03*
X36811Y3740D02*
D03*
X36122Y3740D02*
D03*
X24409Y4331D02*
D03*
X27067Y6299D02*
D03*
Y4232D02*
D03*
X24409Y3248D02*
D03*
X19616Y1998D02*
D03*
Y5541D02*
D03*
X35039Y14764D02*
D03*
X34154Y4134D02*
D03*
X31791Y13976D02*
D03*
X22835Y10532D02*
D03*
X17618Y15256D02*
D03*
X18701Y10335D02*
D03*
Y9843D02*
D03*
X18406Y11417D02*
D03*
X15354Y10659D02*
D03*
X17913Y8661D02*
D03*
X17421D02*
D03*
X16929D02*
D03*
X18406D02*
D03*
D55*
X4626Y17884D02*
D03*
Y5738D02*
D03*
X21752Y14075D02*
D03*
X22638Y5610D02*
D03*
X16142Y3445D02*
D03*
Y5315D02*
D03*
Y4331D02*
D03*
Y17520D02*
D03*
Y16634D02*
D03*
X25787Y11811D02*
D03*
X34843Y18504D02*
D03*
X34488Y19134D02*
D03*
X32677Y10039D02*
D03*
X33268D02*
D03*
X33740Y709D02*
D03*
X35827Y2165D02*
D03*
X30709Y886D02*
D03*
X28346Y15846D02*
D03*
X28445Y9055D02*
D03*
X25787Y10827D02*
D03*
X29331D02*
D03*
X28642Y13976D02*
D03*
X20669Y6890D02*
D03*
Y5118D02*
D03*
X17421Y5610D02*
D03*
X22539Y17815D02*
D03*
X24213Y5118D02*
D03*
X24196Y12697D02*
D03*
X24646Y14429D02*
D03*
X24902Y12672D02*
D03*
X32776Y1280D02*
D03*
X29331Y12303D02*
D03*
X29147Y886D02*
D03*
X29921D02*
D03*
X30478Y3150D02*
D03*
X29921Y15157D02*
D03*
X29528Y6496D02*
D03*
X29331Y7480D02*
D03*
X26181Y9744D02*
D03*
X25394Y8760D02*
D03*
X36909Y15945D02*
D03*
X22343Y12106D02*
D03*
X18799Y10925D02*
D03*
X19882Y12303D02*
D03*
X17913Y10433D02*
D03*
X22244Y9055D02*
D03*
D56*
X33268Y2756D02*
D03*
D57*
X36988D02*
D03*
X39390D02*
D03*
D58*
X33809Y6988D02*
D03*
X31545D02*
D03*
D59*
X33907Y8563D02*
D03*
X34990D02*
D03*
D60*
X35748Y9764D02*
D03*
X34843D02*
D03*
X33937D02*
D03*
D61*
X34843Y12283D02*
D03*
M02*
