G04 Layer_Color=32896*
%FSLAX24Y24*%
%MOIN*%
G70*
G01*
G75*
%ADD35C,0.0100*%
%ADD42C,0.0098*%
%ADD66C,0.0079*%
D35*
X36614Y3543D02*
Y4724D01*
Y787D02*
Y1969D01*
X39764Y1181D02*
Y1969D01*
X39370Y787D02*
X39764Y1181D01*
X36614Y787D02*
X39370D01*
X36614Y4724D02*
X39370D01*
X39764Y4331D01*
Y3543D02*
Y4331D01*
X33168Y7974D02*
Y8368D01*
X32971D01*
X32905Y8302D01*
Y8171D01*
X32971Y8105D01*
X33168D01*
X33037D02*
X32905Y7974D01*
X32774D02*
X32643D01*
X32709D01*
Y8368D01*
X32774Y8302D01*
X32446D02*
X32381Y8368D01*
X32249D01*
X32184Y8302D01*
Y8040D01*
X32249Y7974D01*
X32381D01*
X32446Y8040D01*
Y8302D01*
X7023Y16901D02*
X7623D01*
Y16601D01*
X7523Y16501D01*
X7423D01*
X7323Y16601D01*
Y16901D01*
Y16601D01*
X7223Y16501D01*
X7123D01*
X7023Y16601D01*
Y16901D01*
X7623Y16302D02*
Y16102D01*
Y16202D01*
X7023D01*
Y16302D01*
X7223Y15802D02*
X7523D01*
X7623Y15702D01*
Y15402D01*
X7223D01*
X7623Y14902D02*
Y15102D01*
X7523Y15202D01*
X7323D01*
X7223Y15102D01*
Y14902D01*
X7323Y14802D01*
X7423D01*
Y15202D01*
X7123Y14502D02*
X7223D01*
Y14602D01*
Y14402D01*
Y14502D01*
X7523D01*
X7623Y14402D01*
Y14002D02*
Y13802D01*
X7523Y13702D01*
X7323D01*
X7223Y13802D01*
Y14002D01*
X7323Y14102D01*
X7523D01*
X7623Y14002D01*
Y13402D02*
Y13203D01*
X7523Y13103D01*
X7323D01*
X7223Y13203D01*
Y13402D01*
X7323Y13502D01*
X7523D01*
X7623Y13402D01*
X7123Y12803D02*
X7223D01*
Y12903D01*
Y12703D01*
Y12803D01*
X7523D01*
X7623Y12703D01*
X7023Y12403D02*
X7623D01*
X7323D01*
X7223Y12303D01*
Y12103D01*
X7323Y12003D01*
X7623D01*
X7023Y11203D02*
Y10803D01*
Y11003D01*
X7623D01*
Y10603D02*
X7023D01*
Y10303D01*
X7123Y10203D01*
X7323D01*
X7423Y10303D01*
Y10603D01*
X7623Y10004D02*
X7223D01*
X7023Y9804D01*
X7223Y9604D01*
X7623D01*
X7323D01*
Y10004D01*
X7123Y9404D02*
X7023Y9304D01*
Y9104D01*
X7123Y9004D01*
X7223D01*
X7323Y9104D01*
Y9204D01*
Y9104D01*
X7423Y9004D01*
X7523D01*
X7623Y9104D01*
Y9304D01*
X7523Y9404D01*
X7623Y8804D02*
Y8604D01*
Y8704D01*
X7023D01*
X7123Y8804D01*
X7623Y8304D02*
Y8104D01*
Y8204D01*
X7023D01*
X7123Y8304D01*
Y7804D02*
X7023Y7704D01*
Y7504D01*
X7123Y7404D01*
X7223D01*
X7323Y7504D01*
X7423Y7404D01*
X7523D01*
X7623Y7504D01*
Y7704D01*
X7523Y7804D01*
X7423D01*
X7323Y7704D01*
X7223Y7804D01*
X7123D01*
X7323Y7704D02*
Y7504D01*
X8583Y14502D02*
X8183D01*
X7983Y14302D01*
X8183Y14102D01*
X8583D01*
X8283D01*
Y14502D01*
X8583Y13902D02*
X8183D01*
Y13802D01*
X8283Y13702D01*
X8583D01*
X8283D01*
X8183Y13602D01*
X8283Y13502D01*
X8583D01*
X8783Y13303D02*
X8183D01*
Y13003D01*
X8283Y12903D01*
X8483D01*
X8583Y13003D01*
Y13303D01*
Y12703D02*
Y12503D01*
Y12603D01*
X7983D01*
Y12703D01*
X8583Y12203D02*
Y12003D01*
Y12103D01*
X8183D01*
Y12203D01*
X8583Y11603D02*
X8083D01*
X8283D01*
Y11703D01*
Y11503D01*
Y11603D01*
X8083D01*
X7983Y11503D01*
X8583Y11203D02*
Y11003D01*
Y11103D01*
X8183D01*
Y11203D01*
X8583Y10403D02*
Y10603D01*
X8483Y10703D01*
X8283D01*
X8183Y10603D01*
Y10403D01*
X8283Y10303D01*
X8383D01*
Y10703D01*
X8183Y10104D02*
X8583D01*
X8383D01*
X8283Y10004D01*
X8183Y9904D01*
Y9804D01*
X9143Y15702D02*
X9243D01*
X9443Y15502D01*
X9243Y15302D01*
X9143D01*
X9443Y15502D02*
X9743D01*
Y15102D02*
Y14902D01*
Y15002D01*
X9343D01*
Y15102D01*
X9743Y14502D02*
X9243D01*
X9443D01*
Y14602D01*
Y14402D01*
Y14502D01*
X9243D01*
X9143Y14402D01*
X9743Y13802D02*
Y14002D01*
X9643Y14102D01*
X9443D01*
X9343Y14002D01*
Y13802D01*
X9443Y13702D01*
X9543D01*
Y14102D01*
X9743Y13502D02*
Y13303D01*
Y13402D01*
X9343D01*
Y13502D01*
X9143Y12403D02*
X9743D01*
Y12003D01*
Y11803D02*
Y11603D01*
Y11703D01*
X9343D01*
Y11803D01*
X9743Y10303D02*
Y10703D01*
X9343Y10303D01*
X9243D01*
X9143Y10403D01*
Y10603D01*
X9243Y10703D01*
Y10104D02*
X9143Y10004D01*
Y9804D01*
X9243Y9704D01*
X9643D01*
X9743Y9804D01*
Y10004D01*
X9643Y10104D01*
X9243D01*
X9743Y9504D02*
Y9304D01*
Y9404D01*
X9143D01*
X9243Y9504D01*
X9143Y8604D02*
X9243Y8804D01*
X9443Y9004D01*
X9643D01*
X9743Y8904D01*
Y8704D01*
X9643Y8604D01*
X9543D01*
X9443Y8704D01*
Y9004D01*
X34838Y14228D02*
X34903Y14294D01*
X35034D01*
X35100Y14228D01*
Y13966D01*
X35034Y13900D01*
X34903D01*
X34838Y13966D01*
X34444Y13900D02*
X34706D01*
X34444Y14162D01*
Y14228D01*
X34510Y14294D01*
X34641D01*
X34706Y14228D01*
X36549Y8104D02*
X36614Y8169D01*
X36745D01*
X36811Y8104D01*
Y7841D01*
X36745Y7776D01*
X36614D01*
X36549Y7841D01*
X36221Y7776D02*
Y8169D01*
X36417Y7972D01*
X36155D01*
X38419Y7218D02*
X38484Y7283D01*
X38616D01*
X38681Y7218D01*
Y6955D01*
X38616Y6890D01*
X38484D01*
X38419Y6955D01*
X38025Y7283D02*
X38156Y7218D01*
X38288Y7087D01*
Y6955D01*
X38222Y6890D01*
X38091D01*
X38025Y6955D01*
Y7021D01*
X38091Y7087D01*
X38288D01*
X38419Y5249D02*
X38484Y5315D01*
X38616D01*
X38681Y5249D01*
Y4987D01*
X38616Y4921D01*
X38484D01*
X38419Y4987D01*
X38288Y5315D02*
X38025D01*
Y5249D01*
X38288Y4987D01*
Y4921D01*
X35722Y1484D02*
X35822Y1584D01*
X36022D01*
X36122Y1484D01*
Y1084D01*
X36022Y984D01*
X35822D01*
X35722Y1084D01*
X35522Y1484D02*
X35422Y1584D01*
X35222D01*
X35122Y1484D01*
Y1384D01*
X35222Y1284D01*
X35122Y1184D01*
Y1084D01*
X35222Y984D01*
X35422D01*
X35522Y1084D01*
Y1184D01*
X35422Y1284D01*
X35522Y1384D01*
Y1484D01*
X35422Y1284D02*
X35222D01*
X34974Y7907D02*
X35039Y7972D01*
X35171D01*
X35236Y7907D01*
Y7644D01*
X35171Y7579D01*
X35039D01*
X34974Y7644D01*
X34843D02*
X34777Y7579D01*
X34646D01*
X34580Y7644D01*
Y7907D01*
X34646Y7972D01*
X34777D01*
X34843Y7907D01*
Y7841D01*
X34777Y7776D01*
X34580D01*
X32907Y5249D02*
X32973Y5315D01*
X33104D01*
X33169Y5249D01*
Y4987D01*
X33104Y4921D01*
X32973D01*
X32907Y4987D01*
X32776Y4921D02*
X32645D01*
X32710D01*
Y5315D01*
X32776Y5249D01*
X32448D02*
X32382Y5315D01*
X32251D01*
X32185Y5249D01*
Y4987D01*
X32251Y4921D01*
X32382D01*
X32448Y4987D01*
Y5249D01*
X35368Y5840D02*
X35433Y5905D01*
X35564D01*
X35630Y5840D01*
Y5577D01*
X35564Y5512D01*
X35433D01*
X35368Y5577D01*
X35236Y5512D02*
X35105D01*
X35171D01*
Y5905D01*
X35236Y5840D01*
X34908Y5512D02*
X34777D01*
X34843D01*
Y5905D01*
X34908Y5840D01*
X33169Y5610D02*
Y6004D01*
X32973D01*
X32907Y5938D01*
Y5807D01*
X32973Y5741D01*
X33169D01*
X33038D02*
X32907Y5610D01*
X32776Y5938D02*
X32710Y6004D01*
X32579D01*
X32513Y5938D01*
Y5873D01*
X32579Y5807D01*
X32513Y5741D01*
Y5676D01*
X32579Y5610D01*
X32710D01*
X32776Y5676D01*
Y5741D01*
X32710Y5807D01*
X32776Y5873D01*
Y5938D01*
X32710Y5807D02*
X32579D01*
X29331Y8661D02*
X28931D01*
Y8461D01*
X28997Y8395D01*
X29131D01*
X29197Y8461D01*
Y8661D01*
Y8528D02*
X29331Y8395D01*
Y8262D02*
Y8128D01*
Y8195D01*
X28931D01*
X28997Y8262D01*
X29331Y7928D02*
Y7795D01*
Y7862D01*
X28931D01*
X28997Y7928D01*
X33071Y18799D02*
Y19149D01*
X32896D01*
X32838Y19091D01*
Y18974D01*
X32896Y18916D01*
X33071D01*
X32954D02*
X32838Y18799D01*
X32721D02*
X32604D01*
X32663D01*
Y19149D01*
X32721Y19091D01*
X32196Y18799D02*
X32429D01*
X32196Y19032D01*
Y19091D01*
X32254Y19149D01*
X32371D01*
X32429Y19091D01*
X33071Y16929D02*
Y17279D01*
X32896D01*
X32838Y17221D01*
Y17104D01*
X32896Y17046D01*
X33071D01*
X32954D02*
X32838Y16929D01*
X32721D02*
X32604D01*
X32663D01*
Y17279D01*
X32721Y17221D01*
X32429D02*
X32371Y17279D01*
X32254D01*
X32196Y17221D01*
Y17162D01*
X32254Y17104D01*
X32313D01*
X32254D01*
X32196Y17046D01*
Y16987D01*
X32254Y16929D01*
X32371D01*
X32429Y16987D01*
X27953Y11319D02*
X28353D01*
Y11519D01*
X28286Y11585D01*
X28153D01*
X28086Y11519D01*
Y11319D01*
Y11452D02*
X27953Y11585D01*
Y11719D02*
Y11852D01*
Y11785D01*
X28353D01*
X28286Y11719D01*
X27953Y12252D02*
X28353D01*
X28153Y12052D01*
Y12319D01*
X27264Y11319D02*
X27664D01*
Y11519D01*
X27597Y11585D01*
X27464D01*
X27397Y11519D01*
Y11319D01*
Y11452D02*
X27264Y11585D01*
Y11719D02*
Y11852D01*
Y11785D01*
X27664D01*
X27597Y11719D01*
Y12052D02*
X27664Y12119D01*
Y12252D01*
X27597Y12319D01*
X27530D01*
X27464Y12252D01*
X27397Y12319D01*
X27330D01*
X27264Y12252D01*
Y12119D01*
X27330Y12052D01*
X27397D01*
X27464Y12119D01*
X27530Y12052D01*
X27597D01*
X27464Y12119D02*
Y12252D01*
X27461Y14764D02*
Y15164D01*
X27261D01*
X27194Y15097D01*
Y14964D01*
X27261Y14897D01*
X27461D01*
X27327D02*
X27194Y14764D01*
X27061D02*
X26927D01*
X26994D01*
Y15164D01*
X27061Y15097D01*
X26728Y14830D02*
X26661Y14764D01*
X26528D01*
X26461Y14830D01*
Y15097D01*
X26528Y15164D01*
X26661D01*
X26728Y15097D01*
Y15030D01*
X26661Y14964D01*
X26461D01*
X27461Y13976D02*
Y14376D01*
X27261D01*
X27194Y14310D01*
Y14176D01*
X27261Y14110D01*
X27461D01*
X27327D02*
X27194Y13976D01*
X26794D02*
X27061D01*
X26794Y14243D01*
Y14310D01*
X26861Y14376D01*
X26994D01*
X27061Y14310D01*
X26661D02*
X26594Y14376D01*
X26461D01*
X26394Y14310D01*
Y14043D01*
X26461Y13976D01*
X26594D01*
X26661Y14043D01*
Y14310D01*
X27854Y18110D02*
Y18460D01*
X27679D01*
X27621Y18402D01*
Y18285D01*
X27679Y18227D01*
X27854D01*
X27738D02*
X27621Y18110D01*
X27271D02*
X27504D01*
X27271Y18343D01*
Y18402D01*
X27329Y18460D01*
X27446D01*
X27504Y18402D01*
X27155Y18110D02*
X27038D01*
X27096D01*
Y18460D01*
X27155Y18402D01*
X30100Y18100D02*
Y18450D01*
X29925D01*
X29867Y18392D01*
Y18275D01*
X29925Y18217D01*
X30100D01*
X29983D02*
X29867Y18100D01*
X29517D02*
X29750D01*
X29517Y18333D01*
Y18392D01*
X29575Y18450D01*
X29692D01*
X29750Y18392D01*
X29167Y18100D02*
X29400D01*
X29167Y18333D01*
Y18392D01*
X29225Y18450D01*
X29342D01*
X29400Y18392D01*
X27067Y9350D02*
X26667D01*
Y9150D01*
X26734Y9084D01*
X26867D01*
X26934Y9150D01*
Y9350D01*
Y9217D02*
X27067Y9084D01*
Y8684D02*
Y8951D01*
X26800Y8684D01*
X26734D01*
X26667Y8751D01*
Y8884D01*
X26734Y8951D01*
X27000Y8551D02*
X27067Y8484D01*
Y8351D01*
X27000Y8284D01*
X26734D01*
X26667Y8351D01*
Y8484D01*
X26734Y8551D01*
X26800D01*
X26867Y8484D01*
Y8284D01*
X31398Y15157D02*
X30998D01*
Y14958D01*
X31064Y14891D01*
X31198D01*
X31264Y14958D01*
Y15157D01*
Y15024D02*
X31398Y14891D01*
X31064Y14758D02*
X30998Y14691D01*
Y14558D01*
X31064Y14491D01*
X31131D01*
X31198Y14558D01*
Y14624D01*
Y14558D01*
X31264Y14491D01*
X31331D01*
X31398Y14558D01*
Y14691D01*
X31331Y14758D01*
X30998Y14358D02*
Y14091D01*
X31064D01*
X31331Y14358D01*
X31398D01*
X17520Y10827D02*
Y11227D01*
X17320D01*
X17253Y11160D01*
Y11027D01*
X17320Y10960D01*
X17520D01*
X17386D02*
X17253Y10827D01*
X16853Y11227D02*
X16987Y11160D01*
X17120Y11027D01*
Y10893D01*
X17053Y10827D01*
X16920D01*
X16853Y10893D01*
Y10960D01*
X16920Y11027D01*
X17120D01*
X16720Y10827D02*
X16587D01*
X16653D01*
Y11227D01*
X16720Y11160D01*
X17618Y8957D02*
Y9357D01*
X17418D01*
X17352Y9290D01*
Y9157D01*
X17418Y9090D01*
X17618D01*
X17485D02*
X17352Y8957D01*
X16952Y9357D02*
X17085Y9290D01*
X17218Y9157D01*
Y9023D01*
X17152Y8957D01*
X17018D01*
X16952Y9023D01*
Y9090D01*
X17018Y9157D01*
X17218D01*
X16552Y8957D02*
X16818D01*
X16552Y9223D01*
Y9290D01*
X16618Y9357D01*
X16752D01*
X16818Y9290D01*
X21850Y15059D02*
X22250D01*
Y15259D01*
X22184Y15326D01*
X22050D01*
X21984Y15259D01*
Y15059D01*
Y15192D02*
X21850Y15326D01*
X22250Y15726D02*
X22184Y15592D01*
X22050Y15459D01*
X21917D01*
X21850Y15526D01*
Y15659D01*
X21917Y15726D01*
X21984D01*
X22050Y15659D01*
Y15459D01*
X22184Y15859D02*
X22250Y15925D01*
Y16059D01*
X22184Y16125D01*
X22117D01*
X22050Y16059D01*
Y15992D01*
Y16059D01*
X21984Y16125D01*
X21917D01*
X21850Y16059D01*
Y15925D01*
X21917Y15859D01*
X20669Y20177D02*
Y20577D01*
X20469D01*
X20403Y20510D01*
Y20377D01*
X20469Y20310D01*
X20669D01*
X20536D02*
X20403Y20177D01*
X20003Y20577D02*
X20136Y20510D01*
X20269Y20377D01*
Y20244D01*
X20203Y20177D01*
X20069D01*
X20003Y20244D01*
Y20310D01*
X20069Y20377D01*
X20269D01*
X19603Y20577D02*
X19870D01*
Y20377D01*
X19736Y20444D01*
X19670D01*
X19603Y20377D01*
Y20244D01*
X19670Y20177D01*
X19803D01*
X19870Y20244D01*
X17618Y19882D02*
Y20282D01*
X17418D01*
X17352Y20215D01*
Y20082D01*
X17418Y20015D01*
X17618D01*
X17485D02*
X17352Y19882D01*
X16952Y20282D02*
X17085Y20215D01*
X17218Y20082D01*
Y19949D01*
X17152Y19882D01*
X17018D01*
X16952Y19949D01*
Y20015D01*
X17018Y20082D01*
X17218D01*
X16552Y20282D02*
X16685Y20215D01*
X16818Y20082D01*
Y19949D01*
X16752Y19882D01*
X16618D01*
X16552Y19949D01*
Y20015D01*
X16618Y20082D01*
X16818D01*
X23031Y13878D02*
X23431D01*
Y14078D01*
X23365Y14145D01*
X23231D01*
X23165Y14078D01*
Y13878D01*
Y14011D02*
X23031Y14145D01*
X23431Y14278D02*
Y14544D01*
X23365D01*
X23098Y14278D01*
X23031D01*
X23365Y14678D02*
X23431Y14744D01*
Y14878D01*
X23365Y14944D01*
X23098D01*
X23031Y14878D01*
Y14744D01*
X23098Y14678D01*
X23365D01*
X22835Y19980D02*
X23235D01*
Y20180D01*
X23168Y20247D01*
X23035D01*
X22968Y20180D01*
Y19980D01*
Y20114D02*
X22835Y20247D01*
X23235Y20380D02*
Y20647D01*
X23168D01*
X22901Y20380D01*
X22835D01*
Y20780D02*
Y20913D01*
Y20847D01*
X23235D01*
X23168Y20780D01*
X21300Y18800D02*
X21700D01*
Y19000D01*
X21633Y19067D01*
X21500D01*
X21433Y19000D01*
Y18800D01*
Y18933D02*
X21300Y19067D01*
X21700Y19200D02*
Y19466D01*
X21633D01*
X21367Y19200D01*
X21300D01*
Y19866D02*
Y19600D01*
X21567Y19866D01*
X21633D01*
X21700Y19800D01*
Y19666D01*
X21633Y19600D01*
X36811Y12608D02*
Y12108D01*
X36711Y12008D01*
X36511D01*
X36411Y12108D01*
Y12608D01*
X36211Y12508D02*
X36111Y12608D01*
X35911D01*
X35811Y12508D01*
Y12408D01*
X35911Y12308D01*
X36011D01*
X35911D01*
X35811Y12208D01*
Y12108D01*
X35911Y12008D01*
X36111D01*
X36211Y12108D01*
D42*
X35797Y9163D02*
G03*
X35797Y9163I-49J0D01*
G01*
D66*
X32008Y7648D02*
X33346D01*
X32008Y6329D02*
X33346D01*
X34331Y8248D02*
X34567D01*
X34331Y8878D02*
X34567D01*
X33524Y11742D02*
X36161D01*
X33524Y10305D02*
Y11742D01*
Y10305D02*
X36161D01*
Y10305D02*
Y11742D01*
M02*
