M48
;Layer_Color=9474304
;FILE_FORMAT=2:4
INCH
;TYPE=PLATED
T1F00S00C0.0150
T2F00S00C0.0200
T3F00S00C0.0250
T4F00S00C0.0270
T5F00S00C0.0280
T6F00S00C0.0300
T7F00S00C0.0335
T8F00S00C0.0400
T9F00S00C0.0512
T10F00S00C0.1181
%
T01
X021909Y010787
X022402
X022894
X023386
X022894Y011968
Y012461
Y012953
Y013445
X024272Y013740
X024764
X025256
X021319Y015413
X029616Y015541
Y011998
X034409Y013248
Y014331
X037067Y014232
X044154Y014134
X044646Y013937
X046122Y013740
X046811Y013740
X048754Y011549
X048386Y022205
X047205Y021811
X047382Y029764
X045039Y024764
X043622Y023583
X042874Y022795
X042480Y023189
X041791Y023976
X046417Y022894
Y015827
X037067Y016299
X032835Y020531
X032539Y026535
X030965Y024567
X028110Y024764
Y025256
X027618
X028110Y024272
Y023780
Y023287
X027618
X028406Y021417
X028701Y020335
Y019843
X028406Y018661
X027913
X027421
X026929
X025354Y020659
X023878Y020630
Y020138
X023287
Y020630
X022697
Y020138
Y021220
X023091
X023484
X023878
Y021614
X023484
X023091
X022697
Y022008
X023091
X023484
X023878
Y022402
X023484
X023091
X022697
Y023091
Y023583
X023287
Y023091
X023878
Y023583
X025551Y022500
X023386Y017382
X023091Y016890
X021319
Y016398
Y015906
X023681Y030866
X024173
X024665
X025748Y029587
X024665Y031358
X024173
X023681
Y031850
X024173
X024665
X047402Y031654
T02
X043268Y012756
T03
X026142Y013445
Y014331
Y015315
X027421Y015610
X030669Y015118
X032638Y015610
X034213Y015118
X040478Y013150
X039147Y010886
X039331Y017480
X038445Y019055
X039331Y020827
Y022303
X038642Y023976
X038346Y025846
X039921Y025157
X034646Y024429
X034902Y022672
X034196Y022697
X032343Y022106
X031752Y024075
X032539Y027815
X032244Y019055
X035394Y018760
X036181Y019744
X035787Y020827
Y021811
X043268Y020039
X044843Y028504
X044488Y029134
X026142Y027520
Y026634
X027913Y020433
X028799Y020925
X029882Y022303
X030669Y016890
X014626Y015738
Y027884
T04
X042776Y011280
X043740Y010709
X045827Y012165
X039528Y016496
T05
X039921Y010886
X040709
X042677Y020039
T06
X011968Y013937
X024764Y012953
Y010984
X046909Y025945
X040709Y027323
Y029291
X038543
Y027323
X036378
Y029291
X034213
Y027323
X029882
Y029291
X027717
Y027323
X015118Y025157
Y023189
Y020433
Y018465
X011968Y015906
Y027717
Y029685
T07
X049665Y026240
Y027240
Y028240
Y029240
Y030240
Y031240
X040315Y023484
Y022484
Y021484
Y020484
Y019484
Y018484
T08
X051535Y019843
Y020843
Y021843
Y022843
Y023843
X031244Y031850
X030244
X028110
X027110
X026110
X032244
X034378
X035378
X036378
X038512
X039512
X040512
T09
X051339Y014724
Y016693
X011968Y018858
Y020827
Y022795
Y024764
T10
X011575Y011575
X051732
X011575Y032047
X051732
M30
